G04 #@! TF.GenerationSoftware,KiCad,Pcbnew,5.1.8+dfsg1-1~bpo10+1*
G04 #@! TF.CreationDate,2020-11-10T16:56:22+03:00*
G04 #@! TF.ProjectId,cs,63732e6b-6963-4616-945f-706362585858,rev?*
G04 #@! TF.SameCoordinates,Original*
G04 #@! TF.FileFunction,Copper,L1,Top*
G04 #@! TF.FilePolarity,Positive*
%FSLAX46Y46*%
G04 Gerber Fmt 4.6, Leading zero omitted, Abs format (unit mm)*
G04 Created by KiCad (PCBNEW 5.1.8+dfsg1-1~bpo10+1) date 2020-11-10 16:56:22*
%MOMM*%
%LPD*%
G01*
G04 APERTURE LIST*
G04 #@! TA.AperFunction,SMDPad,CuDef*
%ADD10R,1.060000X0.650000*%
G04 #@! TD*
G04 #@! TA.AperFunction,SMDPad,CuDef*
%ADD11R,0.250000X1.300000*%
G04 #@! TD*
G04 #@! TA.AperFunction,SMDPad,CuDef*
%ADD12R,1.300000X0.250000*%
G04 #@! TD*
G04 #@! TA.AperFunction,SMDPad,CuDef*
%ADD13C,1.524000*%
G04 #@! TD*
G04 #@! TA.AperFunction,ViaPad*
%ADD14C,0.800000*%
G04 #@! TD*
G04 #@! TA.AperFunction,ViaPad*
%ADD15C,1.000000*%
G04 #@! TD*
G04 #@! TA.AperFunction,Conductor*
%ADD16C,0.300000*%
G04 #@! TD*
G04 #@! TA.AperFunction,Conductor*
%ADD17C,0.500000*%
G04 #@! TD*
G04 #@! TA.AperFunction,Conductor*
%ADD18C,0.400000*%
G04 #@! TD*
G04 #@! TA.AperFunction,Conductor*
%ADD19C,0.250000*%
G04 #@! TD*
G04 #@! TA.AperFunction,Conductor*
%ADD20C,0.254000*%
G04 #@! TD*
G04 #@! TA.AperFunction,Conductor*
%ADD21C,0.100000*%
G04 #@! TD*
G04 APERTURE END LIST*
G04 #@! TA.AperFunction,SMDPad,CuDef*
G36*
G01*
X214180240Y-20229510D02*
X214180240Y-21142010D01*
G75*
G02*
X213936490Y-21385760I-243750J0D01*
G01*
X213448990Y-21385760D01*
G75*
G02*
X213205240Y-21142010I0J243750D01*
G01*
X213205240Y-20229510D01*
G75*
G02*
X213448990Y-19985760I243750J0D01*
G01*
X213936490Y-19985760D01*
G75*
G02*
X214180240Y-20229510I0J-243750D01*
G01*
G37*
G04 #@! TD.AperFunction*
G04 #@! TA.AperFunction,SMDPad,CuDef*
G36*
G01*
X212305240Y-20229510D02*
X212305240Y-21142010D01*
G75*
G02*
X212061490Y-21385760I-243750J0D01*
G01*
X211573990Y-21385760D01*
G75*
G02*
X211330240Y-21142010I0J243750D01*
G01*
X211330240Y-20229510D01*
G75*
G02*
X211573990Y-19985760I243750J0D01*
G01*
X212061490Y-19985760D01*
G75*
G02*
X212305240Y-20229510I0J-243750D01*
G01*
G37*
G04 #@! TD.AperFunction*
G04 #@! TA.AperFunction,SMDPad,CuDef*
G36*
G01*
X217581300Y-19812950D02*
X217581300Y-20725450D01*
G75*
G02*
X217337550Y-20969200I-243750J0D01*
G01*
X216850050Y-20969200D01*
G75*
G02*
X216606300Y-20725450I0J243750D01*
G01*
X216606300Y-19812950D01*
G75*
G02*
X216850050Y-19569200I243750J0D01*
G01*
X217337550Y-19569200D01*
G75*
G02*
X217581300Y-19812950I0J-243750D01*
G01*
G37*
G04 #@! TD.AperFunction*
G04 #@! TA.AperFunction,SMDPad,CuDef*
G36*
G01*
X215706300Y-19812950D02*
X215706300Y-20725450D01*
G75*
G02*
X215462550Y-20969200I-243750J0D01*
G01*
X214975050Y-20969200D01*
G75*
G02*
X214731300Y-20725450I0J243750D01*
G01*
X214731300Y-19812950D01*
G75*
G02*
X214975050Y-19569200I243750J0D01*
G01*
X215462550Y-19569200D01*
G75*
G02*
X215706300Y-19812950I0J-243750D01*
G01*
G37*
G04 #@! TD.AperFunction*
D10*
X213428940Y-23990300D03*
X213428940Y-23040300D03*
X213428940Y-22090300D03*
X211228940Y-22090300D03*
X211228940Y-23990300D03*
D11*
X227336800Y-25317200D03*
X226836800Y-25317200D03*
X226336800Y-25317200D03*
X225836800Y-25317200D03*
X225336800Y-25317200D03*
X224836800Y-25317200D03*
X224336800Y-25317200D03*
X223836800Y-25317200D03*
X223336800Y-25317200D03*
X222836800Y-25317200D03*
X222336800Y-25317200D03*
X221836800Y-25317200D03*
D12*
X220236800Y-26917200D03*
X220236800Y-27417200D03*
X220236800Y-27917200D03*
X220236800Y-28417200D03*
X220236800Y-28917200D03*
X220236800Y-29417200D03*
X220236800Y-29917200D03*
X220236800Y-30417200D03*
X220236800Y-30917200D03*
X220236800Y-31417200D03*
X220236800Y-31917200D03*
X220236800Y-32417200D03*
D11*
X221836800Y-34017200D03*
X222336800Y-34017200D03*
X222836800Y-34017200D03*
X223336800Y-34017200D03*
X223836800Y-34017200D03*
X224336800Y-34017200D03*
X224836800Y-34017200D03*
X225336800Y-34017200D03*
X225836800Y-34017200D03*
X226336800Y-34017200D03*
X226836800Y-34017200D03*
X227336800Y-34017200D03*
D12*
X228936800Y-32417200D03*
X228936800Y-31917200D03*
X228936800Y-31417200D03*
X228936800Y-30917200D03*
X228936800Y-30417200D03*
X228936800Y-29917200D03*
X228936800Y-29417200D03*
X228936800Y-28917200D03*
X228936800Y-28417200D03*
X228936800Y-27917200D03*
X228936800Y-27417200D03*
X228936800Y-26917200D03*
G04 #@! TA.AperFunction,SMDPad,CuDef*
G36*
G01*
X214617480Y-34908810D02*
X214617480Y-33996310D01*
G75*
G02*
X214861230Y-33752560I243750J0D01*
G01*
X215348730Y-33752560D01*
G75*
G02*
X215592480Y-33996310I0J-243750D01*
G01*
X215592480Y-34908810D01*
G75*
G02*
X215348730Y-35152560I-243750J0D01*
G01*
X214861230Y-35152560D01*
G75*
G02*
X214617480Y-34908810I0J243750D01*
G01*
G37*
G04 #@! TD.AperFunction*
G04 #@! TA.AperFunction,SMDPad,CuDef*
G36*
G01*
X212742480Y-34908810D02*
X212742480Y-33996310D01*
G75*
G02*
X212986230Y-33752560I243750J0D01*
G01*
X213473730Y-33752560D01*
G75*
G02*
X213717480Y-33996310I0J-243750D01*
G01*
X213717480Y-34908810D01*
G75*
G02*
X213473730Y-35152560I-243750J0D01*
G01*
X212986230Y-35152560D01*
G75*
G02*
X212742480Y-34908810I0J243750D01*
G01*
G37*
G04 #@! TD.AperFunction*
D13*
X231104440Y-32405320D03*
X227076000Y-37185600D03*
G04 #@! TA.AperFunction,SMDPad,CuDef*
G36*
G01*
X212897900Y-27715530D02*
X212897900Y-26803030D01*
G75*
G02*
X213141650Y-26559280I243750J0D01*
G01*
X213629150Y-26559280D01*
G75*
G02*
X213872900Y-26803030I0J-243750D01*
G01*
X213872900Y-27715530D01*
G75*
G02*
X213629150Y-27959280I-243750J0D01*
G01*
X213141650Y-27959280D01*
G75*
G02*
X212897900Y-27715530I0J243750D01*
G01*
G37*
G04 #@! TD.AperFunction*
G04 #@! TA.AperFunction,SMDPad,CuDef*
G36*
G01*
X211022900Y-27715530D02*
X211022900Y-26803030D01*
G75*
G02*
X211266650Y-26559280I243750J0D01*
G01*
X211754150Y-26559280D01*
G75*
G02*
X211997900Y-26803030I0J-243750D01*
G01*
X211997900Y-27715530D01*
G75*
G02*
X211754150Y-27959280I-243750J0D01*
G01*
X211266650Y-27959280D01*
G75*
G02*
X211022900Y-27715530I0J243750D01*
G01*
G37*
G04 #@! TD.AperFunction*
G04 #@! TA.AperFunction,SMDPad,CuDef*
G36*
G01*
X224404100Y-23011450D02*
X224404100Y-22098950D01*
G75*
G02*
X224647850Y-21855200I243750J0D01*
G01*
X225135350Y-21855200D01*
G75*
G02*
X225379100Y-22098950I0J-243750D01*
G01*
X225379100Y-23011450D01*
G75*
G02*
X225135350Y-23255200I-243750J0D01*
G01*
X224647850Y-23255200D01*
G75*
G02*
X224404100Y-23011450I0J243750D01*
G01*
G37*
G04 #@! TD.AperFunction*
G04 #@! TA.AperFunction,SMDPad,CuDef*
G36*
G01*
X222529100Y-23011450D02*
X222529100Y-22098950D01*
G75*
G02*
X222772850Y-21855200I243750J0D01*
G01*
X223260350Y-21855200D01*
G75*
G02*
X223504100Y-22098950I0J-243750D01*
G01*
X223504100Y-23011450D01*
G75*
G02*
X223260350Y-23255200I-243750J0D01*
G01*
X222772850Y-23255200D01*
G75*
G02*
X222529100Y-23011450I0J243750D01*
G01*
G37*
G04 #@! TD.AperFunction*
G04 #@! TA.AperFunction,SMDPad,CuDef*
G36*
G01*
X213083320Y-30125990D02*
X213083320Y-29213490D01*
G75*
G02*
X213327070Y-28969740I243750J0D01*
G01*
X213814570Y-28969740D01*
G75*
G02*
X214058320Y-29213490I0J-243750D01*
G01*
X214058320Y-30125990D01*
G75*
G02*
X213814570Y-30369740I-243750J0D01*
G01*
X213327070Y-30369740D01*
G75*
G02*
X213083320Y-30125990I0J243750D01*
G01*
G37*
G04 #@! TD.AperFunction*
G04 #@! TA.AperFunction,SMDPad,CuDef*
G36*
G01*
X214958320Y-30125990D02*
X214958320Y-29213490D01*
G75*
G02*
X215202070Y-28969740I243750J0D01*
G01*
X215689570Y-28969740D01*
G75*
G02*
X215933320Y-29213490I0J-243750D01*
G01*
X215933320Y-30125990D01*
G75*
G02*
X215689570Y-30369740I-243750J0D01*
G01*
X215202070Y-30369740D01*
G75*
G02*
X214958320Y-30125990I0J243750D01*
G01*
G37*
G04 #@! TD.AperFunction*
G04 #@! TA.AperFunction,SMDPad,CuDef*
G36*
G01*
X220278780Y-23978550D02*
X220278780Y-24891050D01*
G75*
G02*
X220035030Y-25134800I-243750J0D01*
G01*
X219547530Y-25134800D01*
G75*
G02*
X219303780Y-24891050I0J243750D01*
G01*
X219303780Y-23978550D01*
G75*
G02*
X219547530Y-23734800I243750J0D01*
G01*
X220035030Y-23734800D01*
G75*
G02*
X220278780Y-23978550I0J-243750D01*
G01*
G37*
G04 #@! TD.AperFunction*
G04 #@! TA.AperFunction,SMDPad,CuDef*
G36*
G01*
X218403780Y-23978550D02*
X218403780Y-24891050D01*
G75*
G02*
X218160030Y-25134800I-243750J0D01*
G01*
X217672530Y-25134800D01*
G75*
G02*
X217428780Y-24891050I0J243750D01*
G01*
X217428780Y-23978550D01*
G75*
G02*
X217672530Y-23734800I243750J0D01*
G01*
X218160030Y-23734800D01*
G75*
G02*
X218403780Y-23978550I0J-243750D01*
G01*
G37*
G04 #@! TD.AperFunction*
G04 #@! TA.AperFunction,SMDPad,CuDef*
G36*
G01*
X217419100Y-23062250D02*
X217419100Y-22149750D01*
G75*
G02*
X217662850Y-21906000I243750J0D01*
G01*
X218150350Y-21906000D01*
G75*
G02*
X218394100Y-22149750I0J-243750D01*
G01*
X218394100Y-23062250D01*
G75*
G02*
X218150350Y-23306000I-243750J0D01*
G01*
X217662850Y-23306000D01*
G75*
G02*
X217419100Y-23062250I0J243750D01*
G01*
G37*
G04 #@! TD.AperFunction*
G04 #@! TA.AperFunction,SMDPad,CuDef*
G36*
G01*
X219294100Y-23062250D02*
X219294100Y-22149750D01*
G75*
G02*
X219537850Y-21906000I243750J0D01*
G01*
X220025350Y-21906000D01*
G75*
G02*
X220269100Y-22149750I0J-243750D01*
G01*
X220269100Y-23062250D01*
G75*
G02*
X220025350Y-23306000I-243750J0D01*
G01*
X219537850Y-23306000D01*
G75*
G02*
X219294100Y-23062250I0J243750D01*
G01*
G37*
G04 #@! TD.AperFunction*
G04 #@! TA.AperFunction,SMDPad,CuDef*
G36*
G01*
X211312940Y-33638810D02*
X211312940Y-32726310D01*
G75*
G02*
X211556690Y-32482560I243750J0D01*
G01*
X212044190Y-32482560D01*
G75*
G02*
X212287940Y-32726310I0J-243750D01*
G01*
X212287940Y-33638810D01*
G75*
G02*
X212044190Y-33882560I-243750J0D01*
G01*
X211556690Y-33882560D01*
G75*
G02*
X211312940Y-33638810I0J243750D01*
G01*
G37*
G04 #@! TD.AperFunction*
G04 #@! TA.AperFunction,SMDPad,CuDef*
G36*
G01*
X209437940Y-33638810D02*
X209437940Y-32726310D01*
G75*
G02*
X209681690Y-32482560I243750J0D01*
G01*
X210169190Y-32482560D01*
G75*
G02*
X210412940Y-32726310I0J-243750D01*
G01*
X210412940Y-33638810D01*
G75*
G02*
X210169190Y-33882560I-243750J0D01*
G01*
X209681690Y-33882560D01*
G75*
G02*
X209437940Y-33638810I0J243750D01*
G01*
G37*
G04 #@! TD.AperFunction*
G04 #@! TA.AperFunction,SMDPad,CuDef*
G36*
G01*
X216627390Y-27187860D02*
X217539890Y-27187860D01*
G75*
G02*
X217783640Y-27431610I0J-243750D01*
G01*
X217783640Y-27919110D01*
G75*
G02*
X217539890Y-28162860I-243750J0D01*
G01*
X216627390Y-28162860D01*
G75*
G02*
X216383640Y-27919110I0J243750D01*
G01*
X216383640Y-27431610D01*
G75*
G02*
X216627390Y-27187860I243750J0D01*
G01*
G37*
G04 #@! TD.AperFunction*
G04 #@! TA.AperFunction,SMDPad,CuDef*
G36*
G01*
X216627390Y-29062860D02*
X217539890Y-29062860D01*
G75*
G02*
X217783640Y-29306610I0J-243750D01*
G01*
X217783640Y-29794110D01*
G75*
G02*
X217539890Y-30037860I-243750J0D01*
G01*
X216627390Y-30037860D01*
G75*
G02*
X216383640Y-29794110I0J243750D01*
G01*
X216383640Y-29306610D01*
G75*
G02*
X216627390Y-29062860I243750J0D01*
G01*
G37*
G04 #@! TD.AperFunction*
G04 #@! TA.AperFunction,SMDPad,CuDef*
G36*
G01*
X209412540Y-31860810D02*
X209412540Y-30948310D01*
G75*
G02*
X209656290Y-30704560I243750J0D01*
G01*
X210143790Y-30704560D01*
G75*
G02*
X210387540Y-30948310I0J-243750D01*
G01*
X210387540Y-31860810D01*
G75*
G02*
X210143790Y-32104560I-243750J0D01*
G01*
X209656290Y-32104560D01*
G75*
G02*
X209412540Y-31860810I0J243750D01*
G01*
G37*
G04 #@! TD.AperFunction*
G04 #@! TA.AperFunction,SMDPad,CuDef*
G36*
G01*
X211287540Y-31860810D02*
X211287540Y-30948310D01*
G75*
G02*
X211531290Y-30704560I243750J0D01*
G01*
X212018790Y-30704560D01*
G75*
G02*
X212262540Y-30948310I0J-243750D01*
G01*
X212262540Y-31860810D01*
G75*
G02*
X212018790Y-32104560I-243750J0D01*
G01*
X211531290Y-32104560D01*
G75*
G02*
X211287540Y-31860810I0J243750D01*
G01*
G37*
G04 #@! TD.AperFunction*
X215244680Y-27302460D03*
X215417400Y-38836600D03*
G04 #@! TA.AperFunction,SMDPad,CuDef*
G36*
G01*
X227863100Y-23976650D02*
X227863100Y-23064150D01*
G75*
G02*
X228106850Y-22820400I243750J0D01*
G01*
X228594350Y-22820400D01*
G75*
G02*
X228838100Y-23064150I0J-243750D01*
G01*
X228838100Y-23976650D01*
G75*
G02*
X228594350Y-24220400I-243750J0D01*
G01*
X228106850Y-24220400D01*
G75*
G02*
X227863100Y-23976650I0J243750D01*
G01*
G37*
G04 #@! TD.AperFunction*
G04 #@! TA.AperFunction,SMDPad,CuDef*
G36*
G01*
X229738100Y-23976650D02*
X229738100Y-23064150D01*
G75*
G02*
X229981850Y-22820400I243750J0D01*
G01*
X230469350Y-22820400D01*
G75*
G02*
X230713100Y-23064150I0J-243750D01*
G01*
X230713100Y-23976650D01*
G75*
G02*
X230469350Y-24220400I-243750J0D01*
G01*
X229981850Y-24220400D01*
G75*
G02*
X229738100Y-23976650I0J243750D01*
G01*
G37*
G04 #@! TD.AperFunction*
X226669600Y-23368000D03*
X231140000Y-29921200D03*
X231089200Y-27990800D03*
X223215200Y-37185600D03*
X225145600Y-37185600D03*
X221284800Y-37185600D03*
G04 #@! TA.AperFunction,SMDPad,CuDef*
G36*
G01*
X229748260Y-35218690D02*
X229748260Y-34306190D01*
G75*
G02*
X229992010Y-34062440I243750J0D01*
G01*
X230479510Y-34062440D01*
G75*
G02*
X230723260Y-34306190I0J-243750D01*
G01*
X230723260Y-35218690D01*
G75*
G02*
X230479510Y-35462440I-243750J0D01*
G01*
X229992010Y-35462440D01*
G75*
G02*
X229748260Y-35218690I0J243750D01*
G01*
G37*
G04 #@! TD.AperFunction*
G04 #@! TA.AperFunction,SMDPad,CuDef*
G36*
G01*
X227873260Y-35218690D02*
X227873260Y-34306190D01*
G75*
G02*
X228117010Y-34062440I243750J0D01*
G01*
X228604510Y-34062440D01*
G75*
G02*
X228848260Y-34306190I0J-243750D01*
G01*
X228848260Y-35218690D01*
G75*
G02*
X228604510Y-35462440I-243750J0D01*
G01*
X228117010Y-35462440D01*
G75*
G02*
X227873260Y-35218690I0J243750D01*
G01*
G37*
G04 #@! TD.AperFunction*
G04 #@! TA.AperFunction,SMDPad,CuDef*
G36*
G01*
X227812300Y-22198650D02*
X227812300Y-21286150D01*
G75*
G02*
X228056050Y-21042400I243750J0D01*
G01*
X228543550Y-21042400D01*
G75*
G02*
X228787300Y-21286150I0J-243750D01*
G01*
X228787300Y-22198650D01*
G75*
G02*
X228543550Y-22442400I-243750J0D01*
G01*
X228056050Y-22442400D01*
G75*
G02*
X227812300Y-22198650I0J243750D01*
G01*
G37*
G04 #@! TD.AperFunction*
G04 #@! TA.AperFunction,SMDPad,CuDef*
G36*
G01*
X229687300Y-22198650D02*
X229687300Y-21286150D01*
G75*
G02*
X229931050Y-21042400I243750J0D01*
G01*
X230418550Y-21042400D01*
G75*
G02*
X230662300Y-21286150I0J-243750D01*
G01*
X230662300Y-22198650D01*
G75*
G02*
X230418550Y-22442400I-243750J0D01*
G01*
X229931050Y-22442400D01*
G75*
G02*
X229687300Y-22198650I0J243750D01*
G01*
G37*
G04 #@! TD.AperFunction*
G04 #@! TA.AperFunction,SMDPad,CuDef*
G36*
G01*
X217971690Y-31561860D02*
X217059190Y-31561860D01*
G75*
G02*
X216815440Y-31318110I0J243750D01*
G01*
X216815440Y-30830610D01*
G75*
G02*
X217059190Y-30586860I243750J0D01*
G01*
X217971690Y-30586860D01*
G75*
G02*
X218215440Y-30830610I0J-243750D01*
G01*
X218215440Y-31318110D01*
G75*
G02*
X217971690Y-31561860I-243750J0D01*
G01*
G37*
G04 #@! TD.AperFunction*
G04 #@! TA.AperFunction,SMDPad,CuDef*
G36*
G01*
X217971690Y-33436860D02*
X217059190Y-33436860D01*
G75*
G02*
X216815440Y-33193110I0J243750D01*
G01*
X216815440Y-32705610D01*
G75*
G02*
X217059190Y-32461860I243750J0D01*
G01*
X217971690Y-32461860D01*
G75*
G02*
X218215440Y-32705610I0J-243750D01*
G01*
X218215440Y-33193110D01*
G75*
G02*
X217971690Y-33436860I-243750J0D01*
G01*
G37*
G04 #@! TD.AperFunction*
G04 #@! TA.AperFunction,SMDPad,CuDef*
G36*
G01*
X209103910Y-21569860D02*
X210016410Y-21569860D01*
G75*
G02*
X210260160Y-21813610I0J-243750D01*
G01*
X210260160Y-22301110D01*
G75*
G02*
X210016410Y-22544860I-243750J0D01*
G01*
X209103910Y-22544860D01*
G75*
G02*
X208860160Y-22301110I0J243750D01*
G01*
X208860160Y-21813610D01*
G75*
G02*
X209103910Y-21569860I243750J0D01*
G01*
G37*
G04 #@! TD.AperFunction*
G04 #@! TA.AperFunction,SMDPad,CuDef*
G36*
G01*
X209103910Y-23444860D02*
X210016410Y-23444860D01*
G75*
G02*
X210260160Y-23688610I0J-243750D01*
G01*
X210260160Y-24176110D01*
G75*
G02*
X210016410Y-24419860I-243750J0D01*
G01*
X209103910Y-24419860D01*
G75*
G02*
X208860160Y-24176110I0J243750D01*
G01*
X208860160Y-23688610D01*
G75*
G02*
X209103910Y-23444860I243750J0D01*
G01*
G37*
G04 #@! TD.AperFunction*
G04 #@! TA.AperFunction,SMDPad,CuDef*
G36*
G01*
X212262540Y-29142370D02*
X212262540Y-30054870D01*
G75*
G02*
X212018790Y-30298620I-243750J0D01*
G01*
X211531290Y-30298620D01*
G75*
G02*
X211287540Y-30054870I0J243750D01*
G01*
X211287540Y-29142370D01*
G75*
G02*
X211531290Y-28898620I243750J0D01*
G01*
X212018790Y-28898620D01*
G75*
G02*
X212262540Y-29142370I0J-243750D01*
G01*
G37*
G04 #@! TD.AperFunction*
G04 #@! TA.AperFunction,SMDPad,CuDef*
G36*
G01*
X210387540Y-29142370D02*
X210387540Y-30054870D01*
G75*
G02*
X210143790Y-30298620I-243750J0D01*
G01*
X209656290Y-30298620D01*
G75*
G02*
X209412540Y-30054870I0J243750D01*
G01*
X209412540Y-29142370D01*
G75*
G02*
X209656290Y-28898620I243750J0D01*
G01*
X210143790Y-28898620D01*
G75*
G02*
X210387540Y-29142370I0J-243750D01*
G01*
G37*
G04 #@! TD.AperFunction*
D10*
X213603840Y-31104760D03*
X213603840Y-32054760D03*
X213603840Y-33004760D03*
X215803840Y-33004760D03*
X215803840Y-31104760D03*
X215803840Y-32054760D03*
G04 #@! TA.AperFunction,SMDPad,CuDef*
G36*
G01*
X219761750Y-32964300D02*
X220674250Y-32964300D01*
G75*
G02*
X220918000Y-33208050I0J-243750D01*
G01*
X220918000Y-33695550D01*
G75*
G02*
X220674250Y-33939300I-243750J0D01*
G01*
X219761750Y-33939300D01*
G75*
G02*
X219518000Y-33695550I0J243750D01*
G01*
X219518000Y-33208050D01*
G75*
G02*
X219761750Y-32964300I243750J0D01*
G01*
G37*
G04 #@! TD.AperFunction*
G04 #@! TA.AperFunction,SMDPad,CuDef*
G36*
G01*
X219761750Y-34839300D02*
X220674250Y-34839300D01*
G75*
G02*
X220918000Y-35083050I0J-243750D01*
G01*
X220918000Y-35570550D01*
G75*
G02*
X220674250Y-35814300I-243750J0D01*
G01*
X219761750Y-35814300D01*
G75*
G02*
X219518000Y-35570550I0J243750D01*
G01*
X219518000Y-35083050D01*
G75*
G02*
X219761750Y-34839300I243750J0D01*
G01*
G37*
G04 #@! TD.AperFunction*
G04 #@! TA.AperFunction,SMDPad,CuDef*
G36*
G01*
X227909300Y-25805450D02*
X227909300Y-24892950D01*
G75*
G02*
X228153050Y-24649200I243750J0D01*
G01*
X228640550Y-24649200D01*
G75*
G02*
X228884300Y-24892950I0J-243750D01*
G01*
X228884300Y-25805450D01*
G75*
G02*
X228640550Y-26049200I-243750J0D01*
G01*
X228153050Y-26049200D01*
G75*
G02*
X227909300Y-25805450I0J243750D01*
G01*
G37*
G04 #@! TD.AperFunction*
G04 #@! TA.AperFunction,SMDPad,CuDef*
G36*
G01*
X229784300Y-25805450D02*
X229784300Y-24892950D01*
G75*
G02*
X230028050Y-24649200I243750J0D01*
G01*
X230515550Y-24649200D01*
G75*
G02*
X230759300Y-24892950I0J-243750D01*
G01*
X230759300Y-25805450D01*
G75*
G02*
X230515550Y-26049200I-243750J0D01*
G01*
X230028050Y-26049200D01*
G75*
G02*
X229784300Y-25805450I0J243750D01*
G01*
G37*
G04 #@! TD.AperFunction*
G04 #@! TA.AperFunction,SMDPad,CuDef*
G36*
G01*
X210288840Y-25909590D02*
X210288840Y-24997090D01*
G75*
G02*
X210532590Y-24753340I243750J0D01*
G01*
X211020090Y-24753340D01*
G75*
G02*
X211263840Y-24997090I0J-243750D01*
G01*
X211263840Y-25909590D01*
G75*
G02*
X211020090Y-26153340I-243750J0D01*
G01*
X210532590Y-26153340D01*
G75*
G02*
X210288840Y-25909590I0J243750D01*
G01*
G37*
G04 #@! TD.AperFunction*
G04 #@! TA.AperFunction,SMDPad,CuDef*
G36*
G01*
X212163840Y-25909590D02*
X212163840Y-24997090D01*
G75*
G02*
X212407590Y-24753340I243750J0D01*
G01*
X212895090Y-24753340D01*
G75*
G02*
X213138840Y-24997090I0J-243750D01*
G01*
X213138840Y-25909590D01*
G75*
G02*
X212895090Y-26153340I-243750J0D01*
G01*
X212407590Y-26153340D01*
G75*
G02*
X212163840Y-25909590I0J243750D01*
G01*
G37*
G04 #@! TD.AperFunction*
D14*
X221467680Y-20736560D03*
D15*
X224282000Y-21539200D03*
D14*
X220075760Y-38719760D03*
D15*
X209346800Y-19253200D03*
D14*
X228650800Y-38658800D03*
X224332800Y-19507200D03*
X208940400Y-36657280D03*
D15*
X221173040Y-22961600D03*
D14*
X232140760Y-26090880D03*
X231241600Y-34493200D03*
D15*
X226009200Y-27076400D03*
D14*
X216418160Y-24673560D03*
D15*
X213004400Y-19253200D03*
X218236800Y-20269200D03*
D16*
X220825037Y-34800563D02*
X220268800Y-35356800D01*
X229886800Y-27417200D02*
X228936800Y-27417200D01*
X230225600Y-25303000D02*
X230271800Y-25349200D01*
X230225600Y-23520400D02*
X230225600Y-25303000D01*
X220977963Y-25905963D02*
X221488000Y-26416000D01*
X230859300Y-25349200D02*
X232760001Y-25349200D01*
X230271800Y-25349200D02*
X230859300Y-25349200D01*
X230225600Y-23520400D02*
X232760001Y-23520400D01*
X232760001Y-25349200D02*
X232760001Y-23520400D01*
X221488000Y-26416000D02*
X221488000Y-28041600D01*
X221488000Y-28041600D02*
X223418400Y-28041600D01*
X223836800Y-27623200D02*
X223836800Y-25317200D01*
X223418400Y-28041600D02*
X223836800Y-27623200D01*
X227823810Y-28917200D02*
X227811810Y-28905200D01*
X228936800Y-28917200D02*
X227823810Y-28917200D01*
X231190800Y-36525200D02*
X231190800Y-37637720D01*
X230225600Y-36525200D02*
X231190800Y-36525200D01*
X221315438Y-38658800D02*
X220370400Y-38658800D01*
X221417038Y-38760400D02*
X221315438Y-38658800D01*
X231190800Y-38760400D02*
X221417038Y-38760400D01*
X224891600Y-22148800D02*
X224282000Y-21539200D01*
X224891600Y-22555200D02*
X224891600Y-22148800D01*
X231089200Y-19507200D02*
X224332800Y-19507200D01*
X220268800Y-35356800D02*
X219100400Y-35356800D01*
X220192600Y-38836600D02*
X220370400Y-38658800D01*
X217083640Y-30642560D02*
X217515440Y-31074360D01*
D17*
X217083640Y-29550360D02*
X217083640Y-30642560D01*
X215407240Y-30708160D02*
X215803840Y-31104760D01*
X215407240Y-29601160D02*
X215407240Y-30708160D01*
D16*
X217485040Y-31104760D02*
X217515440Y-31074360D01*
D17*
X215803840Y-31104760D02*
X217485040Y-31104760D01*
D16*
X209346800Y-19253200D02*
X211429600Y-19253200D01*
D17*
X215407240Y-29601160D02*
X217032840Y-29601160D01*
D16*
X217032840Y-29601160D02*
X217083640Y-29550360D01*
D17*
X208765240Y-23952200D02*
X208363820Y-23550780D01*
X209565240Y-23952200D02*
X208765240Y-23952200D01*
D16*
X208363820Y-20236180D02*
X209346800Y-19253200D01*
D17*
X208363820Y-23002240D02*
X208363820Y-20236180D01*
X208363820Y-23550780D02*
X208363820Y-23002240D01*
D16*
X212373977Y-23035723D02*
X212369400Y-23040300D01*
D17*
X212373977Y-21241997D02*
X212373977Y-23035723D01*
D16*
X211817740Y-20685760D02*
X212373977Y-21241997D01*
D17*
X212369400Y-23040300D02*
X213428940Y-23040300D01*
X212369400Y-23040300D02*
X212369400Y-24371400D01*
X215803840Y-31104760D02*
X214973840Y-31104760D01*
X214973840Y-31104760D02*
X214706200Y-31372400D01*
X214433880Y-32054800D02*
X214706200Y-32054800D01*
D16*
X214433840Y-32054760D02*
X214433880Y-32054800D01*
D17*
X213603840Y-32054760D02*
X214433840Y-32054760D01*
X214706200Y-31372400D02*
X214706200Y-32054800D01*
D16*
X214706200Y-33903920D02*
X215104980Y-34302700D01*
X215104980Y-34302700D02*
X215104980Y-34452560D01*
D17*
X214706200Y-32054800D02*
X214706200Y-33903920D01*
X212369400Y-24371400D02*
X212369400Y-24724360D01*
D16*
X212651340Y-25006300D02*
X212651340Y-25453340D01*
X211817740Y-19885760D02*
X211813140Y-19881160D01*
X211817740Y-20685760D02*
X211817740Y-19885760D01*
X211813140Y-19881160D02*
X211813140Y-19253200D01*
X211429600Y-19253200D02*
X211813140Y-19253200D01*
X208401880Y-23040300D02*
X208363820Y-23002240D01*
D17*
X212369400Y-23040300D02*
X208401880Y-23040300D01*
X212755480Y-28455620D02*
X214261700Y-28455620D01*
X214261700Y-28455620D02*
X215407240Y-29601160D01*
X212755480Y-28455620D02*
X212455760Y-28155900D01*
D16*
X214339770Y-38836600D02*
X215417400Y-38836600D01*
X210554035Y-38836600D02*
X211175600Y-38836600D01*
X208940400Y-37222965D02*
X210554035Y-38836600D01*
X208940400Y-36657280D02*
X208940400Y-37222965D01*
D18*
X212455760Y-28155900D02*
X212455760Y-26448920D01*
D16*
X230225600Y-35572600D02*
X230225600Y-36525200D01*
X230235760Y-35562440D02*
X230225600Y-35572600D01*
X230235760Y-34762440D02*
X230235760Y-35562440D01*
X219791280Y-24434800D02*
X220014800Y-24434800D01*
X219791280Y-24434800D02*
X219203780Y-24434800D01*
X218841320Y-21447760D02*
X220781880Y-19507200D01*
X216809320Y-25247600D02*
X217467683Y-25905963D01*
X219801440Y-25244960D02*
X219801440Y-25905963D01*
X219791280Y-25234800D02*
X219801440Y-25244960D01*
X219791280Y-24434800D02*
X219791280Y-25234800D01*
X219801440Y-25905963D02*
X220977963Y-25905963D01*
X217467683Y-25905963D02*
X219801440Y-25905963D01*
X221442280Y-20145475D02*
X221442280Y-19507200D01*
X221467680Y-20736560D02*
X221467680Y-20170875D01*
X221442280Y-19507200D02*
X224332800Y-19507200D01*
X221467680Y-20170875D02*
X221442280Y-20145475D01*
X220781880Y-19507200D02*
X221442280Y-19507200D01*
X219791280Y-24434800D02*
X220035120Y-24434800D01*
X219791280Y-24434800D02*
X221015560Y-24434800D01*
X221173040Y-24277320D02*
X221173040Y-22961600D01*
X221015560Y-24434800D02*
X221173040Y-24277320D01*
X212369400Y-26362560D02*
X212455760Y-26448920D01*
X212509100Y-25453340D02*
X212369400Y-25593040D01*
X212651340Y-25453340D02*
X212509100Y-25453340D01*
D17*
X212369400Y-25593040D02*
X212369400Y-26362560D01*
X212369400Y-24724360D02*
X212369400Y-25593040D01*
D16*
X216809320Y-24648160D02*
X216809320Y-25247600D01*
X216809320Y-21950680D02*
X216809320Y-24648160D01*
X232140760Y-26090880D02*
X232724441Y-26090880D01*
X232724441Y-26090880D02*
X232760001Y-26055320D01*
X232760001Y-26055320D02*
X232760001Y-31648400D01*
X232760001Y-25349200D02*
X232760001Y-26055320D01*
X229422960Y-33949640D02*
X230235760Y-34762440D01*
X230235760Y-34762440D02*
X230565960Y-34762440D01*
X219608400Y-38816280D02*
X219588080Y-38836600D01*
X219608400Y-36017200D02*
X219608400Y-38816280D01*
X220268800Y-35356800D02*
X219608400Y-36017200D01*
X219588080Y-38836600D02*
X220192600Y-38836600D01*
X215417400Y-38836600D02*
X217794840Y-38836600D01*
X230059667Y-27244332D02*
X229886800Y-27417200D01*
X230059667Y-27244332D02*
X230084179Y-27218585D01*
X230084179Y-27218585D02*
X230107398Y-27191668D01*
X230107398Y-27191668D02*
X230129269Y-27163643D01*
X230129269Y-27163643D02*
X230149738Y-27134579D01*
X230149738Y-27134579D02*
X230168757Y-27104546D01*
X230168757Y-27104546D02*
X230186278Y-27073615D01*
X230186278Y-27073615D02*
X230202262Y-27041862D01*
X230202262Y-27041862D02*
X230216667Y-27009363D01*
X230216667Y-27009363D02*
X230229461Y-26976197D01*
X230229461Y-26976197D02*
X230240612Y-26942442D01*
X230240612Y-26942442D02*
X230250093Y-26908181D01*
X230250093Y-26908181D02*
X230257882Y-26873496D01*
X230257882Y-26873496D02*
X230263960Y-26838471D01*
X230263960Y-26838471D02*
X230268311Y-26803190D01*
X230268311Y-26803190D02*
X230270926Y-26767737D01*
X230270926Y-26767737D02*
X230271800Y-26732200D01*
X230271800Y-26732200D02*
X230271800Y-25349200D01*
X219053452Y-24284472D02*
X219203780Y-24434800D01*
X219053452Y-24284472D02*
X219028939Y-24258725D01*
X219028939Y-24258725D02*
X219005720Y-24231808D01*
X219005720Y-24231808D02*
X218983849Y-24203783D01*
X218983849Y-24203783D02*
X218963380Y-24174719D01*
X218963380Y-24174719D02*
X218944362Y-24144686D01*
X218944362Y-24144686D02*
X218926840Y-24113755D01*
X218926840Y-24113755D02*
X218910857Y-24082002D01*
X218910857Y-24082002D02*
X218896451Y-24049503D01*
X218896451Y-24049503D02*
X218883657Y-24016337D01*
X218883657Y-24016337D02*
X218872506Y-23982582D01*
X218872506Y-23982582D02*
X218863025Y-23948321D01*
X218863025Y-23948321D02*
X218855236Y-23913636D01*
X218855236Y-23913636D02*
X218849159Y-23878611D01*
X218849159Y-23878611D02*
X218844807Y-23843330D01*
X218844807Y-23843330D02*
X218842192Y-23807877D01*
X218842192Y-23807877D02*
X218841320Y-23772340D01*
X218841320Y-23772340D02*
X218841320Y-21447760D01*
X217612240Y-21447760D02*
X218841320Y-21447760D01*
X217612240Y-21447760D02*
X217576701Y-21448631D01*
X217576701Y-21448631D02*
X217541249Y-21451247D01*
X217541249Y-21451247D02*
X217505968Y-21455598D01*
X217505968Y-21455598D02*
X217470942Y-21461676D01*
X217470942Y-21461676D02*
X217436257Y-21469464D01*
X217436257Y-21469464D02*
X217401996Y-21478946D01*
X217401996Y-21478946D02*
X217368242Y-21490097D01*
X217368242Y-21490097D02*
X217335075Y-21502890D01*
X217335075Y-21502890D02*
X217302576Y-21517296D01*
X217302576Y-21517296D02*
X217270823Y-21533279D01*
X217270823Y-21533279D02*
X217239892Y-21550801D01*
X217239892Y-21550801D02*
X217209859Y-21569820D01*
X217209859Y-21569820D02*
X217180795Y-21590289D01*
X217180795Y-21590289D02*
X217152770Y-21612159D01*
X217152770Y-21612159D02*
X217125852Y-21635379D01*
X217125852Y-21635379D02*
X217100107Y-21659892D01*
X217100107Y-21659892D02*
X216809320Y-21950680D01*
X228279960Y-36525200D02*
X230225600Y-36525200D01*
X226836800Y-34682040D02*
X226836800Y-34017200D01*
X226836800Y-34682040D02*
X226837963Y-34729423D01*
X226837963Y-34729423D02*
X226841450Y-34776693D01*
X226841450Y-34776693D02*
X226847252Y-34823735D01*
X226847252Y-34823735D02*
X226855355Y-34870435D01*
X226855355Y-34870435D02*
X226865740Y-34916682D01*
X226865740Y-34916682D02*
X226878382Y-34962363D01*
X226878382Y-34962363D02*
X226893249Y-35007369D01*
X226893249Y-35007369D02*
X226910308Y-35051591D01*
X226910308Y-35051591D02*
X226929516Y-35094923D01*
X226929516Y-35094923D02*
X226950826Y-35137260D01*
X226950826Y-35137260D02*
X226974189Y-35178500D01*
X226974189Y-35178500D02*
X226999547Y-35218545D01*
X226999547Y-35218545D02*
X227026839Y-35257297D01*
X227026839Y-35257297D02*
X227056000Y-35294663D01*
X227056000Y-35294663D02*
X227086959Y-35330553D01*
X227086959Y-35330553D02*
X227119642Y-35364882D01*
X227119642Y-35364882D02*
X228279960Y-36525200D01*
X229010252Y-33536932D02*
X229422960Y-33949640D01*
X229010252Y-33536932D02*
X228984506Y-33512419D01*
X228984506Y-33512419D02*
X228957588Y-33489199D01*
X228957588Y-33489199D02*
X228929564Y-33467329D01*
X228929564Y-33467329D02*
X228900499Y-33446859D01*
X228900499Y-33446859D02*
X228870466Y-33427841D01*
X228870466Y-33427841D02*
X228839536Y-33410319D01*
X228839536Y-33410319D02*
X228807783Y-33394336D01*
X228807783Y-33394336D02*
X228775284Y-33379930D01*
X228775284Y-33379930D02*
X228742117Y-33367136D01*
X228742117Y-33367136D02*
X228708363Y-33355985D01*
X228708363Y-33355985D02*
X228674102Y-33346504D01*
X228674102Y-33346504D02*
X228639417Y-33338715D01*
X228639417Y-33338715D02*
X228604391Y-33332638D01*
X228604391Y-33332638D02*
X228569110Y-33328286D01*
X228569110Y-33328286D02*
X228533657Y-33325671D01*
X228533657Y-33325671D02*
X228498120Y-33324800D01*
X228498120Y-33324800D02*
X228295200Y-33324800D01*
X223836800Y-23910000D02*
X223836800Y-25317200D01*
X223836800Y-23910000D02*
X223837671Y-23874461D01*
X223837671Y-23874461D02*
X223840287Y-23839009D01*
X223840287Y-23839009D02*
X223844638Y-23803728D01*
X223844638Y-23803728D02*
X223850716Y-23768702D01*
X223850716Y-23768702D02*
X223858504Y-23734017D01*
X223858504Y-23734017D02*
X223867986Y-23699756D01*
X223867986Y-23699756D02*
X223879137Y-23666002D01*
X223879137Y-23666002D02*
X223891930Y-23632835D01*
X223891930Y-23632835D02*
X223906336Y-23600336D01*
X223906336Y-23600336D02*
X223922319Y-23568583D01*
X223922319Y-23568583D02*
X223939841Y-23537652D01*
X223939841Y-23537652D02*
X223958860Y-23507619D01*
X223958860Y-23507619D02*
X223979329Y-23478555D01*
X223979329Y-23478555D02*
X224001199Y-23450530D01*
X224001199Y-23450530D02*
X224024419Y-23423612D01*
X224024419Y-23423612D02*
X224048932Y-23397867D01*
X224048932Y-23397867D02*
X224891600Y-22555200D01*
X228009899Y-27487910D02*
X228018480Y-27479739D01*
X228018480Y-27479739D02*
X228027453Y-27471999D01*
X228027453Y-27471999D02*
X228036795Y-27464709D01*
X228036795Y-27464709D02*
X228046483Y-27457886D01*
X228046483Y-27457886D02*
X228056494Y-27451546D01*
X228056494Y-27451546D02*
X228066804Y-27445706D01*
X228066804Y-27445706D02*
X228077388Y-27440378D01*
X228077388Y-27440378D02*
X228088221Y-27435576D01*
X228088221Y-27435576D02*
X228099277Y-27431311D01*
X228099277Y-27431311D02*
X228110528Y-27427594D01*
X228110528Y-27427594D02*
X228121949Y-27424434D01*
X228121949Y-27424434D02*
X228133510Y-27421838D01*
X228133510Y-27421838D02*
X228145186Y-27419812D01*
X228145186Y-27419812D02*
X228156946Y-27418361D01*
X228156946Y-27418361D02*
X228168763Y-27417490D01*
X228168763Y-27417490D02*
X228180610Y-27417200D01*
X228180610Y-27417200D02*
X228936800Y-27417200D01*
X227811810Y-27886000D02*
X227811810Y-28905200D01*
X227811810Y-27886000D02*
X227812390Y-27862308D01*
X227812390Y-27862308D02*
X227814134Y-27838673D01*
X227814134Y-27838673D02*
X227817035Y-27815152D01*
X227817035Y-27815152D02*
X227821086Y-27791801D01*
X227821086Y-27791801D02*
X227826279Y-27768678D01*
X227826279Y-27768678D02*
X227832600Y-27745837D01*
X227832600Y-27745837D02*
X227840034Y-27723334D01*
X227840034Y-27723334D02*
X227848563Y-27701223D01*
X227848563Y-27701223D02*
X227858166Y-27679557D01*
X227858166Y-27679557D02*
X227868822Y-27658389D01*
X227868822Y-27658389D02*
X227880503Y-27637768D01*
X227880503Y-27637768D02*
X227893182Y-27617746D01*
X227893182Y-27617746D02*
X227906828Y-27598370D01*
X227906828Y-27598370D02*
X227921408Y-27579687D01*
X227921408Y-27579687D02*
X227936888Y-27561741D01*
X227936888Y-27561741D02*
X227953230Y-27544578D01*
X227953230Y-27544578D02*
X228009899Y-27487910D01*
X228023942Y-33053542D02*
X228295200Y-33324800D01*
X228023942Y-33053542D02*
X227999430Y-33027795D01*
X227999430Y-33027795D02*
X227976210Y-33000877D01*
X227976210Y-33000877D02*
X227954340Y-32972853D01*
X227954340Y-32972853D02*
X227933870Y-32943789D01*
X227933870Y-32943789D02*
X227914852Y-32913755D01*
X227914852Y-32913755D02*
X227897330Y-32882825D01*
X227897330Y-32882825D02*
X227881347Y-32851072D01*
X227881347Y-32851072D02*
X227866941Y-32818573D01*
X227866941Y-32818573D02*
X227854147Y-32785407D01*
X227854147Y-32785407D02*
X227842996Y-32751652D01*
X227842996Y-32751652D02*
X227833515Y-32717391D01*
X227833515Y-32717391D02*
X227825726Y-32682706D01*
X227825726Y-32682706D02*
X227819649Y-32647681D01*
X227819649Y-32647681D02*
X227815297Y-32612400D01*
X227815297Y-32612400D02*
X227812682Y-32576947D01*
X227812682Y-32576947D02*
X227811810Y-32541410D01*
X227811810Y-32541410D02*
X227811810Y-28905200D01*
X226766089Y-33041487D02*
X226774259Y-33050069D01*
X226774259Y-33050069D02*
X226781998Y-33059042D01*
X226781998Y-33059042D02*
X226789289Y-33068383D01*
X226789289Y-33068383D02*
X226796112Y-33078071D01*
X226796112Y-33078071D02*
X226802451Y-33088082D01*
X226802451Y-33088082D02*
X226808292Y-33098392D01*
X226808292Y-33098392D02*
X226813619Y-33108977D01*
X226813619Y-33108977D02*
X226818421Y-33119810D01*
X226818421Y-33119810D02*
X226822686Y-33130865D01*
X226822686Y-33130865D02*
X226826403Y-33142117D01*
X226826403Y-33142117D02*
X226829563Y-33153537D01*
X226829563Y-33153537D02*
X226832159Y-33165099D01*
X226832159Y-33165099D02*
X226834185Y-33176774D01*
X226834185Y-33176774D02*
X226835636Y-33188534D01*
X226835636Y-33188534D02*
X226836508Y-33200352D01*
X226836508Y-33200352D02*
X226836800Y-33212198D01*
X226836800Y-33212198D02*
X226836800Y-34017200D01*
X226510012Y-32885410D02*
X226521857Y-32885700D01*
X226521857Y-32885700D02*
X226533675Y-32886572D01*
X226533675Y-32886572D02*
X226545435Y-32888023D01*
X226545435Y-32888023D02*
X226557110Y-32890048D01*
X226557110Y-32890048D02*
X226568672Y-32892645D01*
X226568672Y-32892645D02*
X226580092Y-32895805D01*
X226580092Y-32895805D02*
X226591343Y-32899522D01*
X226591343Y-32899522D02*
X226602399Y-32903787D01*
X226602399Y-32903787D02*
X226613232Y-32908588D01*
X226613232Y-32908588D02*
X226623816Y-32913916D01*
X226623816Y-32913916D02*
X226634126Y-32919757D01*
X226634126Y-32919757D02*
X226644137Y-32926096D01*
X226644137Y-32926096D02*
X226653825Y-32932919D01*
X226653825Y-32932919D02*
X226663167Y-32940209D01*
X226663167Y-32940209D02*
X226672139Y-32947949D01*
X226672139Y-32947949D02*
X226680722Y-32956120D01*
X226680722Y-32956120D02*
X226766089Y-33041487D01*
X221318810Y-33230188D02*
X221319100Y-33218342D01*
X221319100Y-33218342D02*
X221319972Y-33206524D01*
X221319972Y-33206524D02*
X221321422Y-33194764D01*
X221321422Y-33194764D02*
X221323448Y-33183088D01*
X221323448Y-33183088D02*
X221326044Y-33171527D01*
X221326044Y-33171527D02*
X221329205Y-33160106D01*
X221329205Y-33160106D02*
X221332922Y-33148855D01*
X221332922Y-33148855D02*
X221337186Y-33137799D01*
X221337186Y-33137799D02*
X221341988Y-33126966D01*
X221341988Y-33126966D02*
X221347316Y-33116382D01*
X221347316Y-33116382D02*
X221353156Y-33106072D01*
X221353156Y-33106072D02*
X221359496Y-33096061D01*
X221359496Y-33096061D02*
X221366319Y-33086373D01*
X221366319Y-33086373D02*
X221373609Y-33077031D01*
X221373609Y-33077031D02*
X221381349Y-33068058D01*
X221381349Y-33068058D02*
X221389520Y-33059477D01*
X221663588Y-32885410D02*
X226510012Y-32885410D01*
X221663588Y-32885410D02*
X221651742Y-32885700D01*
X221651742Y-32885700D02*
X221639924Y-32886572D01*
X221639924Y-32886572D02*
X221628164Y-32888022D01*
X221628164Y-32888022D02*
X221616488Y-32890048D01*
X221616488Y-32890048D02*
X221604927Y-32892644D01*
X221604927Y-32892644D02*
X221593506Y-32895805D01*
X221593506Y-32895805D02*
X221582255Y-32899522D01*
X221582255Y-32899522D02*
X221571199Y-32903786D01*
X221571199Y-32903786D02*
X221560366Y-32908588D01*
X221560366Y-32908588D02*
X221549782Y-32913916D01*
X221549782Y-32913916D02*
X221539472Y-32919756D01*
X221539472Y-32919756D02*
X221529461Y-32926096D01*
X221529461Y-32926096D02*
X221519773Y-32932919D01*
X221519773Y-32932919D02*
X221510431Y-32940209D01*
X221510431Y-32940209D02*
X221501458Y-32947949D01*
X221501458Y-32947949D02*
X221492877Y-32956120D01*
X221492877Y-32956120D02*
X221389520Y-33059477D01*
X221106677Y-34518922D02*
X220825037Y-34800563D01*
X221106677Y-34518922D02*
X221131189Y-34493175D01*
X221131189Y-34493175D02*
X221154408Y-34466258D01*
X221154408Y-34466258D02*
X221176279Y-34438233D01*
X221176279Y-34438233D02*
X221196748Y-34409169D01*
X221196748Y-34409169D02*
X221215767Y-34379136D01*
X221215767Y-34379136D02*
X221233288Y-34348205D01*
X221233288Y-34348205D02*
X221249272Y-34316452D01*
X221249272Y-34316452D02*
X221263677Y-34283953D01*
X221263677Y-34283953D02*
X221276471Y-34250787D01*
X221276471Y-34250787D02*
X221287622Y-34217032D01*
X221287622Y-34217032D02*
X221297103Y-34182771D01*
X221297103Y-34182771D02*
X221304892Y-34148086D01*
X221304892Y-34148086D02*
X221310970Y-34113061D01*
X221310970Y-34113061D02*
X221315321Y-34077780D01*
X221315321Y-34077780D02*
X221317936Y-34042327D01*
X221317936Y-34042327D02*
X221318810Y-34006790D01*
X221318810Y-34006790D02*
X221318810Y-33230188D01*
X219386800Y-31917200D02*
X220236800Y-31917200D01*
X219386800Y-31917200D02*
X219374954Y-31917490D01*
X219374954Y-31917490D02*
X219363136Y-31918362D01*
X219363136Y-31918362D02*
X219351376Y-31919812D01*
X219351376Y-31919812D02*
X219339700Y-31921838D01*
X219339700Y-31921838D02*
X219328139Y-31924434D01*
X219328139Y-31924434D02*
X219316718Y-31927595D01*
X219316718Y-31927595D02*
X219305467Y-31931312D01*
X219305467Y-31931312D02*
X219294411Y-31935576D01*
X219294411Y-31935576D02*
X219283578Y-31940378D01*
X219283578Y-31940378D02*
X219272994Y-31945706D01*
X219272994Y-31945706D02*
X219262684Y-31951546D01*
X219262684Y-31951546D02*
X219252673Y-31957886D01*
X219252673Y-31957886D02*
X219242985Y-31964709D01*
X219242985Y-31964709D02*
X219233643Y-31971999D01*
X219233643Y-31971999D02*
X219224670Y-31979739D01*
X219224670Y-31979739D02*
X219216089Y-31987910D01*
X219100400Y-32203600D02*
X219100400Y-35356800D01*
X219100400Y-32203600D02*
X219100690Y-32191754D01*
X219100690Y-32191754D02*
X219101562Y-32179936D01*
X219101562Y-32179936D02*
X219103012Y-32168176D01*
X219103012Y-32168176D02*
X219105038Y-32156500D01*
X219105038Y-32156500D02*
X219107634Y-32144939D01*
X219107634Y-32144939D02*
X219110795Y-32133518D01*
X219110795Y-32133518D02*
X219114512Y-32122267D01*
X219114512Y-32122267D02*
X219118776Y-32111211D01*
X219118776Y-32111211D02*
X219123578Y-32100378D01*
X219123578Y-32100378D02*
X219128906Y-32089794D01*
X219128906Y-32089794D02*
X219134746Y-32079484D01*
X219134746Y-32079484D02*
X219141086Y-32069473D01*
X219141086Y-32069473D02*
X219147909Y-32059785D01*
X219147909Y-32059785D02*
X219155199Y-32050443D01*
X219155199Y-32050443D02*
X219162939Y-32041470D01*
X219162939Y-32041470D02*
X219171110Y-32032889D01*
X219171110Y-32032889D02*
X219216089Y-31987910D01*
X220986800Y-31917200D02*
X220236800Y-31917200D01*
X220986800Y-31917200D02*
X221010491Y-31916617D01*
X221010491Y-31916617D02*
X221034126Y-31914874D01*
X221034126Y-31914874D02*
X221057647Y-31911973D01*
X221057647Y-31911973D02*
X221080997Y-31907921D01*
X221080997Y-31907921D02*
X221104121Y-31902729D01*
X221104121Y-31902729D02*
X221126961Y-31896408D01*
X221126961Y-31896408D02*
X221149464Y-31888974D01*
X221149464Y-31888974D02*
X221171575Y-31880445D01*
X221171575Y-31880445D02*
X221193241Y-31870841D01*
X221193241Y-31870841D02*
X221214410Y-31860185D01*
X221214410Y-31860185D02*
X221235030Y-31848504D01*
X221235030Y-31848504D02*
X221255052Y-31835825D01*
X221255052Y-31835825D02*
X221274428Y-31822179D01*
X221274428Y-31822179D02*
X221293111Y-31807599D01*
X221293111Y-31807599D02*
X221311056Y-31792119D01*
X221311056Y-31792119D02*
X221328221Y-31775778D01*
X221488000Y-31416000D02*
X221488000Y-28041600D01*
X221488000Y-31416000D02*
X221487417Y-31439691D01*
X221487417Y-31439691D02*
X221485674Y-31463326D01*
X221485674Y-31463326D02*
X221482773Y-31486847D01*
X221482773Y-31486847D02*
X221478721Y-31510197D01*
X221478721Y-31510197D02*
X221473528Y-31533320D01*
X221473528Y-31533320D02*
X221467208Y-31556161D01*
X221467208Y-31556161D02*
X221459774Y-31578664D01*
X221459774Y-31578664D02*
X221451244Y-31600775D01*
X221451244Y-31600775D02*
X221441640Y-31622440D01*
X221441640Y-31622440D02*
X221430985Y-31643609D01*
X221430985Y-31643609D02*
X221419304Y-31664229D01*
X221419304Y-31664229D02*
X221406625Y-31684251D01*
X221406625Y-31684251D02*
X221392979Y-31703627D01*
X221392979Y-31703627D02*
X221378398Y-31722310D01*
X221378398Y-31722310D02*
X221362918Y-31740255D01*
X221362918Y-31740255D02*
X221346578Y-31757420D01*
X221346578Y-31757420D02*
X221328221Y-31775778D01*
X232477158Y-20895158D02*
X231089200Y-19507200D01*
X232477158Y-20895158D02*
X232509841Y-20929485D01*
X232509841Y-20929485D02*
X232540800Y-20965375D01*
X232540800Y-20965375D02*
X232569961Y-21002742D01*
X232569961Y-21002742D02*
X232597253Y-21041494D01*
X232597253Y-21041494D02*
X232622611Y-21081538D01*
X232622611Y-21081538D02*
X232645974Y-21122779D01*
X232645974Y-21122779D02*
X232667285Y-21165116D01*
X232667285Y-21165116D02*
X232686492Y-21208448D01*
X232686492Y-21208448D02*
X232703551Y-21252671D01*
X232703551Y-21252671D02*
X232718418Y-21297677D01*
X232718418Y-21297677D02*
X232731060Y-21343358D01*
X232731060Y-21343358D02*
X232741445Y-21389604D01*
X232741445Y-21389604D02*
X232749548Y-21436305D01*
X232749548Y-21436305D02*
X232755350Y-21483347D01*
X232755350Y-21483347D02*
X232758837Y-21530617D01*
X232758837Y-21530617D02*
X232760001Y-21578001D01*
X232760001Y-21578001D02*
X232760001Y-23520400D01*
X232477158Y-35238841D02*
X231190800Y-36525200D01*
X232477158Y-35238841D02*
X232509840Y-35204512D01*
X232509840Y-35204512D02*
X232540799Y-35168622D01*
X232540799Y-35168622D02*
X232569960Y-35131256D01*
X232569960Y-35131256D02*
X232597252Y-35092504D01*
X232597252Y-35092504D02*
X232622610Y-35052459D01*
X232622610Y-35052459D02*
X232645973Y-35011219D01*
X232645973Y-35011219D02*
X232667284Y-34968882D01*
X232667284Y-34968882D02*
X232686491Y-34925550D01*
X232686491Y-34925550D02*
X232703550Y-34881328D01*
X232703550Y-34881328D02*
X232718418Y-34836322D01*
X232718418Y-34836322D02*
X232731060Y-34790641D01*
X232731060Y-34790641D02*
X232741445Y-34744394D01*
X232741445Y-34744394D02*
X232749548Y-34697694D01*
X232749548Y-34697694D02*
X232755350Y-34650652D01*
X232755350Y-34650652D02*
X232758837Y-34603382D01*
X232758837Y-34603382D02*
X232760001Y-34555999D01*
X232760001Y-34555999D02*
X232760001Y-31648400D01*
X231190800Y-37637720D02*
X231190800Y-38760400D01*
D19*
X213229980Y-33378620D02*
X213603840Y-33004760D01*
X213229980Y-34452560D02*
X213229980Y-33378620D01*
X211029592Y-30659112D02*
X211775040Y-31404560D01*
X211029592Y-30659112D02*
X211005079Y-30633365D01*
X211005079Y-30633365D02*
X210981860Y-30606448D01*
X210981860Y-30606448D02*
X210959989Y-30578423D01*
X210959989Y-30578423D02*
X210939520Y-30549359D01*
X210939520Y-30549359D02*
X210920502Y-30519326D01*
X210920502Y-30519326D02*
X210902980Y-30488395D01*
X210902980Y-30488395D02*
X210886997Y-30456642D01*
X210886997Y-30456642D02*
X210872591Y-30424143D01*
X210872591Y-30424143D02*
X210859797Y-30390977D01*
X210859797Y-30390977D02*
X210848646Y-30357222D01*
X210848646Y-30357222D02*
X210839165Y-30322961D01*
X210839165Y-30322961D02*
X210831376Y-30288276D01*
X210831376Y-30288276D02*
X210825299Y-30253251D01*
X210825299Y-30253251D02*
X210820947Y-30217970D01*
X210820947Y-30217970D02*
X210818332Y-30182517D01*
X210818332Y-30182517D02*
X210817460Y-30146980D01*
X211029592Y-28060127D02*
X211647560Y-27442160D01*
X211029592Y-28060127D02*
X211005079Y-28085872D01*
X211005079Y-28085872D02*
X210981860Y-28112790D01*
X210981860Y-28112790D02*
X210959989Y-28140815D01*
X210959989Y-28140815D02*
X210939520Y-28169879D01*
X210939520Y-28169879D02*
X210920501Y-28199913D01*
X210920501Y-28199913D02*
X210902979Y-28230843D01*
X210902979Y-28230843D02*
X210886996Y-28262596D01*
X210886996Y-28262596D02*
X210872591Y-28295095D01*
X210872591Y-28295095D02*
X210859797Y-28328262D01*
X210859797Y-28328262D02*
X210848646Y-28362016D01*
X210848646Y-28362016D02*
X210839165Y-28396277D01*
X210839165Y-28396277D02*
X210831376Y-28430962D01*
X210831376Y-28430962D02*
X210825298Y-28465988D01*
X210825298Y-28465988D02*
X210820947Y-28501269D01*
X210820947Y-28501269D02*
X210818332Y-28536721D01*
X210818332Y-28536721D02*
X210817460Y-28572260D01*
X210817460Y-28572260D02*
X210817460Y-30146980D01*
X223336800Y-24417200D02*
X223336800Y-25317200D01*
X223336800Y-23975400D02*
X223336800Y-24417200D01*
X223336800Y-23975400D02*
X223335926Y-23939861D01*
X223335926Y-23939861D02*
X223333311Y-23904409D01*
X223333311Y-23904409D02*
X223328959Y-23869128D01*
X223328959Y-23869128D02*
X223322882Y-23834102D01*
X223322882Y-23834102D02*
X223315093Y-23799417D01*
X223315093Y-23799417D02*
X223305612Y-23765156D01*
X223305612Y-23765156D02*
X223294461Y-23731402D01*
X223294461Y-23731402D02*
X223281667Y-23698235D01*
X223281667Y-23698235D02*
X223267261Y-23665736D01*
X223267261Y-23665736D02*
X223251278Y-23633983D01*
X223251278Y-23633983D02*
X223233756Y-23603053D01*
X223233756Y-23603053D02*
X223214738Y-23573019D01*
X223214738Y-23573019D02*
X223194269Y-23543955D01*
X223194269Y-23543955D02*
X223172398Y-23515930D01*
X223172398Y-23515930D02*
X223149179Y-23489013D01*
X223149179Y-23489013D02*
X223124667Y-23463267D01*
X223703160Y-20568920D02*
X223667621Y-20569791D01*
X223667621Y-20569791D02*
X223632169Y-20572407D01*
X223632169Y-20572407D02*
X223596888Y-20576758D01*
X223596888Y-20576758D02*
X223561862Y-20582836D01*
X223561862Y-20582836D02*
X223527177Y-20590624D01*
X223527177Y-20590624D02*
X223492916Y-20600106D01*
X223492916Y-20600106D02*
X223459162Y-20611257D01*
X223459162Y-20611257D02*
X223425995Y-20624050D01*
X223425995Y-20624050D02*
X223393496Y-20638456D01*
X223393496Y-20638456D02*
X223361743Y-20654439D01*
X223361743Y-20654439D02*
X223330812Y-20671961D01*
X223330812Y-20671961D02*
X223300779Y-20690980D01*
X223300779Y-20690980D02*
X223271715Y-20711449D01*
X223271715Y-20711449D02*
X223243690Y-20733319D01*
X223243690Y-20733319D02*
X223216772Y-20756539D01*
X223216772Y-20756539D02*
X223191027Y-20781052D01*
X228126332Y-20781052D02*
X228100585Y-20756540D01*
X228100585Y-20756540D02*
X228073667Y-20733320D01*
X228073667Y-20733320D02*
X228045643Y-20711450D01*
X228045643Y-20711450D02*
X228016579Y-20690980D01*
X228016579Y-20690980D02*
X227986545Y-20671962D01*
X227986545Y-20671962D02*
X227955615Y-20654440D01*
X227955615Y-20654440D02*
X227923862Y-20638457D01*
X227923862Y-20638457D02*
X227891363Y-20624051D01*
X227891363Y-20624051D02*
X227858197Y-20611257D01*
X227858197Y-20611257D02*
X227824442Y-20600106D01*
X227824442Y-20600106D02*
X227790181Y-20590625D01*
X227790181Y-20590625D02*
X227755496Y-20582836D01*
X227755496Y-20582836D02*
X227720471Y-20576759D01*
X227720471Y-20576759D02*
X227685190Y-20572407D01*
X227685190Y-20572407D02*
X227649737Y-20569792D01*
X227649737Y-20569792D02*
X227614200Y-20568920D01*
X227614200Y-20568920D02*
X223703160Y-20568920D01*
X223016600Y-21155480D02*
X223016600Y-22555200D01*
X223016600Y-21155480D02*
X223017180Y-21131788D01*
X223017180Y-21131788D02*
X223018924Y-21108153D01*
X223018924Y-21108153D02*
X223021825Y-21084632D01*
X223021825Y-21084632D02*
X223025876Y-21061281D01*
X223025876Y-21061281D02*
X223031069Y-21038158D01*
X223031069Y-21038158D02*
X223037390Y-21015317D01*
X223037390Y-21015317D02*
X223044824Y-20992814D01*
X223044824Y-20992814D02*
X223053353Y-20970703D01*
X223053353Y-20970703D02*
X223062956Y-20949037D01*
X223062956Y-20949037D02*
X223073612Y-20927869D01*
X223073612Y-20927869D02*
X223085293Y-20907248D01*
X223085293Y-20907248D02*
X223097972Y-20887226D01*
X223097972Y-20887226D02*
X223111618Y-20867850D01*
X223111618Y-20867850D02*
X223126198Y-20849167D01*
X223126198Y-20849167D02*
X223141678Y-20831221D01*
X223141678Y-20831221D02*
X223158020Y-20814058D01*
X223158020Y-20814058D02*
X223191027Y-20781052D01*
X223016600Y-23255200D02*
X223016600Y-22555200D01*
X223016600Y-23255200D02*
X223016889Y-23267045D01*
X223016889Y-23267045D02*
X223017761Y-23278863D01*
X223017761Y-23278863D02*
X223019212Y-23290623D01*
X223019212Y-23290623D02*
X223021237Y-23302298D01*
X223021237Y-23302298D02*
X223023834Y-23313860D01*
X223023834Y-23313860D02*
X223026994Y-23325280D01*
X223026994Y-23325280D02*
X223030711Y-23336532D01*
X223030711Y-23336532D02*
X223034976Y-23347587D01*
X223034976Y-23347587D02*
X223039778Y-23358420D01*
X223039778Y-23358420D02*
X223045105Y-23369004D01*
X223045105Y-23369004D02*
X223050946Y-23379315D01*
X223050946Y-23379315D02*
X223057285Y-23389326D01*
X223057285Y-23389326D02*
X223064108Y-23399014D01*
X223064108Y-23399014D02*
X223071399Y-23408355D01*
X223071399Y-23408355D02*
X223079139Y-23417328D01*
X223079139Y-23417328D02*
X223087310Y-23425910D01*
X223087310Y-23425910D02*
X223124667Y-23463267D01*
X228299800Y-21054520D02*
X228299800Y-21742400D01*
X228299800Y-21054520D02*
X228299508Y-21042674D01*
X228299508Y-21042674D02*
X228298636Y-21030856D01*
X228298636Y-21030856D02*
X228297185Y-21019096D01*
X228297185Y-21019096D02*
X228295160Y-21007421D01*
X228295160Y-21007421D02*
X228292563Y-20995859D01*
X228292563Y-20995859D02*
X228289403Y-20984439D01*
X228289403Y-20984439D02*
X228285686Y-20973187D01*
X228285686Y-20973187D02*
X228281421Y-20962132D01*
X228281421Y-20962132D02*
X228276620Y-20951299D01*
X228276620Y-20951299D02*
X228271292Y-20940714D01*
X228271292Y-20940714D02*
X228265451Y-20930404D01*
X228265451Y-20930404D02*
X228259112Y-20920393D01*
X228259112Y-20920393D02*
X228252289Y-20910705D01*
X228252289Y-20910705D02*
X228244999Y-20901363D01*
X228244999Y-20901363D02*
X228237259Y-20892391D01*
X228237259Y-20892391D02*
X228229089Y-20883809D01*
X228229089Y-20883809D02*
X228126332Y-20781052D01*
X228936800Y-26917200D02*
X227343600Y-26917200D01*
X227343600Y-26917200D02*
X227336800Y-26924000D01*
X227336800Y-26924000D02*
X227336800Y-25317200D01*
X220268800Y-32449200D02*
X220236800Y-32417200D01*
X220268800Y-33481800D02*
X220268800Y-32449200D01*
X227368800Y-25349200D02*
X227336800Y-25317200D01*
X228396800Y-25349200D02*
X227368800Y-25349200D01*
X228396800Y-25349200D02*
X228984300Y-25349200D01*
X221136800Y-32417200D02*
X221143600Y-32410400D01*
D17*
X221970600Y-31978600D02*
X226905000Y-31978600D01*
D19*
X220236800Y-32417200D02*
X221136800Y-32417200D01*
D17*
X226905000Y-27355800D02*
X227343600Y-26917200D01*
D19*
X226905000Y-27482800D02*
X226905000Y-27355800D01*
D17*
X226905000Y-31978600D02*
X226905000Y-27482800D01*
D19*
X228082040Y-34762440D02*
X227336800Y-34017200D01*
X228360760Y-34762440D02*
X228082040Y-34762440D01*
X227124667Y-32198267D02*
X226905000Y-31978600D01*
X227124667Y-32198267D02*
X227149178Y-32224013D01*
X227149178Y-32224013D02*
X227172398Y-32250931D01*
X227172398Y-32250931D02*
X227194268Y-32278956D01*
X227194268Y-32278956D02*
X227214737Y-32308020D01*
X227214737Y-32308020D02*
X227233756Y-32338053D01*
X227233756Y-32338053D02*
X227251278Y-32368984D01*
X227251278Y-32368984D02*
X227267261Y-32400736D01*
X227267261Y-32400736D02*
X227281667Y-32433235D01*
X227281667Y-32433235D02*
X227294460Y-32466402D01*
X227294460Y-32466402D02*
X227305611Y-32500157D01*
X227305611Y-32500157D02*
X227315093Y-32534418D01*
X227315093Y-32534418D02*
X227322881Y-32569102D01*
X227322881Y-32569102D02*
X227328959Y-32604128D01*
X227328959Y-32604128D02*
X227333310Y-32639409D01*
X227333310Y-32639409D02*
X227335926Y-32674862D01*
X227335926Y-32674862D02*
X227336800Y-32710400D01*
X227336800Y-32710400D02*
X227336800Y-34017200D01*
X229523332Y-22393867D02*
X230174800Y-21742400D01*
X229523332Y-22393867D02*
X229498819Y-22419612D01*
X229498819Y-22419612D02*
X229475600Y-22446530D01*
X229475600Y-22446530D02*
X229453729Y-22474555D01*
X229453729Y-22474555D02*
X229433260Y-22503619D01*
X229433260Y-22503619D02*
X229414241Y-22533653D01*
X229414241Y-22533653D02*
X229396719Y-22564583D01*
X229396719Y-22564583D02*
X229380736Y-22596336D01*
X229380736Y-22596336D02*
X229366331Y-22628835D01*
X229366331Y-22628835D02*
X229353537Y-22662002D01*
X229353537Y-22662002D02*
X229342386Y-22695756D01*
X229342386Y-22695756D02*
X229332905Y-22730017D01*
X229332905Y-22730017D02*
X229325116Y-22764702D01*
X229325116Y-22764702D02*
X229319038Y-22799728D01*
X229319038Y-22799728D02*
X229314687Y-22835009D01*
X229314687Y-22835009D02*
X229312072Y-22870461D01*
X229312072Y-22870461D02*
X229311200Y-22906000D01*
X229099067Y-25234432D02*
X228984300Y-25349200D01*
X229099067Y-25234432D02*
X229123578Y-25208685D01*
X229123578Y-25208685D02*
X229146798Y-25181767D01*
X229146798Y-25181767D02*
X229168668Y-25153743D01*
X229168668Y-25153743D02*
X229189138Y-25124679D01*
X229189138Y-25124679D02*
X229208156Y-25094645D01*
X229208156Y-25094645D02*
X229225678Y-25063715D01*
X229225678Y-25063715D02*
X229241661Y-25031962D01*
X229241661Y-25031962D02*
X229256067Y-24999463D01*
X229256067Y-24999463D02*
X229268861Y-24966297D01*
X229268861Y-24966297D02*
X229280012Y-24932542D01*
X229280012Y-24932542D02*
X229289493Y-24898281D01*
X229289493Y-24898281D02*
X229297282Y-24863596D01*
X229297282Y-24863596D02*
X229303360Y-24828571D01*
X229303360Y-24828571D02*
X229307711Y-24793290D01*
X229307711Y-24793290D02*
X229310326Y-24757837D01*
X229310326Y-24757837D02*
X229311200Y-24722300D01*
X229311200Y-24722300D02*
X229311200Y-22906000D01*
D17*
X226787016Y-27147110D02*
X226905000Y-27265094D01*
X226787016Y-27147110D02*
X226778434Y-27138938D01*
X226778434Y-27138938D02*
X226769461Y-27131198D01*
X226769461Y-27131198D02*
X226760120Y-27123908D01*
X226760120Y-27123908D02*
X226750432Y-27117085D01*
X226750432Y-27117085D02*
X226740421Y-27110746D01*
X226740421Y-27110746D02*
X226730111Y-27104905D01*
X226730111Y-27104905D02*
X226719526Y-27099577D01*
X226719526Y-27099577D02*
X226708693Y-27094775D01*
X226708693Y-27094775D02*
X226697638Y-27090511D01*
X226697638Y-27090511D02*
X226686386Y-27086794D01*
X226686386Y-27086794D02*
X226674966Y-27083633D01*
X226674966Y-27083633D02*
X226663404Y-27081037D01*
X226663404Y-27081037D02*
X226651729Y-27079011D01*
X226651729Y-27079011D02*
X226639969Y-27077561D01*
X226639969Y-27077561D02*
X226628151Y-27076689D01*
X226628151Y-27076689D02*
X226616306Y-27076400D01*
X226616306Y-27076400D02*
X226009200Y-27076400D01*
D19*
X221750932Y-32198267D02*
X221970600Y-31978600D01*
X221750932Y-32198267D02*
X221725185Y-32222779D01*
X221725185Y-32222779D02*
X221698268Y-32245998D01*
X221698268Y-32245998D02*
X221670243Y-32267869D01*
X221670243Y-32267869D02*
X221641179Y-32288338D01*
X221641179Y-32288338D02*
X221611146Y-32307357D01*
X221611146Y-32307357D02*
X221580215Y-32324878D01*
X221580215Y-32324878D02*
X221548462Y-32340862D01*
X221548462Y-32340862D02*
X221515963Y-32355267D01*
X221515963Y-32355267D02*
X221482797Y-32368061D01*
X221482797Y-32368061D02*
X221449042Y-32379212D01*
X221449042Y-32379212D02*
X221414781Y-32388693D01*
X221414781Y-32388693D02*
X221380096Y-32396482D01*
X221380096Y-32396482D02*
X221345071Y-32402560D01*
X221345071Y-32402560D02*
X221309790Y-32406911D01*
X221309790Y-32406911D02*
X221274337Y-32409526D01*
X221274337Y-32409526D02*
X221238800Y-32410400D01*
X221238800Y-32410400D02*
X221143600Y-32410400D01*
X228198200Y-23368000D02*
X228350600Y-23520400D01*
X226669600Y-23368000D02*
X228198200Y-23368000D01*
X224924001Y-24129999D02*
X224888462Y-24130870D01*
X224888462Y-24130870D02*
X224853010Y-24133486D01*
X224853010Y-24133486D02*
X224817729Y-24137837D01*
X224817729Y-24137837D02*
X224782703Y-24143915D01*
X224782703Y-24143915D02*
X224748018Y-24151703D01*
X224748018Y-24151703D02*
X224713757Y-24161185D01*
X224713757Y-24161185D02*
X224680003Y-24172336D01*
X224680003Y-24172336D02*
X224646836Y-24185129D01*
X224646836Y-24185129D02*
X224614337Y-24199535D01*
X224614337Y-24199535D02*
X224582584Y-24215518D01*
X224582584Y-24215518D02*
X224551653Y-24233040D01*
X224551653Y-24233040D02*
X224521620Y-24252059D01*
X224521620Y-24252059D02*
X224492556Y-24272528D01*
X224492556Y-24272528D02*
X224464531Y-24294398D01*
X224464531Y-24294398D02*
X224437613Y-24317618D01*
X224437613Y-24317618D02*
X224411868Y-24342131D01*
X226119733Y-23917866D02*
X226669600Y-23368000D01*
X226119733Y-23917866D02*
X226093986Y-23942377D01*
X226093986Y-23942377D02*
X226067068Y-23965597D01*
X226067068Y-23965597D02*
X226039044Y-23987467D01*
X226039044Y-23987467D02*
X226009980Y-24007937D01*
X226009980Y-24007937D02*
X225979946Y-24026955D01*
X225979946Y-24026955D02*
X225949016Y-24044477D01*
X225949016Y-24044477D02*
X225917263Y-24060460D01*
X225917263Y-24060460D02*
X225884764Y-24074866D01*
X225884764Y-24074866D02*
X225851598Y-24087660D01*
X225851598Y-24087660D02*
X225817843Y-24098811D01*
X225817843Y-24098811D02*
X225783582Y-24108292D01*
X225783582Y-24108292D02*
X225748897Y-24116081D01*
X225748897Y-24116081D02*
X225713872Y-24122159D01*
X225713872Y-24122159D02*
X225678591Y-24126510D01*
X225678591Y-24126510D02*
X225643138Y-24129125D01*
X225643138Y-24129125D02*
X225607601Y-24129999D01*
X225607601Y-24129999D02*
X224924001Y-24129999D01*
X224336800Y-24517200D02*
X224336800Y-25317200D01*
X224336800Y-24517200D02*
X224337089Y-24505353D01*
X224337089Y-24505353D02*
X224337961Y-24493536D01*
X224337961Y-24493536D02*
X224339412Y-24481775D01*
X224339412Y-24481775D02*
X224341437Y-24470100D01*
X224341437Y-24470100D02*
X224344034Y-24458538D01*
X224344034Y-24458538D02*
X224347194Y-24447118D01*
X224347194Y-24447118D02*
X224350911Y-24435866D01*
X224350911Y-24435866D02*
X224355176Y-24424811D01*
X224355176Y-24424811D02*
X224359978Y-24413978D01*
X224359978Y-24413978D02*
X224365305Y-24403393D01*
X224365305Y-24403393D02*
X224371146Y-24393083D01*
X224371146Y-24393083D02*
X224377485Y-24383072D01*
X224377485Y-24383072D02*
X224384308Y-24373384D01*
X224384308Y-24373384D02*
X224391598Y-24364042D01*
X224391598Y-24364042D02*
X224399338Y-24355069D01*
X224399338Y-24355069D02*
X224407510Y-24346488D01*
X224407510Y-24346488D02*
X224411868Y-24342131D01*
X213499700Y-29598620D02*
X213570820Y-29669740D01*
X211775040Y-29598620D02*
X213499700Y-29598620D01*
X213570820Y-31071740D02*
X213603840Y-31104760D01*
X213570820Y-29669740D02*
X213570820Y-31071740D01*
X217906600Y-24425120D02*
X217916280Y-24434800D01*
X217906600Y-22606000D02*
X217906600Y-24425120D01*
D16*
X217794840Y-38836600D02*
X217794840Y-38836600D01*
X217794840Y-38836600D02*
X219588080Y-38836600D01*
X211175600Y-38836600D02*
X214339770Y-38836600D01*
X216418160Y-24673560D02*
X216783920Y-24673560D01*
X216783920Y-24673560D02*
X216809320Y-24648160D01*
D19*
X213113838Y-33004760D02*
X212674200Y-32565122D01*
X213603840Y-33004760D02*
X213113838Y-33004760D01*
X212674200Y-32303720D02*
X211775040Y-31404560D01*
X212674200Y-32565122D02*
X212674200Y-32303720D01*
X224336800Y-35064000D02*
X224336800Y-34017200D01*
X224336800Y-35064000D02*
X224333891Y-35182459D01*
X224333891Y-35182459D02*
X224325174Y-35300634D01*
X224325174Y-35300634D02*
X224310669Y-35418238D01*
X224310669Y-35418238D02*
X224290411Y-35534989D01*
X224290411Y-35534989D02*
X224264448Y-35650605D01*
X224264448Y-35650605D02*
X224232844Y-35764808D01*
X224232844Y-35764808D02*
X224195674Y-35877323D01*
X224195674Y-35877323D02*
X224153028Y-35987879D01*
X224153028Y-35987879D02*
X224105009Y-36096208D01*
X224105009Y-36096208D02*
X224051732Y-36202051D01*
X224051732Y-36202051D02*
X223993325Y-36305153D01*
X223993325Y-36305153D02*
X223929931Y-36405264D01*
X223929931Y-36405264D02*
X223861700Y-36502144D01*
X223861700Y-36502144D02*
X223788798Y-36595559D01*
X223788798Y-36595559D02*
X223711400Y-36685285D01*
X223711400Y-36685285D02*
X223629693Y-36771106D01*
X223629693Y-36771106D02*
X223215200Y-37185600D01*
X224836800Y-36876800D02*
X225145600Y-37185600D01*
X224836800Y-34017200D02*
X224836800Y-36876800D01*
X228940800Y-29921200D02*
X228936800Y-29917200D01*
X231140000Y-29921200D02*
X228940800Y-29921200D01*
X231089200Y-28124802D02*
X231089200Y-27990800D01*
X230008934Y-29205067D02*
X231089200Y-28124802D01*
X230008934Y-29205067D02*
X229983187Y-29229579D01*
X229983187Y-29229579D02*
X229956270Y-29252798D01*
X229956270Y-29252798D02*
X229928245Y-29274669D01*
X229928245Y-29274669D02*
X229899181Y-29295138D01*
X229899181Y-29295138D02*
X229869148Y-29314157D01*
X229869148Y-29314157D02*
X229838217Y-29331678D01*
X229838217Y-29331678D02*
X229806464Y-29347662D01*
X229806464Y-29347662D02*
X229773965Y-29362067D01*
X229773965Y-29362067D02*
X229740799Y-29374861D01*
X229740799Y-29374861D02*
X229707044Y-29386012D01*
X229707044Y-29386012D02*
X229672783Y-29395493D01*
X229672783Y-29395493D02*
X229638098Y-29403282D01*
X229638098Y-29403282D02*
X229603073Y-29409360D01*
X229603073Y-29409360D02*
X229567792Y-29413711D01*
X229567792Y-29413711D02*
X229532339Y-29416326D01*
X229532339Y-29416326D02*
X229496802Y-29417200D01*
X229496802Y-29417200D02*
X228936800Y-29417200D01*
X226314001Y-34039999D02*
X226336800Y-34017200D01*
X226314001Y-36123601D02*
X226314001Y-34039999D01*
X226314001Y-36123601D02*
X226314873Y-36159138D01*
X226314873Y-36159138D02*
X226317488Y-36194591D01*
X226317488Y-36194591D02*
X226321840Y-36229872D01*
X226321840Y-36229872D02*
X226327917Y-36264897D01*
X226327917Y-36264897D02*
X226335706Y-36299582D01*
X226335706Y-36299582D02*
X226345187Y-36333843D01*
X226345187Y-36333843D02*
X226356338Y-36367598D01*
X226356338Y-36367598D02*
X226369132Y-36400764D01*
X226369132Y-36400764D02*
X226383538Y-36433263D01*
X226383538Y-36433263D02*
X226399521Y-36465016D01*
X226399521Y-36465016D02*
X226417043Y-36495947D01*
X226417043Y-36495947D02*
X226436061Y-36525980D01*
X226436061Y-36525980D02*
X226456530Y-36555044D01*
X226456530Y-36555044D02*
X226478401Y-36583069D01*
X226478401Y-36583069D02*
X226501620Y-36609986D01*
X226501620Y-36609986D02*
X226526133Y-36635733D01*
X226526133Y-36635733D02*
X227076000Y-37185600D01*
X231092560Y-32417200D02*
X231104440Y-32405320D01*
X228936800Y-32417200D02*
X231092560Y-32417200D01*
X221624667Y-36845732D02*
X221284800Y-37185600D01*
X221624667Y-36845732D02*
X221649178Y-36819985D01*
X221649178Y-36819985D02*
X221672398Y-36793067D01*
X221672398Y-36793067D02*
X221694268Y-36765043D01*
X221694268Y-36765043D02*
X221714738Y-36735979D01*
X221714738Y-36735979D02*
X221733756Y-36705945D01*
X221733756Y-36705945D02*
X221751278Y-36675015D01*
X221751278Y-36675015D02*
X221767261Y-36643262D01*
X221767261Y-36643262D02*
X221781667Y-36610763D01*
X221781667Y-36610763D02*
X221794461Y-36577597D01*
X221794461Y-36577597D02*
X221805612Y-36543842D01*
X221805612Y-36543842D02*
X221815093Y-36509581D01*
X221815093Y-36509581D02*
X221822882Y-36474896D01*
X221822882Y-36474896D02*
X221828960Y-36439871D01*
X221828960Y-36439871D02*
X221833311Y-36404590D01*
X221833311Y-36404590D02*
X221835926Y-36369137D01*
X221835926Y-36369137D02*
X221836800Y-36333600D01*
X221836800Y-36333600D02*
X221836800Y-34017200D01*
X218076780Y-20429220D02*
X218236800Y-20269200D01*
D17*
X217093800Y-20269200D02*
X218236800Y-20269200D01*
D19*
X217460040Y-33004760D02*
X217515440Y-32949360D01*
D17*
X215803840Y-33004760D02*
X216626440Y-33004760D01*
X216626440Y-33004760D02*
X217460040Y-33004760D01*
X211800440Y-34394140D02*
X211800440Y-33182560D01*
X211800440Y-34897060D02*
X211800440Y-34394140D01*
X211228940Y-25000740D02*
X210776340Y-25453340D01*
X211228940Y-23990300D02*
X211228940Y-25000740D01*
X216626440Y-34513240D02*
X216626440Y-33004760D01*
X216626440Y-34513240D02*
X216625567Y-34548777D01*
X216625567Y-34548777D02*
X216622952Y-34584230D01*
X216622952Y-34584230D02*
X216618600Y-34619511D01*
X216618600Y-34619511D02*
X216612523Y-34654536D01*
X216612523Y-34654536D02*
X216604734Y-34689221D01*
X216604734Y-34689221D02*
X216595252Y-34723482D01*
X216595252Y-34723482D02*
X216584101Y-34757237D01*
X216584101Y-34757237D02*
X216571308Y-34790403D01*
X216571308Y-34790403D02*
X216556902Y-34822902D01*
X216556902Y-34822902D02*
X216540919Y-34854655D01*
X216540919Y-34854655D02*
X216523397Y-34885586D01*
X216523397Y-34885586D02*
X216504378Y-34915619D01*
X216504378Y-34915619D02*
X216483909Y-34944683D01*
X216483909Y-34944683D02*
X216462038Y-34972708D01*
X216462038Y-34972708D02*
X216438819Y-34999626D01*
X216438819Y-34999626D02*
X216414307Y-35025372D01*
X215424740Y-35714940D02*
X215460277Y-35714066D01*
X215460277Y-35714066D02*
X215495730Y-35711451D01*
X215495730Y-35711451D02*
X215531011Y-35707100D01*
X215531011Y-35707100D02*
X215566036Y-35701022D01*
X215566036Y-35701022D02*
X215600721Y-35693233D01*
X215600721Y-35693233D02*
X215634982Y-35683752D01*
X215634982Y-35683752D02*
X215668736Y-35672601D01*
X215668736Y-35672601D02*
X215701903Y-35659807D01*
X215701903Y-35659807D02*
X215734402Y-35645401D01*
X215734402Y-35645401D02*
X215766154Y-35629418D01*
X215766154Y-35629418D02*
X215797085Y-35611896D01*
X215797085Y-35611896D02*
X215827118Y-35592878D01*
X215827118Y-35592878D02*
X215856182Y-35572409D01*
X215856182Y-35572409D02*
X215884207Y-35550538D01*
X215884207Y-35550538D02*
X215911124Y-35527318D01*
X215911124Y-35527318D02*
X215936871Y-35502807D01*
X215936871Y-35502807D02*
X216414307Y-35025372D01*
X212406187Y-35502807D02*
X212431933Y-35527319D01*
X212431933Y-35527319D02*
X212458850Y-35550538D01*
X212458850Y-35550538D02*
X212486875Y-35572409D01*
X212486875Y-35572409D02*
X212515939Y-35592878D01*
X212515939Y-35592878D02*
X212545973Y-35611897D01*
X212545973Y-35611897D02*
X212576903Y-35629419D01*
X212576903Y-35629419D02*
X212608656Y-35645402D01*
X212608656Y-35645402D02*
X212641155Y-35659808D01*
X212641155Y-35659808D02*
X212674322Y-35672601D01*
X212674322Y-35672601D02*
X212708076Y-35683752D01*
X212708076Y-35683752D02*
X212742337Y-35693234D01*
X212742337Y-35693234D02*
X212777022Y-35701022D01*
X212777022Y-35701022D02*
X212812048Y-35707100D01*
X212812048Y-35707100D02*
X212847329Y-35711451D01*
X212847329Y-35711451D02*
X212882781Y-35714067D01*
X212882781Y-35714067D02*
X212918320Y-35714940D01*
X212918320Y-35714940D02*
X215424740Y-35714940D01*
X209730620Y-34897060D02*
X209695081Y-34896187D01*
X209695081Y-34896187D02*
X209659629Y-34893572D01*
X209659629Y-34893572D02*
X209624348Y-34889220D01*
X209624348Y-34889220D02*
X209589322Y-34883143D01*
X209589322Y-34883143D02*
X209554637Y-34875354D01*
X209554637Y-34875354D02*
X209520376Y-34865873D01*
X209520376Y-34865873D02*
X209486622Y-34854722D01*
X209486622Y-34854722D02*
X209453455Y-34841928D01*
X209453455Y-34841928D02*
X209420956Y-34827522D01*
X209420956Y-34827522D02*
X209389203Y-34811539D01*
X209389203Y-34811539D02*
X209358272Y-34794017D01*
X209358272Y-34794017D02*
X209328239Y-34774999D01*
X209328239Y-34774999D02*
X209299175Y-34754529D01*
X209299175Y-34754529D02*
X209271150Y-34732659D01*
X209271150Y-34732659D02*
X209244232Y-34709439D01*
X209244232Y-34709439D02*
X209218487Y-34684927D01*
X208742280Y-33908720D02*
X208743152Y-33944257D01*
X208743152Y-33944257D02*
X208745767Y-33979710D01*
X208745767Y-33979710D02*
X208750119Y-34014991D01*
X208750119Y-34014991D02*
X208756196Y-34050016D01*
X208756196Y-34050016D02*
X208763985Y-34084701D01*
X208763985Y-34084701D02*
X208773466Y-34118962D01*
X208773466Y-34118962D02*
X208784617Y-34152717D01*
X208784617Y-34152717D02*
X208797411Y-34185883D01*
X208797411Y-34185883D02*
X208811817Y-34218382D01*
X208811817Y-34218382D02*
X208827800Y-34250135D01*
X208827800Y-34250135D02*
X208845322Y-34281066D01*
X208845322Y-34281066D02*
X208864340Y-34311099D01*
X208864340Y-34311099D02*
X208884809Y-34340163D01*
X208884809Y-34340163D02*
X208906680Y-34368188D01*
X208906680Y-34368188D02*
X208929899Y-34395105D01*
X208929899Y-34395105D02*
X208954412Y-34420852D01*
X208954412Y-34420852D02*
X209218487Y-34684927D01*
X208742280Y-27987400D02*
X208742280Y-33908720D01*
X208742280Y-27987400D02*
X208743733Y-27928170D01*
X208743733Y-27928170D02*
X208748092Y-27869082D01*
X208748092Y-27869082D02*
X208755344Y-27810280D01*
X208755344Y-27810280D02*
X208765473Y-27751904D01*
X208765473Y-27751904D02*
X208778455Y-27694096D01*
X208778455Y-27694096D02*
X208794257Y-27636995D01*
X208794257Y-27636995D02*
X208812842Y-27580737D01*
X208812842Y-27580737D02*
X208834165Y-27525459D01*
X208834165Y-27525459D02*
X208858174Y-27471294D01*
X208858174Y-27471294D02*
X208884813Y-27418373D01*
X208884813Y-27418373D02*
X208914016Y-27366822D01*
X208914016Y-27366822D02*
X208945713Y-27316766D01*
X208945713Y-27316766D02*
X208979828Y-27268326D01*
X208979828Y-27268326D02*
X209016280Y-27221618D01*
X209016280Y-27221618D02*
X209054979Y-27176755D01*
X209054979Y-27176755D02*
X209095833Y-27133846D01*
X209095833Y-27133846D02*
X210776340Y-25453340D01*
X212012572Y-35109192D02*
X212406187Y-35502807D01*
X212012572Y-35109192D02*
X211986825Y-35084680D01*
X211986825Y-35084680D02*
X211959907Y-35061460D01*
X211959907Y-35061460D02*
X211931883Y-35039590D01*
X211931883Y-35039590D02*
X211902819Y-35019120D01*
X211902819Y-35019120D02*
X211872785Y-35000102D01*
X211872785Y-35000102D02*
X211841855Y-34982580D01*
X211841855Y-34982580D02*
X211810102Y-34966597D01*
X211810102Y-34966597D02*
X211777603Y-34952191D01*
X211777603Y-34952191D02*
X211744437Y-34939397D01*
X211744437Y-34939397D02*
X211710682Y-34928246D01*
X211710682Y-34928246D02*
X211676421Y-34918765D01*
X211676421Y-34918765D02*
X211641736Y-34910976D01*
X211641736Y-34910976D02*
X211606711Y-34904899D01*
X211606711Y-34904899D02*
X211571430Y-34900547D01*
X211571430Y-34900547D02*
X211535977Y-34897932D01*
X211535977Y-34897932D02*
X211500440Y-34897060D01*
X211500440Y-34897060D02*
X209730620Y-34897060D01*
D19*
X211215840Y-22077200D02*
X211228940Y-22090300D01*
X209565240Y-22077200D02*
X211215840Y-22077200D01*
X209900040Y-33157160D02*
X209925440Y-33182560D01*
X209900040Y-31404560D02*
X209900040Y-33157160D01*
X209900040Y-29598620D02*
X209900040Y-31404560D01*
X214109300Y-20269200D02*
X213692740Y-20685760D01*
D17*
X215218800Y-20269200D02*
X214109300Y-20269200D01*
D19*
X213692740Y-21826500D02*
X213428940Y-22090300D01*
D17*
X213692740Y-20685760D02*
X213692740Y-21826500D01*
X215218800Y-21069200D02*
X215218800Y-20269200D01*
X215218800Y-22480440D02*
X215218800Y-21069200D01*
X215218800Y-22480440D02*
X215217345Y-22539669D01*
X215217345Y-22539669D02*
X215212987Y-22598757D01*
X215212987Y-22598757D02*
X215205734Y-22657559D01*
X215205734Y-22657559D02*
X215195605Y-22715934D01*
X215195605Y-22715934D02*
X215182624Y-22773742D01*
X215182624Y-22773742D02*
X215166821Y-22830844D01*
X215166821Y-22830844D02*
X215148236Y-22887101D01*
X215148236Y-22887101D02*
X215126913Y-22942379D01*
X215126913Y-22942379D02*
X215102904Y-22996544D01*
X215102904Y-22996544D02*
X215076265Y-23049465D01*
X215076265Y-23049465D02*
X215047062Y-23101016D01*
X215047062Y-23101016D02*
X215015365Y-23151072D01*
X215015365Y-23151072D02*
X214981249Y-23199512D01*
X214981249Y-23199512D02*
X214944798Y-23246219D01*
X214944798Y-23246219D02*
X214906099Y-23291082D01*
X214906099Y-23291082D02*
X214865246Y-23333993D01*
X213808940Y-23990300D02*
X213428940Y-23990300D01*
X213808940Y-23990300D02*
X213856323Y-23989136D01*
X213856323Y-23989136D02*
X213903593Y-23985649D01*
X213903593Y-23985649D02*
X213950635Y-23979847D01*
X213950635Y-23979847D02*
X213997335Y-23971744D01*
X213997335Y-23971744D02*
X214043582Y-23961359D01*
X214043582Y-23961359D02*
X214089263Y-23948717D01*
X214089263Y-23948717D02*
X214134269Y-23933849D01*
X214134269Y-23933849D02*
X214178491Y-23916791D01*
X214178491Y-23916791D02*
X214221823Y-23897583D01*
X214221823Y-23897583D02*
X214264160Y-23876272D01*
X214264160Y-23876272D02*
X214305400Y-23852910D01*
X214305400Y-23852910D02*
X214345445Y-23827552D01*
X214345445Y-23827552D02*
X214384197Y-23800259D01*
X214384197Y-23800259D02*
X214421563Y-23771098D01*
X214421563Y-23771098D02*
X214457453Y-23740139D01*
X214457453Y-23740139D02*
X214491782Y-23707457D01*
X214491782Y-23707457D02*
X214865246Y-23333993D01*
D19*
X217977475Y-32054760D02*
X215803840Y-32054760D01*
X217977475Y-32054760D02*
X218036704Y-32053305D01*
X218036704Y-32053305D02*
X218095792Y-32048947D01*
X218095792Y-32048947D02*
X218154594Y-32041694D01*
X218154594Y-32041694D02*
X218212969Y-32031565D01*
X218212969Y-32031565D02*
X218270777Y-32018584D01*
X218270777Y-32018584D02*
X218327879Y-32002781D01*
X218327879Y-32002781D02*
X218384136Y-31984196D01*
X218384136Y-31984196D02*
X218439414Y-31962873D01*
X218439414Y-31962873D02*
X218493579Y-31938864D01*
X218493579Y-31938864D02*
X218546500Y-31912225D01*
X218546500Y-31912225D02*
X218598051Y-31883022D01*
X218598051Y-31883022D02*
X218648107Y-31851325D01*
X218648107Y-31851325D02*
X218696547Y-31817209D01*
X218696547Y-31817209D02*
X218743254Y-31780758D01*
X218743254Y-31780758D02*
X218788117Y-31742059D01*
X218788117Y-31742059D02*
X218831028Y-31701206D01*
X219315035Y-31417200D02*
X220236800Y-31417200D01*
X219315035Y-31417200D02*
X219291342Y-31417781D01*
X219291342Y-31417781D02*
X219267708Y-31419524D01*
X219267708Y-31419524D02*
X219244187Y-31422425D01*
X219244187Y-31422425D02*
X219220836Y-31426477D01*
X219220836Y-31426477D02*
X219197713Y-31431669D01*
X219197713Y-31431669D02*
X219174872Y-31437990D01*
X219174872Y-31437990D02*
X219152369Y-31445424D01*
X219152369Y-31445424D02*
X219130258Y-31453953D01*
X219130258Y-31453953D02*
X219108592Y-31463557D01*
X219108592Y-31463557D02*
X219087424Y-31474212D01*
X219087424Y-31474212D02*
X219066803Y-31485894D01*
X219066803Y-31485894D02*
X219046781Y-31498573D01*
X219046781Y-31498573D02*
X219027405Y-31512219D01*
X219027405Y-31512219D02*
X219008722Y-31526799D01*
X219008722Y-31526799D02*
X218990776Y-31542279D01*
X218990776Y-31542279D02*
X218973613Y-31558621D01*
X218973613Y-31558621D02*
X218831028Y-31701206D01*
X215234520Y-27292300D02*
X215244680Y-27302460D01*
X213408500Y-27292300D02*
X215234520Y-27292300D01*
X217341800Y-27417200D02*
X217083640Y-27675360D01*
X220236800Y-27417200D02*
X217341800Y-27417200D01*
X216393020Y-27373170D02*
X216472610Y-27452760D01*
X216393020Y-27373170D02*
X216384437Y-27364999D01*
X216384437Y-27364999D02*
X216375465Y-27357259D01*
X216375465Y-27357259D02*
X216366123Y-27349969D01*
X216366123Y-27349969D02*
X216356435Y-27343146D01*
X216356435Y-27343146D02*
X216346424Y-27336807D01*
X216346424Y-27336807D02*
X216336114Y-27330966D01*
X216336114Y-27330966D02*
X216325530Y-27325638D01*
X216325530Y-27325638D02*
X216314697Y-27320836D01*
X216314697Y-27320836D02*
X216303641Y-27316572D01*
X216303641Y-27316572D02*
X216292390Y-27312855D01*
X216292390Y-27312855D02*
X216280970Y-27309694D01*
X216280970Y-27309694D02*
X216269408Y-27307098D01*
X216269408Y-27307098D02*
X216257733Y-27305072D01*
X216257733Y-27305072D02*
X216245973Y-27303622D01*
X216245973Y-27303622D02*
X216234155Y-27302750D01*
X216234155Y-27302750D02*
X216222310Y-27302460D01*
X216222310Y-27302460D02*
X215244680Y-27302460D01*
X220290827Y-22096772D02*
X219781600Y-22606000D01*
X220290827Y-22096772D02*
X220316572Y-22072259D01*
X220316572Y-22072259D02*
X220343490Y-22049040D01*
X220343490Y-22049040D02*
X220371515Y-22027169D01*
X220371515Y-22027169D02*
X220400579Y-22006700D01*
X220400579Y-22006700D02*
X220430613Y-21987681D01*
X220430613Y-21987681D02*
X220461543Y-21970159D01*
X220461543Y-21970159D02*
X220493296Y-21954176D01*
X220493296Y-21954176D02*
X220525795Y-21939771D01*
X220525795Y-21939771D02*
X220558962Y-21926977D01*
X220558962Y-21926977D02*
X220592716Y-21915826D01*
X220592716Y-21915826D02*
X220626977Y-21906345D01*
X220626977Y-21906345D02*
X220661662Y-21898556D01*
X220661662Y-21898556D02*
X220696688Y-21892478D01*
X220696688Y-21892478D02*
X220731969Y-21888127D01*
X220731969Y-21888127D02*
X220767421Y-21885512D01*
X220767421Y-21885512D02*
X220802960Y-21884640D01*
X221674732Y-22096772D02*
X221648986Y-22072259D01*
X221648986Y-22072259D02*
X221622068Y-22049039D01*
X221622068Y-22049039D02*
X221594044Y-22027169D01*
X221594044Y-22027169D02*
X221564979Y-22006699D01*
X221564979Y-22006699D02*
X221534946Y-21987681D01*
X221534946Y-21987681D02*
X221504016Y-21970159D01*
X221504016Y-21970159D02*
X221472263Y-21954176D01*
X221472263Y-21954176D02*
X221439764Y-21939770D01*
X221439764Y-21939770D02*
X221406597Y-21926976D01*
X221406597Y-21926976D02*
X221372843Y-21915825D01*
X221372843Y-21915825D02*
X221338582Y-21906344D01*
X221338582Y-21906344D02*
X221303897Y-21898555D01*
X221303897Y-21898555D02*
X221268871Y-21892478D01*
X221268871Y-21892478D02*
X221233590Y-21888126D01*
X221233590Y-21888126D02*
X221198137Y-21885511D01*
X221198137Y-21885511D02*
X221162600Y-21884640D01*
X221162600Y-21884640D02*
X220802960Y-21884640D01*
X221998041Y-22720081D02*
X221997168Y-22684542D01*
X221997168Y-22684542D02*
X221994553Y-22649090D01*
X221994553Y-22649090D02*
X221990201Y-22613809D01*
X221990201Y-22613809D02*
X221984124Y-22578783D01*
X221984124Y-22578783D02*
X221976335Y-22544098D01*
X221976335Y-22544098D02*
X221966854Y-22509837D01*
X221966854Y-22509837D02*
X221955703Y-22476083D01*
X221955703Y-22476083D02*
X221942909Y-22442916D01*
X221942909Y-22442916D02*
X221928503Y-22410417D01*
X221928503Y-22410417D02*
X221912520Y-22378664D01*
X221912520Y-22378664D02*
X221894998Y-22347733D01*
X221894998Y-22347733D02*
X221875980Y-22317700D01*
X221875980Y-22317700D02*
X221855510Y-22288636D01*
X221855510Y-22288636D02*
X221833640Y-22260611D01*
X221833640Y-22260611D02*
X221810420Y-22233693D01*
X221810420Y-22233693D02*
X221785908Y-22207948D01*
X221785908Y-22207948D02*
X221674732Y-22096772D01*
X221927330Y-24066589D02*
X221935500Y-24058006D01*
X221935500Y-24058006D02*
X221943239Y-24049033D01*
X221943239Y-24049033D02*
X221950530Y-24039692D01*
X221950530Y-24039692D02*
X221957353Y-24030004D01*
X221957353Y-24030004D02*
X221963692Y-24019993D01*
X221963692Y-24019993D02*
X221969533Y-24009683D01*
X221969533Y-24009683D02*
X221974861Y-23999099D01*
X221974861Y-23999099D02*
X221979663Y-23988266D01*
X221979663Y-23988266D02*
X221983927Y-23977210D01*
X221983927Y-23977210D02*
X221987644Y-23965959D01*
X221987644Y-23965959D02*
X221990805Y-23954539D01*
X221990805Y-23954539D02*
X221993401Y-23942977D01*
X221993401Y-23942977D02*
X221995427Y-23931302D01*
X221995427Y-23931302D02*
X221996878Y-23919542D01*
X221996878Y-23919542D02*
X221997749Y-23907724D01*
X221997749Y-23907724D02*
X221998041Y-23895879D01*
X221998041Y-23895879D02*
X221998041Y-22720081D01*
X221836800Y-24257120D02*
X221836800Y-25317200D01*
X221836800Y-24257120D02*
X221837089Y-24245273D01*
X221837089Y-24245273D02*
X221837961Y-24233456D01*
X221837961Y-24233456D02*
X221839412Y-24221695D01*
X221839412Y-24221695D02*
X221841437Y-24210020D01*
X221841437Y-24210020D02*
X221844034Y-24198458D01*
X221844034Y-24198458D02*
X221847194Y-24187038D01*
X221847194Y-24187038D02*
X221850911Y-24175786D01*
X221850911Y-24175786D02*
X221855176Y-24164731D01*
X221855176Y-24164731D02*
X221859978Y-24153898D01*
X221859978Y-24153898D02*
X221865305Y-24143313D01*
X221865305Y-24143313D02*
X221871146Y-24133003D01*
X221871146Y-24133003D02*
X221877485Y-24122992D01*
X221877485Y-24122992D02*
X221884308Y-24113304D01*
X221884308Y-24113304D02*
X221891598Y-24103962D01*
X221891598Y-24103962D02*
X221899338Y-24094989D01*
X221899338Y-24094989D02*
X221907510Y-24086408D01*
X221907510Y-24086408D02*
X221927330Y-24066589D01*
D20*
X232563601Y-39422000D02*
X208532800Y-39422000D01*
X208532800Y-35250818D01*
X208569642Y-35287660D01*
X208576747Y-35295897D01*
X208600378Y-35318396D01*
X208623441Y-35341459D01*
X208626031Y-35343584D01*
X208633248Y-35351165D01*
X208649717Y-35365372D01*
X208665468Y-35380368D01*
X208679500Y-35391319D01*
X208692409Y-35403609D01*
X208709553Y-35416988D01*
X208726008Y-35431182D01*
X208740567Y-35441436D01*
X208754026Y-35453046D01*
X208771822Y-35465580D01*
X208788986Y-35478974D01*
X208804002Y-35488482D01*
X208818038Y-35499436D01*
X208836411Y-35511070D01*
X208854181Y-35523586D01*
X208869673Y-35532363D01*
X208884232Y-35542616D01*
X208903162Y-35553339D01*
X208921535Y-35564974D01*
X208937427Y-35572973D01*
X208952465Y-35582496D01*
X208971901Y-35592279D01*
X208990821Y-35602997D01*
X209007084Y-35610206D01*
X209022567Y-35618977D01*
X209042460Y-35627795D01*
X209061888Y-35637574D01*
X209078489Y-35643978D01*
X209094383Y-35651978D01*
X209114676Y-35659806D01*
X209134560Y-35668620D01*
X209151459Y-35674203D01*
X209167727Y-35681414D01*
X209188374Y-35688235D01*
X209208677Y-35696067D01*
X209225830Y-35700814D01*
X209242440Y-35707221D01*
X209263399Y-35713021D01*
X209284046Y-35719842D01*
X209301414Y-35723742D01*
X209318307Y-35729323D01*
X209339540Y-35734091D01*
X209360506Y-35739893D01*
X209378042Y-35742936D01*
X209395198Y-35747683D01*
X209416609Y-35751398D01*
X209437833Y-35756164D01*
X209455502Y-35758343D01*
X209472853Y-35762240D01*
X209494457Y-35764905D01*
X209515898Y-35768625D01*
X209533638Y-35769933D01*
X209551168Y-35772975D01*
X209572844Y-35774574D01*
X209594433Y-35777237D01*
X209612230Y-35777674D01*
X209629885Y-35779852D01*
X209651637Y-35780386D01*
X209673337Y-35781987D01*
X209683795Y-35781730D01*
X209687143Y-35782060D01*
X209719780Y-35782060D01*
X209752351Y-35782860D01*
X209763199Y-35782060D01*
X211433862Y-35782060D01*
X211757351Y-36105549D01*
X211764459Y-36113789D01*
X211788079Y-36136277D01*
X211811141Y-36159339D01*
X211813735Y-36161468D01*
X211820951Y-36169047D01*
X211837422Y-36183255D01*
X211853181Y-36198259D01*
X211867203Y-36209202D01*
X211880094Y-36221475D01*
X211897243Y-36234859D01*
X211913710Y-36249063D01*
X211928265Y-36259314D01*
X211941742Y-36270939D01*
X211959518Y-36283458D01*
X211976669Y-36296843D01*
X211991708Y-36306366D01*
X212005732Y-36317311D01*
X212024112Y-36328950D01*
X212041899Y-36341477D01*
X212057382Y-36350248D01*
X212071923Y-36360489D01*
X212090845Y-36371208D01*
X212109229Y-36382850D01*
X212125121Y-36390849D01*
X212140165Y-36400376D01*
X212159603Y-36410160D01*
X212178510Y-36420871D01*
X212194777Y-36428082D01*
X212210267Y-36436857D01*
X212230160Y-36445675D01*
X212249588Y-36455454D01*
X212266191Y-36461858D01*
X212282104Y-36469868D01*
X212302394Y-36477694D01*
X212322260Y-36486500D01*
X212339168Y-36492086D01*
X212355427Y-36499293D01*
X212376092Y-36506120D01*
X212396400Y-36513953D01*
X212413530Y-36518693D01*
X212430118Y-36525092D01*
X212451079Y-36530893D01*
X212471746Y-36537721D01*
X212489116Y-36541622D01*
X212506031Y-36547209D01*
X212527224Y-36551968D01*
X212548182Y-36557768D01*
X212565737Y-36560814D01*
X212582874Y-36565557D01*
X212604324Y-36569279D01*
X212625558Y-36574047D01*
X212643204Y-36576223D01*
X212660577Y-36580124D01*
X212682154Y-36582785D01*
X212703574Y-36586502D01*
X212721331Y-36587812D01*
X212738843Y-36590851D01*
X212760542Y-36592452D01*
X212782158Y-36595118D01*
X212799928Y-36595554D01*
X212817585Y-36597732D01*
X212839331Y-36598266D01*
X212861012Y-36599866D01*
X212871485Y-36599609D01*
X212874843Y-36599940D01*
X212907480Y-36599940D01*
X212940051Y-36600740D01*
X212950899Y-36599940D01*
X215392171Y-36599940D01*
X215403036Y-36600741D01*
X215435604Y-36599940D01*
X215468217Y-36599940D01*
X215471573Y-36599610D01*
X215482018Y-36599866D01*
X215503733Y-36598264D01*
X215525500Y-36597729D01*
X215543127Y-36595554D01*
X215560901Y-36595118D01*
X215582491Y-36592455D01*
X215604189Y-36590855D01*
X215621731Y-36587811D01*
X215639489Y-36586501D01*
X215660898Y-36582786D01*
X215682482Y-36580124D01*
X215699860Y-36576222D01*
X215717525Y-36574043D01*
X215738763Y-36569274D01*
X215760187Y-36565556D01*
X215777324Y-36560813D01*
X215794852Y-36557772D01*
X215815818Y-36551970D01*
X215837051Y-36547202D01*
X215853946Y-36541620D01*
X215871311Y-36537721D01*
X215891956Y-36530901D01*
X215912918Y-36525100D01*
X215929528Y-36518693D01*
X215946681Y-36513946D01*
X215966975Y-36506117D01*
X215987630Y-36499294D01*
X216003904Y-36492080D01*
X216020798Y-36486499D01*
X216040679Y-36477686D01*
X216060975Y-36469857D01*
X216076873Y-36461855D01*
X216093481Y-36455448D01*
X216112914Y-36445666D01*
X216132791Y-36436855D01*
X216148272Y-36428085D01*
X216164536Y-36420876D01*
X216183464Y-36410153D01*
X216202902Y-36400369D01*
X216217931Y-36390852D01*
X216233822Y-36382853D01*
X216252202Y-36371214D01*
X216271124Y-36360495D01*
X216285673Y-36350248D01*
X216301159Y-36341476D01*
X216318942Y-36328952D01*
X216337319Y-36317315D01*
X216351347Y-36306368D01*
X216366388Y-36296843D01*
X216383538Y-36283459D01*
X216401315Y-36270939D01*
X216414797Y-36259310D01*
X216429362Y-36249051D01*
X216445827Y-36234848D01*
X216462962Y-36221475D01*
X216475848Y-36209207D01*
X216489849Y-36198281D01*
X216505622Y-36183266D01*
X216522119Y-36169034D01*
X216529319Y-36161472D01*
X216531916Y-36159340D01*
X216554973Y-36136283D01*
X216578575Y-36113814D01*
X216585693Y-36105563D01*
X217017048Y-35674209D01*
X217025289Y-35667100D01*
X217047778Y-35643479D01*
X217070838Y-35620419D01*
X217072972Y-35617819D01*
X217080558Y-35610596D01*
X217094757Y-35594135D01*
X217109759Y-35578378D01*
X217120706Y-35564350D01*
X217132975Y-35551464D01*
X217146366Y-35534306D01*
X217160573Y-35517835D01*
X217170816Y-35503290D01*
X217182439Y-35489816D01*
X217194958Y-35472040D01*
X217208343Y-35454889D01*
X217217865Y-35439853D01*
X217228803Y-35425837D01*
X217240444Y-35407454D01*
X217252977Y-35389659D01*
X217261744Y-35374182D01*
X217271996Y-35359626D01*
X217282713Y-35340707D01*
X217294344Y-35322341D01*
X217302351Y-35306435D01*
X217311876Y-35291393D01*
X217321659Y-35271957D01*
X217332377Y-35253037D01*
X217339586Y-35236774D01*
X217348357Y-35221291D01*
X217357175Y-35201398D01*
X217366954Y-35181970D01*
X217373358Y-35165367D01*
X217381364Y-35149462D01*
X217389190Y-35129174D01*
X217398000Y-35109298D01*
X217403585Y-35092391D01*
X217410796Y-35076124D01*
X217417620Y-35055467D01*
X217425450Y-35035168D01*
X217430193Y-35018027D01*
X217436592Y-35001440D01*
X217442395Y-34980472D01*
X217449223Y-34959804D01*
X217453119Y-34942453D01*
X217458703Y-34925551D01*
X217463467Y-34904334D01*
X217469268Y-34883376D01*
X217472313Y-34865829D01*
X217477063Y-34848664D01*
X217480780Y-34827238D01*
X217485544Y-34806025D01*
X217487723Y-34788358D01*
X217491620Y-34771006D01*
X217494285Y-34749399D01*
X217498004Y-34727965D01*
X217499312Y-34710233D01*
X217502356Y-34692689D01*
X217503956Y-34671002D01*
X217506617Y-34649426D01*
X217507054Y-34631631D01*
X217509232Y-34613975D01*
X217509766Y-34592221D01*
X217511367Y-34570519D01*
X217511110Y-34560065D01*
X217511440Y-34556717D01*
X217511440Y-34524081D01*
X217512240Y-34491511D01*
X217511440Y-34480663D01*
X217511440Y-34074932D01*
X217971690Y-34074932D01*
X218143725Y-34057988D01*
X218309149Y-34007807D01*
X218461604Y-33926318D01*
X218595232Y-33816652D01*
X218704898Y-33683024D01*
X218786387Y-33530569D01*
X218836568Y-33365145D01*
X218853512Y-33193110D01*
X218853512Y-32705610D01*
X218844447Y-32613574D01*
X218851944Y-32609328D01*
X218871560Y-32599453D01*
X218888616Y-32591893D01*
X218904862Y-32582690D01*
X218921559Y-32574285D01*
X218937336Y-32564294D01*
X218950187Y-32557014D01*
X218960988Y-32666682D01*
X218995403Y-32780134D01*
X218947053Y-32870591D01*
X218896872Y-33036015D01*
X218879928Y-33208050D01*
X218879928Y-33695550D01*
X218896872Y-33867585D01*
X218947053Y-34033009D01*
X219028542Y-34185464D01*
X219138208Y-34319092D01*
X219271836Y-34428758D01*
X219424291Y-34510247D01*
X219589715Y-34560428D01*
X219761750Y-34577372D01*
X220674250Y-34577372D01*
X220846285Y-34560428D01*
X221011709Y-34510247D01*
X221073728Y-34477097D01*
X221073728Y-34667200D01*
X221076801Y-34698399D01*
X221076800Y-35802605D01*
X220877310Y-35842286D01*
X220623073Y-35947595D01*
X220394265Y-36100480D01*
X220199680Y-36295065D01*
X220046795Y-36523873D01*
X219941486Y-36778110D01*
X219887800Y-37048008D01*
X219887800Y-37323192D01*
X219941486Y-37593090D01*
X220046795Y-37847327D01*
X220199680Y-38076135D01*
X220394265Y-38270720D01*
X220623073Y-38423605D01*
X220877310Y-38528914D01*
X221147208Y-38582600D01*
X221422392Y-38582600D01*
X221692290Y-38528914D01*
X221946527Y-38423605D01*
X222175335Y-38270720D01*
X222250000Y-38196055D01*
X222324665Y-38270720D01*
X222553473Y-38423605D01*
X222807710Y-38528914D01*
X223077608Y-38582600D01*
X223352792Y-38582600D01*
X223622690Y-38528914D01*
X223876927Y-38423605D01*
X224105735Y-38270720D01*
X224180400Y-38196055D01*
X224255065Y-38270720D01*
X224483873Y-38423605D01*
X224738110Y-38528914D01*
X225008008Y-38582600D01*
X225283192Y-38582600D01*
X225553090Y-38528914D01*
X225807327Y-38423605D01*
X226036135Y-38270720D01*
X226110800Y-38196055D01*
X226185465Y-38270720D01*
X226414273Y-38423605D01*
X226668510Y-38528914D01*
X226938408Y-38582600D01*
X227213592Y-38582600D01*
X227483490Y-38528914D01*
X227737727Y-38423605D01*
X227966535Y-38270720D01*
X228161120Y-38076135D01*
X228314005Y-37847327D01*
X228419314Y-37593090D01*
X228473000Y-37323192D01*
X228473000Y-37048008D01*
X228419314Y-36778110D01*
X228314005Y-36523873D01*
X228161120Y-36295065D01*
X227966535Y-36100480D01*
X227938106Y-36081484D01*
X227944975Y-36083568D01*
X228117010Y-36100512D01*
X228604510Y-36100512D01*
X228776545Y-36083568D01*
X228941969Y-36033387D01*
X229094424Y-35951898D01*
X229228052Y-35842232D01*
X229337718Y-35708604D01*
X229419207Y-35556149D01*
X229469388Y-35390725D01*
X229486332Y-35218690D01*
X229486332Y-34306190D01*
X229469388Y-34134155D01*
X229419207Y-33968731D01*
X229337718Y-33816276D01*
X229228052Y-33682648D01*
X229094424Y-33572982D01*
X228941969Y-33491493D01*
X228776545Y-33441312D01*
X228604510Y-33424368D01*
X228117010Y-33424368D01*
X228099872Y-33426056D01*
X228099872Y-33367200D01*
X228096800Y-33336008D01*
X228096800Y-33148137D01*
X228162318Y-33168012D01*
X228286800Y-33180272D01*
X229586800Y-33180272D01*
X229617992Y-33177200D01*
X229940037Y-33177200D01*
X230019320Y-33295855D01*
X230213905Y-33490440D01*
X230442713Y-33643325D01*
X230696950Y-33748634D01*
X230966848Y-33802320D01*
X231242032Y-33802320D01*
X231511930Y-33748634D01*
X231766167Y-33643325D01*
X231994975Y-33490440D01*
X232189560Y-33295855D01*
X232342445Y-33067047D01*
X232447754Y-32812810D01*
X232501440Y-32542912D01*
X232501440Y-32267728D01*
X232447754Y-31997830D01*
X232342445Y-31743593D01*
X232189560Y-31514785D01*
X231994975Y-31320200D01*
X231772283Y-31171401D01*
X231801727Y-31159205D01*
X232030535Y-31006320D01*
X232225120Y-30811735D01*
X232378005Y-30582927D01*
X232483314Y-30328690D01*
X232537000Y-30058792D01*
X232537000Y-29783608D01*
X232483314Y-29513710D01*
X232378005Y-29259473D01*
X232225120Y-29030665D01*
X232125055Y-28930600D01*
X232174320Y-28881335D01*
X232327205Y-28652527D01*
X232432514Y-28398290D01*
X232486200Y-28128392D01*
X232486200Y-27853208D01*
X232432514Y-27583310D01*
X232327205Y-27329073D01*
X232174320Y-27100265D01*
X231979735Y-26905680D01*
X231750927Y-26752795D01*
X231496690Y-26647486D01*
X231226792Y-26593800D01*
X230951608Y-26593800D01*
X230681710Y-26647486D01*
X230427473Y-26752795D01*
X230224872Y-26888169D01*
X230224872Y-26792200D01*
X230212612Y-26667718D01*
X230176302Y-26548020D01*
X230117337Y-26437706D01*
X230037985Y-26341015D01*
X229941294Y-26261663D01*
X229830980Y-26202698D01*
X229711282Y-26166388D01*
X229586800Y-26154128D01*
X229449250Y-26154128D01*
X229455247Y-26142909D01*
X229505428Y-25977485D01*
X229513228Y-25898288D01*
X229524301Y-25889201D01*
X229548102Y-25860199D01*
X229616694Y-25791607D01*
X229623776Y-25785497D01*
X229643067Y-25765233D01*
X229662868Y-25745432D01*
X229665982Y-25741638D01*
X229674667Y-25733369D01*
X229686880Y-25719211D01*
X229699770Y-25705671D01*
X229710702Y-25691662D01*
X229722974Y-25678772D01*
X229734464Y-25664049D01*
X229746657Y-25649914D01*
X229756908Y-25635359D01*
X229768526Y-25621891D01*
X229779280Y-25606622D01*
X229790781Y-25591885D01*
X229800302Y-25576849D01*
X229811262Y-25562805D01*
X229821246Y-25547038D01*
X229831991Y-25531782D01*
X229840770Y-25516285D01*
X229851017Y-25501736D01*
X229860229Y-25485476D01*
X229870225Y-25469689D01*
X229878222Y-25453802D01*
X229887744Y-25438764D01*
X229896136Y-25422091D01*
X229905342Y-25405841D01*
X229912561Y-25389556D01*
X229921329Y-25374078D01*
X229928898Y-25357004D01*
X229937297Y-25340317D01*
X229943700Y-25323718D01*
X229951701Y-25307823D01*
X229958421Y-25290403D01*
X229965994Y-25273319D01*
X229971578Y-25256415D01*
X229978792Y-25240141D01*
X229984648Y-25222414D01*
X229991368Y-25204994D01*
X229996118Y-25187830D01*
X230002526Y-25171218D01*
X230007508Y-25153214D01*
X230013364Y-25135488D01*
X230017263Y-25118124D01*
X230022845Y-25101228D01*
X230026938Y-25083002D01*
X230031921Y-25064995D01*
X230034963Y-25047465D01*
X230039707Y-25030322D01*
X230042900Y-25011922D01*
X230046994Y-24993691D01*
X230049173Y-24976026D01*
X230053076Y-24958644D01*
X230055362Y-24940109D01*
X230058551Y-24921731D01*
X230059862Y-24903966D01*
X230062905Y-24886427D01*
X230064278Y-24867808D01*
X230066566Y-24849259D01*
X230067002Y-24831479D01*
X230069178Y-24813844D01*
X230069638Y-24795156D01*
X230071013Y-24776511D01*
X230070719Y-24764521D01*
X230071200Y-24759633D01*
X230071200Y-24731636D01*
X230071888Y-24703664D01*
X230071200Y-24694332D01*
X230071200Y-23080472D01*
X230418550Y-23080472D01*
X230590585Y-23063528D01*
X230756009Y-23013347D01*
X230908464Y-22931858D01*
X231042092Y-22822192D01*
X231151758Y-22688564D01*
X231233247Y-22536109D01*
X231283428Y-22370685D01*
X231300372Y-22198650D01*
X231300372Y-21286150D01*
X231283428Y-21114115D01*
X231233247Y-20948691D01*
X231151758Y-20796236D01*
X231042092Y-20662608D01*
X230908464Y-20552942D01*
X230756009Y-20471453D01*
X230590585Y-20421272D01*
X230418550Y-20404328D01*
X229931050Y-20404328D01*
X229759015Y-20421272D01*
X229593591Y-20471453D01*
X229441136Y-20552942D01*
X229307508Y-20662608D01*
X229237300Y-20748156D01*
X229167092Y-20662608D01*
X229033464Y-20552942D01*
X228881009Y-20471453D01*
X228871215Y-20468482D01*
X228862920Y-20457852D01*
X228852158Y-20442571D01*
X228848275Y-20438070D01*
X228844841Y-20433194D01*
X228844832Y-20433184D01*
X228843697Y-20431572D01*
X228842268Y-20430212D01*
X228832661Y-20419075D01*
X228821192Y-20404378D01*
X228817097Y-20400077D01*
X228812217Y-20393823D01*
X228810695Y-20392510D01*
X228800550Y-20381854D01*
X228795663Y-20376188D01*
X228792888Y-20372807D01*
X228791854Y-20371773D01*
X228788329Y-20367687D01*
X228784047Y-20363611D01*
X228778877Y-20357617D01*
X228773507Y-20353426D01*
X228773108Y-20353027D01*
X228753799Y-20332744D01*
X228749306Y-20328868D01*
X228743833Y-20323119D01*
X228741692Y-20321611D01*
X228683519Y-20263438D01*
X228677408Y-20256354D01*
X228657123Y-20237042D01*
X228637334Y-20217253D01*
X228633544Y-20214142D01*
X228625269Y-20205451D01*
X228611121Y-20193247D01*
X228597583Y-20180358D01*
X228583564Y-20169418D01*
X228570672Y-20157144D01*
X228555949Y-20145654D01*
X228541814Y-20133461D01*
X228527264Y-20123213D01*
X228513791Y-20111591D01*
X228498511Y-20100829D01*
X228483785Y-20089337D01*
X228468754Y-20079819D01*
X228454706Y-20068856D01*
X228438933Y-20058868D01*
X228423682Y-20048127D01*
X228408184Y-20039347D01*
X228393636Y-20029101D01*
X228377379Y-20019891D01*
X228361589Y-20009893D01*
X228345702Y-20001896D01*
X228330664Y-19992374D01*
X228313983Y-19983978D01*
X228297740Y-19974776D01*
X228281459Y-19967559D01*
X228265978Y-19958789D01*
X228248907Y-19951222D01*
X228232217Y-19942821D01*
X228215614Y-19936416D01*
X228199722Y-19928417D01*
X228182295Y-19921694D01*
X228165219Y-19914125D01*
X228148318Y-19908542D01*
X228132040Y-19901326D01*
X228114318Y-19895472D01*
X228096894Y-19888750D01*
X228079730Y-19884000D01*
X228063118Y-19877592D01*
X228045112Y-19872609D01*
X228027388Y-19866754D01*
X228010023Y-19862854D01*
X227993128Y-19857273D01*
X227974907Y-19853181D01*
X227956896Y-19848197D01*
X227939361Y-19845154D01*
X227922201Y-19840406D01*
X227903806Y-19837214D01*
X227885591Y-19833124D01*
X227867920Y-19830944D01*
X227850565Y-19827047D01*
X227832021Y-19824760D01*
X227813609Y-19821565D01*
X227795867Y-19820256D01*
X227778326Y-19817213D01*
X227759711Y-19815840D01*
X227741180Y-19813554D01*
X227723375Y-19813117D01*
X227705702Y-19810937D01*
X227687035Y-19810479D01*
X227668410Y-19809105D01*
X227656404Y-19809400D01*
X227651533Y-19808920D01*
X227623515Y-19808920D01*
X227595522Y-19808233D01*
X227586210Y-19808920D01*
X223731156Y-19808920D01*
X223721861Y-19808234D01*
X223693867Y-19808920D01*
X223665827Y-19808920D01*
X223660953Y-19809400D01*
X223648924Y-19809105D01*
X223630330Y-19810477D01*
X223611679Y-19810934D01*
X223593985Y-19813116D01*
X223576200Y-19813552D01*
X223557652Y-19815839D01*
X223539009Y-19817215D01*
X223521484Y-19820256D01*
X223503732Y-19821566D01*
X223485344Y-19824757D01*
X223466815Y-19827042D01*
X223449443Y-19830943D01*
X223431788Y-19833120D01*
X223413545Y-19837216D01*
X223395140Y-19840410D01*
X223377995Y-19845155D01*
X223360442Y-19848201D01*
X223342466Y-19853176D01*
X223324250Y-19857266D01*
X223307332Y-19862855D01*
X223289963Y-19866755D01*
X223272223Y-19872616D01*
X223254220Y-19877598D01*
X223237624Y-19884000D01*
X223220491Y-19888741D01*
X223203055Y-19895466D01*
X223185312Y-19901328D01*
X223169052Y-19908536D01*
X223152139Y-19914123D01*
X223135076Y-19921687D01*
X223117661Y-19928404D01*
X223101745Y-19936415D01*
X223085141Y-19942820D01*
X223068454Y-19951219D01*
X223051380Y-19958788D01*
X223035904Y-19967555D01*
X223019627Y-19974770D01*
X223003375Y-19983977D01*
X222986694Y-19992373D01*
X222971648Y-20001901D01*
X222955743Y-20009907D01*
X222939974Y-20019893D01*
X222923730Y-20029095D01*
X222909175Y-20039345D01*
X222893691Y-20048117D01*
X222878414Y-20058877D01*
X222862628Y-20068873D01*
X222848610Y-20079813D01*
X222833584Y-20089328D01*
X222818847Y-20100829D01*
X222803581Y-20111580D01*
X222790107Y-20123203D01*
X222775543Y-20133460D01*
X222761421Y-20145642D01*
X222746695Y-20157134D01*
X222733787Y-20169423D01*
X222719739Y-20180387D01*
X222706217Y-20193262D01*
X222692088Y-20205450D01*
X222683807Y-20214148D01*
X222680033Y-20217245D01*
X222660205Y-20237073D01*
X222639920Y-20256387D01*
X222636885Y-20259905D01*
X222633360Y-20262946D01*
X222614039Y-20283237D01*
X222594229Y-20303047D01*
X222594136Y-20303161D01*
X222590579Y-20306547D01*
X222578396Y-20320671D01*
X222565530Y-20334183D01*
X222558208Y-20343565D01*
X222550018Y-20352167D01*
X222538533Y-20366884D01*
X222526330Y-20381031D01*
X222519495Y-20390736D01*
X222511749Y-20399716D01*
X222500995Y-20414986D01*
X222489502Y-20429713D01*
X222483158Y-20439732D01*
X222475860Y-20449083D01*
X222465863Y-20464869D01*
X222455110Y-20480138D01*
X222449262Y-20490462D01*
X222442419Y-20500178D01*
X222433217Y-20516423D01*
X222423235Y-20532186D01*
X222417899Y-20542788D01*
X222411561Y-20552795D01*
X222403155Y-20569493D01*
X222393937Y-20585766D01*
X222389134Y-20596601D01*
X222383274Y-20606947D01*
X222375718Y-20623995D01*
X222367331Y-20640655D01*
X222363048Y-20651756D01*
X222357713Y-20662356D01*
X222350989Y-20679788D01*
X222343416Y-20696874D01*
X222339699Y-20708127D01*
X222334894Y-20718967D01*
X222329034Y-20736707D01*
X222322313Y-20754130D01*
X222319151Y-20765556D01*
X222314878Y-20776633D01*
X222309892Y-20794650D01*
X222304039Y-20812368D01*
X222301442Y-20823935D01*
X222297720Y-20835199D01*
X222293625Y-20853433D01*
X222288643Y-20871436D01*
X222286613Y-20883134D01*
X222283443Y-20894591D01*
X222280256Y-20912962D01*
X222276166Y-20931173D01*
X222274710Y-20942976D01*
X222272111Y-20954550D01*
X222269824Y-20973093D01*
X222266629Y-20991509D01*
X222265758Y-21003319D01*
X222263732Y-21014994D01*
X222262356Y-21033637D01*
X222260070Y-21052175D01*
X222259778Y-21064051D01*
X222258322Y-21075867D01*
X222257866Y-21094503D01*
X222256494Y-21113093D01*
X222256614Y-21118002D01*
X222256600Y-21118148D01*
X222256600Y-21146186D01*
X222255914Y-21174201D01*
X222256600Y-21183492D01*
X222256600Y-21387355D01*
X222149308Y-21475408D01*
X222137669Y-21489590D01*
X222131971Y-21485143D01*
X222119073Y-21472863D01*
X222104350Y-21461373D01*
X222090215Y-21449180D01*
X222075658Y-21438928D01*
X222062182Y-21427303D01*
X222046914Y-21416550D01*
X222032186Y-21405056D01*
X222017149Y-21395534D01*
X222003115Y-21384582D01*
X221987347Y-21374597D01*
X221972072Y-21363839D01*
X221956581Y-21355064D01*
X221942037Y-21344820D01*
X221925779Y-21335610D01*
X221910000Y-21325618D01*
X221894107Y-21317618D01*
X221879065Y-21308093D01*
X221862384Y-21299697D01*
X221846141Y-21290495D01*
X221829860Y-21283278D01*
X221814379Y-21274508D01*
X221797308Y-21266941D01*
X221780618Y-21258540D01*
X221764012Y-21252134D01*
X221748116Y-21244133D01*
X221730691Y-21237411D01*
X221713620Y-21229844D01*
X221696723Y-21224262D01*
X221680447Y-21217047D01*
X221662715Y-21211189D01*
X221645287Y-21204466D01*
X221628127Y-21199717D01*
X221611519Y-21193311D01*
X221593533Y-21188334D01*
X221575796Y-21182474D01*
X221558418Y-21178572D01*
X221541529Y-21172992D01*
X221523308Y-21168900D01*
X221505297Y-21163916D01*
X221487763Y-21160874D01*
X221470599Y-21156124D01*
X221452198Y-21152931D01*
X221433992Y-21148843D01*
X221416319Y-21146663D01*
X221398965Y-21142766D01*
X221380431Y-21140480D01*
X221362006Y-21137283D01*
X221344261Y-21135974D01*
X221326726Y-21132932D01*
X221308111Y-21131559D01*
X221289580Y-21129273D01*
X221271773Y-21128836D01*
X221254080Y-21126654D01*
X221235419Y-21126197D01*
X221216810Y-21124824D01*
X221204796Y-21125119D01*
X221199933Y-21124640D01*
X221171894Y-21124640D01*
X221143900Y-21123954D01*
X221134605Y-21124640D01*
X220830951Y-21124640D01*
X220821639Y-21123953D01*
X220793646Y-21124640D01*
X220765627Y-21124640D01*
X220760755Y-21125120D01*
X220748745Y-21124825D01*
X220730118Y-21126199D01*
X220711458Y-21126657D01*
X220693792Y-21128836D01*
X220676000Y-21129272D01*
X220657453Y-21131559D01*
X220638831Y-21132933D01*
X220621295Y-21135976D01*
X220603532Y-21137286D01*
X220585144Y-21140477D01*
X220566615Y-21142762D01*
X220549234Y-21146665D01*
X220531567Y-21148844D01*
X220513342Y-21152937D01*
X220494940Y-21156130D01*
X220477794Y-21160875D01*
X220460263Y-21163917D01*
X220442256Y-21168900D01*
X220424030Y-21172993D01*
X220407141Y-21178573D01*
X220389763Y-21182475D01*
X220372025Y-21188335D01*
X220354040Y-21193312D01*
X220337424Y-21199721D01*
X220320272Y-21204468D01*
X220302858Y-21211185D01*
X220285112Y-21217048D01*
X220268841Y-21224261D01*
X220251957Y-21229838D01*
X220234877Y-21237409D01*
X220217442Y-21244134D01*
X220201551Y-21252133D01*
X220184941Y-21258540D01*
X220168266Y-21266933D01*
X220151197Y-21274499D01*
X220142439Y-21279460D01*
X220025350Y-21267928D01*
X219537850Y-21267928D01*
X219365815Y-21284872D01*
X219200391Y-21335053D01*
X219047936Y-21416542D01*
X218914308Y-21526208D01*
X218844100Y-21611756D01*
X218773892Y-21526208D01*
X218640264Y-21416542D01*
X218544331Y-21365265D01*
X218567867Y-21360583D01*
X218774424Y-21275024D01*
X218960320Y-21150812D01*
X219118412Y-20992720D01*
X219242624Y-20806824D01*
X219328183Y-20600267D01*
X219371800Y-20380988D01*
X219371800Y-20157412D01*
X219328183Y-19938133D01*
X219242624Y-19731576D01*
X219118412Y-19545680D01*
X218960320Y-19387588D01*
X218774424Y-19263376D01*
X218567867Y-19177817D01*
X218348588Y-19134200D01*
X218125012Y-19134200D01*
X217938924Y-19171215D01*
X217851661Y-19099600D01*
X232563600Y-19099600D01*
X232563601Y-39422000D01*
G04 #@! TA.AperFunction,Conductor*
D21*
G36*
X232563601Y-39422000D02*
G01*
X208532800Y-39422000D01*
X208532800Y-35250818D01*
X208569642Y-35287660D01*
X208576747Y-35295897D01*
X208600378Y-35318396D01*
X208623441Y-35341459D01*
X208626031Y-35343584D01*
X208633248Y-35351165D01*
X208649717Y-35365372D01*
X208665468Y-35380368D01*
X208679500Y-35391319D01*
X208692409Y-35403609D01*
X208709553Y-35416988D01*
X208726008Y-35431182D01*
X208740567Y-35441436D01*
X208754026Y-35453046D01*
X208771822Y-35465580D01*
X208788986Y-35478974D01*
X208804002Y-35488482D01*
X208818038Y-35499436D01*
X208836411Y-35511070D01*
X208854181Y-35523586D01*
X208869673Y-35532363D01*
X208884232Y-35542616D01*
X208903162Y-35553339D01*
X208921535Y-35564974D01*
X208937427Y-35572973D01*
X208952465Y-35582496D01*
X208971901Y-35592279D01*
X208990821Y-35602997D01*
X209007084Y-35610206D01*
X209022567Y-35618977D01*
X209042460Y-35627795D01*
X209061888Y-35637574D01*
X209078489Y-35643978D01*
X209094383Y-35651978D01*
X209114676Y-35659806D01*
X209134560Y-35668620D01*
X209151459Y-35674203D01*
X209167727Y-35681414D01*
X209188374Y-35688235D01*
X209208677Y-35696067D01*
X209225830Y-35700814D01*
X209242440Y-35707221D01*
X209263399Y-35713021D01*
X209284046Y-35719842D01*
X209301414Y-35723742D01*
X209318307Y-35729323D01*
X209339540Y-35734091D01*
X209360506Y-35739893D01*
X209378042Y-35742936D01*
X209395198Y-35747683D01*
X209416609Y-35751398D01*
X209437833Y-35756164D01*
X209455502Y-35758343D01*
X209472853Y-35762240D01*
X209494457Y-35764905D01*
X209515898Y-35768625D01*
X209533638Y-35769933D01*
X209551168Y-35772975D01*
X209572844Y-35774574D01*
X209594433Y-35777237D01*
X209612230Y-35777674D01*
X209629885Y-35779852D01*
X209651637Y-35780386D01*
X209673337Y-35781987D01*
X209683795Y-35781730D01*
X209687143Y-35782060D01*
X209719780Y-35782060D01*
X209752351Y-35782860D01*
X209763199Y-35782060D01*
X211433862Y-35782060D01*
X211757351Y-36105549D01*
X211764459Y-36113789D01*
X211788079Y-36136277D01*
X211811141Y-36159339D01*
X211813735Y-36161468D01*
X211820951Y-36169047D01*
X211837422Y-36183255D01*
X211853181Y-36198259D01*
X211867203Y-36209202D01*
X211880094Y-36221475D01*
X211897243Y-36234859D01*
X211913710Y-36249063D01*
X211928265Y-36259314D01*
X211941742Y-36270939D01*
X211959518Y-36283458D01*
X211976669Y-36296843D01*
X211991708Y-36306366D01*
X212005732Y-36317311D01*
X212024112Y-36328950D01*
X212041899Y-36341477D01*
X212057382Y-36350248D01*
X212071923Y-36360489D01*
X212090845Y-36371208D01*
X212109229Y-36382850D01*
X212125121Y-36390849D01*
X212140165Y-36400376D01*
X212159603Y-36410160D01*
X212178510Y-36420871D01*
X212194777Y-36428082D01*
X212210267Y-36436857D01*
X212230160Y-36445675D01*
X212249588Y-36455454D01*
X212266191Y-36461858D01*
X212282104Y-36469868D01*
X212302394Y-36477694D01*
X212322260Y-36486500D01*
X212339168Y-36492086D01*
X212355427Y-36499293D01*
X212376092Y-36506120D01*
X212396400Y-36513953D01*
X212413530Y-36518693D01*
X212430118Y-36525092D01*
X212451079Y-36530893D01*
X212471746Y-36537721D01*
X212489116Y-36541622D01*
X212506031Y-36547209D01*
X212527224Y-36551968D01*
X212548182Y-36557768D01*
X212565737Y-36560814D01*
X212582874Y-36565557D01*
X212604324Y-36569279D01*
X212625558Y-36574047D01*
X212643204Y-36576223D01*
X212660577Y-36580124D01*
X212682154Y-36582785D01*
X212703574Y-36586502D01*
X212721331Y-36587812D01*
X212738843Y-36590851D01*
X212760542Y-36592452D01*
X212782158Y-36595118D01*
X212799928Y-36595554D01*
X212817585Y-36597732D01*
X212839331Y-36598266D01*
X212861012Y-36599866D01*
X212871485Y-36599609D01*
X212874843Y-36599940D01*
X212907480Y-36599940D01*
X212940051Y-36600740D01*
X212950899Y-36599940D01*
X215392171Y-36599940D01*
X215403036Y-36600741D01*
X215435604Y-36599940D01*
X215468217Y-36599940D01*
X215471573Y-36599610D01*
X215482018Y-36599866D01*
X215503733Y-36598264D01*
X215525500Y-36597729D01*
X215543127Y-36595554D01*
X215560901Y-36595118D01*
X215582491Y-36592455D01*
X215604189Y-36590855D01*
X215621731Y-36587811D01*
X215639489Y-36586501D01*
X215660898Y-36582786D01*
X215682482Y-36580124D01*
X215699860Y-36576222D01*
X215717525Y-36574043D01*
X215738763Y-36569274D01*
X215760187Y-36565556D01*
X215777324Y-36560813D01*
X215794852Y-36557772D01*
X215815818Y-36551970D01*
X215837051Y-36547202D01*
X215853946Y-36541620D01*
X215871311Y-36537721D01*
X215891956Y-36530901D01*
X215912918Y-36525100D01*
X215929528Y-36518693D01*
X215946681Y-36513946D01*
X215966975Y-36506117D01*
X215987630Y-36499294D01*
X216003904Y-36492080D01*
X216020798Y-36486499D01*
X216040679Y-36477686D01*
X216060975Y-36469857D01*
X216076873Y-36461855D01*
X216093481Y-36455448D01*
X216112914Y-36445666D01*
X216132791Y-36436855D01*
X216148272Y-36428085D01*
X216164536Y-36420876D01*
X216183464Y-36410153D01*
X216202902Y-36400369D01*
X216217931Y-36390852D01*
X216233822Y-36382853D01*
X216252202Y-36371214D01*
X216271124Y-36360495D01*
X216285673Y-36350248D01*
X216301159Y-36341476D01*
X216318942Y-36328952D01*
X216337319Y-36317315D01*
X216351347Y-36306368D01*
X216366388Y-36296843D01*
X216383538Y-36283459D01*
X216401315Y-36270939D01*
X216414797Y-36259310D01*
X216429362Y-36249051D01*
X216445827Y-36234848D01*
X216462962Y-36221475D01*
X216475848Y-36209207D01*
X216489849Y-36198281D01*
X216505622Y-36183266D01*
X216522119Y-36169034D01*
X216529319Y-36161472D01*
X216531916Y-36159340D01*
X216554973Y-36136283D01*
X216578575Y-36113814D01*
X216585693Y-36105563D01*
X217017048Y-35674209D01*
X217025289Y-35667100D01*
X217047778Y-35643479D01*
X217070838Y-35620419D01*
X217072972Y-35617819D01*
X217080558Y-35610596D01*
X217094757Y-35594135D01*
X217109759Y-35578378D01*
X217120706Y-35564350D01*
X217132975Y-35551464D01*
X217146366Y-35534306D01*
X217160573Y-35517835D01*
X217170816Y-35503290D01*
X217182439Y-35489816D01*
X217194958Y-35472040D01*
X217208343Y-35454889D01*
X217217865Y-35439853D01*
X217228803Y-35425837D01*
X217240444Y-35407454D01*
X217252977Y-35389659D01*
X217261744Y-35374182D01*
X217271996Y-35359626D01*
X217282713Y-35340707D01*
X217294344Y-35322341D01*
X217302351Y-35306435D01*
X217311876Y-35291393D01*
X217321659Y-35271957D01*
X217332377Y-35253037D01*
X217339586Y-35236774D01*
X217348357Y-35221291D01*
X217357175Y-35201398D01*
X217366954Y-35181970D01*
X217373358Y-35165367D01*
X217381364Y-35149462D01*
X217389190Y-35129174D01*
X217398000Y-35109298D01*
X217403585Y-35092391D01*
X217410796Y-35076124D01*
X217417620Y-35055467D01*
X217425450Y-35035168D01*
X217430193Y-35018027D01*
X217436592Y-35001440D01*
X217442395Y-34980472D01*
X217449223Y-34959804D01*
X217453119Y-34942453D01*
X217458703Y-34925551D01*
X217463467Y-34904334D01*
X217469268Y-34883376D01*
X217472313Y-34865829D01*
X217477063Y-34848664D01*
X217480780Y-34827238D01*
X217485544Y-34806025D01*
X217487723Y-34788358D01*
X217491620Y-34771006D01*
X217494285Y-34749399D01*
X217498004Y-34727965D01*
X217499312Y-34710233D01*
X217502356Y-34692689D01*
X217503956Y-34671002D01*
X217506617Y-34649426D01*
X217507054Y-34631631D01*
X217509232Y-34613975D01*
X217509766Y-34592221D01*
X217511367Y-34570519D01*
X217511110Y-34560065D01*
X217511440Y-34556717D01*
X217511440Y-34524081D01*
X217512240Y-34491511D01*
X217511440Y-34480663D01*
X217511440Y-34074932D01*
X217971690Y-34074932D01*
X218143725Y-34057988D01*
X218309149Y-34007807D01*
X218461604Y-33926318D01*
X218595232Y-33816652D01*
X218704898Y-33683024D01*
X218786387Y-33530569D01*
X218836568Y-33365145D01*
X218853512Y-33193110D01*
X218853512Y-32705610D01*
X218844447Y-32613574D01*
X218851944Y-32609328D01*
X218871560Y-32599453D01*
X218888616Y-32591893D01*
X218904862Y-32582690D01*
X218921559Y-32574285D01*
X218937336Y-32564294D01*
X218950187Y-32557014D01*
X218960988Y-32666682D01*
X218995403Y-32780134D01*
X218947053Y-32870591D01*
X218896872Y-33036015D01*
X218879928Y-33208050D01*
X218879928Y-33695550D01*
X218896872Y-33867585D01*
X218947053Y-34033009D01*
X219028542Y-34185464D01*
X219138208Y-34319092D01*
X219271836Y-34428758D01*
X219424291Y-34510247D01*
X219589715Y-34560428D01*
X219761750Y-34577372D01*
X220674250Y-34577372D01*
X220846285Y-34560428D01*
X221011709Y-34510247D01*
X221073728Y-34477097D01*
X221073728Y-34667200D01*
X221076801Y-34698399D01*
X221076800Y-35802605D01*
X220877310Y-35842286D01*
X220623073Y-35947595D01*
X220394265Y-36100480D01*
X220199680Y-36295065D01*
X220046795Y-36523873D01*
X219941486Y-36778110D01*
X219887800Y-37048008D01*
X219887800Y-37323192D01*
X219941486Y-37593090D01*
X220046795Y-37847327D01*
X220199680Y-38076135D01*
X220394265Y-38270720D01*
X220623073Y-38423605D01*
X220877310Y-38528914D01*
X221147208Y-38582600D01*
X221422392Y-38582600D01*
X221692290Y-38528914D01*
X221946527Y-38423605D01*
X222175335Y-38270720D01*
X222250000Y-38196055D01*
X222324665Y-38270720D01*
X222553473Y-38423605D01*
X222807710Y-38528914D01*
X223077608Y-38582600D01*
X223352792Y-38582600D01*
X223622690Y-38528914D01*
X223876927Y-38423605D01*
X224105735Y-38270720D01*
X224180400Y-38196055D01*
X224255065Y-38270720D01*
X224483873Y-38423605D01*
X224738110Y-38528914D01*
X225008008Y-38582600D01*
X225283192Y-38582600D01*
X225553090Y-38528914D01*
X225807327Y-38423605D01*
X226036135Y-38270720D01*
X226110800Y-38196055D01*
X226185465Y-38270720D01*
X226414273Y-38423605D01*
X226668510Y-38528914D01*
X226938408Y-38582600D01*
X227213592Y-38582600D01*
X227483490Y-38528914D01*
X227737727Y-38423605D01*
X227966535Y-38270720D01*
X228161120Y-38076135D01*
X228314005Y-37847327D01*
X228419314Y-37593090D01*
X228473000Y-37323192D01*
X228473000Y-37048008D01*
X228419314Y-36778110D01*
X228314005Y-36523873D01*
X228161120Y-36295065D01*
X227966535Y-36100480D01*
X227938106Y-36081484D01*
X227944975Y-36083568D01*
X228117010Y-36100512D01*
X228604510Y-36100512D01*
X228776545Y-36083568D01*
X228941969Y-36033387D01*
X229094424Y-35951898D01*
X229228052Y-35842232D01*
X229337718Y-35708604D01*
X229419207Y-35556149D01*
X229469388Y-35390725D01*
X229486332Y-35218690D01*
X229486332Y-34306190D01*
X229469388Y-34134155D01*
X229419207Y-33968731D01*
X229337718Y-33816276D01*
X229228052Y-33682648D01*
X229094424Y-33572982D01*
X228941969Y-33491493D01*
X228776545Y-33441312D01*
X228604510Y-33424368D01*
X228117010Y-33424368D01*
X228099872Y-33426056D01*
X228099872Y-33367200D01*
X228096800Y-33336008D01*
X228096800Y-33148137D01*
X228162318Y-33168012D01*
X228286800Y-33180272D01*
X229586800Y-33180272D01*
X229617992Y-33177200D01*
X229940037Y-33177200D01*
X230019320Y-33295855D01*
X230213905Y-33490440D01*
X230442713Y-33643325D01*
X230696950Y-33748634D01*
X230966848Y-33802320D01*
X231242032Y-33802320D01*
X231511930Y-33748634D01*
X231766167Y-33643325D01*
X231994975Y-33490440D01*
X232189560Y-33295855D01*
X232342445Y-33067047D01*
X232447754Y-32812810D01*
X232501440Y-32542912D01*
X232501440Y-32267728D01*
X232447754Y-31997830D01*
X232342445Y-31743593D01*
X232189560Y-31514785D01*
X231994975Y-31320200D01*
X231772283Y-31171401D01*
X231801727Y-31159205D01*
X232030535Y-31006320D01*
X232225120Y-30811735D01*
X232378005Y-30582927D01*
X232483314Y-30328690D01*
X232537000Y-30058792D01*
X232537000Y-29783608D01*
X232483314Y-29513710D01*
X232378005Y-29259473D01*
X232225120Y-29030665D01*
X232125055Y-28930600D01*
X232174320Y-28881335D01*
X232327205Y-28652527D01*
X232432514Y-28398290D01*
X232486200Y-28128392D01*
X232486200Y-27853208D01*
X232432514Y-27583310D01*
X232327205Y-27329073D01*
X232174320Y-27100265D01*
X231979735Y-26905680D01*
X231750927Y-26752795D01*
X231496690Y-26647486D01*
X231226792Y-26593800D01*
X230951608Y-26593800D01*
X230681710Y-26647486D01*
X230427473Y-26752795D01*
X230224872Y-26888169D01*
X230224872Y-26792200D01*
X230212612Y-26667718D01*
X230176302Y-26548020D01*
X230117337Y-26437706D01*
X230037985Y-26341015D01*
X229941294Y-26261663D01*
X229830980Y-26202698D01*
X229711282Y-26166388D01*
X229586800Y-26154128D01*
X229449250Y-26154128D01*
X229455247Y-26142909D01*
X229505428Y-25977485D01*
X229513228Y-25898288D01*
X229524301Y-25889201D01*
X229548102Y-25860199D01*
X229616694Y-25791607D01*
X229623776Y-25785497D01*
X229643067Y-25765233D01*
X229662868Y-25745432D01*
X229665982Y-25741638D01*
X229674667Y-25733369D01*
X229686880Y-25719211D01*
X229699770Y-25705671D01*
X229710702Y-25691662D01*
X229722974Y-25678772D01*
X229734464Y-25664049D01*
X229746657Y-25649914D01*
X229756908Y-25635359D01*
X229768526Y-25621891D01*
X229779280Y-25606622D01*
X229790781Y-25591885D01*
X229800302Y-25576849D01*
X229811262Y-25562805D01*
X229821246Y-25547038D01*
X229831991Y-25531782D01*
X229840770Y-25516285D01*
X229851017Y-25501736D01*
X229860229Y-25485476D01*
X229870225Y-25469689D01*
X229878222Y-25453802D01*
X229887744Y-25438764D01*
X229896136Y-25422091D01*
X229905342Y-25405841D01*
X229912561Y-25389556D01*
X229921329Y-25374078D01*
X229928898Y-25357004D01*
X229937297Y-25340317D01*
X229943700Y-25323718D01*
X229951701Y-25307823D01*
X229958421Y-25290403D01*
X229965994Y-25273319D01*
X229971578Y-25256415D01*
X229978792Y-25240141D01*
X229984648Y-25222414D01*
X229991368Y-25204994D01*
X229996118Y-25187830D01*
X230002526Y-25171218D01*
X230007508Y-25153214D01*
X230013364Y-25135488D01*
X230017263Y-25118124D01*
X230022845Y-25101228D01*
X230026938Y-25083002D01*
X230031921Y-25064995D01*
X230034963Y-25047465D01*
X230039707Y-25030322D01*
X230042900Y-25011922D01*
X230046994Y-24993691D01*
X230049173Y-24976026D01*
X230053076Y-24958644D01*
X230055362Y-24940109D01*
X230058551Y-24921731D01*
X230059862Y-24903966D01*
X230062905Y-24886427D01*
X230064278Y-24867808D01*
X230066566Y-24849259D01*
X230067002Y-24831479D01*
X230069178Y-24813844D01*
X230069638Y-24795156D01*
X230071013Y-24776511D01*
X230070719Y-24764521D01*
X230071200Y-24759633D01*
X230071200Y-24731636D01*
X230071888Y-24703664D01*
X230071200Y-24694332D01*
X230071200Y-23080472D01*
X230418550Y-23080472D01*
X230590585Y-23063528D01*
X230756009Y-23013347D01*
X230908464Y-22931858D01*
X231042092Y-22822192D01*
X231151758Y-22688564D01*
X231233247Y-22536109D01*
X231283428Y-22370685D01*
X231300372Y-22198650D01*
X231300372Y-21286150D01*
X231283428Y-21114115D01*
X231233247Y-20948691D01*
X231151758Y-20796236D01*
X231042092Y-20662608D01*
X230908464Y-20552942D01*
X230756009Y-20471453D01*
X230590585Y-20421272D01*
X230418550Y-20404328D01*
X229931050Y-20404328D01*
X229759015Y-20421272D01*
X229593591Y-20471453D01*
X229441136Y-20552942D01*
X229307508Y-20662608D01*
X229237300Y-20748156D01*
X229167092Y-20662608D01*
X229033464Y-20552942D01*
X228881009Y-20471453D01*
X228871215Y-20468482D01*
X228862920Y-20457852D01*
X228852158Y-20442571D01*
X228848275Y-20438070D01*
X228844841Y-20433194D01*
X228844832Y-20433184D01*
X228843697Y-20431572D01*
X228842268Y-20430212D01*
X228832661Y-20419075D01*
X228821192Y-20404378D01*
X228817097Y-20400077D01*
X228812217Y-20393823D01*
X228810695Y-20392510D01*
X228800550Y-20381854D01*
X228795663Y-20376188D01*
X228792888Y-20372807D01*
X228791854Y-20371773D01*
X228788329Y-20367687D01*
X228784047Y-20363611D01*
X228778877Y-20357617D01*
X228773507Y-20353426D01*
X228773108Y-20353027D01*
X228753799Y-20332744D01*
X228749306Y-20328868D01*
X228743833Y-20323119D01*
X228741692Y-20321611D01*
X228683519Y-20263438D01*
X228677408Y-20256354D01*
X228657123Y-20237042D01*
X228637334Y-20217253D01*
X228633544Y-20214142D01*
X228625269Y-20205451D01*
X228611121Y-20193247D01*
X228597583Y-20180358D01*
X228583564Y-20169418D01*
X228570672Y-20157144D01*
X228555949Y-20145654D01*
X228541814Y-20133461D01*
X228527264Y-20123213D01*
X228513791Y-20111591D01*
X228498511Y-20100829D01*
X228483785Y-20089337D01*
X228468754Y-20079819D01*
X228454706Y-20068856D01*
X228438933Y-20058868D01*
X228423682Y-20048127D01*
X228408184Y-20039347D01*
X228393636Y-20029101D01*
X228377379Y-20019891D01*
X228361589Y-20009893D01*
X228345702Y-20001896D01*
X228330664Y-19992374D01*
X228313983Y-19983978D01*
X228297740Y-19974776D01*
X228281459Y-19967559D01*
X228265978Y-19958789D01*
X228248907Y-19951222D01*
X228232217Y-19942821D01*
X228215614Y-19936416D01*
X228199722Y-19928417D01*
X228182295Y-19921694D01*
X228165219Y-19914125D01*
X228148318Y-19908542D01*
X228132040Y-19901326D01*
X228114318Y-19895472D01*
X228096894Y-19888750D01*
X228079730Y-19884000D01*
X228063118Y-19877592D01*
X228045112Y-19872609D01*
X228027388Y-19866754D01*
X228010023Y-19862854D01*
X227993128Y-19857273D01*
X227974907Y-19853181D01*
X227956896Y-19848197D01*
X227939361Y-19845154D01*
X227922201Y-19840406D01*
X227903806Y-19837214D01*
X227885591Y-19833124D01*
X227867920Y-19830944D01*
X227850565Y-19827047D01*
X227832021Y-19824760D01*
X227813609Y-19821565D01*
X227795867Y-19820256D01*
X227778326Y-19817213D01*
X227759711Y-19815840D01*
X227741180Y-19813554D01*
X227723375Y-19813117D01*
X227705702Y-19810937D01*
X227687035Y-19810479D01*
X227668410Y-19809105D01*
X227656404Y-19809400D01*
X227651533Y-19808920D01*
X227623515Y-19808920D01*
X227595522Y-19808233D01*
X227586210Y-19808920D01*
X223731156Y-19808920D01*
X223721861Y-19808234D01*
X223693867Y-19808920D01*
X223665827Y-19808920D01*
X223660953Y-19809400D01*
X223648924Y-19809105D01*
X223630330Y-19810477D01*
X223611679Y-19810934D01*
X223593985Y-19813116D01*
X223576200Y-19813552D01*
X223557652Y-19815839D01*
X223539009Y-19817215D01*
X223521484Y-19820256D01*
X223503732Y-19821566D01*
X223485344Y-19824757D01*
X223466815Y-19827042D01*
X223449443Y-19830943D01*
X223431788Y-19833120D01*
X223413545Y-19837216D01*
X223395140Y-19840410D01*
X223377995Y-19845155D01*
X223360442Y-19848201D01*
X223342466Y-19853176D01*
X223324250Y-19857266D01*
X223307332Y-19862855D01*
X223289963Y-19866755D01*
X223272223Y-19872616D01*
X223254220Y-19877598D01*
X223237624Y-19884000D01*
X223220491Y-19888741D01*
X223203055Y-19895466D01*
X223185312Y-19901328D01*
X223169052Y-19908536D01*
X223152139Y-19914123D01*
X223135076Y-19921687D01*
X223117661Y-19928404D01*
X223101745Y-19936415D01*
X223085141Y-19942820D01*
X223068454Y-19951219D01*
X223051380Y-19958788D01*
X223035904Y-19967555D01*
X223019627Y-19974770D01*
X223003375Y-19983977D01*
X222986694Y-19992373D01*
X222971648Y-20001901D01*
X222955743Y-20009907D01*
X222939974Y-20019893D01*
X222923730Y-20029095D01*
X222909175Y-20039345D01*
X222893691Y-20048117D01*
X222878414Y-20058877D01*
X222862628Y-20068873D01*
X222848610Y-20079813D01*
X222833584Y-20089328D01*
X222818847Y-20100829D01*
X222803581Y-20111580D01*
X222790107Y-20123203D01*
X222775543Y-20133460D01*
X222761421Y-20145642D01*
X222746695Y-20157134D01*
X222733787Y-20169423D01*
X222719739Y-20180387D01*
X222706217Y-20193262D01*
X222692088Y-20205450D01*
X222683807Y-20214148D01*
X222680033Y-20217245D01*
X222660205Y-20237073D01*
X222639920Y-20256387D01*
X222636885Y-20259905D01*
X222633360Y-20262946D01*
X222614039Y-20283237D01*
X222594229Y-20303047D01*
X222594136Y-20303161D01*
X222590579Y-20306547D01*
X222578396Y-20320671D01*
X222565530Y-20334183D01*
X222558208Y-20343565D01*
X222550018Y-20352167D01*
X222538533Y-20366884D01*
X222526330Y-20381031D01*
X222519495Y-20390736D01*
X222511749Y-20399716D01*
X222500995Y-20414986D01*
X222489502Y-20429713D01*
X222483158Y-20439732D01*
X222475860Y-20449083D01*
X222465863Y-20464869D01*
X222455110Y-20480138D01*
X222449262Y-20490462D01*
X222442419Y-20500178D01*
X222433217Y-20516423D01*
X222423235Y-20532186D01*
X222417899Y-20542788D01*
X222411561Y-20552795D01*
X222403155Y-20569493D01*
X222393937Y-20585766D01*
X222389134Y-20596601D01*
X222383274Y-20606947D01*
X222375718Y-20623995D01*
X222367331Y-20640655D01*
X222363048Y-20651756D01*
X222357713Y-20662356D01*
X222350989Y-20679788D01*
X222343416Y-20696874D01*
X222339699Y-20708127D01*
X222334894Y-20718967D01*
X222329034Y-20736707D01*
X222322313Y-20754130D01*
X222319151Y-20765556D01*
X222314878Y-20776633D01*
X222309892Y-20794650D01*
X222304039Y-20812368D01*
X222301442Y-20823935D01*
X222297720Y-20835199D01*
X222293625Y-20853433D01*
X222288643Y-20871436D01*
X222286613Y-20883134D01*
X222283443Y-20894591D01*
X222280256Y-20912962D01*
X222276166Y-20931173D01*
X222274710Y-20942976D01*
X222272111Y-20954550D01*
X222269824Y-20973093D01*
X222266629Y-20991509D01*
X222265758Y-21003319D01*
X222263732Y-21014994D01*
X222262356Y-21033637D01*
X222260070Y-21052175D01*
X222259778Y-21064051D01*
X222258322Y-21075867D01*
X222257866Y-21094503D01*
X222256494Y-21113093D01*
X222256614Y-21118002D01*
X222256600Y-21118148D01*
X222256600Y-21146186D01*
X222255914Y-21174201D01*
X222256600Y-21183492D01*
X222256600Y-21387355D01*
X222149308Y-21475408D01*
X222137669Y-21489590D01*
X222131971Y-21485143D01*
X222119073Y-21472863D01*
X222104350Y-21461373D01*
X222090215Y-21449180D01*
X222075658Y-21438928D01*
X222062182Y-21427303D01*
X222046914Y-21416550D01*
X222032186Y-21405056D01*
X222017149Y-21395534D01*
X222003115Y-21384582D01*
X221987347Y-21374597D01*
X221972072Y-21363839D01*
X221956581Y-21355064D01*
X221942037Y-21344820D01*
X221925779Y-21335610D01*
X221910000Y-21325618D01*
X221894107Y-21317618D01*
X221879065Y-21308093D01*
X221862384Y-21299697D01*
X221846141Y-21290495D01*
X221829860Y-21283278D01*
X221814379Y-21274508D01*
X221797308Y-21266941D01*
X221780618Y-21258540D01*
X221764012Y-21252134D01*
X221748116Y-21244133D01*
X221730691Y-21237411D01*
X221713620Y-21229844D01*
X221696723Y-21224262D01*
X221680447Y-21217047D01*
X221662715Y-21211189D01*
X221645287Y-21204466D01*
X221628127Y-21199717D01*
X221611519Y-21193311D01*
X221593533Y-21188334D01*
X221575796Y-21182474D01*
X221558418Y-21178572D01*
X221541529Y-21172992D01*
X221523308Y-21168900D01*
X221505297Y-21163916D01*
X221487763Y-21160874D01*
X221470599Y-21156124D01*
X221452198Y-21152931D01*
X221433992Y-21148843D01*
X221416319Y-21146663D01*
X221398965Y-21142766D01*
X221380431Y-21140480D01*
X221362006Y-21137283D01*
X221344261Y-21135974D01*
X221326726Y-21132932D01*
X221308111Y-21131559D01*
X221289580Y-21129273D01*
X221271773Y-21128836D01*
X221254080Y-21126654D01*
X221235419Y-21126197D01*
X221216810Y-21124824D01*
X221204796Y-21125119D01*
X221199933Y-21124640D01*
X221171894Y-21124640D01*
X221143900Y-21123954D01*
X221134605Y-21124640D01*
X220830951Y-21124640D01*
X220821639Y-21123953D01*
X220793646Y-21124640D01*
X220765627Y-21124640D01*
X220760755Y-21125120D01*
X220748745Y-21124825D01*
X220730118Y-21126199D01*
X220711458Y-21126657D01*
X220693792Y-21128836D01*
X220676000Y-21129272D01*
X220657453Y-21131559D01*
X220638831Y-21132933D01*
X220621295Y-21135976D01*
X220603532Y-21137286D01*
X220585144Y-21140477D01*
X220566615Y-21142762D01*
X220549234Y-21146665D01*
X220531567Y-21148844D01*
X220513342Y-21152937D01*
X220494940Y-21156130D01*
X220477794Y-21160875D01*
X220460263Y-21163917D01*
X220442256Y-21168900D01*
X220424030Y-21172993D01*
X220407141Y-21178573D01*
X220389763Y-21182475D01*
X220372025Y-21188335D01*
X220354040Y-21193312D01*
X220337424Y-21199721D01*
X220320272Y-21204468D01*
X220302858Y-21211185D01*
X220285112Y-21217048D01*
X220268841Y-21224261D01*
X220251957Y-21229838D01*
X220234877Y-21237409D01*
X220217442Y-21244134D01*
X220201551Y-21252133D01*
X220184941Y-21258540D01*
X220168266Y-21266933D01*
X220151197Y-21274499D01*
X220142439Y-21279460D01*
X220025350Y-21267928D01*
X219537850Y-21267928D01*
X219365815Y-21284872D01*
X219200391Y-21335053D01*
X219047936Y-21416542D01*
X218914308Y-21526208D01*
X218844100Y-21611756D01*
X218773892Y-21526208D01*
X218640264Y-21416542D01*
X218544331Y-21365265D01*
X218567867Y-21360583D01*
X218774424Y-21275024D01*
X218960320Y-21150812D01*
X219118412Y-20992720D01*
X219242624Y-20806824D01*
X219328183Y-20600267D01*
X219371800Y-20380988D01*
X219371800Y-20157412D01*
X219328183Y-19938133D01*
X219242624Y-19731576D01*
X219118412Y-19545680D01*
X218960320Y-19387588D01*
X218774424Y-19263376D01*
X218567867Y-19177817D01*
X218348588Y-19134200D01*
X218125012Y-19134200D01*
X217938924Y-19171215D01*
X217851661Y-19099600D01*
X232563600Y-19099600D01*
X232563601Y-39422000D01*
G37*
G04 #@! TD.AperFunction*
D20*
X227087318Y-35293012D02*
X227211800Y-35305272D01*
X227243716Y-35305272D01*
X227252132Y-35390725D01*
X227302313Y-35556149D01*
X227383802Y-35708604D01*
X227493468Y-35842232D01*
X227503769Y-35850686D01*
X227483490Y-35842286D01*
X227213592Y-35788600D01*
X227074001Y-35788600D01*
X227074001Y-35288972D01*
X227087318Y-35293012D01*
G04 #@! TA.AperFunction,Conductor*
D21*
G36*
X227087318Y-35293012D02*
G01*
X227211800Y-35305272D01*
X227243716Y-35305272D01*
X227252132Y-35390725D01*
X227302313Y-35556149D01*
X227383802Y-35708604D01*
X227493468Y-35842232D01*
X227503769Y-35850686D01*
X227483490Y-35842286D01*
X227213592Y-35788600D01*
X227074001Y-35788600D01*
X227074001Y-35288972D01*
X227087318Y-35293012D01*
G37*
G04 #@! TD.AperFunction*
D20*
X214743303Y-33684254D02*
X214822655Y-33780945D01*
X214919346Y-33860297D01*
X215029660Y-33919262D01*
X215149358Y-33955572D01*
X215273840Y-33967832D01*
X215741440Y-33967832D01*
X215741440Y-34446661D01*
X215358160Y-34829940D01*
X214355552Y-34829940D01*
X214355552Y-33996310D01*
X214348835Y-33928115D01*
X214378020Y-33919262D01*
X214488334Y-33860297D01*
X214585025Y-33780945D01*
X214664377Y-33684254D01*
X214703840Y-33610425D01*
X214743303Y-33684254D01*
G04 #@! TA.AperFunction,Conductor*
D21*
G36*
X214743303Y-33684254D02*
G01*
X214822655Y-33780945D01*
X214919346Y-33860297D01*
X215029660Y-33919262D01*
X215149358Y-33955572D01*
X215273840Y-33967832D01*
X215741440Y-33967832D01*
X215741440Y-34446661D01*
X215358160Y-34829940D01*
X214355552Y-34829940D01*
X214355552Y-33996310D01*
X214348835Y-33928115D01*
X214378020Y-33919262D01*
X214488334Y-33860297D01*
X214585025Y-33780945D01*
X214664377Y-33684254D01*
X214703840Y-33610425D01*
X214743303Y-33684254D01*
G37*
G04 #@! TD.AperFunction*
D20*
X214635768Y-32290406D02*
X214585025Y-32228575D01*
X214488334Y-32149223D01*
X214378020Y-32090258D01*
X214260999Y-32054760D01*
X214378020Y-32019262D01*
X214488334Y-31960297D01*
X214585025Y-31880945D01*
X214635768Y-31819114D01*
X214635768Y-32290406D01*
G04 #@! TA.AperFunction,Conductor*
D21*
G36*
X214635768Y-32290406D02*
G01*
X214585025Y-32228575D01*
X214488334Y-32149223D01*
X214378020Y-32090258D01*
X214260999Y-32054760D01*
X214378020Y-32019262D01*
X214488334Y-31960297D01*
X214585025Y-31880945D01*
X214635768Y-31819114D01*
X214635768Y-32290406D01*
G37*
G04 #@! TD.AperFunction*
D20*
X214354145Y-28387580D02*
X214582953Y-28540465D01*
X214837190Y-28645774D01*
X215107088Y-28699460D01*
X215382272Y-28699460D01*
X215652170Y-28645774D01*
X215906407Y-28540465D01*
X215968179Y-28499190D01*
X216003848Y-28542652D01*
X216137476Y-28652318D01*
X216289931Y-28733807D01*
X216455355Y-28783988D01*
X216627390Y-28800932D01*
X217539890Y-28800932D01*
X217581234Y-28796860D01*
X217597993Y-31280957D01*
X217599417Y-31294760D01*
X216798308Y-31294760D01*
X216785025Y-31278575D01*
X216688334Y-31199223D01*
X216578020Y-31140258D01*
X216458322Y-31103948D01*
X216333840Y-31091688D01*
X215273840Y-31091688D01*
X215149358Y-31103948D01*
X215029660Y-31140258D01*
X214919346Y-31199223D01*
X214822655Y-31278575D01*
X214771912Y-31340406D01*
X214771912Y-30779760D01*
X214759652Y-30655278D01*
X214723342Y-30535580D01*
X214664377Y-30425266D01*
X214647199Y-30404335D01*
X214679448Y-30298025D01*
X214696392Y-30125990D01*
X214696392Y-29213490D01*
X214679448Y-29041455D01*
X214629267Y-28876031D01*
X214547778Y-28723576D01*
X214438112Y-28589948D01*
X214304484Y-28480282D01*
X214168920Y-28407822D01*
X214252692Y-28339072D01*
X214276557Y-28309992D01*
X214354145Y-28387580D01*
G04 #@! TA.AperFunction,Conductor*
D21*
G36*
X214354145Y-28387580D02*
G01*
X214582953Y-28540465D01*
X214837190Y-28645774D01*
X215107088Y-28699460D01*
X215382272Y-28699460D01*
X215652170Y-28645774D01*
X215906407Y-28540465D01*
X215968179Y-28499190D01*
X216003848Y-28542652D01*
X216137476Y-28652318D01*
X216289931Y-28733807D01*
X216455355Y-28783988D01*
X216627390Y-28800932D01*
X217539890Y-28800932D01*
X217581234Y-28796860D01*
X217597993Y-31280957D01*
X217599417Y-31294760D01*
X216798308Y-31294760D01*
X216785025Y-31278575D01*
X216688334Y-31199223D01*
X216578020Y-31140258D01*
X216458322Y-31103948D01*
X216333840Y-31091688D01*
X215273840Y-31091688D01*
X215149358Y-31103948D01*
X215029660Y-31140258D01*
X214919346Y-31199223D01*
X214822655Y-31278575D01*
X214771912Y-31340406D01*
X214771912Y-30779760D01*
X214759652Y-30655278D01*
X214723342Y-30535580D01*
X214664377Y-30425266D01*
X214647199Y-30404335D01*
X214679448Y-30298025D01*
X214696392Y-30125990D01*
X214696392Y-29213490D01*
X214679448Y-29041455D01*
X214629267Y-28876031D01*
X214547778Y-28723576D01*
X214438112Y-28589948D01*
X214304484Y-28480282D01*
X214168920Y-28407822D01*
X214252692Y-28339072D01*
X214276557Y-28309992D01*
X214354145Y-28387580D01*
G37*
G04 #@! TD.AperFunction*
D20*
X223857306Y-26497737D02*
X223967620Y-26556702D01*
X224087318Y-26593012D01*
X224211800Y-26605272D01*
X224461800Y-26605272D01*
X224586282Y-26593012D01*
X224586800Y-26592855D01*
X224587318Y-26593012D01*
X224711800Y-26605272D01*
X224961800Y-26605272D01*
X224976429Y-26603831D01*
X224917817Y-26745333D01*
X224874200Y-26964612D01*
X224874200Y-27188188D01*
X224917817Y-27407467D01*
X225003376Y-27614024D01*
X225127588Y-27799920D01*
X225285680Y-27958012D01*
X225471576Y-28082224D01*
X225678133Y-28167783D01*
X225897412Y-28211400D01*
X226020001Y-28211400D01*
X226020000Y-31093600D01*
X221927123Y-31093600D01*
X221797110Y-31106405D01*
X221630287Y-31157011D01*
X221517495Y-31217299D01*
X221512612Y-31167718D01*
X221512455Y-31167200D01*
X221512612Y-31166682D01*
X221524872Y-31042200D01*
X221524872Y-30792200D01*
X221512612Y-30667718D01*
X221512455Y-30667200D01*
X221512612Y-30666682D01*
X221524872Y-30542200D01*
X221524872Y-30292200D01*
X221512612Y-30167718D01*
X221512455Y-30167200D01*
X221512612Y-30166682D01*
X221524872Y-30042200D01*
X221524872Y-29792200D01*
X221512612Y-29667718D01*
X221512455Y-29667200D01*
X221512612Y-29666682D01*
X221524872Y-29542200D01*
X221524872Y-29292200D01*
X221512612Y-29167718D01*
X221512455Y-29167200D01*
X221512612Y-29166682D01*
X221524872Y-29042200D01*
X221524872Y-28792200D01*
X221512612Y-28667718D01*
X221512455Y-28667200D01*
X221512612Y-28666682D01*
X221524872Y-28542200D01*
X221524872Y-28292200D01*
X221512612Y-28167718D01*
X221512455Y-28167200D01*
X221512612Y-28166682D01*
X221524872Y-28042200D01*
X221524872Y-27792200D01*
X221512612Y-27667718D01*
X221512455Y-27667200D01*
X221512612Y-27666682D01*
X221524872Y-27542200D01*
X221524872Y-27292200D01*
X221512612Y-27167718D01*
X221512455Y-27167200D01*
X221512612Y-27166682D01*
X221524872Y-27042200D01*
X221524872Y-26792200D01*
X221512612Y-26667718D01*
X221480082Y-26560482D01*
X221587318Y-26593012D01*
X221711800Y-26605272D01*
X221961800Y-26605272D01*
X222086282Y-26593012D01*
X222086800Y-26592855D01*
X222087318Y-26593012D01*
X222211800Y-26605272D01*
X222461800Y-26605272D01*
X222586282Y-26593012D01*
X222586800Y-26592855D01*
X222587318Y-26593012D01*
X222711800Y-26605272D01*
X222961800Y-26605272D01*
X223086282Y-26593012D01*
X223086800Y-26592855D01*
X223087318Y-26593012D01*
X223211800Y-26605272D01*
X223461800Y-26605272D01*
X223586282Y-26593012D01*
X223705980Y-26556702D01*
X223816294Y-26497737D01*
X223836800Y-26480908D01*
X223857306Y-26497737D01*
G04 #@! TA.AperFunction,Conductor*
D21*
G36*
X223857306Y-26497737D02*
G01*
X223967620Y-26556702D01*
X224087318Y-26593012D01*
X224211800Y-26605272D01*
X224461800Y-26605272D01*
X224586282Y-26593012D01*
X224586800Y-26592855D01*
X224587318Y-26593012D01*
X224711800Y-26605272D01*
X224961800Y-26605272D01*
X224976429Y-26603831D01*
X224917817Y-26745333D01*
X224874200Y-26964612D01*
X224874200Y-27188188D01*
X224917817Y-27407467D01*
X225003376Y-27614024D01*
X225127588Y-27799920D01*
X225285680Y-27958012D01*
X225471576Y-28082224D01*
X225678133Y-28167783D01*
X225897412Y-28211400D01*
X226020001Y-28211400D01*
X226020000Y-31093600D01*
X221927123Y-31093600D01*
X221797110Y-31106405D01*
X221630287Y-31157011D01*
X221517495Y-31217299D01*
X221512612Y-31167718D01*
X221512455Y-31167200D01*
X221512612Y-31166682D01*
X221524872Y-31042200D01*
X221524872Y-30792200D01*
X221512612Y-30667718D01*
X221512455Y-30667200D01*
X221512612Y-30666682D01*
X221524872Y-30542200D01*
X221524872Y-30292200D01*
X221512612Y-30167718D01*
X221512455Y-30167200D01*
X221512612Y-30166682D01*
X221524872Y-30042200D01*
X221524872Y-29792200D01*
X221512612Y-29667718D01*
X221512455Y-29667200D01*
X221512612Y-29666682D01*
X221524872Y-29542200D01*
X221524872Y-29292200D01*
X221512612Y-29167718D01*
X221512455Y-29167200D01*
X221512612Y-29166682D01*
X221524872Y-29042200D01*
X221524872Y-28792200D01*
X221512612Y-28667718D01*
X221512455Y-28667200D01*
X221512612Y-28666682D01*
X221524872Y-28542200D01*
X221524872Y-28292200D01*
X221512612Y-28167718D01*
X221512455Y-28167200D01*
X221512612Y-28166682D01*
X221524872Y-28042200D01*
X221524872Y-27792200D01*
X221512612Y-27667718D01*
X221512455Y-27667200D01*
X221512612Y-27666682D01*
X221524872Y-27542200D01*
X221524872Y-27292200D01*
X221512612Y-27167718D01*
X221512455Y-27167200D01*
X221512612Y-27166682D01*
X221524872Y-27042200D01*
X221524872Y-26792200D01*
X221512612Y-26667718D01*
X221480082Y-26560482D01*
X221587318Y-26593012D01*
X221711800Y-26605272D01*
X221961800Y-26605272D01*
X222086282Y-26593012D01*
X222086800Y-26592855D01*
X222087318Y-26593012D01*
X222211800Y-26605272D01*
X222461800Y-26605272D01*
X222586282Y-26593012D01*
X222586800Y-26592855D01*
X222587318Y-26593012D01*
X222711800Y-26605272D01*
X222961800Y-26605272D01*
X223086282Y-26593012D01*
X223086800Y-26592855D01*
X223087318Y-26593012D01*
X223211800Y-26605272D01*
X223461800Y-26605272D01*
X223586282Y-26593012D01*
X223705980Y-26556702D01*
X223816294Y-26497737D01*
X223836800Y-26480908D01*
X223857306Y-26497737D01*
G37*
G04 #@! TD.AperFunction*
D20*
X212518108Y-28339072D02*
X212651736Y-28448738D01*
X212787300Y-28521198D01*
X212703528Y-28589948D01*
X212702113Y-28591672D01*
X212642332Y-28518828D01*
X212508704Y-28409162D01*
X212377646Y-28339110D01*
X212377692Y-28339072D01*
X212447900Y-28253524D01*
X212518108Y-28339072D01*
G04 #@! TA.AperFunction,Conductor*
D21*
G36*
X212518108Y-28339072D02*
G01*
X212651736Y-28448738D01*
X212787300Y-28521198D01*
X212703528Y-28589948D01*
X212702113Y-28591672D01*
X212642332Y-28518828D01*
X212508704Y-28409162D01*
X212377646Y-28339110D01*
X212377692Y-28339072D01*
X212447900Y-28253524D01*
X212518108Y-28339072D01*
G37*
G04 #@! TD.AperFunction*
D20*
X212368403Y-24669794D02*
X212447755Y-24766485D01*
X212544446Y-24845837D01*
X212654760Y-24904802D01*
X212774458Y-24941112D01*
X212898940Y-24953372D01*
X213958940Y-24953372D01*
X214083422Y-24941112D01*
X214203120Y-24904802D01*
X214313434Y-24845837D01*
X214393051Y-24780497D01*
X214412207Y-24775196D01*
X214432501Y-24767368D01*
X214453160Y-24760543D01*
X214473043Y-24751729D01*
X214476733Y-24750306D01*
X214497386Y-24743483D01*
X214517263Y-24734672D01*
X214537557Y-24726844D01*
X214556992Y-24717062D01*
X214560612Y-24715457D01*
X214580899Y-24707631D01*
X214600313Y-24697858D01*
X214620212Y-24689038D01*
X214639152Y-24678308D01*
X214642659Y-24676543D01*
X214662543Y-24667729D01*
X214681472Y-24657006D01*
X214700905Y-24647224D01*
X214703616Y-24645507D01*
X216541067Y-26558290D01*
X216455355Y-26566732D01*
X216450894Y-26568085D01*
X216449670Y-26567613D01*
X216447733Y-26567277D01*
X216447730Y-26567276D01*
X216441852Y-26566256D01*
X216436133Y-26564673D01*
X216436079Y-26564664D01*
X216434154Y-26564131D01*
X216432165Y-26563984D01*
X216431303Y-26563835D01*
X216329800Y-26411925D01*
X216135215Y-26217340D01*
X215906407Y-26064455D01*
X215652170Y-25959146D01*
X215382272Y-25905460D01*
X215107088Y-25905460D01*
X214837190Y-25959146D01*
X214582953Y-26064455D01*
X214354145Y-26217340D01*
X214315484Y-26256001D01*
X214252692Y-26179488D01*
X214119064Y-26069822D01*
X213966609Y-25988333D01*
X213801185Y-25938152D01*
X213629150Y-25921208D01*
X213141650Y-25921208D01*
X212969615Y-25938152D01*
X212804191Y-25988333D01*
X212651736Y-26069822D01*
X212518108Y-26179488D01*
X212447900Y-26265036D01*
X212377692Y-26179488D01*
X212244064Y-26069822D01*
X212091609Y-25988333D01*
X211926185Y-25938152D01*
X211899359Y-25935510D01*
X211901912Y-25909590D01*
X211901912Y-25575754D01*
X211968351Y-25494799D01*
X212050529Y-25341053D01*
X212101135Y-25174230D01*
X212113940Y-25044217D01*
X212113940Y-25044207D01*
X212118221Y-25000741D01*
X212113940Y-24957274D01*
X212113940Y-24845422D01*
X212210125Y-24766485D01*
X212289477Y-24669794D01*
X212328940Y-24595965D01*
X212368403Y-24669794D01*
G04 #@! TA.AperFunction,Conductor*
D21*
G36*
X212368403Y-24669794D02*
G01*
X212447755Y-24766485D01*
X212544446Y-24845837D01*
X212654760Y-24904802D01*
X212774458Y-24941112D01*
X212898940Y-24953372D01*
X213958940Y-24953372D01*
X214083422Y-24941112D01*
X214203120Y-24904802D01*
X214313434Y-24845837D01*
X214393051Y-24780497D01*
X214412207Y-24775196D01*
X214432501Y-24767368D01*
X214453160Y-24760543D01*
X214473043Y-24751729D01*
X214476733Y-24750306D01*
X214497386Y-24743483D01*
X214517263Y-24734672D01*
X214537557Y-24726844D01*
X214556992Y-24717062D01*
X214560612Y-24715457D01*
X214580899Y-24707631D01*
X214600313Y-24697858D01*
X214620212Y-24689038D01*
X214639152Y-24678308D01*
X214642659Y-24676543D01*
X214662543Y-24667729D01*
X214681472Y-24657006D01*
X214700905Y-24647224D01*
X214703616Y-24645507D01*
X216541067Y-26558290D01*
X216455355Y-26566732D01*
X216450894Y-26568085D01*
X216449670Y-26567613D01*
X216447733Y-26567277D01*
X216447730Y-26567276D01*
X216441852Y-26566256D01*
X216436133Y-26564673D01*
X216436079Y-26564664D01*
X216434154Y-26564131D01*
X216432165Y-26563984D01*
X216431303Y-26563835D01*
X216329800Y-26411925D01*
X216135215Y-26217340D01*
X215906407Y-26064455D01*
X215652170Y-25959146D01*
X215382272Y-25905460D01*
X215107088Y-25905460D01*
X214837190Y-25959146D01*
X214582953Y-26064455D01*
X214354145Y-26217340D01*
X214315484Y-26256001D01*
X214252692Y-26179488D01*
X214119064Y-26069822D01*
X213966609Y-25988333D01*
X213801185Y-25938152D01*
X213629150Y-25921208D01*
X213141650Y-25921208D01*
X212969615Y-25938152D01*
X212804191Y-25988333D01*
X212651736Y-26069822D01*
X212518108Y-26179488D01*
X212447900Y-26265036D01*
X212377692Y-26179488D01*
X212244064Y-26069822D01*
X212091609Y-25988333D01*
X211926185Y-25938152D01*
X211899359Y-25935510D01*
X211901912Y-25909590D01*
X211901912Y-25575754D01*
X211968351Y-25494799D01*
X212050529Y-25341053D01*
X212101135Y-25174230D01*
X212113940Y-25044217D01*
X212113940Y-25044207D01*
X212118221Y-25000741D01*
X212113940Y-24957274D01*
X212113940Y-24845422D01*
X212210125Y-24766485D01*
X212289477Y-24669794D01*
X212328940Y-24595965D01*
X212368403Y-24669794D01*
G37*
G04 #@! TD.AperFunction*
D20*
X208613996Y-23034318D02*
X208766451Y-23115807D01*
X208931875Y-23165988D01*
X209103910Y-23182932D01*
X210016410Y-23182932D01*
X210188445Y-23165988D01*
X210353869Y-23115807D01*
X210506324Y-23034318D01*
X210518667Y-23024188D01*
X210571781Y-23040300D01*
X210454760Y-23075798D01*
X210344446Y-23134763D01*
X210247755Y-23214115D01*
X210168403Y-23310806D01*
X210109438Y-23421120D01*
X210073128Y-23540818D01*
X210060868Y-23665300D01*
X210060868Y-24254158D01*
X210042676Y-24263882D01*
X209909048Y-24373548D01*
X209799382Y-24507176D01*
X209717893Y-24659631D01*
X209667712Y-24825055D01*
X209650768Y-24997090D01*
X209650768Y-25327333D01*
X208532800Y-26445301D01*
X208532800Y-22967682D01*
X208613996Y-23034318D01*
G04 #@! TA.AperFunction,Conductor*
D21*
G36*
X208613996Y-23034318D02*
G01*
X208766451Y-23115807D01*
X208931875Y-23165988D01*
X209103910Y-23182932D01*
X210016410Y-23182932D01*
X210188445Y-23165988D01*
X210353869Y-23115807D01*
X210506324Y-23034318D01*
X210518667Y-23024188D01*
X210571781Y-23040300D01*
X210454760Y-23075798D01*
X210344446Y-23134763D01*
X210247755Y-23214115D01*
X210168403Y-23310806D01*
X210109438Y-23421120D01*
X210073128Y-23540818D01*
X210060868Y-23665300D01*
X210060868Y-24254158D01*
X210042676Y-24263882D01*
X209909048Y-24373548D01*
X209799382Y-24507176D01*
X209717893Y-24659631D01*
X209667712Y-24825055D01*
X209650768Y-24997090D01*
X209650768Y-25327333D01*
X208532800Y-26445301D01*
X208532800Y-22967682D01*
X208613996Y-23034318D01*
G37*
G04 #@! TD.AperFunction*
D20*
X216226508Y-21348992D02*
X216360136Y-21458658D01*
X216512591Y-21540147D01*
X216678015Y-21590328D01*
X216850050Y-21607272D01*
X216972780Y-21607272D01*
X216929642Y-21659836D01*
X216848153Y-21812291D01*
X216797972Y-21977715D01*
X216781028Y-22149750D01*
X216781028Y-23062250D01*
X216797972Y-23234285D01*
X216848153Y-23399709D01*
X216917504Y-23529455D01*
X216857833Y-23641091D01*
X216807652Y-23806515D01*
X216790708Y-23978550D01*
X216790708Y-24891050D01*
X216807652Y-25063085D01*
X216857833Y-25228509D01*
X216939322Y-25380964D01*
X217048988Y-25514592D01*
X217182616Y-25624258D01*
X217335071Y-25705747D01*
X217500495Y-25755928D01*
X217672530Y-25772872D01*
X218160030Y-25772872D01*
X218332065Y-25755928D01*
X218497489Y-25705747D01*
X218649944Y-25624258D01*
X218783572Y-25514592D01*
X218893238Y-25380964D01*
X218974727Y-25228509D01*
X219024908Y-25063085D01*
X219041852Y-24891050D01*
X219041852Y-23978550D01*
X219024908Y-23806515D01*
X219012809Y-23766630D01*
X219047936Y-23795458D01*
X219200391Y-23876947D01*
X219365815Y-23927128D01*
X219537850Y-23944072D01*
X220025350Y-23944072D01*
X220197385Y-23927128D01*
X220362809Y-23876947D01*
X220515264Y-23795458D01*
X220648892Y-23685792D01*
X220758558Y-23552164D01*
X220840047Y-23399709D01*
X220890228Y-23234285D01*
X220907172Y-23062250D01*
X220907172Y-22644640D01*
X221147799Y-22644640D01*
X221238042Y-22734883D01*
X221238041Y-23711050D01*
X221236909Y-23712658D01*
X221235610Y-23714164D01*
X221234631Y-23715893D01*
X221234623Y-23715904D01*
X221231702Y-23721060D01*
X221228296Y-23725896D01*
X221228290Y-23725906D01*
X221227129Y-23727555D01*
X221226312Y-23729397D01*
X221219083Y-23742158D01*
X221211229Y-23754561D01*
X221210001Y-23756135D01*
X221209102Y-23757921D01*
X221209074Y-23757965D01*
X221206401Y-23763275D01*
X221203211Y-23768314D01*
X221202161Y-23769973D01*
X221201455Y-23771802D01*
X221194830Y-23784968D01*
X221187585Y-23797756D01*
X221186441Y-23799380D01*
X221183228Y-23806629D01*
X221179323Y-23813522D01*
X221178693Y-23815428D01*
X221172734Y-23828873D01*
X221166130Y-23841994D01*
X221165050Y-23843700D01*
X221164323Y-23845586D01*
X221164318Y-23845595D01*
X221162199Y-23851091D01*
X221159553Y-23856346D01*
X221159540Y-23856381D01*
X221158634Y-23858180D01*
X221158098Y-23860119D01*
X221152823Y-23873791D01*
X221146873Y-23887214D01*
X221145891Y-23888947D01*
X221145266Y-23890840D01*
X221145250Y-23890875D01*
X221143398Y-23896482D01*
X221140181Y-23903738D01*
X221139746Y-23905677D01*
X221135123Y-23919670D01*
X221129805Y-23933454D01*
X221128914Y-23935225D01*
X221126799Y-23942869D01*
X221124675Y-23948376D01*
X221124660Y-23948431D01*
X221123949Y-23950274D01*
X221123612Y-23952219D01*
X221119695Y-23966374D01*
X221115095Y-23980298D01*
X221114288Y-23982119D01*
X221113851Y-23984065D01*
X221113840Y-23984098D01*
X221112543Y-23989873D01*
X221110692Y-23995476D01*
X221110689Y-23995488D01*
X221110056Y-23997405D01*
X221109809Y-23999406D01*
X221106593Y-24013724D01*
X221102674Y-24027888D01*
X221101954Y-24029754D01*
X221101612Y-24031727D01*
X221101603Y-24031758D01*
X221100597Y-24037556D01*
X221098484Y-24045190D01*
X221098339Y-24047156D01*
X221095816Y-24061704D01*
X221092561Y-24076194D01*
X221091943Y-24078065D01*
X221090975Y-24085919D01*
X221089703Y-24091585D01*
X221089701Y-24091603D01*
X221089260Y-24093566D01*
X221089211Y-24095575D01*
X221087412Y-24110156D01*
X221084213Y-24128598D01*
X221083780Y-24134477D01*
X221082770Y-24140295D01*
X221082768Y-24140324D01*
X221082425Y-24142300D01*
X221082474Y-24144303D01*
X221081396Y-24158913D01*
X221079109Y-24177450D01*
X221078964Y-24183362D01*
X221077992Y-24191237D01*
X221078134Y-24193170D01*
X221077772Y-24208022D01*
X221077214Y-24215583D01*
X221076800Y-24219788D01*
X221076800Y-24221195D01*
X221076403Y-24226575D01*
X221076550Y-24232575D01*
X221075967Y-24240487D01*
X221076800Y-24247238D01*
X221076800Y-24247868D01*
X221076116Y-24275907D01*
X221076546Y-24281722D01*
X221076352Y-24289608D01*
X221076800Y-24292191D01*
X221076800Y-24636005D01*
X221073728Y-24667200D01*
X221073728Y-25967200D01*
X221085988Y-26091682D01*
X221118518Y-26198918D01*
X221011282Y-26166388D01*
X220886800Y-26154128D01*
X219586800Y-26154128D01*
X219462318Y-26166388D01*
X219457000Y-26168001D01*
X219443263Y-26164068D01*
X219418451Y-26162016D01*
X217205642Y-26196668D01*
X215339087Y-24111730D01*
X215467990Y-23982827D01*
X215476238Y-23975712D01*
X215498726Y-23952091D01*
X215521778Y-23929039D01*
X215528686Y-23920621D01*
X215532084Y-23917053D01*
X215547831Y-23902060D01*
X215562045Y-23885582D01*
X215577048Y-23869823D01*
X215590424Y-23852683D01*
X215600732Y-23840733D01*
X215615732Y-23824978D01*
X215629121Y-23807821D01*
X215643326Y-23791354D01*
X215655846Y-23773577D01*
X215665564Y-23761125D01*
X215679771Y-23744655D01*
X215692299Y-23726867D01*
X215705680Y-23709721D01*
X215717314Y-23691349D01*
X215726418Y-23678423D01*
X215739804Y-23661270D01*
X215751435Y-23642903D01*
X215763957Y-23625123D01*
X215774684Y-23606188D01*
X215783136Y-23592841D01*
X215795661Y-23575056D01*
X215806383Y-23556128D01*
X215818021Y-23537750D01*
X215827800Y-23518321D01*
X215835579Y-23504589D01*
X215847215Y-23486215D01*
X215857001Y-23466775D01*
X215867723Y-23447847D01*
X215876533Y-23427973D01*
X215883638Y-23413857D01*
X215894365Y-23394921D01*
X215903176Y-23375044D01*
X215912951Y-23355624D01*
X215920785Y-23335316D01*
X215927190Y-23320866D01*
X215936964Y-23301448D01*
X215944792Y-23281154D01*
X215953610Y-23261261D01*
X215960431Y-23240614D01*
X215966115Y-23225877D01*
X215974929Y-23205994D01*
X215981751Y-23185344D01*
X215989582Y-23165043D01*
X215995386Y-23144072D01*
X216000335Y-23129089D01*
X216008163Y-23108797D01*
X216013967Y-23087826D01*
X216020790Y-23067172D01*
X216025554Y-23045958D01*
X216029770Y-23030724D01*
X216036595Y-23010064D01*
X216041359Y-22988849D01*
X216047159Y-22967891D01*
X216050880Y-22946448D01*
X216054342Y-22931030D01*
X216060142Y-22910071D01*
X216063861Y-22888640D01*
X216068627Y-22867414D01*
X216071289Y-22845827D01*
X216073987Y-22830280D01*
X216078755Y-22809049D01*
X216081419Y-22787450D01*
X216085137Y-22766023D01*
X216086737Y-22744334D01*
X216088671Y-22728651D01*
X216092391Y-22707212D01*
X216093991Y-22685523D01*
X216096652Y-22663946D01*
X216097186Y-22642197D01*
X216098348Y-22626447D01*
X216101010Y-22604866D01*
X216101544Y-22583108D01*
X216103145Y-22561407D01*
X216102611Y-22539673D01*
X216102732Y-22534761D01*
X216103800Y-22523917D01*
X216103800Y-22491280D01*
X216104600Y-22458711D01*
X216103800Y-22447863D01*
X216103800Y-21327415D01*
X216156300Y-21263444D01*
X216226508Y-21348992D01*
G04 #@! TA.AperFunction,Conductor*
D21*
G36*
X216226508Y-21348992D02*
G01*
X216360136Y-21458658D01*
X216512591Y-21540147D01*
X216678015Y-21590328D01*
X216850050Y-21607272D01*
X216972780Y-21607272D01*
X216929642Y-21659836D01*
X216848153Y-21812291D01*
X216797972Y-21977715D01*
X216781028Y-22149750D01*
X216781028Y-23062250D01*
X216797972Y-23234285D01*
X216848153Y-23399709D01*
X216917504Y-23529455D01*
X216857833Y-23641091D01*
X216807652Y-23806515D01*
X216790708Y-23978550D01*
X216790708Y-24891050D01*
X216807652Y-25063085D01*
X216857833Y-25228509D01*
X216939322Y-25380964D01*
X217048988Y-25514592D01*
X217182616Y-25624258D01*
X217335071Y-25705747D01*
X217500495Y-25755928D01*
X217672530Y-25772872D01*
X218160030Y-25772872D01*
X218332065Y-25755928D01*
X218497489Y-25705747D01*
X218649944Y-25624258D01*
X218783572Y-25514592D01*
X218893238Y-25380964D01*
X218974727Y-25228509D01*
X219024908Y-25063085D01*
X219041852Y-24891050D01*
X219041852Y-23978550D01*
X219024908Y-23806515D01*
X219012809Y-23766630D01*
X219047936Y-23795458D01*
X219200391Y-23876947D01*
X219365815Y-23927128D01*
X219537850Y-23944072D01*
X220025350Y-23944072D01*
X220197385Y-23927128D01*
X220362809Y-23876947D01*
X220515264Y-23795458D01*
X220648892Y-23685792D01*
X220758558Y-23552164D01*
X220840047Y-23399709D01*
X220890228Y-23234285D01*
X220907172Y-23062250D01*
X220907172Y-22644640D01*
X221147799Y-22644640D01*
X221238042Y-22734883D01*
X221238041Y-23711050D01*
X221236909Y-23712658D01*
X221235610Y-23714164D01*
X221234631Y-23715893D01*
X221234623Y-23715904D01*
X221231702Y-23721060D01*
X221228296Y-23725896D01*
X221228290Y-23725906D01*
X221227129Y-23727555D01*
X221226312Y-23729397D01*
X221219083Y-23742158D01*
X221211229Y-23754561D01*
X221210001Y-23756135D01*
X221209102Y-23757921D01*
X221209074Y-23757965D01*
X221206401Y-23763275D01*
X221203211Y-23768314D01*
X221202161Y-23769973D01*
X221201455Y-23771802D01*
X221194830Y-23784968D01*
X221187585Y-23797756D01*
X221186441Y-23799380D01*
X221183228Y-23806629D01*
X221179323Y-23813522D01*
X221178693Y-23815428D01*
X221172734Y-23828873D01*
X221166130Y-23841994D01*
X221165050Y-23843700D01*
X221164323Y-23845586D01*
X221164318Y-23845595D01*
X221162199Y-23851091D01*
X221159553Y-23856346D01*
X221159540Y-23856381D01*
X221158634Y-23858180D01*
X221158098Y-23860119D01*
X221152823Y-23873791D01*
X221146873Y-23887214D01*
X221145891Y-23888947D01*
X221145266Y-23890840D01*
X221145250Y-23890875D01*
X221143398Y-23896482D01*
X221140181Y-23903738D01*
X221139746Y-23905677D01*
X221135123Y-23919670D01*
X221129805Y-23933454D01*
X221128914Y-23935225D01*
X221126799Y-23942869D01*
X221124675Y-23948376D01*
X221124660Y-23948431D01*
X221123949Y-23950274D01*
X221123612Y-23952219D01*
X221119695Y-23966374D01*
X221115095Y-23980298D01*
X221114288Y-23982119D01*
X221113851Y-23984065D01*
X221113840Y-23984098D01*
X221112543Y-23989873D01*
X221110692Y-23995476D01*
X221110689Y-23995488D01*
X221110056Y-23997405D01*
X221109809Y-23999406D01*
X221106593Y-24013724D01*
X221102674Y-24027888D01*
X221101954Y-24029754D01*
X221101612Y-24031727D01*
X221101603Y-24031758D01*
X221100597Y-24037556D01*
X221098484Y-24045190D01*
X221098339Y-24047156D01*
X221095816Y-24061704D01*
X221092561Y-24076194D01*
X221091943Y-24078065D01*
X221090975Y-24085919D01*
X221089703Y-24091585D01*
X221089701Y-24091603D01*
X221089260Y-24093566D01*
X221089211Y-24095575D01*
X221087412Y-24110156D01*
X221084213Y-24128598D01*
X221083780Y-24134477D01*
X221082770Y-24140295D01*
X221082768Y-24140324D01*
X221082425Y-24142300D01*
X221082474Y-24144303D01*
X221081396Y-24158913D01*
X221079109Y-24177450D01*
X221078964Y-24183362D01*
X221077992Y-24191237D01*
X221078134Y-24193170D01*
X221077772Y-24208022D01*
X221077214Y-24215583D01*
X221076800Y-24219788D01*
X221076800Y-24221195D01*
X221076403Y-24226575D01*
X221076550Y-24232575D01*
X221075967Y-24240487D01*
X221076800Y-24247238D01*
X221076800Y-24247868D01*
X221076116Y-24275907D01*
X221076546Y-24281722D01*
X221076352Y-24289608D01*
X221076800Y-24292191D01*
X221076800Y-24636005D01*
X221073728Y-24667200D01*
X221073728Y-25967200D01*
X221085988Y-26091682D01*
X221118518Y-26198918D01*
X221011282Y-26166388D01*
X220886800Y-26154128D01*
X219586800Y-26154128D01*
X219462318Y-26166388D01*
X219457000Y-26168001D01*
X219443263Y-26164068D01*
X219418451Y-26162016D01*
X217205642Y-26196668D01*
X215339087Y-24111730D01*
X215467990Y-23982827D01*
X215476238Y-23975712D01*
X215498726Y-23952091D01*
X215521778Y-23929039D01*
X215528686Y-23920621D01*
X215532084Y-23917053D01*
X215547831Y-23902060D01*
X215562045Y-23885582D01*
X215577048Y-23869823D01*
X215590424Y-23852683D01*
X215600732Y-23840733D01*
X215615732Y-23824978D01*
X215629121Y-23807821D01*
X215643326Y-23791354D01*
X215655846Y-23773577D01*
X215665564Y-23761125D01*
X215679771Y-23744655D01*
X215692299Y-23726867D01*
X215705680Y-23709721D01*
X215717314Y-23691349D01*
X215726418Y-23678423D01*
X215739804Y-23661270D01*
X215751435Y-23642903D01*
X215763957Y-23625123D01*
X215774684Y-23606188D01*
X215783136Y-23592841D01*
X215795661Y-23575056D01*
X215806383Y-23556128D01*
X215818021Y-23537750D01*
X215827800Y-23518321D01*
X215835579Y-23504589D01*
X215847215Y-23486215D01*
X215857001Y-23466775D01*
X215867723Y-23447847D01*
X215876533Y-23427973D01*
X215883638Y-23413857D01*
X215894365Y-23394921D01*
X215903176Y-23375044D01*
X215912951Y-23355624D01*
X215920785Y-23335316D01*
X215927190Y-23320866D01*
X215936964Y-23301448D01*
X215944792Y-23281154D01*
X215953610Y-23261261D01*
X215960431Y-23240614D01*
X215966115Y-23225877D01*
X215974929Y-23205994D01*
X215981751Y-23185344D01*
X215989582Y-23165043D01*
X215995386Y-23144072D01*
X216000335Y-23129089D01*
X216008163Y-23108797D01*
X216013967Y-23087826D01*
X216020790Y-23067172D01*
X216025554Y-23045958D01*
X216029770Y-23030724D01*
X216036595Y-23010064D01*
X216041359Y-22988849D01*
X216047159Y-22967891D01*
X216050880Y-22946448D01*
X216054342Y-22931030D01*
X216060142Y-22910071D01*
X216063861Y-22888640D01*
X216068627Y-22867414D01*
X216071289Y-22845827D01*
X216073987Y-22830280D01*
X216078755Y-22809049D01*
X216081419Y-22787450D01*
X216085137Y-22766023D01*
X216086737Y-22744334D01*
X216088671Y-22728651D01*
X216092391Y-22707212D01*
X216093991Y-22685523D01*
X216096652Y-22663946D01*
X216097186Y-22642197D01*
X216098348Y-22626447D01*
X216101010Y-22604866D01*
X216101544Y-22583108D01*
X216103145Y-22561407D01*
X216102611Y-22539673D01*
X216102732Y-22534761D01*
X216103800Y-22523917D01*
X216103800Y-22491280D01*
X216104600Y-22458711D01*
X216103800Y-22447863D01*
X216103800Y-21327415D01*
X216156300Y-21263444D01*
X216226508Y-21348992D01*
G37*
G04 #@! TD.AperFunction*
D20*
X227174228Y-22064922D02*
X227077090Y-22024686D01*
X226807192Y-21971000D01*
X226532008Y-21971000D01*
X226262110Y-22024686D01*
X226007873Y-22129995D01*
X225779065Y-22282880D01*
X225584480Y-22477465D01*
X225431595Y-22706273D01*
X225326286Y-22960510D01*
X225272600Y-23230408D01*
X225272600Y-23369999D01*
X224951997Y-23369999D01*
X224942702Y-23369313D01*
X224914708Y-23369999D01*
X224886668Y-23369999D01*
X224881794Y-23370479D01*
X224869765Y-23370184D01*
X224851171Y-23371556D01*
X224832520Y-23372013D01*
X224814826Y-23374195D01*
X224797041Y-23374631D01*
X224778493Y-23376918D01*
X224759850Y-23378294D01*
X224742325Y-23381335D01*
X224724573Y-23382645D01*
X224706185Y-23385836D01*
X224687656Y-23388121D01*
X224670284Y-23392022D01*
X224652629Y-23394199D01*
X224634386Y-23398295D01*
X224615981Y-23401489D01*
X224598836Y-23406234D01*
X224581283Y-23409280D01*
X224563307Y-23414255D01*
X224545091Y-23418345D01*
X224528173Y-23423934D01*
X224510804Y-23427834D01*
X224493064Y-23433695D01*
X224475061Y-23438677D01*
X224458465Y-23445079D01*
X224441332Y-23449820D01*
X224423896Y-23456545D01*
X224406153Y-23462407D01*
X224389893Y-23469615D01*
X224372980Y-23475202D01*
X224355917Y-23482766D01*
X224338502Y-23489483D01*
X224322586Y-23497494D01*
X224305982Y-23503899D01*
X224289295Y-23512298D01*
X224272221Y-23519867D01*
X224256745Y-23528634D01*
X224240468Y-23535849D01*
X224224216Y-23545056D01*
X224207535Y-23553452D01*
X224192489Y-23562980D01*
X224176584Y-23570986D01*
X224160815Y-23580972D01*
X224144571Y-23590174D01*
X224130016Y-23600424D01*
X224114532Y-23609196D01*
X224099255Y-23619956D01*
X224083469Y-23629952D01*
X224069451Y-23640892D01*
X224059982Y-23646888D01*
X224057521Y-23632703D01*
X224052538Y-23614696D01*
X224048445Y-23596470D01*
X224042865Y-23579581D01*
X224038963Y-23562203D01*
X224033103Y-23544465D01*
X224028126Y-23526480D01*
X224021717Y-23509864D01*
X224016970Y-23492712D01*
X224010253Y-23475298D01*
X224009198Y-23472104D01*
X224075047Y-23348909D01*
X224125228Y-23183485D01*
X224142172Y-23011450D01*
X224142172Y-22098950D01*
X224125228Y-21926915D01*
X224075047Y-21761491D01*
X223993558Y-21609036D01*
X223883892Y-21475408D01*
X223776600Y-21387355D01*
X223776600Y-21328920D01*
X227174228Y-21328920D01*
X227174228Y-22064922D01*
G04 #@! TA.AperFunction,Conductor*
D21*
G36*
X227174228Y-22064922D02*
G01*
X227077090Y-22024686D01*
X226807192Y-21971000D01*
X226532008Y-21971000D01*
X226262110Y-22024686D01*
X226007873Y-22129995D01*
X225779065Y-22282880D01*
X225584480Y-22477465D01*
X225431595Y-22706273D01*
X225326286Y-22960510D01*
X225272600Y-23230408D01*
X225272600Y-23369999D01*
X224951997Y-23369999D01*
X224942702Y-23369313D01*
X224914708Y-23369999D01*
X224886668Y-23369999D01*
X224881794Y-23370479D01*
X224869765Y-23370184D01*
X224851171Y-23371556D01*
X224832520Y-23372013D01*
X224814826Y-23374195D01*
X224797041Y-23374631D01*
X224778493Y-23376918D01*
X224759850Y-23378294D01*
X224742325Y-23381335D01*
X224724573Y-23382645D01*
X224706185Y-23385836D01*
X224687656Y-23388121D01*
X224670284Y-23392022D01*
X224652629Y-23394199D01*
X224634386Y-23398295D01*
X224615981Y-23401489D01*
X224598836Y-23406234D01*
X224581283Y-23409280D01*
X224563307Y-23414255D01*
X224545091Y-23418345D01*
X224528173Y-23423934D01*
X224510804Y-23427834D01*
X224493064Y-23433695D01*
X224475061Y-23438677D01*
X224458465Y-23445079D01*
X224441332Y-23449820D01*
X224423896Y-23456545D01*
X224406153Y-23462407D01*
X224389893Y-23469615D01*
X224372980Y-23475202D01*
X224355917Y-23482766D01*
X224338502Y-23489483D01*
X224322586Y-23497494D01*
X224305982Y-23503899D01*
X224289295Y-23512298D01*
X224272221Y-23519867D01*
X224256745Y-23528634D01*
X224240468Y-23535849D01*
X224224216Y-23545056D01*
X224207535Y-23553452D01*
X224192489Y-23562980D01*
X224176584Y-23570986D01*
X224160815Y-23580972D01*
X224144571Y-23590174D01*
X224130016Y-23600424D01*
X224114532Y-23609196D01*
X224099255Y-23619956D01*
X224083469Y-23629952D01*
X224069451Y-23640892D01*
X224059982Y-23646888D01*
X224057521Y-23632703D01*
X224052538Y-23614696D01*
X224048445Y-23596470D01*
X224042865Y-23579581D01*
X224038963Y-23562203D01*
X224033103Y-23544465D01*
X224028126Y-23526480D01*
X224021717Y-23509864D01*
X224016970Y-23492712D01*
X224010253Y-23475298D01*
X224009198Y-23472104D01*
X224075047Y-23348909D01*
X224125228Y-23183485D01*
X224142172Y-23011450D01*
X224142172Y-22098950D01*
X224125228Y-21926915D01*
X224075047Y-21761491D01*
X223993558Y-21609036D01*
X223883892Y-21475408D01*
X223776600Y-21387355D01*
X223776600Y-21328920D01*
X227174228Y-21328920D01*
X227174228Y-22064922D01*
G37*
G04 #@! TD.AperFunction*
D20*
X212368403Y-22769794D02*
X212447755Y-22866485D01*
X212544446Y-22945837D01*
X212654760Y-23004802D01*
X212771781Y-23040300D01*
X212654760Y-23075798D01*
X212544446Y-23134763D01*
X212447755Y-23214115D01*
X212368403Y-23310806D01*
X212328940Y-23384635D01*
X212289477Y-23310806D01*
X212210125Y-23214115D01*
X212113434Y-23134763D01*
X212003120Y-23075798D01*
X211886099Y-23040300D01*
X212003120Y-23004802D01*
X212113434Y-22945837D01*
X212210125Y-22866485D01*
X212289477Y-22769794D01*
X212328940Y-22695965D01*
X212368403Y-22769794D01*
G04 #@! TA.AperFunction,Conductor*
D21*
G36*
X212368403Y-22769794D02*
G01*
X212447755Y-22866485D01*
X212544446Y-22945837D01*
X212654760Y-23004802D01*
X212771781Y-23040300D01*
X212654760Y-23075798D01*
X212544446Y-23134763D01*
X212447755Y-23214115D01*
X212368403Y-23310806D01*
X212328940Y-23384635D01*
X212289477Y-23310806D01*
X212210125Y-23214115D01*
X212113434Y-23134763D01*
X212003120Y-23075798D01*
X211886099Y-23040300D01*
X212003120Y-23004802D01*
X212113434Y-22945837D01*
X212210125Y-22866485D01*
X212289477Y-22769794D01*
X212328940Y-22695965D01*
X212368403Y-22769794D01*
G37*
G04 #@! TD.AperFunction*
D20*
X214351508Y-19189408D02*
X214241842Y-19323036D01*
X214209149Y-19384200D01*
X214173032Y-19384200D01*
X214108525Y-19364632D01*
X213936490Y-19347688D01*
X213448990Y-19347688D01*
X213276955Y-19364632D01*
X213111531Y-19414813D01*
X212959076Y-19496302D01*
X212825448Y-19605968D01*
X212715782Y-19739596D01*
X212634293Y-19892051D01*
X212584112Y-20057475D01*
X212567168Y-20229510D01*
X212567168Y-21142010D01*
X212574710Y-21218586D01*
X212544446Y-21234763D01*
X212447755Y-21314115D01*
X212368403Y-21410806D01*
X212328940Y-21484635D01*
X212289477Y-21410806D01*
X212210125Y-21314115D01*
X212113434Y-21234763D01*
X212003120Y-21175798D01*
X211883422Y-21139488D01*
X211758940Y-21127228D01*
X210698940Y-21127228D01*
X210577906Y-21139148D01*
X210506324Y-21080402D01*
X210353869Y-20998913D01*
X210188445Y-20948732D01*
X210016410Y-20931788D01*
X209103910Y-20931788D01*
X208931875Y-20948732D01*
X208766451Y-20998913D01*
X208613996Y-21080402D01*
X208532800Y-21147038D01*
X208532800Y-19099600D01*
X214460939Y-19099600D01*
X214351508Y-19189408D01*
G04 #@! TA.AperFunction,Conductor*
D21*
G36*
X214351508Y-19189408D02*
G01*
X214241842Y-19323036D01*
X214209149Y-19384200D01*
X214173032Y-19384200D01*
X214108525Y-19364632D01*
X213936490Y-19347688D01*
X213448990Y-19347688D01*
X213276955Y-19364632D01*
X213111531Y-19414813D01*
X212959076Y-19496302D01*
X212825448Y-19605968D01*
X212715782Y-19739596D01*
X212634293Y-19892051D01*
X212584112Y-20057475D01*
X212567168Y-20229510D01*
X212567168Y-21142010D01*
X212574710Y-21218586D01*
X212544446Y-21234763D01*
X212447755Y-21314115D01*
X212368403Y-21410806D01*
X212328940Y-21484635D01*
X212289477Y-21410806D01*
X212210125Y-21314115D01*
X212113434Y-21234763D01*
X212003120Y-21175798D01*
X211883422Y-21139488D01*
X211758940Y-21127228D01*
X210698940Y-21127228D01*
X210577906Y-21139148D01*
X210506324Y-21080402D01*
X210353869Y-20998913D01*
X210188445Y-20948732D01*
X210016410Y-20931788D01*
X209103910Y-20931788D01*
X208931875Y-20948732D01*
X208766451Y-20998913D01*
X208613996Y-21080402D01*
X208532800Y-21147038D01*
X208532800Y-19099600D01*
X214460939Y-19099600D01*
X214351508Y-19189408D01*
G37*
G04 #@! TD.AperFunction*
M02*
