%TF.GenerationSoftware,KiCad,Pcbnew,6.0.11+dfsg-1*%
%TF.CreationDate,2023-09-11T16:29:56+03:00*%
%TF.ProjectId,SC-STM32L412K8,53432d53-544d-4333-924c-3431324b382e,rev?*%
%TF.SameCoordinates,Original*%
%TF.FileFunction,Copper,L2,Bot*%
%TF.FilePolarity,Positive*%
%FSLAX46Y46*%
G04 Gerber Fmt 4.6, Leading zero omitted, Abs format (unit mm)*
G04 Created by KiCad (PCBNEW 6.0.11+dfsg-1) date 2023-09-11 16:29:56*
%MOMM*%
%LPD*%
G01*
G04 APERTURE LIST*
G04 Aperture macros list*
%AMRoundRect*
0 Rectangle with rounded corners*
0 $1 Rounding radius*
0 $2 $3 $4 $5 $6 $7 $8 $9 X,Y pos of 4 corners*
0 Add a 4 corners polygon primitive as box body*
4,1,4,$2,$3,$4,$5,$6,$7,$8,$9,$2,$3,0*
0 Add four circle primitives for the rounded corners*
1,1,$1+$1,$2,$3*
1,1,$1+$1,$4,$5*
1,1,$1+$1,$6,$7*
1,1,$1+$1,$8,$9*
0 Add four rect primitives between the rounded corners*
20,1,$1+$1,$2,$3,$4,$5,0*
20,1,$1+$1,$4,$5,$6,$7,0*
20,1,$1+$1,$6,$7,$8,$9,0*
20,1,$1+$1,$8,$9,$2,$3,0*%
G04 Aperture macros list end*
%TA.AperFunction,SMDPad,CuDef*%
%ADD10RoundRect,0.218750X-0.218750X-0.256250X0.218750X-0.256250X0.218750X0.256250X-0.218750X0.256250X0*%
%TD*%
%TA.AperFunction,SMDPad,CuDef*%
%ADD11RoundRect,0.135000X0.135000X0.185000X-0.135000X0.185000X-0.135000X-0.185000X0.135000X-0.185000X0*%
%TD*%
%TA.AperFunction,SMDPad,CuDef*%
%ADD12RoundRect,0.135000X0.185000X-0.135000X0.185000X0.135000X-0.185000X0.135000X-0.185000X-0.135000X0*%
%TD*%
%TA.AperFunction,SMDPad,CuDef*%
%ADD13R,0.900000X0.800000*%
%TD*%
%TA.AperFunction,SMDPad,CuDef*%
%ADD14RoundRect,0.225000X0.250000X-0.225000X0.250000X0.225000X-0.250000X0.225000X-0.250000X-0.225000X0*%
%TD*%
%TA.AperFunction,SMDPad,CuDef*%
%ADD15RoundRect,0.225000X-0.250000X0.225000X-0.250000X-0.225000X0.250000X-0.225000X0.250000X0.225000X0*%
%TD*%
%TA.AperFunction,SMDPad,CuDef*%
%ADD16RoundRect,0.250000X-0.250000X-0.475000X0.250000X-0.475000X0.250000X0.475000X-0.250000X0.475000X0*%
%TD*%
%TA.AperFunction,SMDPad,CuDef*%
%ADD17RoundRect,0.250000X0.475000X-0.250000X0.475000X0.250000X-0.475000X0.250000X-0.475000X-0.250000X0*%
%TD*%
%TA.AperFunction,SMDPad,CuDef*%
%ADD18RoundRect,0.225000X0.225000X0.250000X-0.225000X0.250000X-0.225000X-0.250000X0.225000X-0.250000X0*%
%TD*%
%TA.AperFunction,SMDPad,CuDef*%
%ADD19R,0.900000X1.200000*%
%TD*%
%TA.AperFunction,SMDPad,CuDef*%
%ADD20C,1.524000*%
%TD*%
%TA.AperFunction,SMDPad,CuDef*%
%ADD21RoundRect,0.250000X-0.375000X-1.075000X0.375000X-1.075000X0.375000X1.075000X-0.375000X1.075000X0*%
%TD*%
%TA.AperFunction,SMDPad,CuDef*%
%ADD22RoundRect,0.200000X-0.275000X0.200000X-0.275000X-0.200000X0.275000X-0.200000X0.275000X0.200000X0*%
%TD*%
%TA.AperFunction,SMDPad,CuDef*%
%ADD23R,3.000000X1.000000*%
%TD*%
%TA.AperFunction,SMDPad,CuDef*%
%ADD24RoundRect,0.150000X0.512500X0.150000X-0.512500X0.150000X-0.512500X-0.150000X0.512500X-0.150000X0*%
%TD*%
%TA.AperFunction,SMDPad,CuDef*%
%ADD25C,1.000000*%
%TD*%
%TA.AperFunction,SMDPad,CuDef*%
%ADD26RoundRect,0.200000X-0.200000X-0.275000X0.200000X-0.275000X0.200000X0.275000X-0.200000X0.275000X0*%
%TD*%
%TA.AperFunction,SMDPad,CuDef*%
%ADD27RoundRect,0.100000X0.712500X0.100000X-0.712500X0.100000X-0.712500X-0.100000X0.712500X-0.100000X0*%
%TD*%
%TA.AperFunction,ViaPad*%
%ADD28C,0.800000*%
%TD*%
%TA.AperFunction,ViaPad*%
%ADD29C,1.000000*%
%TD*%
%TA.AperFunction,Conductor*%
%ADD30C,0.250000*%
%TD*%
%TA.AperFunction,Conductor*%
%ADD31C,0.800000*%
%TD*%
%TA.AperFunction,Conductor*%
%ADD32C,0.600000*%
%TD*%
%TA.AperFunction,Conductor*%
%ADD33C,0.500000*%
%TD*%
%TA.AperFunction,Conductor*%
%ADD34C,0.400000*%
%TD*%
%TA.AperFunction,Conductor*%
%ADD35C,1.000000*%
%TD*%
G04 APERTURE END LIST*
D10*
%TO.P,L1,1,1*%
%TO.N,+BATT*%
X33387500Y-54975000D03*
%TO.P,L1,2,2*%
%TO.N,Net-(C3-Pad2)*%
X34962500Y-54975000D03*
%TD*%
%TO.P,L3,2,2*%
%TO.N,Net-(L3-Pad2)*%
X46639580Y-54950000D03*
%TO.P,L3,1,1*%
%TO.N,Net-(C5-Pad1)*%
X45064580Y-54950000D03*
%TD*%
D11*
%TO.P,R13,1*%
%TO.N,Net-(C6-Pad2)*%
X51020000Y-54930000D03*
%TO.P,R13,2*%
%TO.N,Net-(R11-Pad1)*%
X50000000Y-54930000D03*
%TD*%
%TO.P,R11,1*%
%TO.N,Net-(R11-Pad1)*%
X49040000Y-54930000D03*
%TO.P,R11,2*%
%TO.N,Net-(L3-Pad2)*%
X48020000Y-54930000D03*
%TD*%
D12*
%TO.P,R16,1*%
%TO.N,GND*%
X38330000Y-64630000D03*
%TO.P,R16,2*%
%TO.N,Vibro*%
X38330000Y-63610000D03*
%TD*%
D13*
%TO.P,Q1,1,G*%
%TO.N,Vibro*%
X36940000Y-64230000D03*
%TO.P,Q1,2,S*%
%TO.N,GND*%
X36940000Y-66130000D03*
%TO.P,Q1,3,D*%
%TO.N,Net-(J11-Pad1)*%
X34940000Y-65180000D03*
%TD*%
D14*
%TO.P,C1,1*%
%TO.N,GND*%
X34550000Y-58125000D03*
%TO.P,C1,2*%
%TO.N,+BATT*%
X34550000Y-56575000D03*
%TD*%
D15*
%TO.P,C2,1*%
%TO.N,+2V8*%
X54150000Y-59000000D03*
%TO.P,C2,2*%
%TO.N,GND*%
X54150000Y-60550000D03*
%TD*%
%TO.P,C5,1*%
%TO.N,Net-(C5-Pad1)*%
X42113200Y-58407000D03*
%TO.P,C5,2*%
%TO.N,Net-(C5-Pad2)*%
X42113200Y-59957000D03*
%TD*%
D16*
%TO.P,C7,1*%
%TO.N,GND*%
X41772800Y-56794400D03*
%TO.P,C7,2*%
%TO.N,Net-(C5-Pad1)*%
X43672800Y-56794400D03*
%TD*%
D17*
%TO.P,C8,1*%
%TO.N,GND*%
X46360000Y-58300000D03*
%TO.P,C8,2*%
%TO.N,Net-(L3-Pad2)*%
X46360000Y-56400000D03*
%TD*%
%TO.P,C11,1*%
%TO.N,GND*%
X48250000Y-58140000D03*
%TO.P,C11,2*%
%TO.N,Net-(R11-Pad1)*%
X48250000Y-56240000D03*
%TD*%
D14*
%TO.P,C13,1*%
%TO.N,Net-(SW1-Pad1)*%
X34575000Y-61600000D03*
%TO.P,C13,2*%
%TO.N,GND*%
X34575000Y-60050000D03*
%TD*%
D17*
%TO.P,C14,1*%
%TO.N,GND*%
X51920000Y-58100000D03*
%TO.P,C14,2*%
%TO.N,Net-(C6-Pad2)*%
X51920000Y-56200000D03*
%TD*%
D18*
%TO.P,C15,1*%
%TO.N,+BATT*%
X57735000Y-57390000D03*
%TO.P,C15,2*%
%TO.N,GND*%
X56185000Y-57390000D03*
%TD*%
D14*
%TO.P,C19,1*%
%TO.N,+2V8*%
X54275000Y-64750000D03*
%TO.P,C19,2*%
%TO.N,GND*%
X54275000Y-63200000D03*
%TD*%
D19*
%TO.P,D2,1,K*%
%TO.N,Net-(C5-Pad1)*%
X43798760Y-55051960D03*
%TO.P,D2,2,A*%
%TO.N,Net-(D2-Pad2)*%
X40498760Y-55051960D03*
%TD*%
D20*
%TO.P,J2,1,Pin_1*%
%TO.N,Net-(C6-Pad2)*%
X53380000Y-54980000D03*
%TD*%
D21*
%TO.P,L2,1,1*%
%TO.N,Net-(C3-Pad2)*%
X36423140Y-55679340D03*
%TO.P,L2,2,2*%
%TO.N,Net-(D2-Pad2)*%
X39223140Y-55679340D03*
%TD*%
D11*
%TO.P,R3,1*%
%TO.N,Net-(C5-Pad2)*%
X43185000Y-61175000D03*
%TO.P,R3,2*%
%TO.N,HVAj*%
X42165000Y-61175000D03*
%TD*%
D22*
%TO.P,R5,1*%
%TO.N,Net-(C5-Pad1)*%
X43522900Y-58357000D03*
%TO.P,R5,2*%
%TO.N,Net-(C5-Pad2)*%
X43522900Y-60007000D03*
%TD*%
D23*
%TO.P,SW1,1,A*%
%TO.N,Net-(SW1-Pad1)*%
X31906340Y-61552460D03*
%TO.P,SW1,2,B*%
X31906340Y-59052460D03*
%TO.P,SW1,3,C*%
%TO.N,+BATT*%
X31906340Y-56552460D03*
%TD*%
D24*
%TO.P,U2,1,SW*%
%TO.N,Net-(D2-Pad2)*%
X39311160Y-58011020D03*
%TO.P,U2,2,GND*%
%TO.N,GND*%
X39311160Y-58961020D03*
%TO.P,U2,3,FB*%
%TO.N,Net-(C5-Pad2)*%
X39311160Y-59911020D03*
%TO.P,U2,4,EN*%
%TO.N,Net-(C3-Pad2)*%
X37036160Y-59911020D03*
%TO.P,U2,5,VIN*%
X37036160Y-58011020D03*
%TD*%
D13*
%TO.P,U5,1,GND*%
%TO.N,GND*%
X55896000Y-60767000D03*
%TO.P,U5,2,VO*%
%TO.N,+2V8*%
X55896000Y-58867000D03*
%TO.P,U5,3,VI*%
%TO.N,+BATT*%
X57896000Y-59817000D03*
%TD*%
D25*
%TO.P,J11,1,Pin_1*%
%TO.N,Net-(J11-Pad1)*%
X33610000Y-65180000D03*
%TD*%
D11*
%TO.P,R15,1*%
%TO.N,GND*%
X45060000Y-66250000D03*
%TO.P,R15,2*%
%TO.N,Buzer*%
X44040000Y-66250000D03*
%TD*%
D20*
%TO.P,J13,1,Pin_1*%
%TO.N,+BATT*%
X32080200Y-54000400D03*
%TD*%
D26*
%TO.P,R19,1*%
%TO.N,bl*%
X47714400Y-65633600D03*
%TO.P,R19,2*%
%TO.N,+BATT*%
X49364400Y-65633600D03*
%TD*%
D17*
%TO.P,C6,1*%
%TO.N,GND*%
X50080000Y-58110000D03*
%TO.P,C6,2*%
%TO.N,Net-(C6-Pad2)*%
X50080000Y-56210000D03*
%TD*%
D11*
%TO.P,R10,1*%
%TO.N,HVAj*%
X41185000Y-61175000D03*
%TO.P,R10,2*%
%TO.N,GND*%
X40165000Y-61175000D03*
%TD*%
%TO.P,R17,1*%
%TO.N,Net-(D3-Pad5)*%
X43185000Y-62250000D03*
%TO.P,R17,2*%
%TO.N,HVAj*%
X42165000Y-62250000D03*
%TD*%
D27*
%TO.P,D3,1,CS/LD*%
%TO.N,CS*%
X50855100Y-60391400D03*
%TO.P,D3,2,SCK*%
%TO.N,SC*%
X50855100Y-61041400D03*
%TO.P,D3,3,SDI*%
%TO.N,DI*%
X50855100Y-61691400D03*
%TO.P,D3,4,REF*%
%TO.N,+2V8*%
X50855100Y-62341400D03*
%TO.P,D3,5,VoutB*%
%TO.N,Net-(D3-Pad5)*%
X46630100Y-62341400D03*
%TO.P,D3,6,Vcc*%
%TO.N,+2V8*%
X46630100Y-61691400D03*
%TO.P,D3,7,Gnd*%
%TO.N,GND*%
X46630100Y-61041400D03*
%TO.P,D3,8,VoutA*%
%TO.N,Net-(D3-Pad8)*%
X46630100Y-60391400D03*
%TD*%
D13*
%TO.P,Q2,1,G*%
%TO.N,Buzer*%
X42550000Y-64700000D03*
%TO.P,Q2,2,S*%
%TO.N,GND*%
X42550000Y-66600000D03*
%TO.P,Q2,3,D*%
%TO.N,Net-(BZ1-Pad2)*%
X40550000Y-65650000D03*
%TD*%
D18*
%TO.P,C3,1*%
%TO.N,GND*%
X38300000Y-61425000D03*
%TO.P,C3,2*%
%TO.N,Net-(C3-Pad2)*%
X36750000Y-61425000D03*
%TD*%
D28*
%TO.N,GND*%
X29712920Y-57785000D03*
X44375000Y-63575000D03*
X40320000Y-59040000D03*
%TO.N,Vibro*%
X38890000Y-63480000D03*
%TO.N,+BATT*%
X30090000Y-65120000D03*
%TO.N,Net-(BZ1-Pad2)*%
X40050000Y-65620000D03*
%TO.N,Net-(D3-Pad8)*%
X48250000Y-60730000D03*
%TO.N,SC*%
X47870000Y-59470000D03*
%TO.N,GND*%
X40770000Y-63770000D03*
X44650000Y-61375000D03*
X53428900Y-61328300D03*
D29*
X29800000Y-62675000D03*
D28*
X42400000Y-54890000D03*
X55831740Y-60170060D03*
X46280000Y-63560000D03*
X51005740Y-66611500D03*
X28650000Y-55500000D03*
X48249840Y-67208400D03*
X45450000Y-57950000D03*
%TO.N,Net-(SW1-Pad1)*%
X32760000Y-61550000D03*
%TO.N,Buzer*%
X43891200Y-66243200D03*
%TO.N,bl*%
X47100000Y-66025000D03*
%TO.N,+2V8*%
X48190000Y-62138560D03*
X54160000Y-58990000D03*
X50890050Y-64733050D03*
%TO.N,DI*%
X49580800Y-61767720D03*
%TO.N,CS*%
X49760000Y-59720000D03*
%TD*%
D30*
%TO.N,+BATT*%
X32080200Y-54000400D02*
X32968720Y-54000400D01*
X32968720Y-54000400D02*
X33029920Y-54061600D01*
D31*
%TO.N,Net-(C5-Pad1)*%
X45064580Y-54950000D02*
X43900720Y-54950000D01*
D30*
X43900720Y-54950000D02*
X43798760Y-55051960D01*
D31*
%TO.N,GND*%
X44395000Y-63630000D02*
X46872700Y-63630000D01*
D30*
%TO.N,Net-(D3-Pad5)*%
X43574264Y-62525025D02*
G75*
G02*
X43362132Y-62437132I36J300025D01*
G01*
X45607864Y-62341375D02*
G75*
G03*
X45395732Y-62429268I36J-300025D01*
G01*
X45175736Y-62525025D02*
G75*
G03*
X45387868Y-62437132I-36J300025D01*
G01*
X43185000Y-62250000D02*
X43185000Y-62260000D01*
X43185000Y-62260000D02*
X43362132Y-62437132D01*
X43574264Y-62525000D02*
X45175736Y-62525000D01*
X45387868Y-62437132D02*
X45395732Y-62429268D01*
X45607864Y-62341400D02*
X46630100Y-62341400D01*
%TO.N,Net-(BZ1-Pad2)*%
X40050000Y-65620000D02*
X40520000Y-65620000D01*
X40520000Y-65620000D02*
X40550000Y-65650000D01*
D31*
%TO.N,GND*%
X40817800Y-58892200D02*
X40817800Y-58897800D01*
%TO.N,Net-(C3-Pad2)*%
X35029920Y-54973220D02*
X36406780Y-54973220D01*
D32*
%TO.N,GND*%
X27846010Y-56718194D02*
G75*
G02*
X28138913Y-56011087I999990J-6D01*
G01*
X27845982Y-65928046D02*
G75*
G03*
X28138913Y-66635153I1000018J46D01*
G01*
X28457380Y-66953594D02*
G75*
G03*
X29164474Y-67246500I707120J707094D01*
G01*
X35936500Y-67246500D02*
X29164474Y-67246500D01*
X28457367Y-66953607D02*
X28138913Y-66635153D01*
X27846020Y-65928046D02*
X27846020Y-56718194D01*
X28138913Y-56011087D02*
X28650000Y-55500000D01*
D33*
X35755604Y-60558874D02*
G75*
G03*
X35462687Y-59851767I-1000004J-26D01*
G01*
D30*
%TO.N,+BATT*%
X28720010Y-63335786D02*
G75*
G03*
X29012893Y-64042893I999990J-14D01*
G01*
%TO.N,Vibro*%
X38358629Y-63610020D02*
G75*
G03*
X38924315Y-63375685I-29J800020D01*
G01*
X37295786Y-64229990D02*
G75*
G03*
X38002893Y-63937107I14J999990D01*
G01*
X36940000Y-64230000D02*
X37295786Y-64230000D01*
X38002893Y-63937107D02*
X38330000Y-63610000D01*
X38330000Y-63610000D02*
X38358629Y-63610000D01*
%TO.N,Net-(C5-Pad2)*%
X43185000Y-61175000D02*
X43185000Y-60344900D01*
X43185000Y-60344900D02*
X43522900Y-60007000D01*
X39311160Y-59911020D02*
X43426920Y-59911020D01*
X43426920Y-59911020D02*
X43522900Y-60007000D01*
D32*
%TO.N,GND*%
X39088060Y-67246500D02*
X35936500Y-67246500D01*
X35940000Y-67243000D02*
X35940000Y-62825360D01*
X35936500Y-67246500D02*
X35940000Y-67243000D01*
X35940000Y-62825360D02*
X36055300Y-62710060D01*
D30*
%TO.N,Net-(J11-Pad1)*%
X33610000Y-65180000D02*
X34990000Y-65180000D01*
%TO.N,+BATT*%
X29174662Y-56845368D02*
G75*
G02*
X29881754Y-56552460I707138J-707132D01*
G01*
X28720010Y-57714214D02*
G75*
G02*
X29012893Y-57007107I999990J14D01*
G01*
X31906340Y-56552460D02*
X29881754Y-56552460D01*
X29174647Y-56845353D02*
X29012893Y-57007107D01*
X28720000Y-57714214D02*
X28720000Y-63335786D01*
X29012893Y-64042893D02*
X30090000Y-65120000D01*
D31*
%TO.N,GND*%
X40817796Y-58282794D02*
G75*
G02*
X41110693Y-57575687I1000004J-6D01*
G01*
D33*
X38316443Y-59263551D02*
G75*
G03*
X38170000Y-59617107I353557J-353549D01*
G01*
X38472544Y-59107478D02*
G75*
G02*
X38826087Y-58961020I353556J-353522D01*
G01*
X39311160Y-58961020D02*
X38826087Y-58961020D01*
D30*
X38170000Y-61295000D02*
X38300000Y-61425000D01*
D33*
X38472533Y-59107467D02*
X38316446Y-59263554D01*
X38170000Y-59617107D02*
X38170000Y-61295000D01*
D31*
X40457886Y-62107900D02*
G75*
G02*
X40165000Y-61400786I707114J707100D01*
G01*
X40597114Y-62247100D02*
G75*
G02*
X40890000Y-62954214I-707114J-707100D01*
G01*
X37562811Y-62417145D02*
G75*
G02*
X36855726Y-62710060I-707111J707045D01*
G01*
D32*
%TO.N,+2V8*%
X55896000Y-58867000D02*
X54283000Y-58867000D01*
X54283000Y-58867000D02*
X54150000Y-59000000D01*
%TO.N,GND*%
X48737520Y-63378080D02*
X52029360Y-63378080D01*
X52029360Y-63378080D02*
X52222400Y-63185040D01*
X52222400Y-63185040D02*
X52222400Y-58402400D01*
X52222400Y-58402400D02*
X51920000Y-58100000D01*
D30*
%TO.N,SC*%
X50018507Y-61041395D02*
G75*
G02*
X49664954Y-60894954I-7J499995D01*
G01*
X48032893Y-59470005D02*
G75*
G02*
X48386447Y-59616447I7J-499995D01*
G01*
%TO.N,Net-(D3-Pad8)*%
X48204300Y-60684286D02*
G75*
G03*
X47497186Y-60391400I-707100J-707114D01*
G01*
X46630100Y-60391400D02*
X47497186Y-60391400D01*
X48204293Y-60684293D02*
X48250000Y-60730000D01*
%TO.N,SC*%
X47870000Y-59470000D02*
X48032893Y-59470000D01*
X48386447Y-59616447D02*
X49664954Y-60894954D01*
X50018507Y-61041400D02*
X50855100Y-61041400D01*
D31*
%TO.N,GND*%
X42083272Y-55183486D02*
G75*
G03*
X41790380Y-55890594I707128J-707114D01*
G01*
D32*
%TO.N,Net-(R11-Pad1)*%
X48893556Y-55426450D02*
G75*
G03*
X49040000Y-55072893I-353556J353550D01*
G01*
%TO.N,Net-(L3-Pad2)*%
X46359996Y-56035994D02*
G75*
G02*
X46652893Y-55328887I1000004J-6D01*
G01*
X46360000Y-56400000D02*
X46360000Y-56035994D01*
X46652893Y-55328887D02*
X46914580Y-55067200D01*
%TO.N,Net-(R11-Pad1)*%
X49040000Y-54930000D02*
X49040000Y-55072893D01*
X48893553Y-55426447D02*
X48250000Y-56070000D01*
X48250000Y-56070000D02*
X48250000Y-56240000D01*
%TO.N,Net-(C6-Pad2)*%
X51020000Y-54930000D02*
X51890000Y-54930000D01*
X51890000Y-54930000D02*
X53330000Y-54930000D01*
D30*
X51920000Y-54960000D02*
X51890000Y-54930000D01*
D32*
X51920000Y-56200000D02*
X51920000Y-54960000D01*
X50080000Y-56210000D02*
X51910000Y-56210000D01*
D30*
X51910000Y-56210000D02*
X51920000Y-56200000D01*
X53330000Y-54930000D02*
X53380000Y-54980000D01*
D32*
%TO.N,Net-(L3-Pad2)*%
X48020000Y-54930000D02*
X47051780Y-54930000D01*
D30*
X47051780Y-54930000D02*
X46914580Y-55067200D01*
D32*
%TO.N,Net-(R11-Pad1)*%
X49040000Y-54930000D02*
X50000000Y-54930000D01*
%TO.N,+BATT*%
X47210980Y-53677820D02*
X55384700Y-53677820D01*
D30*
X57692565Y-64169232D02*
X57658449Y-64217672D01*
X55938119Y-65620534D02*
X55996494Y-65610405D01*
D32*
X33766316Y-53678982D02*
X33719046Y-53682469D01*
X57905000Y-57400000D02*
X57905000Y-59808000D01*
D30*
X55996494Y-65610405D02*
X56054302Y-65597424D01*
X56614553Y-65280046D02*
X57542446Y-64352153D01*
X56526779Y-65359598D02*
X56571642Y-65320899D01*
D32*
X57905000Y-57400000D02*
X57905000Y-54845714D01*
D30*
X56111404Y-65581621D02*
X56167661Y-65563036D01*
D32*
X33813700Y-53677820D02*
X34988500Y-53677820D01*
D30*
X57894545Y-63557829D02*
X57890187Y-63616917D01*
D32*
X33444148Y-53751327D02*
X33400816Y-53770535D01*
D30*
X57753465Y-64067625D02*
X57724262Y-64119176D01*
X56167661Y-65563036D02*
X56222939Y-65541713D01*
D32*
X33317238Y-53815208D02*
X33277193Y-53840566D01*
D30*
X57890187Y-63616917D02*
X57882934Y-63675719D01*
D32*
X33165184Y-53927978D02*
X33130857Y-53960662D01*
X33813700Y-53677820D02*
X33766316Y-53678982D01*
D30*
X33029920Y-56178200D02*
X33404180Y-56552460D01*
X56480072Y-65396049D02*
X56526779Y-65359598D01*
D32*
X33488370Y-53734269D02*
X33444148Y-53751327D01*
D30*
X56054302Y-65597424D02*
X56111404Y-65581621D01*
D32*
X57905000Y-59808000D02*
X57896000Y-59817000D01*
D30*
X56571642Y-65320899D02*
X56614553Y-65280046D01*
D32*
X33533376Y-53719401D02*
X33488370Y-53734269D01*
X56737106Y-53677820D02*
X55384700Y-53677820D01*
D30*
X57896000Y-63498600D02*
X57896000Y-59817000D01*
X57780104Y-64014704D02*
X57753465Y-64067625D01*
X56431632Y-65430165D02*
X56480072Y-65396049D01*
X57804113Y-63960539D02*
X57780104Y-64014704D01*
X55761000Y-65633600D02*
X49326900Y-65633600D01*
X57882934Y-63675719D02*
X57872805Y-63734094D01*
X32080200Y-54000400D02*
X32080200Y-54023500D01*
D32*
X33277193Y-53840566D02*
X33238441Y-53867858D01*
D30*
X57844021Y-63849004D02*
X57825436Y-63905261D01*
X57583299Y-64309242D02*
X57542446Y-64352153D01*
D32*
X33029920Y-54061600D02*
X33029920Y-54973220D01*
D30*
X57621998Y-64264379D02*
X57583299Y-64309242D01*
X57896000Y-63498600D02*
X57894545Y-63557829D01*
X57872805Y-63734094D02*
X57859824Y-63791902D01*
X55879317Y-65627787D02*
X55938119Y-65620534D01*
D32*
X31906340Y-56552460D02*
X33404180Y-56552460D01*
X33201075Y-53897019D02*
X33165184Y-53927978D01*
X33404180Y-56552460D02*
X34492800Y-56552460D01*
D30*
X55761000Y-65633600D02*
X55820229Y-65632145D01*
X34492800Y-56552460D02*
X34571940Y-56631600D01*
D32*
X33029920Y-54973220D02*
X33029920Y-56178200D01*
X33358478Y-53791846D02*
X33317238Y-53815208D01*
X33625304Y-53696374D02*
X33579057Y-53706759D01*
D30*
X57724262Y-64119176D02*
X57692565Y-64169232D01*
X56381576Y-65461862D02*
X56431632Y-65430165D01*
D32*
X57612107Y-54138607D02*
X57444213Y-53970713D01*
D30*
X56277104Y-65517704D02*
X56330025Y-65491065D01*
D32*
X33719046Y-53682469D02*
X33672004Y-53688271D01*
D30*
X55820229Y-65632145D02*
X55879317Y-65627787D01*
X57825436Y-63905261D02*
X57804113Y-63960539D01*
X56222939Y-65541713D02*
X56277104Y-65517704D01*
X57859824Y-63791902D02*
X57844021Y-63849004D01*
X56330025Y-65491065D02*
X56381576Y-65461862D01*
D32*
X33672004Y-53688271D02*
X33625304Y-53696374D01*
D30*
X57658449Y-64217672D02*
X57621998Y-64264379D01*
D32*
X33130857Y-53960662D02*
X33029920Y-54061600D01*
X33238441Y-53867858D02*
X33201075Y-53897019D01*
X33400816Y-53770535D02*
X33358478Y-53791846D01*
X33579057Y-53706759D02*
X33533376Y-53719401D01*
X34988500Y-53677820D02*
X47210980Y-53677820D01*
X57444206Y-53970720D02*
G75*
G03*
X56737106Y-53677820I-707106J-707080D01*
G01*
X57904990Y-54845714D02*
G75*
G03*
X57612107Y-54138607I-999990J14D01*
G01*
D30*
%TO.N,GND*%
X48117760Y-67233800D02*
X48117760Y-67137280D01*
X40655140Y-59182000D02*
X40434160Y-58961020D01*
D32*
X41378262Y-64104422D02*
X41407465Y-64155973D01*
D31*
X46872700Y-63630000D02*
X47015400Y-63487300D01*
X41950000Y-63630000D02*
X44395000Y-63630000D01*
X40890000Y-62954214D02*
X40890000Y-63440000D01*
D33*
X35755580Y-62410340D02*
X36055300Y-62710060D01*
D32*
X41612370Y-67587370D02*
X45493430Y-67587370D01*
X46290990Y-67587370D02*
X46687230Y-67587370D01*
X46687230Y-67587370D02*
X48160430Y-67587370D01*
D31*
X41950000Y-63630000D02*
X41080000Y-63630000D01*
D32*
X41275998Y-63959219D02*
X41312449Y-64005926D01*
D31*
X29745940Y-62710060D02*
X36055300Y-62710060D01*
X34571940Y-58506600D02*
X33850340Y-57785000D01*
D32*
X41346565Y-64054366D02*
X41378262Y-64104422D01*
D31*
X40817800Y-58577380D02*
X40817800Y-58282794D01*
D32*
X41544187Y-64606682D02*
X41548545Y-64665770D01*
D31*
X40165000Y-61175000D02*
X40165000Y-61400786D01*
X29616400Y-62580520D02*
X29745940Y-62710060D01*
D30*
X48493680Y-63378080D02*
X47124620Y-63378080D01*
D34*
X46542600Y-61041400D02*
X45430560Y-61041400D01*
D32*
X45191680Y-60802520D02*
X45191680Y-59268360D01*
X41526805Y-64489504D02*
X41536934Y-64547880D01*
D30*
X41550000Y-67525000D02*
X41612370Y-67587370D01*
D32*
X48618140Y-67261740D02*
X49248060Y-67261740D01*
D31*
X40457893Y-62107893D02*
X40597107Y-62247107D01*
D33*
X34566860Y-59755800D02*
X35366720Y-59755800D01*
D32*
X41434104Y-64208894D02*
X41458114Y-64263059D01*
D31*
X36055300Y-62710060D02*
X36855726Y-62710060D01*
D32*
X41513824Y-64431696D02*
X41526805Y-64489504D01*
X39088060Y-67246500D02*
X39423340Y-67246500D01*
D30*
X29646880Y-57785000D02*
X29616400Y-57815480D01*
D32*
X41550000Y-64725000D02*
X41550000Y-67525000D01*
D30*
X54330600Y-62354220D02*
X54330600Y-60754500D01*
X48534320Y-66720720D02*
X48534320Y-63418720D01*
D32*
X48160430Y-67587370D02*
X48437800Y-67310000D01*
D30*
X47124620Y-63378080D02*
X47015400Y-63487300D01*
D31*
X41110693Y-57575687D02*
X41790380Y-56896000D01*
D33*
X35366720Y-59755800D02*
X35462687Y-59851767D01*
D32*
X45493430Y-67587370D02*
X46290990Y-67587370D01*
D30*
X54330600Y-60754500D02*
X55883500Y-60754500D01*
X55883500Y-60754500D02*
X55896000Y-60767000D01*
X48117760Y-67137280D02*
X48534320Y-66720720D01*
D32*
X41196446Y-63871446D02*
X40750000Y-63425000D01*
X40333170Y-67587370D02*
X41612370Y-67587370D01*
D30*
X50888660Y-58341500D02*
X51714400Y-58341500D01*
D32*
X41479437Y-64318337D02*
X41498021Y-64374595D01*
D30*
X29712920Y-57785000D02*
X29646880Y-57785000D01*
X48534320Y-63418720D02*
X48493680Y-63378080D01*
X45191680Y-59268360D02*
X45105320Y-59182000D01*
D32*
X39423340Y-67246500D02*
X39764210Y-67587370D01*
D30*
X34566860Y-58511680D02*
X34571940Y-58506600D01*
D32*
X41548545Y-64665770D02*
X41550000Y-64725000D01*
D30*
X48737520Y-63378080D02*
X48493680Y-63378080D01*
D32*
X39764210Y-67587370D02*
X40333170Y-67587370D01*
D31*
X41790380Y-56896000D02*
X41790380Y-55890594D01*
D32*
X41237299Y-63914356D02*
X41275998Y-63959219D01*
D30*
X45491500Y-66243200D02*
X45491500Y-67585440D01*
D32*
X49248060Y-67261740D02*
X57775080Y-67261740D01*
D33*
X35755580Y-60558874D02*
X35755580Y-62410340D01*
D32*
X41536934Y-64547880D02*
X41544187Y-64606682D01*
X39273660Y-58961020D02*
X40434160Y-58961020D01*
D30*
X45491500Y-67585440D02*
X45493430Y-67587370D01*
X57775080Y-67261740D02*
X57812940Y-67223880D01*
X42265600Y-55001160D02*
X42387520Y-54879240D01*
X41080000Y-63630000D02*
X40890000Y-63440000D01*
X42379900Y-54912260D02*
X42354500Y-54886860D01*
D32*
X41312449Y-64005926D02*
X41346565Y-64054366D01*
D30*
X49885600Y-58341500D02*
X50888660Y-58341500D01*
X34566860Y-59755800D02*
X34566860Y-58511680D01*
D31*
X33850340Y-57785000D02*
X29712920Y-57785000D01*
X38300000Y-61680000D02*
X38300000Y-61425000D01*
D30*
X40259000Y-67513200D02*
X40333170Y-67587370D01*
D32*
X41458114Y-64263059D02*
X41479437Y-64318337D01*
X41407465Y-64155973D02*
X41434104Y-64208894D01*
D31*
X37562833Y-62417167D02*
X38300000Y-61680000D01*
D32*
X41196446Y-63871446D02*
X41237299Y-63914356D01*
D31*
X29616400Y-57815480D02*
X29616400Y-62580520D01*
X42083273Y-55183487D02*
X42387520Y-54879240D01*
D30*
X45105320Y-59182000D02*
X40655140Y-59182000D01*
D31*
X40817800Y-58577380D02*
X40817800Y-58892200D01*
D30*
X46542600Y-61041400D02*
X46609120Y-61041400D01*
D32*
X41498021Y-64374595D02*
X41513824Y-64431696D01*
D31*
%TO.N,Net-(C3-Pad2)*%
X36626573Y-57531132D02*
X36594875Y-57481077D01*
X36752019Y-60426957D02*
X36741634Y-60473204D01*
X36776693Y-57714053D02*
X36735838Y-57671143D01*
X36424592Y-56919729D02*
X36423140Y-56860500D01*
X37073660Y-59911020D02*
X37073660Y-58011020D01*
X36776693Y-57714053D02*
X37073660Y-58011020D01*
X36660688Y-57579572D02*
X36626573Y-57531132D01*
X36885826Y-60125093D02*
X36860468Y-60165138D01*
X36697139Y-57626280D02*
X36660688Y-57579572D01*
X36515024Y-57322439D02*
X36493701Y-57267162D01*
X36423140Y-56860500D02*
X36423140Y-55679340D01*
X36493701Y-57267162D02*
X36475116Y-57210904D01*
X36727729Y-60566946D02*
X36724242Y-60614216D01*
X36594875Y-57481077D02*
X36565672Y-57429526D01*
X36539034Y-57376604D02*
X36515024Y-57322439D01*
X36446333Y-57095994D02*
X36436203Y-57037619D01*
X36860468Y-60165138D02*
X36837106Y-60206378D01*
X36724242Y-60614216D02*
X36723080Y-60661600D01*
X36815795Y-60248716D02*
X36796587Y-60292048D01*
X36723080Y-60661600D02*
X36723080Y-61480700D01*
X36735838Y-57671143D02*
X36697139Y-57626280D01*
X36796587Y-60292048D02*
X36779529Y-60336270D01*
X37005922Y-59978757D02*
X37073660Y-59911020D01*
X36779529Y-60336270D02*
X36764661Y-60381276D01*
X37005922Y-59978757D02*
X36973238Y-60013084D01*
X36741634Y-60473204D02*
X36733531Y-60519904D01*
X36837106Y-60206378D02*
X36815795Y-60248716D01*
X36565672Y-57429526D02*
X36539034Y-57376604D01*
X36475116Y-57210904D02*
X36459314Y-57153803D01*
X36973238Y-60013084D02*
X36942279Y-60048975D01*
X36436203Y-57037619D02*
X36428951Y-56978817D01*
X36459314Y-57153803D02*
X36446333Y-57095994D01*
X36942279Y-60048975D02*
X36913118Y-60086341D01*
X36913118Y-60086341D02*
X36885826Y-60125093D01*
X36764661Y-60381276D02*
X36752019Y-60426957D01*
X36428951Y-56978817D02*
X36424592Y-56919729D01*
X36733531Y-60519904D02*
X36727729Y-60566946D01*
D30*
%TO.N,Net-(C5-Pad1)*%
X43665380Y-55185340D02*
X43798760Y-55051960D01*
X42722800Y-58394500D02*
X42113200Y-58394500D01*
X43665380Y-56896000D02*
X43665380Y-58290220D01*
D32*
X43665380Y-56896000D02*
X43665380Y-55185340D01*
D30*
X43665380Y-58290220D02*
X43561100Y-58394500D01*
X42722800Y-58394500D02*
X43561100Y-58394500D01*
%TO.N,Net-(SW1-Pad1)*%
X32208600Y-59354720D02*
X31906340Y-59052460D01*
X31984680Y-61630800D02*
X31906340Y-61552460D01*
D31*
X31906340Y-60178820D02*
X31906340Y-59052460D01*
D30*
X31912820Y-60185300D02*
X31906340Y-60178820D01*
D31*
X31906340Y-61552460D02*
X31906340Y-60178820D01*
D30*
X32923480Y-59354720D02*
X32208600Y-59354720D01*
D31*
X34566860Y-61630800D02*
X31984680Y-61630800D01*
D30*
%TO.N,Net-(D2-Pad2)*%
X39850520Y-55051960D02*
X39223140Y-55679340D01*
X39273660Y-55729860D02*
X39223140Y-55679340D01*
D31*
X40498760Y-55051960D02*
X39850520Y-55051960D01*
D32*
X39273660Y-58011020D02*
X39273660Y-55729860D01*
D30*
%TO.N,Buzer*%
X42550000Y-64700000D02*
X42550000Y-64876700D01*
X43809920Y-66324480D02*
X43891200Y-66243200D01*
X42550000Y-64876700D02*
X43916500Y-66243200D01*
%TO.N,bl*%
X47142300Y-66243200D02*
X47751900Y-65633600D01*
X47076360Y-66243200D02*
X47142300Y-66243200D01*
X47751900Y-65633600D02*
X47751900Y-65913100D01*
%TO.N,+2V8*%
X50890050Y-64733050D02*
X51087020Y-64536080D01*
X47635815Y-61701851D02*
X47588773Y-61696049D01*
X47541503Y-61692562D02*
X47494120Y-61691400D01*
X48543716Y-62318619D02*
X48588579Y-62357318D01*
X50707900Y-62517292D02*
X50665563Y-62538603D01*
D35*
X53709450Y-64733050D02*
X50890050Y-64733050D01*
D30*
X51173340Y-64797900D02*
X51031140Y-64655700D01*
X48683726Y-62427885D02*
X48733782Y-62459582D01*
X50827937Y-62441279D02*
X50789185Y-62468572D01*
D35*
X56896000Y-62446280D02*
X56894545Y-62505509D01*
X55125334Y-64617154D02*
X55178255Y-64590515D01*
D30*
X47819449Y-61747849D02*
X47774443Y-61732981D01*
D35*
X56872805Y-62681774D02*
X56859824Y-62739582D01*
D30*
X48785333Y-62488785D02*
X48838254Y-62515424D01*
X48142634Y-61941559D02*
X48106743Y-61910599D01*
D35*
X56724262Y-63066856D02*
X56692565Y-63116912D01*
X55375009Y-64459048D02*
X55419872Y-64420349D01*
D30*
X50942600Y-64680500D02*
X50890050Y-64733050D01*
X50622231Y-62557811D02*
X50578009Y-62574869D01*
D35*
X56658449Y-63165352D02*
X56621998Y-63212059D01*
D30*
X47990581Y-61828788D02*
X47949340Y-61805426D01*
X50441075Y-62612764D02*
X50394375Y-62620867D01*
D35*
X56780104Y-62962384D02*
X56753465Y-63015305D01*
X54959634Y-64681071D02*
X55015891Y-64662486D01*
D30*
X50759120Y-64863980D02*
X50890050Y-64733050D01*
X49177240Y-62618254D02*
X49236042Y-62625507D01*
D35*
X56894545Y-62505509D02*
X56890187Y-62564597D01*
X56896000Y-62446280D02*
X56896000Y-61772800D01*
D30*
X48500806Y-62277766D02*
X48543716Y-62318619D01*
X50865303Y-62412119D02*
X50827937Y-62441279D01*
D35*
X55178255Y-64590515D02*
X55229806Y-64561312D01*
D30*
X48106743Y-61910599D02*
X48069377Y-61881439D01*
D35*
X56882934Y-62623399D02*
X56872805Y-62681774D01*
D30*
X47949340Y-61805426D02*
X47907003Y-61784115D01*
X50749200Y-64759840D02*
X51015900Y-64493140D01*
X51104600Y-64518500D02*
X51087020Y-64536080D01*
D32*
X56896000Y-61772800D02*
X56896000Y-59080400D01*
D30*
X53826770Y-64733050D02*
X53709450Y-64733050D01*
X48947697Y-62560757D02*
X49003955Y-62579341D01*
D35*
X54844724Y-64709855D02*
X54902532Y-64696874D01*
D30*
X47728762Y-61720339D02*
X47682515Y-61709954D01*
X51237020Y-64686080D02*
X51087020Y-64536080D01*
X50252680Y-62631320D02*
X49354360Y-62631320D01*
X48892419Y-62539434D02*
X48947697Y-62560757D01*
D35*
X56621998Y-63212059D02*
X56583299Y-63256922D01*
D30*
X48635286Y-62393769D02*
X48683726Y-62427885D01*
X48030625Y-61854146D02*
X47990581Y-61828788D01*
X49061056Y-62595144D02*
X49118864Y-62608125D01*
D35*
X56825436Y-62852941D02*
X56804113Y-62908219D01*
D30*
X47494120Y-61691400D02*
X46542600Y-61691400D01*
D35*
X55229806Y-64561312D02*
X55279862Y-64529615D01*
D30*
X47907003Y-61784115D02*
X47863671Y-61764907D01*
X48315880Y-62113160D02*
X48336200Y-62113160D01*
D35*
X56753465Y-63015305D02*
X56724262Y-63066856D01*
D30*
X48500806Y-62277766D02*
X48336200Y-62113160D01*
D35*
X56692565Y-63116912D02*
X56658449Y-63165352D01*
D30*
X50347333Y-62626669D02*
X50300063Y-62630156D01*
X49236042Y-62625507D02*
X49295130Y-62629865D01*
D35*
X54727547Y-64727237D02*
X54786349Y-64719984D01*
X55462783Y-64379496D02*
X56542446Y-63299833D01*
X55015891Y-64662486D02*
X55071169Y-64641163D01*
X54609230Y-64733050D02*
X53709450Y-64733050D01*
X56890187Y-62564597D02*
X56882934Y-62623399D01*
D30*
X50487322Y-62602379D02*
X50441075Y-62612764D01*
X49003955Y-62579341D02*
X49061056Y-62595144D01*
X50935522Y-62348477D02*
X50901193Y-62381159D01*
D35*
X56804113Y-62908219D02*
X56780104Y-62962384D01*
X55071169Y-64641163D02*
X55125334Y-64617154D01*
D30*
X48069377Y-61881439D02*
X48030625Y-61854146D01*
D35*
X55419872Y-64420349D02*
X55462783Y-64379496D01*
X54902532Y-64696874D02*
X54959634Y-64681071D01*
D30*
X50578009Y-62574869D02*
X50533003Y-62589737D01*
D32*
X55896000Y-58867000D02*
X56682600Y-58867000D01*
D35*
X54786349Y-64719984D02*
X54844724Y-64709855D01*
D30*
X48733782Y-62459582D02*
X48785333Y-62488785D01*
X51168260Y-64645500D02*
X51015900Y-64493140D01*
X49295130Y-62629865D02*
X49354360Y-62631320D01*
D35*
X56844021Y-62796684D02*
X56825436Y-62852941D01*
D30*
X47588773Y-61696049D02*
X47541503Y-61692562D01*
X50665563Y-62538603D02*
X50622231Y-62557811D01*
D35*
X55279862Y-64529615D02*
X55328302Y-64495499D01*
D30*
X50300063Y-62630156D02*
X50252680Y-62631320D01*
X47774443Y-61732981D02*
X47728762Y-61720339D01*
X48838254Y-62515424D02*
X48892419Y-62539434D01*
D35*
X56583299Y-63256922D02*
X56542446Y-63299833D01*
D30*
X48176962Y-61974242D02*
X48142634Y-61941559D01*
D32*
X56682600Y-58867000D02*
X56896000Y-59080400D01*
D35*
X55328302Y-64495499D02*
X55375009Y-64459048D01*
D30*
X47682515Y-61709954D02*
X47635815Y-61701851D01*
X50394375Y-62620867D02*
X50347333Y-62626669D01*
X50901193Y-62381159D02*
X50865303Y-62412119D01*
D35*
X54668459Y-64731595D02*
X54727547Y-64727237D01*
X56859824Y-62739582D02*
X56844021Y-62796684D01*
D30*
X50749140Y-62493930D02*
X50707900Y-62517292D01*
X48176962Y-61974242D02*
X48315880Y-62113160D01*
D35*
X54609230Y-64733050D02*
X54668459Y-64731595D01*
D30*
X50935522Y-62348477D02*
X50942600Y-62341400D01*
X48588579Y-62357318D02*
X48635286Y-62393769D01*
X47863671Y-61764907D02*
X47819449Y-61747849D01*
X50533003Y-62589737D02*
X50487322Y-62602379D01*
X50789185Y-62468572D02*
X50749140Y-62493930D01*
X49118864Y-62608125D02*
X49177240Y-62618254D01*
%TO.N,HVAj*%
X41185000Y-61175000D02*
X42165000Y-61175000D01*
X42165000Y-61175000D02*
X42165000Y-62250000D01*
%TO.N,DI*%
X49707800Y-61696600D02*
X50937400Y-61696600D01*
X50937400Y-61696600D02*
X50942600Y-61691400D01*
%TO.N,CS*%
X50612400Y-60391400D02*
X49758600Y-59537600D01*
X50942600Y-60391400D02*
X50612400Y-60391400D01*
%TD*%
%TA.AperFunction,Conductor*%
%TO.N,GND*%
G36*
X56693739Y-54487314D02*
G01*
X56725741Y-54491357D01*
X56739786Y-54489980D01*
X56768567Y-54490463D01*
X56769581Y-54490596D01*
X56770259Y-54490686D01*
X56801984Y-54499193D01*
X56815419Y-54504758D01*
X56857134Y-54533056D01*
X56860912Y-54537927D01*
X56866350Y-54542394D01*
X56866353Y-54542397D01*
X56896049Y-54566790D01*
X56905166Y-54575058D01*
X56998572Y-54668464D01*
X57009038Y-54680334D01*
X57024497Y-54700265D01*
X57024500Y-54700268D01*
X57028811Y-54705826D01*
X57034249Y-54710293D01*
X57034252Y-54710296D01*
X57039710Y-54714779D01*
X57059723Y-54735474D01*
X57060762Y-54736829D01*
X57077181Y-54765276D01*
X57082747Y-54778712D01*
X57092236Y-54828222D01*
X57091463Y-54834343D01*
X57092151Y-54841358D01*
X57095899Y-54879591D01*
X57096500Y-54891885D01*
X57096500Y-56465583D01*
X57076498Y-56533704D01*
X57051895Y-56560872D01*
X57051287Y-56561248D01*
X56930448Y-56682298D01*
X56926608Y-56688528D01*
X56926607Y-56688529D01*
X56856987Y-56801474D01*
X56840698Y-56827899D01*
X56786851Y-56990243D01*
X56776500Y-57091268D01*
X56776500Y-57688732D01*
X56776837Y-57691978D01*
X56776837Y-57691982D01*
X56777334Y-57696768D01*
X56787113Y-57791019D01*
X56821012Y-57892626D01*
X56823596Y-57963573D01*
X56787413Y-58024657D01*
X56723949Y-58056482D01*
X56701488Y-58058500D01*
X56697182Y-58058500D01*
X56696745Y-58058499D01*
X56696268Y-58058497D01*
X56690409Y-58058477D01*
X56622358Y-58038239D01*
X56615280Y-58033304D01*
X56613865Y-58032243D01*
X56592705Y-58016385D01*
X56456316Y-57965255D01*
X56394134Y-57958500D01*
X55397866Y-57958500D01*
X55335684Y-57965255D01*
X55199295Y-58016385D01*
X55176689Y-58033327D01*
X55110185Y-58058174D01*
X55101126Y-58058500D01*
X54590154Y-58058500D01*
X54563288Y-58054163D01*
X54563010Y-58055458D01*
X54556283Y-58054016D01*
X54549757Y-58051851D01*
X54542920Y-58051151D01*
X54542918Y-58051150D01*
X54501599Y-58046917D01*
X54448732Y-58041500D01*
X53851268Y-58041500D01*
X53848022Y-58041837D01*
X53848018Y-58041837D01*
X53824002Y-58044329D01*
X53748981Y-58052113D01*
X53742440Y-58054295D01*
X53742441Y-58054295D01*
X53593676Y-58103927D01*
X53593674Y-58103928D01*
X53586732Y-58106244D01*
X53580508Y-58110096D01*
X53580507Y-58110096D01*
X53537863Y-58136485D01*
X53441287Y-58196248D01*
X53436114Y-58201430D01*
X53407616Y-58229978D01*
X53320448Y-58317298D01*
X53316608Y-58323528D01*
X53316607Y-58323529D01*
X53243492Y-58442144D01*
X53230698Y-58462899D01*
X53176851Y-58625243D01*
X53166500Y-58726268D01*
X53166500Y-59273732D01*
X53177113Y-59376019D01*
X53179295Y-59382559D01*
X53228510Y-59530072D01*
X53231244Y-59538268D01*
X53321248Y-59683713D01*
X53442298Y-59804552D01*
X53448528Y-59808392D01*
X53448529Y-59808393D01*
X53538682Y-59863964D01*
X53587899Y-59894302D01*
X53750243Y-59948149D01*
X53757080Y-59948849D01*
X53757082Y-59948850D01*
X53798401Y-59953083D01*
X53851268Y-59958500D01*
X54448732Y-59958500D01*
X54451978Y-59958163D01*
X54451982Y-59958163D01*
X54486083Y-59954625D01*
X54551019Y-59947887D01*
X54631303Y-59921102D01*
X54706324Y-59896073D01*
X54706326Y-59896072D01*
X54713268Y-59893756D01*
X54761412Y-59863964D01*
X54852485Y-59807606D01*
X54858713Y-59803752D01*
X54887284Y-59775131D01*
X54949824Y-59712482D01*
X55012106Y-59678403D01*
X55038997Y-59675500D01*
X55101126Y-59675500D01*
X55169247Y-59695502D01*
X55176673Y-59700661D01*
X55199295Y-59717615D01*
X55335684Y-59768745D01*
X55397866Y-59775500D01*
X55961500Y-59775500D01*
X56029621Y-59795502D01*
X56076114Y-59849158D01*
X56087500Y-59901500D01*
X56087500Y-61121947D01*
X56065464Y-61193134D01*
X56063809Y-61195551D01*
X56059846Y-61200274D01*
X55964567Y-61373587D01*
X55962706Y-61379454D01*
X55962705Y-61379456D01*
X55943265Y-61440738D01*
X55904765Y-61562106D01*
X55887500Y-61716027D01*
X55887500Y-62432342D01*
X55887462Y-62435435D01*
X55887033Y-62452908D01*
X55886731Y-62459068D01*
X55886469Y-62462626D01*
X55885858Y-62468821D01*
X55885426Y-62472318D01*
X55884521Y-62478416D01*
X55883912Y-62481925D01*
X55882711Y-62487963D01*
X55881932Y-62491435D01*
X55880430Y-62497437D01*
X55879724Y-62499988D01*
X55879483Y-62500860D01*
X55877701Y-62506735D01*
X55876563Y-62510179D01*
X55874504Y-62515934D01*
X55873206Y-62519300D01*
X55870855Y-62524976D01*
X55869400Y-62528259D01*
X55866754Y-62533850D01*
X55865175Y-62536986D01*
X55862274Y-62542414D01*
X55860494Y-62545557D01*
X55857318Y-62550856D01*
X55855430Y-62553839D01*
X55851998Y-62558975D01*
X55849954Y-62561877D01*
X55846271Y-62566842D01*
X55844092Y-62569634D01*
X55840179Y-62574402D01*
X55837841Y-62577113D01*
X55833679Y-62581706D01*
X55821638Y-62594353D01*
X55819478Y-62596566D01*
X54759555Y-63656490D01*
X54757339Y-63658653D01*
X54744648Y-63670735D01*
X54740056Y-63674896D01*
X54737353Y-63677227D01*
X54732594Y-63681132D01*
X54729796Y-63683316D01*
X54724832Y-63686999D01*
X54721939Y-63689037D01*
X54716790Y-63692478D01*
X54713812Y-63694364D01*
X54708505Y-63697545D01*
X54705386Y-63699312D01*
X54699913Y-63702237D01*
X54696771Y-63703818D01*
X54691198Y-63706454D01*
X54687936Y-63707900D01*
X54682271Y-63710247D01*
X54678891Y-63711551D01*
X54673101Y-63713622D01*
X54669716Y-63714740D01*
X54663822Y-63716528D01*
X54661972Y-63717040D01*
X54660401Y-63717475D01*
X54654383Y-63718983D01*
X54650917Y-63719761D01*
X54644887Y-63720961D01*
X54641380Y-63721569D01*
X54635254Y-63722478D01*
X54631716Y-63722914D01*
X54625566Y-63723519D01*
X54622038Y-63723779D01*
X54615873Y-63724082D01*
X54598381Y-63724512D01*
X54595285Y-63724550D01*
X50840281Y-63724550D01*
X50837225Y-63724850D01*
X50837218Y-63724850D01*
X50778710Y-63730587D01*
X50693217Y-63738970D01*
X50687316Y-63740752D01*
X50687314Y-63740752D01*
X50653183Y-63751057D01*
X50503881Y-63796134D01*
X50329254Y-63888984D01*
X50275875Y-63932519D01*
X50180763Y-64010090D01*
X50180760Y-64010093D01*
X50175988Y-64013985D01*
X50172061Y-64018732D01*
X50172059Y-64018734D01*
X50053849Y-64161625D01*
X50053847Y-64161629D01*
X50049920Y-64166375D01*
X49955852Y-64340349D01*
X49897368Y-64529282D01*
X49896725Y-64535404D01*
X49896724Y-64535407D01*
X49894009Y-64561241D01*
X49866996Y-64626898D01*
X49808774Y-64667527D01*
X49731021Y-64668304D01*
X49694462Y-64656847D01*
X49621035Y-64650100D01*
X49618137Y-64650100D01*
X49363735Y-64650101D01*
X49107766Y-64650101D01*
X49104908Y-64650364D01*
X49104899Y-64650364D01*
X49069396Y-64653626D01*
X49034338Y-64656847D01*
X49027960Y-64658846D01*
X49027959Y-64658846D01*
X48877950Y-64705856D01*
X48877948Y-64705857D01*
X48870701Y-64708128D01*
X48724019Y-64796961D01*
X48628495Y-64892485D01*
X48566183Y-64926511D01*
X48495368Y-64921446D01*
X48450305Y-64892485D01*
X48354781Y-64796961D01*
X48208099Y-64708128D01*
X48200852Y-64705857D01*
X48200850Y-64705856D01*
X48134564Y-64685083D01*
X48044462Y-64656847D01*
X47971035Y-64650100D01*
X47968137Y-64650100D01*
X47713735Y-64650101D01*
X47457766Y-64650101D01*
X47454908Y-64650364D01*
X47454899Y-64650364D01*
X47419396Y-64653626D01*
X47384338Y-64656847D01*
X47377960Y-64658846D01*
X47377959Y-64658846D01*
X47227950Y-64705856D01*
X47227948Y-64705857D01*
X47220701Y-64708128D01*
X47074019Y-64796961D01*
X46952761Y-64918219D01*
X46863928Y-65064901D01*
X46861657Y-65072148D01*
X46855182Y-65092810D01*
X46815724Y-65151832D01*
X46786197Y-65170237D01*
X46649278Y-65231197D01*
X46649276Y-65231198D01*
X46643248Y-65233882D01*
X46488747Y-65346134D01*
X46484326Y-65351044D01*
X46484325Y-65351045D01*
X46379452Y-65467519D01*
X46360960Y-65488056D01*
X46323757Y-65552494D01*
X46278125Y-65631531D01*
X46265473Y-65653444D01*
X46206458Y-65835072D01*
X46205768Y-65841633D01*
X46205768Y-65841635D01*
X46199360Y-65902606D01*
X46186496Y-66025000D01*
X46187186Y-66031565D01*
X46203733Y-66188997D01*
X46206458Y-66214928D01*
X46265473Y-66396556D01*
X46268776Y-66402278D01*
X46268777Y-66402279D01*
X46302686Y-66461010D01*
X46360960Y-66561944D01*
X46365378Y-66566851D01*
X46365379Y-66566852D01*
X46471745Y-66684983D01*
X46488747Y-66703866D01*
X46643248Y-66816118D01*
X46649276Y-66818802D01*
X46649278Y-66818803D01*
X46692726Y-66838147D01*
X46817712Y-66893794D01*
X46911112Y-66913647D01*
X46998056Y-66932128D01*
X46998061Y-66932128D01*
X47004513Y-66933500D01*
X47195487Y-66933500D01*
X47201939Y-66932128D01*
X47201944Y-66932128D01*
X47288888Y-66913647D01*
X47382288Y-66893794D01*
X47507274Y-66838147D01*
X47550722Y-66818803D01*
X47550724Y-66818802D01*
X47556752Y-66816118D01*
X47711253Y-66703866D01*
X47751842Y-66658787D01*
X47812285Y-66621549D01*
X47845476Y-66617099D01*
X47971034Y-66617099D01*
X47973892Y-66616836D01*
X47973901Y-66616836D01*
X48009404Y-66613574D01*
X48044462Y-66610353D01*
X48050847Y-66608352D01*
X48200850Y-66561344D01*
X48200852Y-66561343D01*
X48208099Y-66559072D01*
X48354781Y-66470239D01*
X48450305Y-66374715D01*
X48512617Y-66340689D01*
X48583432Y-66345754D01*
X48628495Y-66374715D01*
X48724019Y-66470239D01*
X48870701Y-66559072D01*
X48877948Y-66561343D01*
X48877950Y-66561344D01*
X48944236Y-66582117D01*
X49034338Y-66610353D01*
X49107765Y-66617100D01*
X49110663Y-66617100D01*
X49365065Y-66617099D01*
X49621034Y-66617099D01*
X49623892Y-66616836D01*
X49623901Y-66616836D01*
X49659404Y-66613574D01*
X49694462Y-66610353D01*
X49700847Y-66608352D01*
X49850850Y-66561344D01*
X49850852Y-66561343D01*
X49858099Y-66559072D01*
X50004781Y-66470239D01*
X50126039Y-66348981D01*
X50138849Y-66327829D01*
X50191246Y-66279922D01*
X50246625Y-66267100D01*
X55682531Y-66267100D01*
X55690640Y-66267510D01*
X55696552Y-66268874D01*
X55727113Y-66268123D01*
X55758732Y-66267347D01*
X55771277Y-66268309D01*
X55771293Y-66268003D01*
X55779216Y-66268416D01*
X55787013Y-66269816D01*
X55847576Y-66265349D01*
X55848254Y-66265299D01*
X55854357Y-66264998D01*
X55855460Y-66264971D01*
X55861652Y-66265292D01*
X55861652Y-66265279D01*
X55869580Y-66265302D01*
X55877441Y-66266319D01*
X55885305Y-66265349D01*
X55885308Y-66265349D01*
X55922688Y-66260738D01*
X55938355Y-66258805D01*
X55944529Y-66258198D01*
X55945630Y-66258117D01*
X55951749Y-66258135D01*
X55951749Y-66258125D01*
X55959670Y-66257759D01*
X55967571Y-66258389D01*
X55975379Y-66257034D01*
X55975384Y-66257034D01*
X56028048Y-66247896D01*
X56034144Y-66246991D01*
X56035229Y-66246857D01*
X56041395Y-66246571D01*
X56041394Y-66246560D01*
X56049286Y-66245806D01*
X56057207Y-66246047D01*
X56117120Y-66232593D01*
X56123122Y-66231399D01*
X56124230Y-66231207D01*
X56130375Y-66230620D01*
X56130373Y-66230608D01*
X56138218Y-66229468D01*
X56146141Y-66229320D01*
X56153776Y-66227207D01*
X56153783Y-66227206D01*
X56205309Y-66212946D01*
X56211309Y-66211443D01*
X56212383Y-66211202D01*
X56218448Y-66210321D01*
X56218446Y-66210311D01*
X56226228Y-66208787D01*
X56234133Y-66208251D01*
X56241651Y-66205767D01*
X56241658Y-66205766D01*
X56292418Y-66188997D01*
X56298301Y-66187212D01*
X56299355Y-66186920D01*
X56305421Y-66185731D01*
X56305418Y-66185718D01*
X56313114Y-66183814D01*
X56320986Y-66182890D01*
X56328381Y-66180038D01*
X56328383Y-66180037D01*
X56369731Y-66164087D01*
X56378289Y-66160786D01*
X56384038Y-66158728D01*
X56385085Y-66158382D01*
X56391080Y-66156899D01*
X56391076Y-66156886D01*
X56398671Y-66154607D01*
X56406489Y-66153298D01*
X56413735Y-66150086D01*
X56413739Y-66150085D01*
X56462625Y-66128416D01*
X56468336Y-66126050D01*
X56469347Y-66125660D01*
X56475244Y-66123890D01*
X56475240Y-66123880D01*
X56482706Y-66121233D01*
X56490455Y-66119541D01*
X56497538Y-66115976D01*
X56497540Y-66115975D01*
X56545259Y-66091955D01*
X56550883Y-66089296D01*
X56551908Y-66088842D01*
X56557658Y-66086804D01*
X56557654Y-66086794D01*
X56564985Y-66083783D01*
X56572641Y-66081713D01*
X56579540Y-66077804D01*
X56579544Y-66077803D01*
X56626076Y-66051443D01*
X56631450Y-66048568D01*
X56631511Y-66048537D01*
X56632400Y-66048090D01*
X56638165Y-66045720D01*
X56638158Y-66045706D01*
X56645338Y-66042336D01*
X56652878Y-66039895D01*
X56659570Y-66035657D01*
X56659575Y-66035655D01*
X56704728Y-66007062D01*
X56710012Y-66003894D01*
X56710986Y-66003342D01*
X56716573Y-66000719D01*
X56716567Y-66000709D01*
X56723568Y-65996994D01*
X56730981Y-65994184D01*
X56781192Y-65958821D01*
X56786264Y-65955431D01*
X56787216Y-65954828D01*
X56792660Y-65951938D01*
X56792654Y-65951928D01*
X56799473Y-65947868D01*
X56806733Y-65944701D01*
X56855124Y-65906936D01*
X56860095Y-65903250D01*
X56861013Y-65902603D01*
X56866261Y-65899480D01*
X56866256Y-65899473D01*
X56872866Y-65895085D01*
X56879964Y-65891564D01*
X56888788Y-65883953D01*
X56926444Y-65851470D01*
X56931202Y-65847564D01*
X56932055Y-65846898D01*
X56937199Y-65843482D01*
X56937191Y-65843472D01*
X56943574Y-65838767D01*
X56950494Y-65834901D01*
X56994532Y-65792975D01*
X57000690Y-65787678D01*
X57005915Y-65784588D01*
X57055879Y-65734624D01*
X57058094Y-65732462D01*
X57077357Y-65714123D01*
X57080234Y-65711384D01*
X57082747Y-65708304D01*
X57085426Y-65705411D01*
X57085485Y-65705465D01*
X57089676Y-65700827D01*
X57934915Y-64855589D01*
X57940939Y-64850145D01*
X57946083Y-64846930D01*
X57988975Y-64801877D01*
X57998526Y-64793687D01*
X57998321Y-64793459D01*
X58004214Y-64788150D01*
X58010718Y-64783626D01*
X58017821Y-64775392D01*
X58050825Y-64737131D01*
X58054963Y-64732564D01*
X58055696Y-64731794D01*
X58060282Y-64727662D01*
X58060274Y-64727654D01*
X58065900Y-64722061D01*
X58072175Y-64717223D01*
X58109943Y-64668829D01*
X58113836Y-64664083D01*
X58114552Y-64663253D01*
X58118939Y-64658891D01*
X58118929Y-64658882D01*
X58124270Y-64653024D01*
X58130303Y-64647882D01*
X58158762Y-64607474D01*
X58165659Y-64597682D01*
X58169268Y-64592811D01*
X58169964Y-64591920D01*
X58174155Y-64587321D01*
X58174143Y-64587311D01*
X58179192Y-64581195D01*
X58184967Y-64575762D01*
X58217801Y-64523910D01*
X58221205Y-64518813D01*
X58221849Y-64517899D01*
X58225785Y-64513131D01*
X58225774Y-64513123D01*
X58230517Y-64506767D01*
X58236017Y-64501058D01*
X58245351Y-64484582D01*
X58260594Y-64457673D01*
X58266272Y-64447650D01*
X58269433Y-64442374D01*
X58270014Y-64441456D01*
X58273710Y-64436502D01*
X58273700Y-64436495D01*
X58278125Y-64429914D01*
X58283336Y-64423945D01*
X58284641Y-64421353D01*
X58337533Y-64377414D01*
X58408001Y-64368773D01*
X58471955Y-64399603D01*
X58509088Y-64460115D01*
X58513480Y-64493091D01*
X58513480Y-67302880D01*
X58493478Y-67371001D01*
X58439822Y-67417494D01*
X58387480Y-67428880D01*
X28084280Y-67428880D01*
X28016159Y-67408878D01*
X27969666Y-67355222D01*
X27958280Y-67302880D01*
X27958280Y-63990913D01*
X27978282Y-63922792D01*
X28031938Y-63876299D01*
X28102212Y-63866195D01*
X28166792Y-63895689D01*
X28203594Y-63950415D01*
X28206276Y-63958317D01*
X28206280Y-63958327D01*
X28207606Y-63962233D01*
X28302312Y-64154282D01*
X28421274Y-64332326D01*
X28423991Y-64335424D01*
X28423997Y-64335432D01*
X28499053Y-64421019D01*
X28503879Y-64426868D01*
X28504315Y-64427431D01*
X28508351Y-64434255D01*
X28524195Y-64450099D01*
X28529831Y-64456115D01*
X28534266Y-64461172D01*
X28540291Y-64468593D01*
X28552296Y-64484582D01*
X28561646Y-64494131D01*
X28564890Y-64496675D01*
X28564896Y-64496680D01*
X28586158Y-64513352D01*
X28597506Y-64523410D01*
X29142878Y-65068782D01*
X29176904Y-65131094D01*
X29179092Y-65144703D01*
X29196458Y-65309928D01*
X29255473Y-65491556D01*
X29350960Y-65656944D01*
X29355378Y-65661851D01*
X29355379Y-65661852D01*
X29419904Y-65733514D01*
X29478747Y-65798866D01*
X29544857Y-65846898D01*
X29627495Y-65906938D01*
X29633248Y-65911118D01*
X29639276Y-65913802D01*
X29639278Y-65913803D01*
X29765394Y-65969953D01*
X29807712Y-65988794D01*
X29893656Y-66007062D01*
X29988056Y-66027128D01*
X29988061Y-66027128D01*
X29994513Y-66028500D01*
X30185487Y-66028500D01*
X30191939Y-66027128D01*
X30191944Y-66027128D01*
X30286344Y-66007062D01*
X30372288Y-65988794D01*
X30414606Y-65969953D01*
X30540722Y-65913803D01*
X30540724Y-65913802D01*
X30546752Y-65911118D01*
X30552506Y-65906938D01*
X30635143Y-65846898D01*
X30701253Y-65798866D01*
X30760096Y-65733514D01*
X30824621Y-65661852D01*
X30824622Y-65661851D01*
X30829040Y-65656944D01*
X30924527Y-65491556D01*
X30983542Y-65309928D01*
X30998685Y-65165851D01*
X32596719Y-65165851D01*
X32597235Y-65171995D01*
X32612270Y-65351045D01*
X32613268Y-65362934D01*
X32630299Y-65422327D01*
X32663164Y-65536941D01*
X32667783Y-65553050D01*
X32670602Y-65558535D01*
X32743731Y-65700827D01*
X32758187Y-65728956D01*
X32881035Y-65883953D01*
X32885728Y-65887947D01*
X32885729Y-65887948D01*
X33021966Y-66003894D01*
X33031650Y-66012136D01*
X33204294Y-66108624D01*
X33392392Y-66169740D01*
X33588777Y-66193158D01*
X33594912Y-66192686D01*
X33594914Y-66192686D01*
X33779830Y-66178457D01*
X33779834Y-66178456D01*
X33785972Y-66177984D01*
X33976463Y-66124798D01*
X33981967Y-66122018D01*
X33981969Y-66122017D01*
X34147845Y-66038227D01*
X34217667Y-66025367D01*
X34248884Y-66032711D01*
X34372282Y-66078971D01*
X34372288Y-66078973D01*
X34379684Y-66081745D01*
X34441866Y-66088500D01*
X35438134Y-66088500D01*
X35500316Y-66081745D01*
X35636705Y-66030615D01*
X35753261Y-65943261D01*
X35840615Y-65826705D01*
X35891745Y-65690316D01*
X35898500Y-65628134D01*
X35898500Y-65620000D01*
X39136496Y-65620000D01*
X39137186Y-65626565D01*
X39155476Y-65800581D01*
X39156458Y-65809928D01*
X39215473Y-65991556D01*
X39218776Y-65997278D01*
X39218777Y-65997279D01*
X39236803Y-66028500D01*
X39310960Y-66156944D01*
X39315378Y-66161851D01*
X39315379Y-66161852D01*
X39411742Y-66268874D01*
X39438747Y-66298866D01*
X39593248Y-66411118D01*
X39599276Y-66413802D01*
X39599278Y-66413803D01*
X39734879Y-66474176D01*
X39767712Y-66488794D01*
X39883337Y-66513371D01*
X39901351Y-66518631D01*
X39989684Y-66551745D01*
X39997532Y-66552598D01*
X39997534Y-66552598D01*
X40048469Y-66558131D01*
X40051866Y-66558500D01*
X41048134Y-66558500D01*
X41110316Y-66551745D01*
X41246705Y-66500615D01*
X41363261Y-66413261D01*
X41450615Y-66296705D01*
X41501745Y-66160316D01*
X41508500Y-66098134D01*
X41508500Y-65536941D01*
X41528502Y-65468820D01*
X41582158Y-65422327D01*
X41652432Y-65412223D01*
X41717012Y-65441717D01*
X41724734Y-65450005D01*
X41725008Y-65449731D01*
X41731358Y-65456081D01*
X41736739Y-65463261D01*
X41853295Y-65550615D01*
X41989684Y-65601745D01*
X42051866Y-65608500D01*
X42333705Y-65608500D01*
X42401826Y-65628502D01*
X42422801Y-65645405D01*
X42941482Y-66164087D01*
X42975507Y-66226399D01*
X42977317Y-66243240D01*
X42977696Y-66243200D01*
X42995345Y-66411118D01*
X42997658Y-66433128D01*
X43056673Y-66614756D01*
X43059976Y-66620478D01*
X43059977Y-66620479D01*
X43093886Y-66679210D01*
X43152160Y-66780144D01*
X43156578Y-66785051D01*
X43156579Y-66785052D01*
X43184551Y-66816118D01*
X43279947Y-66922066D01*
X43434448Y-67034318D01*
X43440476Y-67037002D01*
X43440478Y-67037003D01*
X43523198Y-67073832D01*
X43608912Y-67111994D01*
X43702313Y-67131847D01*
X43789256Y-67150328D01*
X43789261Y-67150328D01*
X43795713Y-67151700D01*
X43986687Y-67151700D01*
X43993139Y-67150328D01*
X43993144Y-67150328D01*
X44131860Y-67120842D01*
X44173488Y-67111994D01*
X44230815Y-67086471D01*
X44263857Y-67078078D01*
X44263713Y-67077291D01*
X44270047Y-67076134D01*
X44276466Y-67075629D01*
X44324290Y-67061735D01*
X44424983Y-67032481D01*
X44424985Y-67032480D01*
X44432596Y-67030269D01*
X44572541Y-66947506D01*
X44687506Y-66832541D01*
X44770269Y-66692596D01*
X44815629Y-66536466D01*
X44818500Y-66499989D01*
X44818499Y-66000012D01*
X44815629Y-65963534D01*
X44776670Y-65829435D01*
X44772481Y-65815017D01*
X44772480Y-65815015D01*
X44770269Y-65807404D01*
X44687506Y-65667459D01*
X44572541Y-65552494D01*
X44432596Y-65469731D01*
X44424985Y-65467520D01*
X44424983Y-65467519D01*
X44311326Y-65434499D01*
X44295230Y-65428609D01*
X44179519Y-65377091D01*
X44179517Y-65377091D01*
X44173488Y-65374406D01*
X44063584Y-65351045D01*
X43993144Y-65336072D01*
X43993139Y-65336072D01*
X43986687Y-65334700D01*
X43956095Y-65334700D01*
X43887974Y-65314698D01*
X43866999Y-65297795D01*
X43545404Y-64976199D01*
X43511379Y-64913887D01*
X43508500Y-64887104D01*
X43508500Y-64251866D01*
X43501745Y-64189684D01*
X43450615Y-64053295D01*
X43363261Y-63936739D01*
X43246705Y-63849385D01*
X43110316Y-63798255D01*
X43048134Y-63791500D01*
X42051866Y-63791500D01*
X41989684Y-63798255D01*
X41853295Y-63849385D01*
X41736739Y-63936739D01*
X41649385Y-64053295D01*
X41598255Y-64189684D01*
X41591500Y-64251866D01*
X41591500Y-64813059D01*
X41571498Y-64881180D01*
X41517842Y-64927673D01*
X41447568Y-64937777D01*
X41382988Y-64908283D01*
X41375266Y-64899995D01*
X41374992Y-64900269D01*
X41368642Y-64893919D01*
X41363261Y-64886739D01*
X41246705Y-64799385D01*
X41110316Y-64748255D01*
X41048134Y-64741500D01*
X40299870Y-64741500D01*
X40273673Y-64738747D01*
X40151944Y-64712872D01*
X40151939Y-64712872D01*
X40145487Y-64711500D01*
X39954513Y-64711500D01*
X39948061Y-64712872D01*
X39948056Y-64712872D01*
X39878477Y-64727662D01*
X39767712Y-64751206D01*
X39761682Y-64753891D01*
X39761681Y-64753891D01*
X39599278Y-64826197D01*
X39599276Y-64826198D01*
X39593248Y-64828882D01*
X39587907Y-64832762D01*
X39587906Y-64832763D01*
X39568407Y-64846930D01*
X39438747Y-64941134D01*
X39434326Y-64946044D01*
X39434325Y-64946045D01*
X39320782Y-65072148D01*
X39310960Y-65083056D01*
X39263158Y-65165851D01*
X39225431Y-65231197D01*
X39215473Y-65248444D01*
X39156458Y-65430072D01*
X39155768Y-65436633D01*
X39155768Y-65436635D01*
X39143591Y-65552494D01*
X39136496Y-65620000D01*
X35898500Y-65620000D01*
X35898500Y-65066941D01*
X35918502Y-64998820D01*
X35972158Y-64952327D01*
X36042432Y-64942223D01*
X36107012Y-64971717D01*
X36114734Y-64980005D01*
X36115008Y-64979731D01*
X36121358Y-64986081D01*
X36126739Y-64993261D01*
X36243295Y-65080615D01*
X36379684Y-65131745D01*
X36441866Y-65138500D01*
X37438134Y-65138500D01*
X37500316Y-65131745D01*
X37636705Y-65080615D01*
X37753261Y-64993261D01*
X37783939Y-64952327D01*
X37835233Y-64883887D01*
X37835235Y-64883884D01*
X37840615Y-64876705D01*
X37866363Y-64808022D01*
X37909004Y-64751257D01*
X37928607Y-64739251D01*
X38114282Y-64647688D01*
X38292326Y-64528726D01*
X38295424Y-64526009D01*
X38295432Y-64526003D01*
X38381019Y-64450947D01*
X38386868Y-64446121D01*
X38387431Y-64445685D01*
X38394255Y-64441649D01*
X38410099Y-64425805D01*
X38416090Y-64420191D01*
X38416547Y-64419790D01*
X38480943Y-64389896D01*
X38499651Y-64388499D01*
X38579988Y-64388499D01*
X38616466Y-64385629D01*
X38646663Y-64376856D01*
X38655593Y-64374262D01*
X38716942Y-64372012D01*
X38788056Y-64387128D01*
X38788060Y-64387128D01*
X38794513Y-64388500D01*
X38985487Y-64388500D01*
X38991939Y-64387128D01*
X38991944Y-64387128D01*
X39078887Y-64368647D01*
X39172288Y-64348794D01*
X39203425Y-64334931D01*
X39340722Y-64273803D01*
X39340724Y-64273802D01*
X39346752Y-64271118D01*
X39374159Y-64251206D01*
X39428809Y-64211500D01*
X39501253Y-64158866D01*
X39588739Y-64061703D01*
X39624621Y-64021852D01*
X39624622Y-64021851D01*
X39629040Y-64016944D01*
X39724527Y-63851556D01*
X39783542Y-63669928D01*
X39784955Y-63656490D01*
X39802814Y-63486565D01*
X39803504Y-63480000D01*
X39787555Y-63328255D01*
X39784232Y-63296635D01*
X39784232Y-63296633D01*
X39783542Y-63290072D01*
X39724527Y-63108444D01*
X39712779Y-63088095D01*
X39666955Y-63008726D01*
X39629040Y-62943056D01*
X39616995Y-62929678D01*
X39505675Y-62806045D01*
X39505674Y-62806044D01*
X39501253Y-62801134D01*
X39346752Y-62688882D01*
X39340724Y-62686198D01*
X39340722Y-62686197D01*
X39178319Y-62613891D01*
X39178318Y-62613891D01*
X39172288Y-62611206D01*
X39078888Y-62591353D01*
X38991944Y-62572872D01*
X38991939Y-62572872D01*
X38985487Y-62571500D01*
X38794513Y-62571500D01*
X38788061Y-62572872D01*
X38788056Y-62572872D01*
X38701112Y-62591353D01*
X38607712Y-62611206D01*
X38601682Y-62613891D01*
X38601681Y-62613891D01*
X38439278Y-62686197D01*
X38439276Y-62686198D01*
X38433248Y-62688882D01*
X38427907Y-62692762D01*
X38427906Y-62692763D01*
X38351501Y-62748275D01*
X38280524Y-62799843D01*
X38280522Y-62799844D01*
X38278747Y-62801134D01*
X38278511Y-62800809D01*
X38217991Y-62829854D01*
X38197686Y-62831501D01*
X38080012Y-62831501D01*
X38043534Y-62834371D01*
X37946730Y-62862495D01*
X37895017Y-62877519D01*
X37895015Y-62877520D01*
X37887404Y-62879731D01*
X37747459Y-62962494D01*
X37632494Y-63077459D01*
X37628460Y-63084280D01*
X37554604Y-63209165D01*
X37549731Y-63217404D01*
X37547519Y-63225018D01*
X37547518Y-63225020D01*
X37545882Y-63230651D01*
X37507670Y-63290487D01*
X37443174Y-63320166D01*
X37424885Y-63321500D01*
X36441866Y-63321500D01*
X36379684Y-63328255D01*
X36243295Y-63379385D01*
X36126739Y-63466739D01*
X36039385Y-63583295D01*
X35988255Y-63719684D01*
X35981500Y-63781866D01*
X35981500Y-64343059D01*
X35961498Y-64411180D01*
X35907842Y-64457673D01*
X35837568Y-64467777D01*
X35772988Y-64438283D01*
X35765266Y-64429995D01*
X35764992Y-64430269D01*
X35758642Y-64423919D01*
X35753261Y-64416739D01*
X35636705Y-64329385D01*
X35500316Y-64278255D01*
X35438134Y-64271500D01*
X34441866Y-64271500D01*
X34379684Y-64278255D01*
X34372288Y-64281027D01*
X34372282Y-64281029D01*
X34246206Y-64328293D01*
X34175399Y-64333476D01*
X34142048Y-64321147D01*
X34113526Y-64305725D01*
X34002701Y-64245802D01*
X33813768Y-64187318D01*
X33807643Y-64186674D01*
X33807642Y-64186674D01*
X33623204Y-64167289D01*
X33623202Y-64167289D01*
X33617075Y-64166645D01*
X33534576Y-64174153D01*
X33426251Y-64184011D01*
X33426248Y-64184012D01*
X33420112Y-64184570D01*
X33414206Y-64186308D01*
X33414202Y-64186309D01*
X33309076Y-64217249D01*
X33230381Y-64240410D01*
X33224923Y-64243263D01*
X33224919Y-64243265D01*
X33152684Y-64281029D01*
X33055110Y-64332040D01*
X32900975Y-64455968D01*
X32773846Y-64607474D01*
X32770879Y-64612872D01*
X32770875Y-64612877D01*
X32696348Y-64748444D01*
X32678567Y-64780787D01*
X32676706Y-64786654D01*
X32676705Y-64786656D01*
X32632340Y-64926511D01*
X32618765Y-64969306D01*
X32596719Y-65165851D01*
X30998685Y-65165851D01*
X31003504Y-65120000D01*
X30984705Y-64941134D01*
X30984232Y-64936635D01*
X30984232Y-64936633D01*
X30983542Y-64930072D01*
X30924527Y-64748444D01*
X30919216Y-64739244D01*
X30871643Y-64656847D01*
X30829040Y-64583056D01*
X30822473Y-64575762D01*
X30705675Y-64446045D01*
X30705674Y-64446044D01*
X30701253Y-64441134D01*
X30576047Y-64350166D01*
X30552094Y-64332763D01*
X30552093Y-64332762D01*
X30546752Y-64328882D01*
X30540724Y-64326198D01*
X30540722Y-64326197D01*
X30378319Y-64253891D01*
X30378318Y-64253891D01*
X30372288Y-64251206D01*
X30278887Y-64231353D01*
X30191944Y-64212872D01*
X30191939Y-64212872D01*
X30185487Y-64211500D01*
X30129595Y-64211500D01*
X30061474Y-64191498D01*
X30040500Y-64174595D01*
X29496217Y-63630312D01*
X29485349Y-63617920D01*
X29473466Y-63602433D01*
X29473464Y-63602431D01*
X29468841Y-63596406D01*
X29462912Y-63591656D01*
X29462910Y-63591654D01*
X29462903Y-63591648D01*
X29441726Y-63570022D01*
X29425940Y-63549449D01*
X29412705Y-63532201D01*
X29396261Y-63503717D01*
X29372344Y-63445973D01*
X29363832Y-63414203D01*
X29363163Y-63409123D01*
X29358162Y-63371128D01*
X29357091Y-63353368D01*
X29357126Y-63350012D01*
X29358118Y-63342478D01*
X29354261Y-63307538D01*
X29353500Y-63293713D01*
X29353500Y-57764224D01*
X29354578Y-57747779D01*
X29357127Y-57728420D01*
X29357127Y-57728416D01*
X29358118Y-57720888D01*
X29357285Y-57713339D01*
X29357364Y-57705742D01*
X29357368Y-57705742D01*
X29357605Y-57683098D01*
X29363832Y-57635797D01*
X29372345Y-57604026D01*
X29396262Y-57546283D01*
X29412707Y-57517798D01*
X29424701Y-57502167D01*
X29439113Y-57483385D01*
X29450913Y-57470070D01*
X29453365Y-57467669D01*
X29459389Y-57463046D01*
X29466466Y-57454213D01*
X29481369Y-57435610D01*
X29490609Y-57425295D01*
X29587230Y-57328674D01*
X29599621Y-57317807D01*
X29601280Y-57316534D01*
X29621141Y-57301294D01*
X29625890Y-57295366D01*
X29631320Y-57290049D01*
X29631327Y-57290056D01*
X29647471Y-57274246D01*
X29685365Y-57245168D01*
X29713847Y-57228723D01*
X29771600Y-57204799D01*
X29803356Y-57196289D01*
X29812521Y-57195082D01*
X29882667Y-57206015D01*
X29935769Y-57253139D01*
X29946954Y-57275771D01*
X29952310Y-57290056D01*
X29955725Y-57299165D01*
X30043079Y-57415721D01*
X30159635Y-57503075D01*
X30296024Y-57554205D01*
X30358206Y-57560960D01*
X33454474Y-57560960D01*
X33516656Y-57554205D01*
X33653045Y-57503075D01*
X33660232Y-57497689D01*
X33760239Y-57422738D01*
X33826746Y-57397890D01*
X33901920Y-57416304D01*
X33974909Y-57461295D01*
X33987899Y-57469302D01*
X34150243Y-57523149D01*
X34157080Y-57523849D01*
X34157082Y-57523850D01*
X34198401Y-57528083D01*
X34251268Y-57533500D01*
X34848732Y-57533500D01*
X34851978Y-57533163D01*
X34851982Y-57533163D01*
X34886083Y-57529625D01*
X34951019Y-57522887D01*
X35026546Y-57497689D01*
X35106324Y-57471073D01*
X35106326Y-57471072D01*
X35113268Y-57468756D01*
X35129275Y-57458851D01*
X35252485Y-57382606D01*
X35258713Y-57378752D01*
X35340035Y-57297288D01*
X35402317Y-57263209D01*
X35473137Y-57268212D01*
X35518227Y-57297134D01*
X35546652Y-57325510D01*
X35580571Y-57387072D01*
X35582429Y-57395345D01*
X35583318Y-57399304D01*
X35586309Y-57408163D01*
X35589341Y-57417143D01*
X35591397Y-57423842D01*
X35591850Y-57425479D01*
X35593530Y-57432281D01*
X35596831Y-57447444D01*
X35596834Y-57447456D01*
X35597535Y-57450675D01*
X35598572Y-57453813D01*
X35598573Y-57453818D01*
X35604503Y-57471771D01*
X35606297Y-57477684D01*
X35611344Y-57495919D01*
X35612224Y-57499098D01*
X35613425Y-57502152D01*
X35613430Y-57502167D01*
X35619115Y-57516623D01*
X35621478Y-57523156D01*
X35622009Y-57524761D01*
X35624039Y-57531526D01*
X35625040Y-57535235D01*
X35628944Y-57549711D01*
X35630127Y-57552777D01*
X35630131Y-57552790D01*
X35636939Y-57570438D01*
X35639021Y-57576256D01*
X35645988Y-57597347D01*
X35653739Y-57614530D01*
X35656439Y-57620989D01*
X35657049Y-57622571D01*
X35659383Y-57629163D01*
X35661527Y-57635797D01*
X35665172Y-57647079D01*
X35666512Y-57650102D01*
X35674176Y-57667393D01*
X35676530Y-57673074D01*
X35684536Y-57693827D01*
X35686035Y-57696758D01*
X35686040Y-57696768D01*
X35693113Y-57710593D01*
X35696115Y-57716884D01*
X35696796Y-57718419D01*
X35699468Y-57724927D01*
X35706130Y-57742541D01*
X35707612Y-57745485D01*
X35716115Y-57762377D01*
X35718761Y-57767972D01*
X35725938Y-57784163D01*
X35727770Y-57788295D01*
X35737152Y-57804607D01*
X35740477Y-57810779D01*
X35741234Y-57812283D01*
X35744208Y-57818625D01*
X35751729Y-57835896D01*
X35753351Y-57838759D01*
X35762678Y-57855222D01*
X35765592Y-57860675D01*
X35775579Y-57880516D01*
X35777360Y-57883288D01*
X35777366Y-57883299D01*
X35785764Y-57896371D01*
X35789374Y-57902350D01*
X35790242Y-57903881D01*
X35793502Y-57910029D01*
X35801861Y-57926910D01*
X35803631Y-57929705D01*
X35813731Y-57945654D01*
X35816906Y-57950950D01*
X35827866Y-57970297D01*
X35829783Y-57972981D01*
X35838814Y-57985628D01*
X35842698Y-57991397D01*
X35843614Y-57992844D01*
X35847212Y-57998888D01*
X35849200Y-58002452D01*
X35865160Y-58063830D01*
X35865160Y-58227522D01*
X35868098Y-58264851D01*
X35914515Y-58424621D01*
X35918552Y-58431447D01*
X35995169Y-58561000D01*
X35995171Y-58561003D01*
X35999207Y-58567827D01*
X36116853Y-58685473D01*
X36118083Y-58686200D01*
X36157954Y-58741414D01*
X36165160Y-58783413D01*
X36165160Y-59138627D01*
X36145158Y-59206748D01*
X36119069Y-59235256D01*
X36116853Y-59236567D01*
X35999207Y-59354213D01*
X35995171Y-59361037D01*
X35995169Y-59361040D01*
X35934613Y-59463435D01*
X35914515Y-59497419D01*
X35912304Y-59505030D01*
X35912303Y-59505032D01*
X35900839Y-59544493D01*
X35868098Y-59657189D01*
X35867594Y-59663594D01*
X35867593Y-59663599D01*
X35866428Y-59678403D01*
X35865160Y-59694518D01*
X35865160Y-60127522D01*
X35865353Y-60129970D01*
X35865353Y-60129978D01*
X35865718Y-60134618D01*
X35868098Y-60164851D01*
X35868715Y-60166974D01*
X35866285Y-60221302D01*
X35863732Y-60230527D01*
X35861469Y-60244094D01*
X35858403Y-60257748D01*
X35854648Y-60270980D01*
X35854083Y-60274237D01*
X35850849Y-60292875D01*
X35849650Y-60298908D01*
X35844777Y-60320606D01*
X35843634Y-60330399D01*
X35843184Y-60334256D01*
X35840788Y-60348062D01*
X35837691Y-60361444D01*
X35837286Y-60364728D01*
X35834971Y-60383494D01*
X35834066Y-60389596D01*
X35830266Y-60411498D01*
X35830045Y-60414792D01*
X35829345Y-60425207D01*
X35827630Y-60439109D01*
X35825193Y-60452629D01*
X35824950Y-60455923D01*
X35824948Y-60455939D01*
X35823556Y-60474805D01*
X35822953Y-60480940D01*
X35820233Y-60502989D01*
X35820032Y-60514158D01*
X35819985Y-60516745D01*
X35818956Y-60530698D01*
X35817182Y-60544348D01*
X35817101Y-60547656D01*
X35816638Y-60566529D01*
X35816335Y-60572709D01*
X35814701Y-60594861D01*
X35814804Y-60598166D01*
X35814930Y-60602228D01*
X35814831Y-60611600D01*
X35814580Y-60613990D01*
X35814580Y-60648925D01*
X35814542Y-60652013D01*
X35813686Y-60686923D01*
X35813950Y-60690206D01*
X35813950Y-60690211D01*
X35814175Y-60693009D01*
X35814580Y-60703102D01*
X35814580Y-60966516D01*
X35808173Y-61006181D01*
X35801851Y-61025243D01*
X35801151Y-61032080D01*
X35801150Y-61032082D01*
X35798112Y-61061732D01*
X35791500Y-61126268D01*
X35791500Y-61178379D01*
X35771498Y-61246500D01*
X35717842Y-61292993D01*
X35647568Y-61303097D01*
X35582988Y-61273603D01*
X35545977Y-61218256D01*
X35496073Y-61068676D01*
X35496072Y-61068674D01*
X35493756Y-61061732D01*
X35403752Y-60916287D01*
X35282702Y-60795448D01*
X35276471Y-60791607D01*
X35143331Y-60709538D01*
X35143329Y-60709537D01*
X35137101Y-60705698D01*
X34974757Y-60651851D01*
X34967920Y-60651151D01*
X34967918Y-60651150D01*
X34926599Y-60646917D01*
X34873732Y-60641500D01*
X34276268Y-60641500D01*
X34273022Y-60641837D01*
X34273018Y-60641837D01*
X34238917Y-60645375D01*
X34173981Y-60652113D01*
X34011732Y-60706244D01*
X34005504Y-60710098D01*
X34004855Y-60710402D01*
X33951406Y-60722300D01*
X33853093Y-60722300D01*
X33784972Y-60702298D01*
X33770948Y-60690996D01*
X33769601Y-60689199D01*
X33653045Y-60601845D01*
X33516656Y-60550715D01*
X33454474Y-60543960D01*
X32940840Y-60543960D01*
X32872719Y-60523958D01*
X32826226Y-60470302D01*
X32814840Y-60417960D01*
X32814840Y-60186960D01*
X32834842Y-60118839D01*
X32888498Y-60072346D01*
X32940840Y-60060960D01*
X33454474Y-60060960D01*
X33516656Y-60054205D01*
X33653045Y-60003075D01*
X33769601Y-59915721D01*
X33856955Y-59799165D01*
X33908085Y-59662776D01*
X33914840Y-59600594D01*
X33914840Y-58504326D01*
X33908085Y-58442144D01*
X33856955Y-58305755D01*
X33769601Y-58189199D01*
X33653045Y-58101845D01*
X33516656Y-58050715D01*
X33454474Y-58043960D01*
X30358206Y-58043960D01*
X30296024Y-58050715D01*
X30159635Y-58101845D01*
X30043079Y-58189199D01*
X29955725Y-58305755D01*
X29904595Y-58442144D01*
X29897840Y-58504326D01*
X29897840Y-59600594D01*
X29904595Y-59662776D01*
X29955725Y-59799165D01*
X30043079Y-59915721D01*
X30159635Y-60003075D01*
X30296024Y-60054205D01*
X30358206Y-60060960D01*
X30871840Y-60060960D01*
X30939961Y-60080962D01*
X30986454Y-60134618D01*
X30997840Y-60186960D01*
X30997840Y-60417960D01*
X30977838Y-60486081D01*
X30924182Y-60532574D01*
X30871840Y-60543960D01*
X30358206Y-60543960D01*
X30296024Y-60550715D01*
X30159635Y-60601845D01*
X30043079Y-60689199D01*
X29955725Y-60805755D01*
X29904595Y-60942144D01*
X29897840Y-61004326D01*
X29897840Y-62100594D01*
X29904595Y-62162776D01*
X29955725Y-62299165D01*
X30043079Y-62415721D01*
X30159635Y-62503075D01*
X30296024Y-62554205D01*
X30358206Y-62560960D01*
X33454474Y-62560960D01*
X33516656Y-62554205D01*
X33535027Y-62547318D01*
X33579257Y-62539300D01*
X34128214Y-62539300D01*
X34161946Y-62544749D01*
X34161990Y-62544542D01*
X34166040Y-62545410D01*
X34167883Y-62545708D01*
X34168714Y-62545984D01*
X34168719Y-62545985D01*
X34175243Y-62548149D01*
X34182080Y-62548849D01*
X34182082Y-62548850D01*
X34223401Y-62553083D01*
X34276268Y-62558500D01*
X34873732Y-62558500D01*
X34876978Y-62558163D01*
X34876982Y-62558163D01*
X34918654Y-62553839D01*
X34976019Y-62547887D01*
X35071742Y-62515951D01*
X35131324Y-62496073D01*
X35131326Y-62496072D01*
X35138268Y-62493756D01*
X35147630Y-62487963D01*
X35277485Y-62407606D01*
X35283713Y-62403752D01*
X35404552Y-62282702D01*
X35419536Y-62258393D01*
X35490462Y-62143331D01*
X35490463Y-62143329D01*
X35494302Y-62137101D01*
X35548149Y-61974757D01*
X35558500Y-61873732D01*
X35558500Y-61870513D01*
X35558664Y-61867304D01*
X35559751Y-61867360D01*
X35578502Y-61803500D01*
X35632158Y-61757007D01*
X35702432Y-61746903D01*
X35767012Y-61776397D01*
X35804023Y-61831744D01*
X35853537Y-61980153D01*
X35856244Y-61988268D01*
X35860096Y-61994492D01*
X35860096Y-61994493D01*
X35914587Y-62082550D01*
X35946248Y-62133713D01*
X36067298Y-62254552D01*
X36073528Y-62258392D01*
X36073529Y-62258393D01*
X36112966Y-62282702D01*
X36212899Y-62344302D01*
X36375243Y-62398149D01*
X36382080Y-62398849D01*
X36382082Y-62398850D01*
X36423401Y-62403083D01*
X36476268Y-62408500D01*
X37023732Y-62408500D01*
X37026978Y-62408163D01*
X37026982Y-62408163D01*
X37061083Y-62404625D01*
X37126019Y-62397887D01*
X37279726Y-62346606D01*
X37281324Y-62346073D01*
X37281326Y-62346072D01*
X37288268Y-62343756D01*
X37378560Y-62287882D01*
X37427485Y-62257606D01*
X37433713Y-62253752D01*
X37554552Y-62132702D01*
X37590168Y-62074922D01*
X37640462Y-61993331D01*
X37640463Y-61993329D01*
X37644302Y-61987101D01*
X37698149Y-61824757D01*
X37699094Y-61815541D01*
X37703104Y-61776397D01*
X37708500Y-61723732D01*
X37708500Y-61126268D01*
X37697887Y-61023981D01*
X37643756Y-60861732D01*
X37645282Y-60861223D01*
X37635816Y-60799633D01*
X37664682Y-60734769D01*
X37725549Y-60695357D01*
X37804648Y-60672377D01*
X37804650Y-60672376D01*
X37812261Y-60670165D01*
X37844414Y-60651150D01*
X37948640Y-60589511D01*
X37948643Y-60589509D01*
X37955467Y-60585473D01*
X38073113Y-60467827D01*
X38075366Y-60464018D01*
X38131656Y-60423365D01*
X38202548Y-60419514D01*
X38264269Y-60454602D01*
X38270936Y-60462296D01*
X38274207Y-60467827D01*
X38391853Y-60585473D01*
X38398677Y-60589509D01*
X38398680Y-60589511D01*
X38502906Y-60651150D01*
X38535059Y-60670165D01*
X38542670Y-60672376D01*
X38542672Y-60672377D01*
X38592741Y-60686923D01*
X38694829Y-60716582D01*
X38701234Y-60717086D01*
X38701239Y-60717087D01*
X38729702Y-60719327D01*
X38729710Y-60719327D01*
X38732158Y-60719520D01*
X39890162Y-60719520D01*
X39892610Y-60719327D01*
X39892618Y-60719327D01*
X39921081Y-60717087D01*
X39921086Y-60717086D01*
X39927491Y-60716582D01*
X40029579Y-60686923D01*
X40079648Y-60672377D01*
X40079650Y-60672376D01*
X40087261Y-60670165D01*
X40119414Y-60651150D01*
X40223640Y-60589511D01*
X40223643Y-60589509D01*
X40230467Y-60585473D01*
X40236076Y-60579864D01*
X40242335Y-60575009D01*
X40243504Y-60576516D01*
X40296827Y-60547399D01*
X40323610Y-60544520D01*
X40345301Y-60544520D01*
X40413422Y-60564522D01*
X40459915Y-60618178D01*
X40470019Y-60688452D01*
X40460939Y-60720559D01*
X40458765Y-60725583D01*
X40454731Y-60732404D01*
X40452520Y-60740015D01*
X40452519Y-60740017D01*
X40430978Y-60814163D01*
X40409371Y-60888534D01*
X40408867Y-60894941D01*
X40408866Y-60894945D01*
X40406986Y-60918836D01*
X40406500Y-60925011D01*
X40406501Y-61424988D01*
X40409371Y-61461466D01*
X40454731Y-61617596D01*
X40537494Y-61757541D01*
X40652459Y-61872506D01*
X40659280Y-61876540D01*
X40659940Y-61876930D01*
X40792404Y-61955269D01*
X40800015Y-61957480D01*
X40800017Y-61957481D01*
X40859482Y-61974757D01*
X40948534Y-62000629D01*
X40954941Y-62001133D01*
X40954945Y-62001134D01*
X40982556Y-62003307D01*
X40982562Y-62003307D01*
X40985011Y-62003500D01*
X40992790Y-62003500D01*
X41260501Y-62003499D01*
X41328620Y-62023501D01*
X41375113Y-62077156D01*
X41386500Y-62129499D01*
X41386501Y-62339904D01*
X41386501Y-62499988D01*
X41389371Y-62536466D01*
X41434731Y-62692596D01*
X41517494Y-62832541D01*
X41632459Y-62947506D01*
X41639280Y-62951540D01*
X41755617Y-63020341D01*
X41772404Y-63030269D01*
X41780015Y-63032480D01*
X41780017Y-63032481D01*
X41839971Y-63049899D01*
X41928534Y-63075629D01*
X41934941Y-63076133D01*
X41934945Y-63076134D01*
X41962556Y-63078307D01*
X41962562Y-63078307D01*
X41965011Y-63078500D01*
X42164878Y-63078500D01*
X42364988Y-63078499D01*
X42401466Y-63075629D01*
X42504527Y-63045687D01*
X42549983Y-63032481D01*
X42549985Y-63032480D01*
X42557596Y-63030269D01*
X42564421Y-63026233D01*
X42564425Y-63026231D01*
X42610861Y-62998769D01*
X42679677Y-62981309D01*
X42739139Y-62998769D01*
X42785575Y-63026231D01*
X42785579Y-63026233D01*
X42792404Y-63030269D01*
X42800015Y-63032480D01*
X42800017Y-63032481D01*
X42859971Y-63049899D01*
X42948534Y-63075629D01*
X42954941Y-63076133D01*
X42954945Y-63076134D01*
X42982556Y-63078307D01*
X42982562Y-63078307D01*
X42985011Y-63078500D01*
X43003873Y-63078500D01*
X43170345Y-63078499D01*
X43218576Y-63088095D01*
X43231220Y-63093334D01*
X43280271Y-63113658D01*
X43280274Y-63113659D01*
X43284838Y-63115550D01*
X43289648Y-63116705D01*
X43289650Y-63116706D01*
X43422886Y-63148709D01*
X43422889Y-63148709D01*
X43427708Y-63149867D01*
X43432650Y-63150257D01*
X43432653Y-63150257D01*
X43464309Y-63152752D01*
X43485738Y-63156319D01*
X43486553Y-63156528D01*
X43494234Y-63158500D01*
X43520225Y-63158500D01*
X43537994Y-63159759D01*
X43560823Y-63163011D01*
X43564945Y-63163055D01*
X43564948Y-63163055D01*
X43567103Y-63163078D01*
X43574187Y-63163153D01*
X43591676Y-63161039D01*
X43605141Y-63159411D01*
X43620263Y-63158500D01*
X45121785Y-63158500D01*
X45139524Y-63159755D01*
X45158369Y-63162435D01*
X45158372Y-63162435D01*
X45162449Y-63163015D01*
X45166566Y-63163058D01*
X45166572Y-63163058D01*
X45169194Y-63163085D01*
X45175813Y-63163153D01*
X45197343Y-63160545D01*
X45213408Y-63158599D01*
X45214486Y-63158500D01*
X45215592Y-63158500D01*
X45218542Y-63158128D01*
X45220650Y-63157934D01*
X45220796Y-63157925D01*
X45223245Y-63157674D01*
X45280555Y-63153157D01*
X45317347Y-63150257D01*
X45317350Y-63150257D01*
X45322292Y-63149867D01*
X45327111Y-63148709D01*
X45327114Y-63148709D01*
X45460342Y-63116708D01*
X45460345Y-63116707D01*
X45465162Y-63115550D01*
X45570625Y-63071853D01*
X45596327Y-63061204D01*
X45596329Y-63061203D01*
X45600905Y-63059307D01*
X45634222Y-63038886D01*
X45702754Y-63020341D01*
X45748286Y-63029904D01*
X45750238Y-63030712D01*
X45751123Y-63031079D01*
X45751124Y-63031079D01*
X45758750Y-63034238D01*
X45766938Y-63035316D01*
X45873621Y-63049361D01*
X45877715Y-63049900D01*
X46630008Y-63049900D01*
X47382484Y-63049899D01*
X47386569Y-63049361D01*
X47386573Y-63049361D01*
X47493263Y-63035316D01*
X47493265Y-63035316D01*
X47501450Y-63034238D01*
X47649476Y-62972924D01*
X47656432Y-62967587D01*
X47656832Y-62967432D01*
X47663178Y-62963768D01*
X47663750Y-62964758D01*
X47722652Y-62941988D01*
X47784381Y-62952444D01*
X47819092Y-62967898D01*
X47888430Y-62998769D01*
X47907712Y-63007354D01*
X47996521Y-63026231D01*
X48088056Y-63045688D01*
X48088061Y-63045688D01*
X48094513Y-63047060D01*
X48285487Y-63047060D01*
X48291942Y-63045688D01*
X48291951Y-63045687D01*
X48382770Y-63026382D01*
X48453561Y-63031783D01*
X48465611Y-63037078D01*
X48483875Y-63046271D01*
X48489336Y-63049192D01*
X48490271Y-63049722D01*
X48495356Y-63053142D01*
X48495361Y-63053134D01*
X48502143Y-63057227D01*
X48508367Y-63062143D01*
X48515613Y-63065355D01*
X48515623Y-63065361D01*
X48564491Y-63087022D01*
X48570058Y-63089654D01*
X48571028Y-63090142D01*
X48576319Y-63093334D01*
X48576325Y-63093323D01*
X48583306Y-63097081D01*
X48589759Y-63101683D01*
X48597151Y-63104535D01*
X48597154Y-63104536D01*
X48647025Y-63123773D01*
X48652778Y-63126157D01*
X48653790Y-63126606D01*
X48659167Y-63129501D01*
X48659170Y-63129494D01*
X48666332Y-63132907D01*
X48672999Y-63137184D01*
X48680518Y-63139668D01*
X48680527Y-63139672D01*
X48731301Y-63156444D01*
X48737078Y-63158509D01*
X48738102Y-63158904D01*
X48743654Y-63161550D01*
X48743659Y-63161539D01*
X48750980Y-63164597D01*
X48757852Y-63168544D01*
X48817024Y-63184920D01*
X48822961Y-63186722D01*
X48824015Y-63187070D01*
X48829658Y-63189427D01*
X48829660Y-63189421D01*
X48837116Y-63192114D01*
X48844172Y-63195717D01*
X48865784Y-63200570D01*
X48904060Y-63209165D01*
X48910063Y-63210669D01*
X48911132Y-63210965D01*
X48916899Y-63213048D01*
X48916902Y-63213038D01*
X48924482Y-63215362D01*
X48931710Y-63218617D01*
X48988332Y-63228442D01*
X48992194Y-63229112D01*
X48998280Y-63230323D01*
X48999339Y-63230561D01*
X49005192Y-63232355D01*
X49005194Y-63232346D01*
X49012883Y-63234296D01*
X49020260Y-63237192D01*
X49028124Y-63238162D01*
X49028128Y-63238163D01*
X49060818Y-63242195D01*
X49081205Y-63244709D01*
X49087278Y-63245610D01*
X49088413Y-63245807D01*
X49094352Y-63247314D01*
X49094354Y-63247305D01*
X49102121Y-63248874D01*
X49109632Y-63251404D01*
X49117533Y-63251987D01*
X49117534Y-63251987D01*
X49170855Y-63255920D01*
X49176954Y-63256520D01*
X49178020Y-63256651D01*
X49184097Y-63257877D01*
X49184099Y-63257862D01*
X49191937Y-63259049D01*
X49199567Y-63261209D01*
X49207493Y-63261404D01*
X49207495Y-63261404D01*
X49260363Y-63262703D01*
X49268456Y-63263312D01*
X49274330Y-63264820D01*
X49345021Y-63264820D01*
X49348115Y-63264858D01*
X49374680Y-63265511D01*
X49374687Y-63265511D01*
X49378647Y-63265608D01*
X49382597Y-63265207D01*
X49386540Y-63265056D01*
X49386543Y-63265136D01*
X49392784Y-63264820D01*
X50174212Y-63264820D01*
X50182320Y-63265230D01*
X50188232Y-63266594D01*
X50238574Y-63265357D01*
X50251122Y-63266320D01*
X50251138Y-63266013D01*
X50259051Y-63266425D01*
X50266855Y-63267827D01*
X50274761Y-63267244D01*
X50274765Y-63267244D01*
X50317084Y-63264122D01*
X50329660Y-63264468D01*
X50329661Y-63264161D01*
X50337591Y-63264184D01*
X50345451Y-63265201D01*
X50353315Y-63264231D01*
X50353318Y-63264231D01*
X50373966Y-63261684D01*
X50395434Y-63259036D01*
X50408017Y-63258765D01*
X50408003Y-63258458D01*
X50415918Y-63258093D01*
X50423825Y-63258723D01*
X50454940Y-63253324D01*
X50473449Y-63250113D01*
X50486005Y-63249223D01*
X50485976Y-63248919D01*
X50493870Y-63248165D01*
X50501789Y-63248406D01*
X50509516Y-63246671D01*
X50509525Y-63246670D01*
X50550937Y-63237370D01*
X50563433Y-63235867D01*
X50563389Y-63235563D01*
X50571235Y-63234423D01*
X50579158Y-63234275D01*
X50586794Y-63232162D01*
X50586800Y-63232161D01*
X50627696Y-63220843D01*
X50640099Y-63218729D01*
X50640040Y-63218427D01*
X50647815Y-63216904D01*
X50655730Y-63216367D01*
X50703551Y-63200569D01*
X50715836Y-63197849D01*
X50715762Y-63197551D01*
X50723463Y-63195646D01*
X50731331Y-63194723D01*
X50778331Y-63176594D01*
X50790467Y-63173274D01*
X50790379Y-63172981D01*
X50797969Y-63170703D01*
X50805790Y-63169393D01*
X50851838Y-63148981D01*
X50863798Y-63145069D01*
X50863696Y-63144782D01*
X50871167Y-63142133D01*
X50878911Y-63140442D01*
X50909809Y-63124889D01*
X50923895Y-63117799D01*
X50935648Y-63113304D01*
X50935532Y-63113021D01*
X50942864Y-63110009D01*
X50950516Y-63107940D01*
X50957412Y-63104033D01*
X50957418Y-63104031D01*
X50994340Y-63083115D01*
X51005859Y-63078049D01*
X51005729Y-63077772D01*
X51012904Y-63074404D01*
X51020445Y-63071962D01*
X51027141Y-63067722D01*
X51034318Y-63064353D01*
X51035236Y-63066310D01*
X51091825Y-63049899D01*
X51607484Y-63049899D01*
X51611569Y-63049361D01*
X51611573Y-63049361D01*
X51718263Y-63035316D01*
X51718265Y-63035316D01*
X51726450Y-63034238D01*
X51854233Y-62981309D01*
X51866848Y-62976084D01*
X51866850Y-62976083D01*
X51874476Y-62972924D01*
X51886408Y-62963768D01*
X51995036Y-62880414D01*
X51995037Y-62880413D01*
X52001587Y-62875387D01*
X52006613Y-62868837D01*
X52006616Y-62868834D01*
X52061543Y-62797251D01*
X52099124Y-62748275D01*
X52160438Y-62600250D01*
X52165872Y-62558975D01*
X52175562Y-62485372D01*
X52175562Y-62485371D01*
X52176100Y-62481285D01*
X52176099Y-62201516D01*
X52168440Y-62143331D01*
X52161516Y-62090737D01*
X52161516Y-62090735D01*
X52160438Y-62082550D01*
X52153011Y-62064619D01*
X52145421Y-61994030D01*
X52153011Y-61968180D01*
X52157278Y-61957880D01*
X52157279Y-61957877D01*
X52160438Y-61950250D01*
X52176100Y-61831285D01*
X52176099Y-61551516D01*
X52160438Y-61432550D01*
X52153011Y-61414619D01*
X52145421Y-61344030D01*
X52153011Y-61318180D01*
X52157278Y-61307880D01*
X52157279Y-61307877D01*
X52160438Y-61300250D01*
X52176100Y-61181285D01*
X52176099Y-60901516D01*
X52163371Y-60804826D01*
X52161516Y-60790737D01*
X52161516Y-60790735D01*
X52160438Y-60782550D01*
X52153011Y-60764619D01*
X52145421Y-60694030D01*
X52153011Y-60668180D01*
X52157278Y-60657880D01*
X52157279Y-60657877D01*
X52160438Y-60650250D01*
X52164660Y-60618178D01*
X52175562Y-60535372D01*
X52175562Y-60535371D01*
X52176100Y-60531285D01*
X52176099Y-60251516D01*
X52175121Y-60244081D01*
X52161516Y-60140737D01*
X52161516Y-60140735D01*
X52160438Y-60132550D01*
X52099124Y-59984524D01*
X52046329Y-59915721D01*
X52006614Y-59863964D01*
X52006613Y-59863963D01*
X52001587Y-59857413D01*
X51995036Y-59852386D01*
X51995034Y-59852384D01*
X51935042Y-59806351D01*
X51874475Y-59759876D01*
X51726450Y-59698562D01*
X51718262Y-59697484D01*
X51611572Y-59683438D01*
X51611571Y-59683438D01*
X51607485Y-59682900D01*
X51548363Y-59682900D01*
X50851995Y-59682901D01*
X50783874Y-59662899D01*
X50762900Y-59645996D01*
X50678093Y-59561189D01*
X50647355Y-59511031D01*
X50601259Y-59369163D01*
X50594527Y-59348444D01*
X50499040Y-59183056D01*
X50485621Y-59168152D01*
X50375675Y-59046045D01*
X50375674Y-59046044D01*
X50371253Y-59041134D01*
X50216752Y-58928882D01*
X50210724Y-58926198D01*
X50210722Y-58926197D01*
X50048319Y-58853891D01*
X50048318Y-58853891D01*
X50042288Y-58851206D01*
X49917193Y-58824616D01*
X49861944Y-58812872D01*
X49861939Y-58812872D01*
X49855487Y-58811500D01*
X49664513Y-58811500D01*
X49658061Y-58812872D01*
X49658056Y-58812872D01*
X49602807Y-58824616D01*
X49477712Y-58851206D01*
X49471682Y-58853891D01*
X49471681Y-58853891D01*
X49309278Y-58926197D01*
X49309276Y-58926198D01*
X49303248Y-58928882D01*
X49148747Y-59041134D01*
X49144326Y-59046044D01*
X49144325Y-59046045D01*
X49104106Y-59090713D01*
X49049036Y-59151875D01*
X49031285Y-59171589D01*
X48970839Y-59208829D01*
X48899856Y-59207477D01*
X48848320Y-59173492D01*
X48847036Y-59174750D01*
X48840575Y-59168152D01*
X48840573Y-59168151D01*
X48837685Y-59165201D01*
X48818266Y-59149975D01*
X48814181Y-59146632D01*
X48742272Y-59085217D01*
X48701203Y-59050141D01*
X48690478Y-59043569D01*
X48647190Y-58999134D01*
X48642425Y-58990880D01*
X48609040Y-58933056D01*
X48540736Y-58857196D01*
X48485675Y-58796045D01*
X48485674Y-58796044D01*
X48481253Y-58791134D01*
X48326752Y-58678882D01*
X48320724Y-58676198D01*
X48320722Y-58676197D01*
X48158319Y-58603891D01*
X48158318Y-58603891D01*
X48152288Y-58601206D01*
X48058888Y-58581353D01*
X47971944Y-58562872D01*
X47971939Y-58562872D01*
X47965487Y-58561500D01*
X47774513Y-58561500D01*
X47768061Y-58562872D01*
X47768056Y-58562872D01*
X47681112Y-58581353D01*
X47587712Y-58601206D01*
X47581682Y-58603891D01*
X47581681Y-58603891D01*
X47419278Y-58676197D01*
X47419276Y-58676198D01*
X47413248Y-58678882D01*
X47258747Y-58791134D01*
X47254326Y-58796044D01*
X47254325Y-58796045D01*
X47199265Y-58857196D01*
X47130960Y-58933056D01*
X47097575Y-58990880D01*
X47039937Y-59090713D01*
X47035473Y-59098444D01*
X46976458Y-59280072D01*
X46975768Y-59286633D01*
X46975768Y-59286635D01*
X46967094Y-59369163D01*
X46956496Y-59470000D01*
X46957186Y-59476565D01*
X46964245Y-59543730D01*
X46951473Y-59613568D01*
X46902970Y-59665415D01*
X46838935Y-59682900D01*
X45908303Y-59682901D01*
X45877716Y-59682901D01*
X45873631Y-59683439D01*
X45873627Y-59683439D01*
X45766937Y-59697484D01*
X45766935Y-59697484D01*
X45758750Y-59698562D01*
X45712752Y-59717615D01*
X45618352Y-59756716D01*
X45618350Y-59756717D01*
X45610724Y-59759876D01*
X45604174Y-59764902D01*
X45590844Y-59775131D01*
X45483613Y-59857413D01*
X45478587Y-59863963D01*
X45478584Y-59863966D01*
X45444381Y-59908541D01*
X45386076Y-59984525D01*
X45324762Y-60132550D01*
X45323684Y-60140737D01*
X45323684Y-60140738D01*
X45320510Y-60164851D01*
X45309100Y-60251515D01*
X45309101Y-60531284D01*
X45309639Y-60535369D01*
X45309639Y-60535373D01*
X45323610Y-60641500D01*
X45324762Y-60650250D01*
X45340586Y-60688452D01*
X45376403Y-60774922D01*
X45386076Y-60798276D01*
X45391102Y-60804826D01*
X45468460Y-60905639D01*
X45483613Y-60925387D01*
X45495809Y-60934745D01*
X45504532Y-60941439D01*
X45546398Y-60998778D01*
X45550618Y-61069649D01*
X45515853Y-61131552D01*
X45504530Y-61141362D01*
X45490167Y-61152383D01*
X45490163Y-61152387D01*
X45483613Y-61157413D01*
X45478587Y-61163963D01*
X45478584Y-61163966D01*
X45476013Y-61167317D01*
X45386076Y-61284525D01*
X45324762Y-61432550D01*
X45309100Y-61551515D01*
X45309101Y-61648362D01*
X45309101Y-61670537D01*
X45289100Y-61738658D01*
X45231330Y-61786942D01*
X45187263Y-61805200D01*
X45187260Y-61805202D01*
X45182695Y-61807093D01*
X45178489Y-61809671D01*
X45178485Y-61809673D01*
X45075286Y-61872927D01*
X45009441Y-61891500D01*
X44033345Y-61891500D01*
X43965224Y-61871498D01*
X43917708Y-61815541D01*
X43917480Y-61815014D01*
X43915269Y-61807404D01*
X43903168Y-61786942D01*
X43897075Y-61776638D01*
X43879616Y-61707822D01*
X43897075Y-61648362D01*
X43911232Y-61624423D01*
X43911234Y-61624419D01*
X43915269Y-61617596D01*
X43960629Y-61461466D01*
X43961135Y-61455047D01*
X43963307Y-61427444D01*
X43963307Y-61427438D01*
X43963500Y-61424989D01*
X43963499Y-60990172D01*
X43983501Y-60922052D01*
X44037156Y-60875558D01*
X44051809Y-60869942D01*
X44091599Y-60857472D01*
X44098096Y-60853537D01*
X44098099Y-60853536D01*
X44231780Y-60772576D01*
X44231779Y-60772576D01*
X44238281Y-60768639D01*
X44359539Y-60647381D01*
X44448372Y-60500699D01*
X44456916Y-60473437D01*
X44492012Y-60361444D01*
X44499653Y-60337062D01*
X44506400Y-60263635D01*
X44506399Y-59750366D01*
X44499653Y-59676938D01*
X44495473Y-59663599D01*
X44450644Y-59520550D01*
X44450643Y-59520548D01*
X44448372Y-59513301D01*
X44359539Y-59366619D01*
X44264015Y-59271095D01*
X44229989Y-59208783D01*
X44235054Y-59137968D01*
X44264015Y-59092905D01*
X44359539Y-58997381D01*
X44448372Y-58850699D01*
X44456808Y-58823782D01*
X44486358Y-58729485D01*
X44499653Y-58687062D01*
X44506400Y-58613635D01*
X44506399Y-58100366D01*
X44505806Y-58093905D01*
X44501942Y-58051851D01*
X44499653Y-58026938D01*
X44460022Y-57900476D01*
X44458738Y-57829491D01*
X44491083Y-57773779D01*
X44516934Y-57747883D01*
X44522105Y-57742703D01*
X44538020Y-57716884D01*
X44611075Y-57598368D01*
X44611076Y-57598366D01*
X44614915Y-57592138D01*
X44650985Y-57483390D01*
X44668432Y-57430789D01*
X44668432Y-57430787D01*
X44670597Y-57424261D01*
X44671327Y-57417143D01*
X44678715Y-57345027D01*
X44681300Y-57319800D01*
X44681300Y-56269000D01*
X44679884Y-56255353D01*
X44671038Y-56170092D01*
X44671037Y-56170088D01*
X44670326Y-56163234D01*
X44668143Y-56156690D01*
X44648225Y-56096988D01*
X44645640Y-56026038D01*
X44681823Y-55964954D01*
X44745287Y-55933129D01*
X44780588Y-55931767D01*
X44794303Y-55933172D01*
X44794310Y-55933172D01*
X44797508Y-55933500D01*
X45003949Y-55933500D01*
X45072070Y-55953502D01*
X45118563Y-56007158D01*
X45129293Y-56072343D01*
X45126500Y-56099600D01*
X45126500Y-56700400D01*
X45126837Y-56703646D01*
X45126837Y-56703650D01*
X45134006Y-56772738D01*
X45137474Y-56806166D01*
X45139655Y-56812702D01*
X45139655Y-56812704D01*
X45147043Y-56834847D01*
X45193450Y-56973946D01*
X45286522Y-57124348D01*
X45291704Y-57129521D01*
X45316645Y-57154419D01*
X45411697Y-57249305D01*
X45417927Y-57253145D01*
X45417928Y-57253146D01*
X45555090Y-57337694D01*
X45562262Y-57342115D01*
X45596931Y-57353614D01*
X45723611Y-57395632D01*
X45723613Y-57395632D01*
X45730139Y-57397797D01*
X45736975Y-57398497D01*
X45736978Y-57398498D01*
X45775298Y-57402424D01*
X45834600Y-57408500D01*
X46885400Y-57408500D01*
X46888646Y-57408163D01*
X46888650Y-57408163D01*
X46984308Y-57398238D01*
X46984312Y-57398237D01*
X46991166Y-57397526D01*
X46997702Y-57395345D01*
X46997704Y-57395345D01*
X47148524Y-57345027D01*
X47158946Y-57341550D01*
X47309348Y-57248478D01*
X47322733Y-57235070D01*
X47339688Y-57218085D01*
X47401970Y-57184006D01*
X47468527Y-57187510D01*
X47620139Y-57237797D01*
X47626975Y-57238497D01*
X47626978Y-57238498D01*
X47670031Y-57242909D01*
X47724600Y-57248500D01*
X48775400Y-57248500D01*
X48778646Y-57248163D01*
X48778650Y-57248163D01*
X48874308Y-57238238D01*
X48874312Y-57238237D01*
X48881166Y-57237526D01*
X48887702Y-57235345D01*
X48887704Y-57235345D01*
X49041998Y-57183868D01*
X49048946Y-57181550D01*
X49123032Y-57135704D01*
X49191484Y-57116866D01*
X49255452Y-57135589D01*
X49276030Y-57148274D01*
X49276033Y-57148276D01*
X49282262Y-57152115D01*
X49298986Y-57157662D01*
X49443611Y-57205632D01*
X49443613Y-57205632D01*
X49450139Y-57207797D01*
X49456975Y-57208497D01*
X49456978Y-57208498D01*
X49490184Y-57211900D01*
X49554600Y-57218500D01*
X50605400Y-57218500D01*
X50608646Y-57218163D01*
X50608650Y-57218163D01*
X50704308Y-57208238D01*
X50704312Y-57208237D01*
X50711166Y-57207526D01*
X50717702Y-57205345D01*
X50717704Y-57205345D01*
X50860626Y-57157662D01*
X50878946Y-57151550D01*
X50941832Y-57112635D01*
X51010284Y-57093798D01*
X51074250Y-57112520D01*
X51115090Y-57137694D01*
X51122262Y-57142115D01*
X51159358Y-57154419D01*
X51283611Y-57195632D01*
X51283613Y-57195632D01*
X51290139Y-57197797D01*
X51296975Y-57198497D01*
X51296978Y-57198498D01*
X51336235Y-57202520D01*
X51394600Y-57208500D01*
X52445400Y-57208500D01*
X52448646Y-57208163D01*
X52448650Y-57208163D01*
X52544308Y-57198238D01*
X52544312Y-57198237D01*
X52551166Y-57197526D01*
X52557702Y-57195345D01*
X52557704Y-57195345D01*
X52700527Y-57147695D01*
X52718946Y-57141550D01*
X52869348Y-57048478D01*
X52994305Y-56923303D01*
X53007213Y-56902362D01*
X53083275Y-56778968D01*
X53083276Y-56778966D01*
X53087115Y-56772738D01*
X53142797Y-56604861D01*
X53146136Y-56572278D01*
X53150132Y-56533269D01*
X53153500Y-56500400D01*
X53153500Y-56373042D01*
X53173502Y-56304921D01*
X53227158Y-56258428D01*
X53290480Y-56247521D01*
X53380000Y-56255353D01*
X53601463Y-56235978D01*
X53745051Y-56197503D01*
X53810886Y-56179863D01*
X53810888Y-56179862D01*
X53816196Y-56178440D01*
X53831341Y-56171378D01*
X54012690Y-56086814D01*
X54012695Y-56086811D01*
X54017677Y-56084488D01*
X54145280Y-55995139D01*
X54195270Y-55960136D01*
X54195273Y-55960134D01*
X54199781Y-55956977D01*
X54356977Y-55799781D01*
X54364813Y-55788591D01*
X54481331Y-55622185D01*
X54481332Y-55622183D01*
X54484488Y-55617676D01*
X54486811Y-55612694D01*
X54486814Y-55612689D01*
X54576117Y-55421178D01*
X54576118Y-55421177D01*
X54578440Y-55416196D01*
X54635978Y-55201463D01*
X54655353Y-54980000D01*
X54635978Y-54758537D01*
X54605537Y-54644931D01*
X54607227Y-54573955D01*
X54647021Y-54515159D01*
X54712285Y-54487211D01*
X54727244Y-54486320D01*
X56677946Y-54486320D01*
X56693739Y-54487314D01*
G37*
%TD.AperFunction*%
%TA.AperFunction,Conductor*%
G36*
X42782381Y-54506322D02*
G01*
X42828874Y-54559978D01*
X42840260Y-54612320D01*
X42840260Y-55700094D01*
X42840629Y-55703489D01*
X42840629Y-55703493D01*
X42846739Y-55759738D01*
X42834211Y-55829620D01*
X42824191Y-55845400D01*
X42823495Y-55846097D01*
X42730685Y-55996662D01*
X42716283Y-56040083D01*
X42678314Y-56154558D01*
X42675003Y-56164539D01*
X42674303Y-56171375D01*
X42674302Y-56171378D01*
X42673433Y-56179863D01*
X42664300Y-56269000D01*
X42664300Y-57319800D01*
X42664637Y-57323052D01*
X42664638Y-57323063D01*
X42664675Y-57323421D01*
X42664660Y-57323500D01*
X42664805Y-57326292D01*
X42664139Y-57326326D01*
X42651804Y-57393241D01*
X42603228Y-57445018D01*
X42534370Y-57462314D01*
X42516671Y-57460083D01*
X42512957Y-57458851D01*
X42411932Y-57448500D01*
X41814468Y-57448500D01*
X41811222Y-57448837D01*
X41811218Y-57448837D01*
X41777117Y-57452375D01*
X41712181Y-57459113D01*
X41693151Y-57465462D01*
X41556876Y-57510927D01*
X41556874Y-57510928D01*
X41549932Y-57513244D01*
X41543708Y-57517096D01*
X41543707Y-57517096D01*
X41496147Y-57546527D01*
X41404487Y-57603248D01*
X41283648Y-57724298D01*
X41279808Y-57730528D01*
X41279807Y-57730529D01*
X41199578Y-57860685D01*
X41193898Y-57869899D01*
X41140051Y-58032243D01*
X41139351Y-58039080D01*
X41139350Y-58039082D01*
X41136186Y-58069964D01*
X41129700Y-58133268D01*
X41129700Y-58680732D01*
X41140313Y-58783019D01*
X41142495Y-58789559D01*
X41190370Y-58933056D01*
X41194444Y-58945268D01*
X41198296Y-58951492D01*
X41198296Y-58951493D01*
X41281047Y-59085217D01*
X41299885Y-59153669D01*
X41278724Y-59221439D01*
X41224283Y-59267010D01*
X41173903Y-59277520D01*
X40323610Y-59277520D01*
X40255489Y-59257518D01*
X40242389Y-59246961D01*
X40242335Y-59247031D01*
X40236075Y-59242175D01*
X40230467Y-59236567D01*
X40223643Y-59232531D01*
X40223640Y-59232529D01*
X40109794Y-59165201D01*
X40087261Y-59151875D01*
X40079650Y-59149664D01*
X40079648Y-59149663D01*
X40027429Y-59134492D01*
X39927491Y-59105458D01*
X39921086Y-59104954D01*
X39921081Y-59104953D01*
X39892618Y-59102713D01*
X39892610Y-59102713D01*
X39890162Y-59102520D01*
X38732158Y-59102520D01*
X38729710Y-59102713D01*
X38729702Y-59102713D01*
X38701239Y-59104953D01*
X38701234Y-59104954D01*
X38694829Y-59105458D01*
X38594891Y-59134492D01*
X38542672Y-59149663D01*
X38542670Y-59149664D01*
X38535059Y-59151875D01*
X38512526Y-59165201D01*
X38398680Y-59232529D01*
X38398677Y-59232531D01*
X38391853Y-59236567D01*
X38274207Y-59354213D01*
X38271954Y-59358022D01*
X38215664Y-59398675D01*
X38144772Y-59402526D01*
X38083051Y-59367438D01*
X38076384Y-59359744D01*
X38073113Y-59354213D01*
X38019065Y-59300165D01*
X37985039Y-59237853D01*
X37982160Y-59211070D01*
X37982160Y-58710970D01*
X38002162Y-58642849D01*
X38019065Y-58621875D01*
X38073113Y-58567827D01*
X38075366Y-58564018D01*
X38131656Y-58523365D01*
X38202548Y-58519514D01*
X38264269Y-58554602D01*
X38270936Y-58562296D01*
X38274207Y-58567827D01*
X38391853Y-58685473D01*
X38398677Y-58689509D01*
X38398680Y-58689511D01*
X38460833Y-58726268D01*
X38535059Y-58770165D01*
X38542670Y-58772376D01*
X38542672Y-58772377D01*
X38555704Y-58776163D01*
X38694829Y-58816582D01*
X38701234Y-58817086D01*
X38701239Y-58817087D01*
X38729702Y-58819327D01*
X38729710Y-58819327D01*
X38732158Y-58819520D01*
X39217755Y-58819520D01*
X39232674Y-58820406D01*
X39267980Y-58824616D01*
X39274983Y-58823880D01*
X39274984Y-58823880D01*
X39309900Y-58820210D01*
X39323071Y-58819520D01*
X39890162Y-58819520D01*
X39892610Y-58819327D01*
X39892618Y-58819327D01*
X39921081Y-58817087D01*
X39921086Y-58817086D01*
X39927491Y-58816582D01*
X40066616Y-58776163D01*
X40079648Y-58772377D01*
X40079650Y-58772376D01*
X40087261Y-58770165D01*
X40161487Y-58726268D01*
X40223640Y-58689511D01*
X40223643Y-58689509D01*
X40230467Y-58685473D01*
X40348113Y-58567827D01*
X40352149Y-58561003D01*
X40352151Y-58561000D01*
X40428768Y-58431447D01*
X40432805Y-58424621D01*
X40479222Y-58264851D01*
X40482160Y-58227522D01*
X40482160Y-57794518D01*
X40481885Y-57791019D01*
X40479727Y-57763599D01*
X40479726Y-57763594D01*
X40479222Y-57757189D01*
X40443486Y-57634184D01*
X40435017Y-57605032D01*
X40435016Y-57605030D01*
X40432805Y-57597419D01*
X40405608Y-57551431D01*
X40352151Y-57461040D01*
X40352149Y-57461037D01*
X40348113Y-57454213D01*
X40238927Y-57345027D01*
X40204901Y-57282715D01*
X40209966Y-57211900D01*
X40220762Y-57189816D01*
X40286415Y-57083308D01*
X40286416Y-57083306D01*
X40290255Y-57077078D01*
X40326767Y-56966998D01*
X40343772Y-56915729D01*
X40343772Y-56915727D01*
X40345937Y-56909201D01*
X40346939Y-56899427D01*
X40356312Y-56807938D01*
X40356640Y-56804740D01*
X40356640Y-56286460D01*
X40376642Y-56218339D01*
X40430298Y-56171846D01*
X40482640Y-56160460D01*
X40996894Y-56160460D01*
X41059076Y-56153705D01*
X41195465Y-56102575D01*
X41312021Y-56015221D01*
X41399375Y-55898665D01*
X41450505Y-55762276D01*
X41457260Y-55700094D01*
X41457260Y-54612320D01*
X41477262Y-54544199D01*
X41530918Y-54497706D01*
X41583260Y-54486320D01*
X42714260Y-54486320D01*
X42782381Y-54506322D01*
G37*
%TD.AperFunction*%
%TA.AperFunction,Conductor*%
G36*
X30836280Y-53403682D02*
G01*
X30882773Y-53457338D01*
X30892877Y-53527612D01*
X30885095Y-53553732D01*
X30885966Y-53554049D01*
X30884083Y-53559222D01*
X30881760Y-53564204D01*
X30824222Y-53778937D01*
X30804847Y-54000400D01*
X30824222Y-54221863D01*
X30881760Y-54436596D01*
X30884082Y-54441577D01*
X30884083Y-54441578D01*
X30973386Y-54633089D01*
X30973389Y-54633094D01*
X30975712Y-54638076D01*
X30978868Y-54642583D01*
X30978869Y-54642585D01*
X31060060Y-54758537D01*
X31103223Y-54820181D01*
X31260419Y-54977377D01*
X31264927Y-54980534D01*
X31264930Y-54980536D01*
X31271984Y-54985475D01*
X31442523Y-55104888D01*
X31447505Y-55107211D01*
X31447510Y-55107214D01*
X31637879Y-55195984D01*
X31644004Y-55198840D01*
X31649312Y-55200262D01*
X31649314Y-55200263D01*
X31673621Y-55206776D01*
X31858737Y-55256378D01*
X32074725Y-55275274D01*
X32080200Y-55275753D01*
X32085675Y-55275274D01*
X32091181Y-55275274D01*
X32091181Y-55276739D01*
X32154040Y-55289369D01*
X32205034Y-55338767D01*
X32221420Y-55400903D01*
X32221420Y-55417960D01*
X32201418Y-55486081D01*
X32147762Y-55532574D01*
X32095420Y-55543960D01*
X30358206Y-55543960D01*
X30296024Y-55550715D01*
X30159635Y-55601845D01*
X30043079Y-55689199D01*
X29955725Y-55805755D01*
X29952573Y-55814163D01*
X29943986Y-55837068D01*
X29901344Y-55893833D01*
X29834250Y-55918568D01*
X29672169Y-55929198D01*
X29672162Y-55929199D01*
X29668059Y-55929468D01*
X29664018Y-55930272D01*
X29462096Y-55970445D01*
X29462093Y-55970446D01*
X29458051Y-55971250D01*
X29454149Y-55972575D01*
X29454144Y-55972576D01*
X29362732Y-56003609D01*
X29255292Y-56040083D01*
X29251598Y-56041905D01*
X29066954Y-56132966D01*
X29066951Y-56132968D01*
X29063252Y-56134792D01*
X28885216Y-56253756D01*
X28826874Y-56304921D01*
X28796782Y-56331311D01*
X28790932Y-56336138D01*
X28790116Y-56336771D01*
X28783285Y-56340811D01*
X28767219Y-56356877D01*
X28761199Y-56362516D01*
X28756576Y-56366570D01*
X28749157Y-56372594D01*
X28736252Y-56382284D01*
X28732952Y-56384762D01*
X28730011Y-56387642D01*
X28730004Y-56387648D01*
X28726350Y-56391227D01*
X28723403Y-56394113D01*
X28704189Y-56418617D01*
X28694131Y-56429964D01*
X28603118Y-56520977D01*
X28589677Y-56532641D01*
X28571195Y-56546518D01*
X28561646Y-56555869D01*
X28550915Y-56569555D01*
X28546508Y-56574869D01*
X28421274Y-56717674D01*
X28302312Y-56895718D01*
X28207606Y-57087767D01*
X28206280Y-57091673D01*
X28206276Y-57091683D01*
X28203594Y-57099585D01*
X28162759Y-57157662D01*
X28097006Y-57184443D01*
X28027214Y-57171423D01*
X27975539Y-57122738D01*
X27958280Y-57059087D01*
X27958280Y-53509680D01*
X27978282Y-53441559D01*
X28031938Y-53395066D01*
X28084280Y-53383680D01*
X30768159Y-53383680D01*
X30836280Y-53403682D01*
G37*
%TD.AperFunction*%
%TD*%
M02*
