%TF.GenerationSoftware,KiCad,Pcbnew,6.0.11+dfsg-1*%
%TF.CreationDate,2023-09-11T16:29:56+03:00*%
%TF.ProjectId,SC-STM32L412K8,53432d53-544d-4333-924c-3431324b382e,rev?*%
%TF.SameCoordinates,Original*%
%TF.FileFunction,Soldermask,Bot*%
%TF.FilePolarity,Negative*%
%FSLAX46Y46*%
G04 Gerber Fmt 4.6, Leading zero omitted, Abs format (unit mm)*
G04 Created by KiCad (PCBNEW 6.0.11+dfsg-1) date 2023-09-11 16:29:56*
%MOMM*%
%LPD*%
G01*
G04 APERTURE LIST*
G04 Aperture macros list*
%AMRoundRect*
0 Rectangle with rounded corners*
0 $1 Rounding radius*
0 $2 $3 $4 $5 $6 $7 $8 $9 X,Y pos of 4 corners*
0 Add a 4 corners polygon primitive as box body*
4,1,4,$2,$3,$4,$5,$6,$7,$8,$9,$2,$3,0*
0 Add four circle primitives for the rounded corners*
1,1,$1+$1,$2,$3*
1,1,$1+$1,$4,$5*
1,1,$1+$1,$6,$7*
1,1,$1+$1,$8,$9*
0 Add four rect primitives between the rounded corners*
20,1,$1+$1,$2,$3,$4,$5,0*
20,1,$1+$1,$4,$5,$6,$7,0*
20,1,$1+$1,$6,$7,$8,$9,0*
20,1,$1+$1,$8,$9,$2,$3,0*%
G04 Aperture macros list end*
%ADD10RoundRect,0.218750X-0.218750X-0.256250X0.218750X-0.256250X0.218750X0.256250X-0.218750X0.256250X0*%
%ADD11RoundRect,0.135000X0.135000X0.185000X-0.135000X0.185000X-0.135000X-0.185000X0.135000X-0.185000X0*%
%ADD12RoundRect,0.135000X0.185000X-0.135000X0.185000X0.135000X-0.185000X0.135000X-0.185000X-0.135000X0*%
%ADD13R,0.900000X0.800000*%
%ADD14RoundRect,0.225000X0.250000X-0.225000X0.250000X0.225000X-0.250000X0.225000X-0.250000X-0.225000X0*%
%ADD15RoundRect,0.225000X-0.250000X0.225000X-0.250000X-0.225000X0.250000X-0.225000X0.250000X0.225000X0*%
%ADD16RoundRect,0.250000X-0.250000X-0.475000X0.250000X-0.475000X0.250000X0.475000X-0.250000X0.475000X0*%
%ADD17RoundRect,0.250000X0.475000X-0.250000X0.475000X0.250000X-0.475000X0.250000X-0.475000X-0.250000X0*%
%ADD18RoundRect,0.225000X0.225000X0.250000X-0.225000X0.250000X-0.225000X-0.250000X0.225000X-0.250000X0*%
%ADD19R,0.900000X1.200000*%
%ADD20C,1.524000*%
%ADD21RoundRect,0.250000X-0.375000X-1.075000X0.375000X-1.075000X0.375000X1.075000X-0.375000X1.075000X0*%
%ADD22RoundRect,0.200000X-0.275000X0.200000X-0.275000X-0.200000X0.275000X-0.200000X0.275000X0.200000X0*%
%ADD23R,3.000000X1.000000*%
%ADD24RoundRect,0.150000X0.512500X0.150000X-0.512500X0.150000X-0.512500X-0.150000X0.512500X-0.150000X0*%
%ADD25C,1.000000*%
%ADD26RoundRect,0.200000X-0.200000X-0.275000X0.200000X-0.275000X0.200000X0.275000X-0.200000X0.275000X0*%
%ADD27RoundRect,0.100000X0.712500X0.100000X-0.712500X0.100000X-0.712500X-0.100000X0.712500X-0.100000X0*%
G04 APERTURE END LIST*
D10*
%TO.C,L1*%
X33387500Y-54975000D03*
X34962500Y-54975000D03*
%TD*%
%TO.C,L3*%
X46639580Y-54950000D03*
X45064580Y-54950000D03*
%TD*%
D11*
%TO.C,R13*%
X51020000Y-54930000D03*
X50000000Y-54930000D03*
%TD*%
%TO.C,R11*%
X49040000Y-54930000D03*
X48020000Y-54930000D03*
%TD*%
D12*
%TO.C,R16*%
X38330000Y-64630000D03*
X38330000Y-63610000D03*
%TD*%
D13*
%TO.C,Q1*%
X36940000Y-64230000D03*
X36940000Y-66130000D03*
X34940000Y-65180000D03*
%TD*%
D14*
%TO.C,C1*%
X34550000Y-58125000D03*
X34550000Y-56575000D03*
%TD*%
D15*
%TO.C,C2*%
X54150000Y-59000000D03*
X54150000Y-60550000D03*
%TD*%
%TO.C,C5*%
X42113200Y-58407000D03*
X42113200Y-59957000D03*
%TD*%
D16*
%TO.C,C7*%
X41772800Y-56794400D03*
X43672800Y-56794400D03*
%TD*%
D17*
%TO.C,C8*%
X46360000Y-58300000D03*
X46360000Y-56400000D03*
%TD*%
%TO.C,C11*%
X48250000Y-58140000D03*
X48250000Y-56240000D03*
%TD*%
D14*
%TO.C,C13*%
X34575000Y-61600000D03*
X34575000Y-60050000D03*
%TD*%
D17*
%TO.C,C14*%
X51920000Y-58100000D03*
X51920000Y-56200000D03*
%TD*%
D18*
%TO.C,C15*%
X57735000Y-57390000D03*
X56185000Y-57390000D03*
%TD*%
D14*
%TO.C,C19*%
X54275000Y-64750000D03*
X54275000Y-63200000D03*
%TD*%
D19*
%TO.C,D2*%
X43798760Y-55051960D03*
X40498760Y-55051960D03*
%TD*%
D20*
%TO.C,J2*%
X53380000Y-54980000D03*
%TD*%
D21*
%TO.C,L2*%
X36423140Y-55679340D03*
X39223140Y-55679340D03*
%TD*%
D11*
%TO.C,R3*%
X43185000Y-61175000D03*
X42165000Y-61175000D03*
%TD*%
D22*
%TO.C,R5*%
X43522900Y-58357000D03*
X43522900Y-60007000D03*
%TD*%
D23*
%TO.C,SW1*%
X31906340Y-61552460D03*
X31906340Y-59052460D03*
X31906340Y-56552460D03*
%TD*%
D24*
%TO.C,U2*%
X39311160Y-58011020D03*
X39311160Y-58961020D03*
X39311160Y-59911020D03*
X37036160Y-59911020D03*
X37036160Y-58011020D03*
%TD*%
D13*
%TO.C,U5*%
X55896000Y-60767000D03*
X55896000Y-58867000D03*
X57896000Y-59817000D03*
%TD*%
D25*
%TO.C,J11*%
X33610000Y-65180000D03*
%TD*%
D11*
%TO.C,R15*%
X45060000Y-66250000D03*
X44040000Y-66250000D03*
%TD*%
D20*
%TO.C,J13*%
X32080200Y-54000400D03*
%TD*%
D26*
%TO.C,R19*%
X47714400Y-65633600D03*
X49364400Y-65633600D03*
%TD*%
D17*
%TO.C,C6*%
X50080000Y-58110000D03*
X50080000Y-56210000D03*
%TD*%
D11*
%TO.C,R10*%
X41185000Y-61175000D03*
X40165000Y-61175000D03*
%TD*%
%TO.C,R17*%
X43185000Y-62250000D03*
X42165000Y-62250000D03*
%TD*%
D27*
%TO.C,D3*%
X50855100Y-60391400D03*
X50855100Y-61041400D03*
X50855100Y-61691400D03*
X50855100Y-62341400D03*
X46630100Y-62341400D03*
X46630100Y-61691400D03*
X46630100Y-61041400D03*
X46630100Y-60391400D03*
%TD*%
D13*
%TO.C,Q2*%
X42550000Y-64700000D03*
X42550000Y-66600000D03*
X40550000Y-65650000D03*
%TD*%
D18*
%TO.C,C3*%
X38300000Y-61425000D03*
X36750000Y-61425000D03*
%TD*%
M02*
