M48
; DRILL file {KiCad 6.0.11+dfsg-1} date Пн 11 сен 2023 16:30:32
; FORMAT={-:-/ absolute / metric / decimal}
; #@! TF.CreationDate,2023-09-11T16:30:32+03:00
; #@! TF.GenerationSoftware,Kicad,Pcbnew,6.0.11+dfsg-1
; #@! TF.FileFunction,MixedPlating,1,2
FMAT,2
METRIC
; #@! TA.AperFunction,Plated,PTH,ViaDrill
T1C0.400
%
G90
G05
T1
X28.65Y-55.5
X29.713Y-57.785
X29.8Y-62.675
X30.09Y-65.12
X32.76Y-61.55
X38.89Y-63.48
X40.05Y-65.62
X40.32Y-59.04
X40.77Y-63.77
X42.4Y-54.89
X43.891Y-66.243
X44.375Y-63.575
X44.65Y-61.375
X45.45Y-57.95
X46.28Y-63.56
X47.1Y-66.025
X47.87Y-59.47
X48.19Y-62.139
X48.25Y-67.208
X48.25Y-60.73
X49.581Y-61.768
X49.76Y-59.72
X50.89Y-64.733
X51.006Y-66.611
X53.429Y-61.328
X54.16Y-58.99
X55.832Y-60.17
T0
M30
