%FSLAX45Y45*%
G04 Gerber Fmt 4.5, Leading zero omitted, Abs format (unit mm)*
G04 Created by KiCad (PCBNEW 5.1.9+dfsg1-1) date 2022-10-17 14:32:34*
%MOMM*%
%LPD*%
G01*
G04 APERTURE LIST*
%TA.AperFunction,Profile*%
%ADD10C,0.050000*%
%TD*%
%ADD11C,0.200000*%
%ADD12C,0.300000*%
G04 APERTURE END LIST*
D10*
X2744978Y-6793738D02*
X2744978Y-5287518D01*
X5902198Y-6793738D02*
X2744978Y-6793738D01*
X5902198Y-5287518D02*
X5902198Y-6793738D01*
X2744978Y-5287518D02*
X5902198Y-5287518D01*
D11*
X2845000Y-5530000D02*
X2885000Y-5570000D01*
X2885000Y-5530000D02*
X2845000Y-5570000D01*
X3000000Y-6295000D02*
X3040000Y-6335000D01*
X3040000Y-6295000D02*
X3000000Y-6335000D01*
X3272348Y-5915472D02*
X3312348Y-5955472D01*
X3312348Y-5915472D02*
X3272348Y-5955472D01*
X3640000Y-6515000D02*
X3680000Y-6555000D01*
X3680000Y-6515000D02*
X3640000Y-6555000D01*
X4055000Y-6322500D02*
X4095000Y-6362500D01*
X4095000Y-6322500D02*
X4055000Y-6362500D01*
X4209608Y-5478592D02*
X4249608Y-5518592D01*
X4249608Y-5478592D02*
X4209608Y-5518592D01*
X4369120Y-6604320D02*
X4409120Y-6644320D01*
X4409120Y-6604320D02*
X4369120Y-6644320D01*
X4435000Y-6132500D02*
X4475000Y-6172500D01*
X4475000Y-6132500D02*
X4435000Y-6172500D01*
X4632772Y-5837748D02*
X4672772Y-5877748D01*
X4672772Y-5837748D02*
X4632772Y-5877748D01*
X4681540Y-6328730D02*
X4721540Y-6368730D01*
X4721540Y-6328730D02*
X4681540Y-6368730D01*
X4687636Y-6604320D02*
X4727636Y-6644320D01*
X4727636Y-6604320D02*
X4687636Y-6644320D01*
X4789744Y-6193856D02*
X4829744Y-6233856D01*
X4829744Y-6193856D02*
X4789744Y-6233856D01*
X4804984Y-6700840D02*
X4844984Y-6740840D01*
X4844984Y-6700840D02*
X4804984Y-6740840D01*
X4880930Y-6040440D02*
X4920930Y-6080440D01*
X4920930Y-6040440D02*
X4880930Y-6080440D01*
X4938080Y-6156772D02*
X4978080Y-6196772D01*
X4978080Y-6156772D02*
X4938080Y-6196772D01*
X4955860Y-5933760D02*
X4995860Y-5973760D01*
X4995860Y-5933760D02*
X4955860Y-5973760D01*
X5069005Y-6453305D02*
X5109005Y-6493305D01*
X5109005Y-6453305D02*
X5069005Y-6493305D01*
X5080574Y-6641150D02*
X5120574Y-6681150D01*
X5120574Y-6641150D02*
X5080574Y-6681150D01*
X5322890Y-6112830D02*
X5362890Y-6152830D01*
X5362890Y-6112830D02*
X5322890Y-6152830D01*
X5342448Y-5919028D02*
X5382448Y-5959028D01*
X5382448Y-5919028D02*
X5342448Y-5959028D01*
X5563174Y-5997006D02*
X5603174Y-6037006D01*
X5603174Y-5997006D02*
X5563174Y-6037006D01*
D12*
X3028906Y-7261952D02*
X3028906Y-6961952D01*
X3100335Y-6961952D01*
X3143192Y-6976238D01*
X3171764Y-7004809D01*
X3186049Y-7033381D01*
X3200335Y-7090524D01*
X3200335Y-7133381D01*
X3186049Y-7190524D01*
X3171764Y-7219095D01*
X3143192Y-7247667D01*
X3100335Y-7261952D01*
X3028906Y-7261952D01*
X3328906Y-7261952D02*
X3328906Y-7061952D01*
X3328906Y-7119095D02*
X3343192Y-7090524D01*
X3357478Y-7076238D01*
X3386049Y-7061952D01*
X3414621Y-7061952D01*
X3514621Y-7261952D02*
X3514621Y-7061952D01*
X3514621Y-6961952D02*
X3500335Y-6976238D01*
X3514621Y-6990524D01*
X3528906Y-6976238D01*
X3514621Y-6961952D01*
X3514621Y-6990524D01*
X3700335Y-7261952D02*
X3671764Y-7247667D01*
X3657478Y-7219095D01*
X3657478Y-6961952D01*
X3857478Y-7261952D02*
X3828906Y-7247667D01*
X3814621Y-7219095D01*
X3814621Y-6961952D01*
X4200335Y-7261952D02*
X4200335Y-6961952D01*
X4300335Y-7176238D01*
X4400335Y-6961952D01*
X4400335Y-7261952D01*
X4671764Y-7261952D02*
X4671764Y-7104809D01*
X4657478Y-7076238D01*
X4628906Y-7061952D01*
X4571764Y-7061952D01*
X4543192Y-7076238D01*
X4671764Y-7247667D02*
X4643192Y-7261952D01*
X4571764Y-7261952D01*
X4543192Y-7247667D01*
X4528906Y-7219095D01*
X4528906Y-7190524D01*
X4543192Y-7161952D01*
X4571764Y-7147667D01*
X4643192Y-7147667D01*
X4671764Y-7133381D01*
X4814621Y-7061952D02*
X4814621Y-7361952D01*
X4814621Y-7076238D02*
X4843192Y-7061952D01*
X4900335Y-7061952D01*
X4928906Y-7076238D01*
X4943192Y-7090524D01*
X4957478Y-7119095D01*
X4957478Y-7204809D01*
X4943192Y-7233381D01*
X4928906Y-7247667D01*
X4900335Y-7261952D01*
X4843192Y-7261952D01*
X4814621Y-7247667D01*
X5086049Y-7233381D02*
X5100335Y-7247667D01*
X5086049Y-7261952D01*
X5071764Y-7247667D01*
X5086049Y-7233381D01*
X5086049Y-7261952D01*
X5086049Y-7076238D02*
X5100335Y-7090524D01*
X5086049Y-7104809D01*
X5071764Y-7090524D01*
X5086049Y-7076238D01*
X5086049Y-7104809D01*
X2702478Y-7736238D02*
X2742478Y-7776238D01*
X2742478Y-7736238D02*
X2702478Y-7776238D01*
X3086049Y-7591952D02*
X3114621Y-7591952D01*
X3143192Y-7606238D01*
X3157478Y-7620524D01*
X3171764Y-7649095D01*
X3186049Y-7706238D01*
X3186049Y-7777667D01*
X3171764Y-7834809D01*
X3157478Y-7863381D01*
X3143192Y-7877667D01*
X3114621Y-7891952D01*
X3086049Y-7891952D01*
X3057478Y-7877667D01*
X3043192Y-7863381D01*
X3028906Y-7834809D01*
X3014621Y-7777667D01*
X3014621Y-7706238D01*
X3028906Y-7649095D01*
X3043192Y-7620524D01*
X3057478Y-7606238D01*
X3086049Y-7591952D01*
X3314621Y-7863381D02*
X3328906Y-7877667D01*
X3314621Y-7891952D01*
X3300335Y-7877667D01*
X3314621Y-7863381D01*
X3314621Y-7891952D01*
X3586049Y-7691952D02*
X3586049Y-7891952D01*
X3514621Y-7577667D02*
X3443192Y-7791952D01*
X3628906Y-7791952D01*
X3800335Y-7591952D02*
X3828906Y-7591952D01*
X3857478Y-7606238D01*
X3871764Y-7620524D01*
X3886049Y-7649095D01*
X3900335Y-7706238D01*
X3900335Y-7777667D01*
X3886049Y-7834809D01*
X3871764Y-7863381D01*
X3857478Y-7877667D01*
X3828906Y-7891952D01*
X3800335Y-7891952D01*
X3771764Y-7877667D01*
X3757478Y-7863381D01*
X3743192Y-7834809D01*
X3728906Y-7777667D01*
X3728906Y-7706238D01*
X3743192Y-7649095D01*
X3757478Y-7620524D01*
X3771764Y-7606238D01*
X3800335Y-7591952D01*
X4028906Y-7891952D02*
X4028906Y-7691952D01*
X4028906Y-7720524D02*
X4043192Y-7706238D01*
X4071764Y-7691952D01*
X4114621Y-7691952D01*
X4143192Y-7706238D01*
X4157478Y-7734809D01*
X4157478Y-7891952D01*
X4157478Y-7734809D02*
X4171764Y-7706238D01*
X4200335Y-7691952D01*
X4243192Y-7691952D01*
X4271764Y-7706238D01*
X4286049Y-7734809D01*
X4286049Y-7891952D01*
X4428906Y-7891952D02*
X4428906Y-7691952D01*
X4428906Y-7720524D02*
X4443192Y-7706238D01*
X4471764Y-7691952D01*
X4514621Y-7691952D01*
X4543192Y-7706238D01*
X4557478Y-7734809D01*
X4557478Y-7891952D01*
X4557478Y-7734809D02*
X4571764Y-7706238D01*
X4600335Y-7691952D01*
X4643192Y-7691952D01*
X4671764Y-7706238D01*
X4686049Y-7734809D01*
X4686049Y-7891952D01*
X5271764Y-7577667D02*
X5014621Y-7963381D01*
X5657478Y-7591952D02*
X5686049Y-7591952D01*
X5714621Y-7606238D01*
X5728906Y-7620524D01*
X5743192Y-7649095D01*
X5757478Y-7706238D01*
X5757478Y-7777667D01*
X5743192Y-7834809D01*
X5728906Y-7863381D01*
X5714621Y-7877667D01*
X5686049Y-7891952D01*
X5657478Y-7891952D01*
X5628906Y-7877667D01*
X5614621Y-7863381D01*
X5600335Y-7834809D01*
X5586049Y-7777667D01*
X5586049Y-7706238D01*
X5600335Y-7649095D01*
X5614621Y-7620524D01*
X5628906Y-7606238D01*
X5657478Y-7591952D01*
X5886049Y-7863381D02*
X5900335Y-7877667D01*
X5886049Y-7891952D01*
X5871764Y-7877667D01*
X5886049Y-7863381D01*
X5886049Y-7891952D01*
X6086049Y-7591952D02*
X6114621Y-7591952D01*
X6143192Y-7606238D01*
X6157478Y-7620524D01*
X6171764Y-7649095D01*
X6186049Y-7706238D01*
X6186049Y-7777667D01*
X6171764Y-7834809D01*
X6157478Y-7863381D01*
X6143192Y-7877667D01*
X6114621Y-7891952D01*
X6086049Y-7891952D01*
X6057478Y-7877667D01*
X6043192Y-7863381D01*
X6028906Y-7834809D01*
X6014621Y-7777667D01*
X6014621Y-7706238D01*
X6028906Y-7649095D01*
X6043192Y-7620524D01*
X6057478Y-7606238D01*
X6086049Y-7591952D01*
X6471764Y-7891952D02*
X6300335Y-7891952D01*
X6386049Y-7891952D02*
X6386049Y-7591952D01*
X6357478Y-7634809D01*
X6328906Y-7663381D01*
X6300335Y-7677667D01*
X6728906Y-7591952D02*
X6671764Y-7591952D01*
X6643192Y-7606238D01*
X6628906Y-7620524D01*
X6600335Y-7663381D01*
X6586049Y-7720524D01*
X6586049Y-7834809D01*
X6600335Y-7863381D01*
X6614621Y-7877667D01*
X6643192Y-7891952D01*
X6700335Y-7891952D01*
X6728906Y-7877667D01*
X6743192Y-7863381D01*
X6757478Y-7834809D01*
X6757478Y-7763381D01*
X6743192Y-7734809D01*
X6728906Y-7720524D01*
X6700335Y-7706238D01*
X6643192Y-7706238D01*
X6614621Y-7720524D01*
X6600335Y-7734809D01*
X6586049Y-7763381D01*
X6871764Y-7591952D02*
X6871764Y-7649095D01*
X6986049Y-7591952D02*
X6986049Y-7649095D01*
X7428906Y-8006238D02*
X7414621Y-7991952D01*
X7386049Y-7949095D01*
X7371764Y-7920524D01*
X7357478Y-7877667D01*
X7343192Y-7806238D01*
X7343192Y-7749095D01*
X7357478Y-7677667D01*
X7371764Y-7634809D01*
X7386049Y-7606238D01*
X7414621Y-7563381D01*
X7428906Y-7549095D01*
X7528906Y-7620524D02*
X7543192Y-7606238D01*
X7571764Y-7591952D01*
X7643192Y-7591952D01*
X7671764Y-7606238D01*
X7686049Y-7620524D01*
X7700335Y-7649095D01*
X7700335Y-7677667D01*
X7686049Y-7720524D01*
X7514621Y-7891952D01*
X7700335Y-7891952D01*
X7986049Y-7891952D02*
X7814621Y-7891952D01*
X7900335Y-7891952D02*
X7900335Y-7591952D01*
X7871764Y-7634809D01*
X7843192Y-7663381D01*
X7814621Y-7677667D01*
X8343192Y-7891952D02*
X8343192Y-7591952D01*
X8471764Y-7891952D02*
X8471764Y-7734809D01*
X8457478Y-7706238D01*
X8428906Y-7691952D01*
X8386049Y-7691952D01*
X8357478Y-7706238D01*
X8343192Y-7720524D01*
X8657478Y-7891952D02*
X8628906Y-7877667D01*
X8614621Y-7863381D01*
X8600335Y-7834809D01*
X8600335Y-7749095D01*
X8614621Y-7720524D01*
X8628906Y-7706238D01*
X8657478Y-7691952D01*
X8700335Y-7691952D01*
X8728906Y-7706238D01*
X8743192Y-7720524D01*
X8757478Y-7749095D01*
X8757478Y-7834809D01*
X8743192Y-7863381D01*
X8728906Y-7877667D01*
X8700335Y-7891952D01*
X8657478Y-7891952D01*
X8928906Y-7891952D02*
X8900335Y-7877667D01*
X8886049Y-7849095D01*
X8886049Y-7591952D01*
X9157478Y-7877667D02*
X9128906Y-7891952D01*
X9071764Y-7891952D01*
X9043192Y-7877667D01*
X9028906Y-7849095D01*
X9028906Y-7734809D01*
X9043192Y-7706238D01*
X9071764Y-7691952D01*
X9128906Y-7691952D01*
X9157478Y-7706238D01*
X9171764Y-7734809D01*
X9171764Y-7763381D01*
X9028906Y-7791952D01*
X9286049Y-7877667D02*
X9314621Y-7891952D01*
X9371764Y-7891952D01*
X9400335Y-7877667D01*
X9414621Y-7849095D01*
X9414621Y-7834809D01*
X9400335Y-7806238D01*
X9371764Y-7791952D01*
X9328906Y-7791952D01*
X9300335Y-7777667D01*
X9286049Y-7749095D01*
X9286049Y-7734809D01*
X9300335Y-7706238D01*
X9328906Y-7691952D01*
X9371764Y-7691952D01*
X9400335Y-7706238D01*
X9514621Y-8006238D02*
X9528906Y-7991952D01*
X9557478Y-7949095D01*
X9571764Y-7920524D01*
X9586049Y-7877667D01*
X9600335Y-7806238D01*
X9600335Y-7749095D01*
X9586049Y-7677667D01*
X9571764Y-7634809D01*
X9557478Y-7606238D01*
X9528906Y-7563381D01*
X9514621Y-7549095D01*
M02*
