%TF.GenerationSoftware,KiCad,Pcbnew,6.0.11+dfsg-1*%
%TF.CreationDate,2023-09-11T16:29:55+03:00*%
%TF.ProjectId,SC-STM32L412K8,53432d53-544d-4333-924c-3431324b382e,rev?*%
%TF.SameCoordinates,Original*%
%TF.FileFunction,Copper,L1,Top*%
%TF.FilePolarity,Positive*%
%FSLAX46Y46*%
G04 Gerber Fmt 4.6, Leading zero omitted, Abs format (unit mm)*
G04 Created by KiCad (PCBNEW 6.0.11+dfsg-1) date 2023-09-11 16:29:55*
%MOMM*%
%LPD*%
G01*
G04 APERTURE LIST*
G04 Aperture macros list*
%AMRoundRect*
0 Rectangle with rounded corners*
0 $1 Rounding radius*
0 $2 $3 $4 $5 $6 $7 $8 $9 X,Y pos of 4 corners*
0 Add a 4 corners polygon primitive as box body*
4,1,4,$2,$3,$4,$5,$6,$7,$8,$9,$2,$3,0*
0 Add four circle primitives for the rounded corners*
1,1,$1+$1,$2,$3*
1,1,$1+$1,$4,$5*
1,1,$1+$1,$6,$7*
1,1,$1+$1,$8,$9*
0 Add four rect primitives between the rounded corners*
20,1,$1+$1,$2,$3,$4,$5,0*
20,1,$1+$1,$4,$5,$6,$7,0*
20,1,$1+$1,$6,$7,$8,$9,0*
20,1,$1+$1,$8,$9,$2,$3,0*%
G04 Aperture macros list end*
%TA.AperFunction,SMDPad,CuDef*%
%ADD10RoundRect,0.135000X-0.135000X-0.185000X0.135000X-0.185000X0.135000X0.185000X-0.135000X0.185000X0*%
%TD*%
%TA.AperFunction,SMDPad,CuDef*%
%ADD11RoundRect,0.225000X0.250000X-0.225000X0.250000X0.225000X-0.250000X0.225000X-0.250000X-0.225000X0*%
%TD*%
%TA.AperFunction,SMDPad,CuDef*%
%ADD12RoundRect,0.218750X0.218750X0.256250X-0.218750X0.256250X-0.218750X-0.256250X0.218750X-0.256250X0*%
%TD*%
%TA.AperFunction,SMDPad,CuDef*%
%ADD13R,1.900000X0.400000*%
%TD*%
%TA.AperFunction,SMDPad,CuDef*%
%ADD14RoundRect,0.375000X0.387000X-0.375000X0.387000X0.375000X-0.387000X0.375000X-0.387000X-0.375000X0*%
%TD*%
%TA.AperFunction,SMDPad,CuDef*%
%ADD15RoundRect,0.135000X0.185000X-0.135000X0.185000X0.135000X-0.185000X0.135000X-0.185000X-0.135000X0*%
%TD*%
%TA.AperFunction,SMDPad,CuDef*%
%ADD16C,1.000000*%
%TD*%
%TA.AperFunction,SMDPad,CuDef*%
%ADD17RoundRect,0.147500X0.147500X0.172500X-0.147500X0.172500X-0.147500X-0.172500X0.147500X-0.172500X0*%
%TD*%
%TA.AperFunction,SMDPad,CuDef*%
%ADD18R,1.380000X0.450000*%
%TD*%
%TA.AperFunction,SMDPad,CuDef*%
%ADD19R,1.550000X1.425000*%
%TD*%
%TA.AperFunction,SMDPad,CuDef*%
%ADD20R,1.900000X1.000000*%
%TD*%
%TA.AperFunction,SMDPad,CuDef*%
%ADD21R,1.300000X1.650000*%
%TD*%
%TA.AperFunction,SMDPad,CuDef*%
%ADD22R,1.900000X1.800000*%
%TD*%
%TA.AperFunction,SMDPad,CuDef*%
%ADD23RoundRect,0.135000X0.135000X0.185000X-0.135000X0.185000X-0.135000X-0.185000X0.135000X-0.185000X0*%
%TD*%
%TA.AperFunction,SMDPad,CuDef*%
%ADD24RoundRect,0.150000X0.512500X0.150000X-0.512500X0.150000X-0.512500X-0.150000X0.512500X-0.150000X0*%
%TD*%
%TA.AperFunction,SMDPad,CuDef*%
%ADD25RoundRect,0.225000X-0.250000X0.225000X-0.250000X-0.225000X0.250000X-0.225000X0.250000X0.225000X0*%
%TD*%
%TA.AperFunction,SMDPad,CuDef*%
%ADD26RoundRect,0.135000X-0.185000X0.135000X-0.185000X-0.135000X0.185000X-0.135000X0.185000X0.135000X0*%
%TD*%
%TA.AperFunction,SMDPad,CuDef*%
%ADD27C,1.524000*%
%TD*%
%TA.AperFunction,SMDPad,CuDef*%
%ADD28RoundRect,0.150000X0.150000X-0.512500X0.150000X0.512500X-0.150000X0.512500X-0.150000X-0.512500X0*%
%TD*%
%TA.AperFunction,SMDPad,CuDef*%
%ADD29RoundRect,0.147500X-0.147500X-0.172500X0.147500X-0.172500X0.147500X0.172500X-0.147500X0.172500X0*%
%TD*%
%TA.AperFunction,SMDPad,CuDef*%
%ADD30RoundRect,0.250000X-0.475000X0.250000X-0.475000X-0.250000X0.475000X-0.250000X0.475000X0.250000X0*%
%TD*%
%TA.AperFunction,SMDPad,CuDef*%
%ADD31R,1.200000X0.600000*%
%TD*%
%TA.AperFunction,SMDPad,CuDef*%
%ADD32R,0.600000X1.200000*%
%TD*%
%TA.AperFunction,SMDPad,CuDef*%
%ADD33RoundRect,0.140000X-0.170000X0.140000X-0.170000X-0.140000X0.170000X-0.140000X0.170000X0.140000X0*%
%TD*%
%TA.AperFunction,ViaPad*%
%ADD34C,0.800000*%
%TD*%
%TA.AperFunction,ViaPad*%
%ADD35C,1.000000*%
%TD*%
%TA.AperFunction,Conductor*%
%ADD36C,0.600000*%
%TD*%
%TA.AperFunction,Conductor*%
%ADD37C,0.250000*%
%TD*%
%TA.AperFunction,Conductor*%
%ADD38C,0.800000*%
%TD*%
%TA.AperFunction,Conductor*%
%ADD39C,0.500000*%
%TD*%
%TA.AperFunction,Conductor*%
%ADD40C,0.400000*%
%TD*%
%TA.AperFunction,Conductor*%
%ADD41C,0.300000*%
%TD*%
%TA.AperFunction,Conductor*%
%ADD42C,1.000000*%
%TD*%
G04 APERTURE END LIST*
D10*
%TO.P,R9,1*%
%TO.N,Net-(R9-Pad1)*%
X56790000Y-62700000D03*
%TO.P,R9,2*%
%TO.N,AIn*%
X57810000Y-62700000D03*
%TD*%
D11*
%TO.P,C18,2*%
%TO.N,Net-(C18-Pad2)*%
X40825000Y-61985000D03*
%TO.P,C18,1*%
%TO.N,GND*%
X40825000Y-63535000D03*
%TD*%
D12*
%TO.P,L4,1,1*%
%TO.N,+2V8*%
X41327500Y-56810000D03*
%TO.P,L4,2,2*%
%TO.N,Net-(C18-Pad2)*%
X39752500Y-56810000D03*
%TD*%
D13*
%TO.P,Y1,1,1*%
%TO.N,Net-(D6-Pad3)*%
X39910000Y-60350000D03*
%TO.P,Y1,2,2*%
%TO.N,GND*%
X39910000Y-59150000D03*
%TO.P,Y1,3,3*%
%TO.N,Net-(D6-Pad2)*%
X39910000Y-57950000D03*
%TD*%
D14*
%TO.P,BZ1,3*%
%TO.N,N/C*%
X37280000Y-61860000D03*
%TO.P,BZ1,2,+*%
%TO.N,Net-(BZ1-Pad2)*%
X37280000Y-65660000D03*
%TO.P,BZ1,1,-*%
%TO.N,+BATT*%
X33480000Y-65660000D03*
%TD*%
D15*
%TO.P,R7,1*%
%TO.N,+2V8*%
X53809900Y-57720000D03*
%TO.P,R7,2*%
%TO.N,LevAj*%
X53809900Y-56700000D03*
%TD*%
D10*
%TO.P,R12,1*%
%TO.N,Net-(D3-Pad8)*%
X53820000Y-55680000D03*
%TO.P,R12,2*%
%TO.N,LevAj*%
X54840000Y-55680000D03*
%TD*%
D16*
%TO.P,J16,1,Pin_1*%
%TO.N,Net-(D6-Pad4)*%
X38975000Y-61600000D03*
%TD*%
D17*
%TO.P,D1,1,K*%
%TO.N,Net-(U3-Pad1)*%
X37685000Y-55275000D03*
%TO.P,D1,2,A*%
%TO.N,Net-(D1-Pad2)*%
X36715000Y-55275000D03*
%TD*%
D18*
%TO.P,J1,1,VBUS*%
%TO.N,Net-(J1-Pad1)*%
X31186740Y-57727900D03*
%TO.P,J1,2,D-*%
%TO.N,unconnected-(J1-Pad2)*%
X31186740Y-58377900D03*
%TO.P,J1,3,D+*%
%TO.N,unconnected-(J1-Pad3)*%
X31186740Y-59027900D03*
%TO.P,J1,4,ID*%
%TO.N,unconnected-(J1-Pad4)*%
X31186740Y-59677900D03*
%TO.P,J1,5,GND*%
%TO.N,GND*%
X31186740Y-60327900D03*
D19*
%TO.P,J1,6,Shield*%
X31101740Y-56540400D03*
D20*
X28526740Y-60577900D03*
D21*
X28526740Y-62402900D03*
D19*
X31101740Y-61515400D03*
D21*
X28526740Y-55652900D03*
D22*
X28526740Y-57877900D03*
%TD*%
D16*
%TO.P,J3,1,Pin_1*%
%TO.N,Net-(D6-Pad19)*%
X52700000Y-65475000D03*
%TD*%
%TO.P,J4,1,Pin_1*%
%TO.N,Net-(D6-Pad20)*%
X52775000Y-64050000D03*
%TD*%
%TO.P,J5,1,Pin_1*%
%TO.N,Net-(D6-Pad23)*%
X52550000Y-57950000D03*
%TD*%
%TO.P,J6,1,Pin_1*%
%TO.N,Net-(D6-Pad24)*%
X52520000Y-56525000D03*
%TD*%
D10*
%TO.P,R1,1*%
%TO.N,Net-(R1-Pad1)*%
X33380000Y-60350000D03*
%TO.P,R1,2*%
%TO.N,GND*%
X34400000Y-60350000D03*
%TD*%
D23*
%TO.P,R2,1*%
%TO.N,AIn*%
X57785000Y-63750000D03*
%TO.P,R2,2*%
%TO.N,GND*%
X56765000Y-63750000D03*
%TD*%
D15*
%TO.P,R4,2*%
%TO.N,Net-(D1-Pad2)*%
X34300000Y-55290000D03*
%TO.P,R4,1*%
%TO.N,Net-(J1-Pad1)*%
X34300000Y-56310000D03*
%TD*%
D24*
%TO.P,U3,1,~{CHRG}*%
%TO.N,Net-(U3-Pad1)*%
X35647500Y-59240000D03*
%TO.P,U3,2,GND*%
%TO.N,GND*%
X35647500Y-58290000D03*
%TO.P,U3,3,BAT*%
%TO.N,Net-(SW1-Pad1)*%
X35647500Y-57340000D03*
%TO.P,U3,4,VCC*%
%TO.N,Net-(J1-Pad1)*%
X33372500Y-57340000D03*
%TO.P,U3,5,PROG*%
%TO.N,Net-(R1-Pad1)*%
X33372500Y-59240000D03*
%TD*%
D11*
%TO.P,C17,1*%
%TO.N,+2V8*%
X42640000Y-56745000D03*
%TO.P,C17,2*%
%TO.N,GND*%
X42640000Y-55195000D03*
%TD*%
D25*
%TO.P,C16,1*%
%TO.N,+2V8*%
X50900000Y-64750000D03*
%TO.P,C16,2*%
%TO.N,GND*%
X50900000Y-66300000D03*
%TD*%
D26*
%TO.P,R8,1*%
%TO.N,LevAj*%
X55900000Y-56680000D03*
%TO.P,R8,2*%
%TO.N,GND*%
X55900000Y-57700000D03*
%TD*%
D16*
%TO.P,J7,1,Pin_1*%
%TO.N,Net-(SW1-Pad1)*%
X35950000Y-56300000D03*
%TD*%
D27*
%TO.P,J8,1,Pin_1*%
%TO.N,AIn*%
X56400000Y-65925000D03*
%TD*%
D28*
%TO.P,U4,1*%
%TO.N,Net-(D6-Pad21)*%
X54881740Y-61307560D03*
%TO.P,U4,2,V-*%
%TO.N,GND*%
X55831740Y-61307560D03*
%TO.P,U4,3,+*%
%TO.N,Net-(R9-Pad1)*%
X56781740Y-61307560D03*
%TO.P,U4,4,-*%
%TO.N,LevAj*%
X56781740Y-59032560D03*
%TO.P,U4,5,V+*%
%TO.N,+2V8*%
X54881740Y-59032560D03*
%TD*%
D16*
%TO.P,J9,1,Pin_1*%
%TO.N,Net-(D6-Pad25)*%
X49480000Y-54370000D03*
%TD*%
D29*
%TO.P,D7,1,K*%
%TO.N,GND*%
X36715000Y-53675000D03*
%TO.P,D7,2,A*%
%TO.N,Net-(D7-Pad2)*%
X37685000Y-53675000D03*
%TD*%
D10*
%TO.P,R14,1*%
%TO.N,Net-(D7-Pad2)*%
X46710000Y-55090000D03*
%TO.P,R14,2*%
%TO.N,Net-(D6-Pad26)*%
X47730000Y-55090000D03*
%TD*%
D30*
%TO.P,C12,1*%
%TO.N,+2V8*%
X53439060Y-59392780D03*
%TO.P,C12,2*%
%TO.N,GND*%
X53439060Y-61292780D03*
%TD*%
D16*
%TO.P,J12,1,Pin_1*%
%TO.N,+2V8*%
X40410000Y-55400000D03*
%TD*%
D10*
%TO.P,R20,1*%
%TO.N,com*%
X46020000Y-66440000D03*
%TO.P,R20,2*%
%TO.N,bl*%
X47040000Y-66440000D03*
%TD*%
D25*
%TO.P,C4,1*%
%TO.N,GND*%
X33000000Y-54615000D03*
%TO.P,C4,2*%
%TO.N,Net-(J1-Pad1)*%
X33000000Y-56165000D03*
%TD*%
D31*
%TO.P,D6,1,Vdd*%
%TO.N,+2V8*%
X42442820Y-57964420D03*
%TO.P,D6,2,PC14*%
%TO.N,Net-(D6-Pad2)*%
X42442820Y-58764420D03*
%TO.P,D6,3,PC15*%
%TO.N,Net-(D6-Pad3)*%
X42442820Y-59564420D03*
%TO.P,D6,4,NRST*%
%TO.N,Net-(D6-Pad4)*%
X42442820Y-60364420D03*
%TO.P,D6,5,Vdda*%
%TO.N,Net-(C18-Pad2)*%
X42442820Y-61164420D03*
%TO.P,D6,6,PA0*%
%TO.N,unconnected-(D6-Pad6)*%
X42442820Y-61964420D03*
%TO.P,D6,7,PA1*%
%TO.N,Vibro*%
X42442820Y-62764420D03*
%TO.P,D6,8,PA2*%
%TO.N,unconnected-(D6-Pad8)*%
X42442820Y-63564420D03*
D32*
%TO.P,D6,9,PA3*%
%TO.N,Buzer*%
X43892820Y-65014420D03*
%TO.P,D6,10,PA4*%
%TO.N,unconnected-(D6-Pad10)*%
X44692820Y-65014420D03*
%TO.P,D6,11,PA5*%
%TO.N,unconnected-(D6-Pad11)*%
X45492820Y-65014420D03*
%TO.P,D6,12,PA6*%
%TO.N,com*%
X46292820Y-65014420D03*
%TO.P,D6,13,PA7*%
%TO.N,bl*%
X47092820Y-65014420D03*
%TO.P,D6,14,PB0*%
%TO.N,unconnected-(D6-Pad14)*%
X47892820Y-65014420D03*
%TO.P,D6,15,PB1*%
%TO.N,AIn*%
X48692820Y-65014420D03*
%TO.P,D6,16,Vss*%
%TO.N,GND*%
X49492820Y-65014420D03*
D31*
%TO.P,D6,17,Vdd*%
%TO.N,+2V8*%
X50942820Y-63564420D03*
%TO.P,D6,18,PA8*%
%TO.N,DI*%
X50942820Y-62764420D03*
%TO.P,D6,19,PA9*%
%TO.N,Net-(D6-Pad19)*%
X50942820Y-61964420D03*
%TO.P,D6,20,PA10*%
%TO.N,Net-(D6-Pad20)*%
X50942820Y-61164420D03*
%TO.P,D6,21,PA11*%
%TO.N,Net-(D6-Pad21)*%
X50942820Y-60364420D03*
%TO.P,D6,22,PA12*%
%TO.N,CS*%
X50942820Y-59564420D03*
%TO.P,D6,23,PA13*%
%TO.N,Net-(D6-Pad23)*%
X50942820Y-58764420D03*
%TO.P,D6,24,PA14*%
%TO.N,Net-(D6-Pad24)*%
X50942820Y-57964420D03*
D32*
%TO.P,D6,25,PA15*%
%TO.N,Net-(D6-Pad25)*%
X49492820Y-56514420D03*
%TO.P,D6,26,PB3*%
%TO.N,Net-(D6-Pad26)*%
X48692820Y-56514420D03*
%TO.P,D6,27,PB4*%
%TO.N,SC*%
X47892820Y-56514420D03*
%TO.P,D6,28,PB5*%
%TO.N,unconnected-(D6-Pad28)*%
X47092820Y-56514420D03*
%TO.P,D6,29,PB6*%
%TO.N,unconnected-(D6-Pad29)*%
X46292820Y-56514420D03*
%TO.P,D6,30,PB7*%
%TO.N,unconnected-(D6-Pad30)*%
X45492820Y-56514420D03*
%TO.P,D6,31,BOOT0*%
%TO.N,GND*%
X44692820Y-56514420D03*
%TO.P,D6,32,Vss*%
X43892820Y-56514420D03*
%TD*%
D27*
%TO.P,J14,1,Pin_1*%
%TO.N,GND*%
X31150000Y-54460000D03*
%TD*%
%TO.P,J15,1,Pin_1*%
%TO.N,GND*%
X41640000Y-66140000D03*
%TD*%
D33*
%TO.P,C9,1*%
%TO.N,LevAj*%
X54860000Y-56710000D03*
%TO.P,C9,2*%
%TO.N,GND*%
X54860000Y-57670000D03*
%TD*%
D16*
%TO.P,J10,1,Pin_1*%
%TO.N,GND*%
X54575000Y-65050000D03*
%TD*%
D34*
%TO.N,GND*%
X29712920Y-57785000D03*
X44375000Y-63575000D03*
X40320000Y-59040000D03*
%TO.N,Vibro*%
X38890000Y-63480000D03*
%TO.N,+BATT*%
X30090000Y-65120000D03*
%TO.N,Net-(BZ1-Pad2)*%
X40050000Y-65620000D03*
%TO.N,Net-(D3-Pad8)*%
X48250000Y-60730000D03*
%TO.N,SC*%
X47870000Y-59470000D03*
%TO.N,GND*%
X40770000Y-63770000D03*
X44650000Y-61375000D03*
X53428900Y-61328300D03*
D35*
X29800000Y-62675000D03*
D34*
X42400000Y-54890000D03*
X55831740Y-60170060D03*
X46280000Y-63560000D03*
X51005740Y-66611500D03*
X28650000Y-55500000D03*
X48249840Y-67208400D03*
X45450000Y-57950000D03*
%TO.N,Net-(SW1-Pad1)*%
X32760000Y-61550000D03*
%TO.N,Buzer*%
X43891200Y-66243200D03*
%TO.N,bl*%
X47100000Y-66025000D03*
%TO.N,+2V8*%
X48190000Y-62138560D03*
X54160000Y-58990000D03*
X50890050Y-64733050D03*
%TO.N,DI*%
X49580800Y-61767720D03*
%TO.N,CS*%
X49760000Y-59720000D03*
%TD*%
D36*
%TO.N,GND*%
X55831705Y-63124633D02*
G75*
G03*
X55978187Y-63478187I499995J33D01*
G01*
X56103551Y-63603557D02*
G75*
G03*
X56457107Y-63750000I353549J353557D01*
G01*
X53428910Y-61439686D02*
G75*
G03*
X53721793Y-62146793I999990J-14D01*
G01*
X54607474Y-62618290D02*
G75*
G02*
X53900367Y-62325367I26J999990D01*
G01*
D37*
%TO.N,Net-(J1-Pad1)*%
X34300000Y-56310000D02*
X33145000Y-56310000D01*
X33145000Y-56310000D02*
X33000000Y-56165000D01*
%TO.N,Net-(D1-Pad2)*%
X34300000Y-55290000D02*
X36700000Y-55290000D01*
X36700000Y-55290000D02*
X36715000Y-55275000D01*
%TO.N,Net-(SW1-Pad1)*%
X32421443Y-61396449D02*
G75*
G02*
X32275000Y-61042893I353557J353549D01*
G01*
X32275005Y-58832107D02*
G75*
G02*
X32421447Y-58478553I499995J7D01*
G01*
X34738551Y-57486443D02*
G75*
G02*
X35092107Y-57340000I353549J-353557D01*
G01*
X34096450Y-58128556D02*
G75*
G02*
X33742893Y-58275000I-353550J353556D01*
G01*
X32478551Y-58421443D02*
G75*
G02*
X32832107Y-58275000I353549J-353557D01*
G01*
X32760000Y-61550000D02*
X32575000Y-61550000D01*
X32575000Y-61550000D02*
X32421446Y-61396446D01*
X32275000Y-61042893D02*
X32275000Y-58832107D01*
X32421447Y-58478553D02*
X32478554Y-58421446D01*
X32832107Y-58275000D02*
X33742893Y-58275000D01*
X34096447Y-58128553D02*
X34738554Y-57486446D01*
X35092107Y-57340000D02*
X35647500Y-57340000D01*
D36*
%TO.N,GND*%
X41907354Y-64493161D02*
G75*
G02*
X41200247Y-64200247I46J1000061D01*
G01*
X42547540Y-64493140D02*
X41907354Y-64493140D01*
X41200247Y-64200247D02*
X40770000Y-63770000D01*
D37*
%TO.N,Net-(D6-Pad20)*%
X52107114Y-61657100D02*
G75*
G02*
X52400000Y-62364214I-707114J-707100D01*
G01*
X52692886Y-63992900D02*
G75*
G02*
X52400000Y-63285786I707114J707100D01*
G01*
X51907306Y-61457320D02*
G75*
G03*
X51200206Y-61164420I-707106J-707080D01*
G01*
X52775000Y-64050000D02*
X52750000Y-64050000D01*
X52750000Y-64050000D02*
X52692893Y-63992893D01*
X52400000Y-63285786D02*
X52400000Y-62364214D01*
X52107107Y-61657107D02*
X51907313Y-61457313D01*
X51200206Y-61164420D02*
X50942820Y-61164420D01*
%TO.N,Net-(D6-Pad19)*%
X52192886Y-64967900D02*
G75*
G02*
X51900000Y-64260786I707114J707100D01*
G01*
X51710856Y-62110878D02*
G75*
G03*
X51357313Y-61964420I-353556J-353522D01*
G01*
X51753557Y-62153551D02*
G75*
G02*
X51900000Y-62507107I-353557J-353549D01*
G01*
X50942820Y-61964420D02*
X51357313Y-61964420D01*
X51710867Y-62110867D02*
X51753554Y-62153554D01*
X51900000Y-62507107D02*
X51900000Y-64260786D01*
X52192893Y-64967893D02*
X52700000Y-65475000D01*
%TO.N,Net-(D6-Pad23)*%
X51321366Y-58764390D02*
G75*
G03*
X52028473Y-58471527I34J999990D01*
G01*
%TO.N,Net-(D6-Pad24)*%
X50942820Y-57964420D02*
X51080580Y-57964420D01*
X51080580Y-57964420D02*
X52520000Y-56525000D01*
%TO.N,Net-(D6-Pad23)*%
X50942820Y-58764420D02*
X51321366Y-58764420D01*
X52028473Y-58471527D02*
X52550000Y-57950000D01*
D36*
%TO.N,GND*%
X55831740Y-62618260D02*
X54607474Y-62618260D01*
X55831740Y-61307560D02*
X55831740Y-62618260D01*
X55831740Y-62618260D02*
X55831740Y-63124633D01*
X53900367Y-62325367D02*
X53721793Y-62146793D01*
X53428900Y-61439686D02*
X53428900Y-61328300D01*
X55978187Y-63478187D02*
X56103554Y-63603554D01*
X56457107Y-63750000D02*
X56765000Y-63750000D01*
D37*
%TO.N,AIn*%
X48692810Y-65828606D02*
G75*
G03*
X48985713Y-66535713I999990J6D01*
G01*
X55217900Y-67107114D02*
G75*
G02*
X54510786Y-67400000I-707100J707114D01*
G01*
X49557100Y-67107114D02*
G75*
G03*
X50264214Y-67400000I707100J707114D01*
G01*
X57784990Y-64125786D02*
G75*
G02*
X57492107Y-64832893I-999990J-14D01*
G01*
X48985713Y-66535713D02*
X49557107Y-67107107D01*
X48692820Y-65014420D02*
X48692820Y-65828606D01*
X50264214Y-67400000D02*
X54510786Y-67400000D01*
X55217893Y-67107107D02*
X56400000Y-65925000D01*
X57785000Y-63750000D02*
X57785000Y-64125786D01*
X57492107Y-64832893D02*
X56400000Y-65925000D01*
%TO.N,Net-(R9-Pad1)*%
X56781740Y-61307560D02*
X56781740Y-62691740D01*
X56781740Y-62691740D02*
X56790000Y-62700000D01*
%TO.N,AIn*%
X57810000Y-62700000D02*
X57810000Y-63725000D01*
X57810000Y-63725000D02*
X57785000Y-63750000D01*
D36*
%TO.N,GND*%
X45442614Y-57949990D02*
G75*
G02*
X44735507Y-57657107I-14J999990D01*
G01*
X44291910Y-56799326D02*
G75*
G03*
X44584833Y-57506433I999990J26D01*
G01*
X44291940Y-56514420D02*
X44291940Y-56799326D01*
X44584833Y-57506433D02*
X44735507Y-57657107D01*
X45442614Y-57950000D02*
X45475000Y-57950000D01*
D38*
X42067900Y-54542886D02*
G75*
G03*
X41360786Y-54250000I-707100J-707114D01*
G01*
D37*
%TO.N,Net-(D7-Pad2)*%
X44505786Y-53300010D02*
G75*
G02*
X45212893Y-53592893I14J-999990D01*
G01*
X38639214Y-53300010D02*
G75*
G03*
X37932107Y-53592893I-14J-999990D01*
G01*
X37685000Y-53675000D02*
X37850000Y-53675000D01*
X37850000Y-53675000D02*
X37932107Y-53592893D01*
X38639214Y-53300000D02*
X44505786Y-53300000D01*
X45212893Y-53592893D02*
X46710000Y-55090000D01*
D39*
%TO.N,GND*%
X33000000Y-54615000D02*
X33140000Y-54475000D01*
X33140000Y-54475000D02*
X38750000Y-54475000D01*
X38750000Y-54475000D02*
X38975000Y-54250000D01*
D37*
%TO.N,Net-(SW1-Pad1)*%
X35647510Y-57016714D02*
G75*
G02*
X35940393Y-56309607I999990J14D01*
G01*
X35647500Y-57340000D02*
X35647500Y-57016714D01*
X35940393Y-56309607D02*
X35950000Y-56300000D01*
%TO.N,Net-(U3-Pad1)*%
X36710015Y-57161321D02*
G75*
G02*
X37002893Y-56454214I999985J21D01*
G01*
X37392110Y-56065003D02*
G75*
G03*
X37685000Y-55357893I-707110J707103D01*
G01*
X37002893Y-56454214D02*
X37392107Y-56065000D01*
X37685000Y-55357893D02*
X37685000Y-55275000D01*
D39*
%TO.N,Net-(J1-Pad1)*%
X33000000Y-56165000D02*
X33000000Y-57390711D01*
D37*
%TO.N,Net-(U3-Pad1)*%
X36316449Y-59093557D02*
G75*
G02*
X35962893Y-59240000I-353549J353557D01*
G01*
X36709995Y-58492893D02*
G75*
G02*
X36563553Y-58846447I-499995J-7D01*
G01*
X35647500Y-59240000D02*
X35962893Y-59240000D01*
X36316446Y-59093554D02*
X36563553Y-58846447D01*
X36710000Y-58492893D02*
X36710000Y-57161321D01*
D36*
%TO.N,GND*%
X39049990Y-55135786D02*
G75*
G02*
X38757107Y-55842893I-999990J-14D01*
G01*
X37942886Y-56657100D02*
G75*
G03*
X37650000Y-57364214I707114J-707100D01*
G01*
X37649990Y-58635786D02*
G75*
G02*
X37357107Y-59342893I-999990J-14D01*
G01*
X36185786Y-60099990D02*
G75*
G03*
X36892893Y-59807107I14J999990D01*
G01*
D38*
X41360786Y-54250000D02*
X38975000Y-54250000D01*
D36*
X37650000Y-58635786D02*
X37650000Y-57364214D01*
D39*
X39050000Y-54325000D02*
X38975000Y-54250000D01*
X34400000Y-60350000D02*
X34650000Y-60100000D01*
D36*
X34650000Y-60100000D02*
X36185786Y-60100000D01*
X36892893Y-59807107D02*
X37357107Y-59342893D01*
X37942893Y-56657107D02*
X38757107Y-55842893D01*
X39050000Y-55135786D02*
X39050000Y-54325000D01*
D37*
%TO.N,Net-(C18-Pad2)*%
X40018834Y-61985024D02*
G75*
G03*
X39665280Y-62131447I-34J-499976D01*
G01*
X36050005Y-61382107D02*
G75*
G02*
X36196447Y-61028553I499995J7D01*
G01*
X36050005Y-62292893D02*
G75*
G03*
X36196446Y-62646446I499995J-7D01*
G01*
X36378550Y-62828556D02*
G75*
G03*
X36732107Y-62975000I353550J353556D01*
G01*
X38081449Y-62828557D02*
G75*
G02*
X37727893Y-62975000I-353549J353557D01*
G01*
X38258550Y-62651444D02*
G75*
G02*
X38612107Y-62505000I353550J-353556D01*
G01*
X39438163Y-62358544D02*
G75*
G02*
X39084620Y-62505000I-353563J353544D01*
G01*
X38378557Y-60221449D02*
G75*
G03*
X38525000Y-59867893I-353557J353549D01*
G01*
X39322107Y-56810005D02*
G75*
G03*
X38968554Y-56956446I-7J-499995D01*
G01*
X38525005Y-57607107D02*
G75*
G02*
X38671447Y-57253553I499995J7D01*
G01*
X38021450Y-60578556D02*
G75*
G02*
X37667893Y-60725000I-353550J353556D01*
G01*
X36353551Y-60871443D02*
G75*
G02*
X36707107Y-60725000I353549J-353557D01*
G01*
D38*
%TO.N,GND*%
X42400000Y-54875000D02*
X42067893Y-54542893D01*
D37*
X42400000Y-54890000D02*
X42400000Y-54875000D01*
%TO.N,Net-(C18-Pad2)*%
X40825000Y-61985000D02*
X40018834Y-61985000D01*
X39665280Y-62131447D02*
X39438173Y-62358554D01*
X36050000Y-62292893D02*
X36050000Y-61382107D01*
X39084620Y-62505000D02*
X38612107Y-62505000D01*
X38258553Y-62651447D02*
X38081446Y-62828554D01*
X37727893Y-62975000D02*
X36732107Y-62975000D01*
X36378553Y-62828553D02*
X36196446Y-62646446D01*
X36196447Y-61028553D02*
X36353554Y-60871446D01*
X36707107Y-60725000D02*
X37667893Y-60725000D01*
X38021447Y-60578553D02*
X38378554Y-60221446D01*
X38525000Y-59867893D02*
X38525000Y-57607107D01*
X38671447Y-57253553D02*
X38968554Y-56956446D01*
X39322107Y-56810000D02*
X39752500Y-56810000D01*
%TO.N,Vibro*%
X39317100Y-63052886D02*
G75*
G02*
X40024214Y-62760000I707100J-707114D01*
G01*
X42442820Y-62764420D02*
X42438400Y-62760000D01*
X42438400Y-62760000D02*
X40024214Y-62760000D01*
X39317107Y-63052893D02*
X38890000Y-63480000D01*
%TO.N,Net-(D6-Pad3)*%
X39985206Y-60350004D02*
G75*
G03*
X40692313Y-60057107I-6J1000004D01*
G01*
X41599214Y-59564424D02*
G75*
G03*
X40892107Y-59857313I-14J-999976D01*
G01*
%TO.N,Net-(D6-Pad2)*%
X40001091Y-57950007D02*
G75*
G02*
X40708197Y-58242894I9J-999993D01*
G01*
X41643939Y-58764386D02*
G75*
G02*
X40936833Y-58471526I-39J999986D01*
G01*
%TO.N,Net-(BZ1-Pad2)*%
X37280000Y-65660000D02*
X37320000Y-65620000D01*
X37320000Y-65620000D02*
X40050000Y-65620000D01*
%TO.N,Net-(D6-Pad2)*%
X42442820Y-58764420D02*
X41643939Y-58764420D01*
X40936832Y-58471527D02*
X40708198Y-58242893D01*
X40001091Y-57950000D02*
X39910000Y-57950000D01*
%TO.N,Net-(D6-Pad3)*%
X42442820Y-59564420D02*
X41599214Y-59564420D01*
X40892107Y-59857313D02*
X40692313Y-60057107D01*
X39985206Y-60350000D02*
X39910000Y-60350000D01*
%TO.N,Net-(C18-Pad2)*%
X40962893Y-61799995D02*
G75*
G03*
X41316446Y-61653554I7J499995D01*
G01*
X42012687Y-61164405D02*
G75*
G03*
X41659133Y-61310867I13J-499995D01*
G01*
X42442820Y-61164420D02*
X42012687Y-61164420D01*
X41659133Y-61310867D02*
X41316446Y-61653554D01*
X40962893Y-61800000D02*
X40590000Y-61800000D01*
%TO.N,Net-(D6-Pad4)*%
X39927107Y-60910005D02*
G75*
G03*
X39573553Y-61056447I-7J-499995D01*
G01*
X40840133Y-60910023D02*
G75*
G03*
X41193686Y-60763554I-33J500023D01*
G01*
X41799927Y-60364434D02*
G75*
G03*
X41446374Y-60510868I-27J-499966D01*
G01*
X42442820Y-60364420D02*
X41799927Y-60364420D01*
X41446373Y-60510867D02*
X41193686Y-60763554D01*
X40840133Y-60910000D02*
X39927107Y-60910000D01*
X39573553Y-61056447D02*
X38950000Y-61680000D01*
D38*
%TO.N,+2V8*%
X41034614Y-56024600D02*
G75*
G02*
X41327500Y-56731714I-707114J-707100D01*
G01*
D40*
%TO.N,Net-(J1-Pad1)*%
X31882893Y-57729995D02*
G75*
G03*
X32236446Y-57583554I7J499995D01*
G01*
X32333550Y-57486444D02*
G75*
G02*
X32687107Y-57340000I353550J-353556D01*
G01*
X32333553Y-57486447D02*
X32236446Y-57583554D01*
X33372500Y-57340000D02*
X32687107Y-57340000D01*
X31882893Y-57730000D02*
X31188840Y-57730000D01*
D37*
X31188840Y-57730000D02*
X31186740Y-57727900D01*
D39*
%TO.N,GND*%
X34510005Y-58827107D02*
G75*
G02*
X34656446Y-58473554I499995J7D01*
G01*
X34693550Y-58436444D02*
G75*
G02*
X35047107Y-58290000I353550J-353556D01*
G01*
X35657500Y-58290000D02*
X35047107Y-58290000D01*
X34693553Y-58436447D02*
X34656446Y-58473554D01*
X34510000Y-58827107D02*
X34510000Y-60240000D01*
X34510000Y-60240000D02*
X34400000Y-60350000D01*
D37*
%TO.N,Net-(R1-Pad1)*%
X33380000Y-60350000D02*
X33380000Y-59242500D01*
X33380000Y-59242500D02*
X33382500Y-59240000D01*
D38*
%TO.N,+2V8*%
X41327500Y-56810000D02*
X41327500Y-56731714D01*
X41034607Y-56024607D02*
X40410000Y-55400000D01*
D36*
X42442820Y-57964420D02*
X42442820Y-56942180D01*
X42442820Y-56942180D02*
X42640000Y-56745000D01*
D38*
X41327500Y-56810000D02*
X42575000Y-56810000D01*
D37*
X42575000Y-56810000D02*
X42640000Y-56745000D01*
%TO.N,+BATT*%
X30337100Y-65367114D02*
G75*
G03*
X31044214Y-65660000I707100J707114D01*
G01*
X33480000Y-65660000D02*
X31044214Y-65660000D01*
X30337107Y-65367107D02*
X30090000Y-65120000D01*
D36*
%TO.N,+2V8*%
X43500766Y-58110888D02*
G75*
G03*
X43147233Y-57964420I-353566J-353512D01*
G01*
D39*
X48921450Y-62713614D02*
G75*
G03*
X49133564Y-62801500I212150J212114D01*
G01*
X49202536Y-62801475D02*
G75*
G02*
X49414668Y-62889368I-36J-300025D01*
G01*
X50296827Y-63564395D02*
G75*
G02*
X49943274Y-63417974I-27J499995D01*
G01*
D36*
%TO.N,GND*%
X49405597Y-64054511D02*
G75*
G03*
X48698488Y-63761620I-707097J-707089D01*
G01*
X43538334Y-67457290D02*
G75*
G02*
X42831227Y-67164427I-34J999990D01*
G01*
D39*
X50384851Y-66609234D02*
G75*
G02*
X49819167Y-66374885I49J800034D01*
G01*
X49492836Y-65717169D02*
G75*
G03*
X49727135Y-66282855I799964J-31D01*
G01*
D37*
%TO.N,Net-(D6-Pad25)*%
X49492820Y-56514420D02*
X49492820Y-54382820D01*
X49492820Y-54382820D02*
X49480000Y-54370000D01*
D39*
%TO.N,GND*%
X55831740Y-60170060D02*
X57869940Y-60170060D01*
D37*
%TO.N,Net-(D3-Pad8)*%
X52204214Y-55680010D02*
G75*
G03*
X51497107Y-55972893I-14J-999990D01*
G01*
X48537114Y-60482900D02*
G75*
G03*
X48830000Y-59775786I-707114J707100D01*
G01*
X49122886Y-58347100D02*
G75*
G03*
X48830000Y-59054214I707114J-707100D01*
G01*
X53820000Y-55680000D02*
X52204214Y-55680000D01*
X51497107Y-55972893D02*
X49122893Y-58347107D01*
X48830000Y-59054214D02*
X48830000Y-59775786D01*
X48537107Y-60482893D02*
X48290000Y-60730000D01*
X48290000Y-60730000D02*
X48250000Y-60730000D01*
%TO.N,SC*%
X47870000Y-59470000D02*
X47892820Y-59447180D01*
X47892820Y-59447180D02*
X47892820Y-56514420D01*
D39*
%TO.N,+2V8*%
X53809900Y-57720000D02*
X53809900Y-59204860D01*
D37*
X53809900Y-59204860D02*
X53624480Y-59390280D01*
D39*
X54881740Y-59032560D02*
X53799280Y-59032560D01*
X53799280Y-59032560D02*
X53439060Y-59392780D01*
D37*
%TO.N,CS*%
X49758600Y-59537600D02*
X50916000Y-59537600D01*
X50916000Y-59537600D02*
X50942820Y-59564420D01*
%TO.N,LevAj*%
X54860000Y-56710000D02*
X54860000Y-55700000D01*
X54860000Y-55700000D02*
X54840000Y-55680000D01*
D39*
%TO.N,GND*%
X55900000Y-57700000D02*
X54890000Y-57700000D01*
X54890000Y-57700000D02*
X54860000Y-57670000D01*
D38*
X55831740Y-60170060D02*
X55831740Y-57768260D01*
D39*
X55831740Y-57768260D02*
X55900000Y-57700000D01*
D37*
%TO.N,LevAj*%
X56635325Y-57415261D02*
G75*
G02*
X56781740Y-57768847I-353625J-353539D01*
G01*
X54860000Y-56710000D02*
X53930400Y-56710000D01*
X53930400Y-56710000D02*
X53809900Y-56830500D01*
X55900000Y-56680000D02*
X54890000Y-56680000D01*
X54890000Y-56680000D02*
X54860000Y-56710000D01*
X56781740Y-59032560D02*
X56781740Y-57768847D01*
X56635293Y-57415293D02*
X55900000Y-56680000D01*
D39*
%TO.N,GND*%
X49492820Y-65014420D02*
X49492820Y-64141738D01*
D36*
X55831740Y-60170060D02*
X55831740Y-60170060D01*
X47845980Y-63761620D02*
X48698488Y-63761620D01*
D39*
X43892820Y-56514420D02*
X43892820Y-54893800D01*
D37*
X43159680Y-64460120D02*
X43035220Y-64584580D01*
D39*
X55831740Y-60170060D02*
X55831740Y-61307560D01*
D36*
X48117760Y-67233800D02*
X47894240Y-67457320D01*
D37*
X30826740Y-56565400D02*
X29377601Y-56565400D01*
D36*
X43695620Y-63761620D02*
X47845980Y-63761620D01*
X42831227Y-67164427D02*
X42547540Y-66880740D01*
D37*
X28526740Y-58187900D02*
X28526740Y-59867900D01*
X43804600Y-54805580D02*
X42638980Y-54805580D01*
D36*
X44291940Y-56514420D02*
X44692820Y-56514420D01*
D37*
X43159680Y-64297560D02*
X43159680Y-64460120D01*
D36*
X49405595Y-64054513D02*
X49492820Y-64141738D01*
D37*
X42638980Y-54805580D02*
X42395140Y-55049420D01*
X40236140Y-64493140D02*
X40215820Y-64472820D01*
X43892820Y-54893800D02*
X43804600Y-54805580D01*
D39*
X49727135Y-66282855D02*
X49819166Y-66374886D01*
D37*
X55786020Y-61168460D02*
X55735220Y-61219260D01*
D36*
X47894240Y-67457320D02*
X43538334Y-67457320D01*
D37*
X28974240Y-61490400D02*
X28526740Y-61937900D01*
D39*
X49492820Y-65014420D02*
X49492820Y-65717169D01*
D36*
X42547540Y-66880740D02*
X42547540Y-64493140D01*
D37*
X49492820Y-65014420D02*
X49507480Y-65014420D01*
D41*
X43159680Y-64297560D02*
X42964100Y-64493140D01*
D37*
X28526740Y-59867900D02*
X28526740Y-61937900D01*
D39*
X50384851Y-66609200D02*
X50985420Y-66609200D01*
D41*
X43695620Y-63761620D02*
X43159680Y-64297560D01*
D36*
X43892820Y-56514420D02*
X44291940Y-56514420D01*
D37*
X31186740Y-61130400D02*
X30826740Y-61490400D01*
X30826740Y-61490400D02*
X28974240Y-61490400D01*
X31186740Y-60327900D02*
X31186740Y-61130400D01*
X28526740Y-56117900D02*
X28526740Y-58187900D01*
D36*
X42964100Y-64493140D02*
X42547540Y-64493140D01*
D37*
X29377601Y-56565400D02*
X28930101Y-56117900D01*
%TO.N,Net-(D6-Pad26)*%
X48692820Y-55769927D02*
X48692820Y-56514420D01*
X47730000Y-55090000D02*
X48012893Y-55090000D01*
X48366447Y-55236447D02*
X48546374Y-55416374D01*
X48012893Y-55090005D02*
G75*
G02*
X48366447Y-55236447I7J-499995D01*
G01*
X48692795Y-55769927D02*
G75*
G03*
X48546374Y-55416374I-499995J27D01*
G01*
%TO.N,Net-(D6-Pad21)*%
X54448783Y-60419551D02*
X54481282Y-60433957D01*
X54658005Y-60552039D02*
X54683752Y-60576552D01*
X54381862Y-60395606D02*
X54415617Y-60406757D01*
X54867269Y-60857218D02*
X54860948Y-60834377D01*
X54513035Y-60449940D02*
X54543966Y-60467462D01*
X54631088Y-60528820D02*
X54658005Y-60552039D01*
X54207157Y-60365292D02*
X54242610Y-60367907D01*
X54881740Y-60974540D02*
X54881158Y-60950847D01*
X54312916Y-60378336D02*
X54347601Y-60386125D01*
X54415617Y-60406757D02*
X54448783Y-60419551D01*
X54171620Y-60364420D02*
X50942820Y-60364420D01*
X54786719Y-60686910D02*
X54772139Y-60668227D01*
X54879414Y-60927213D02*
X54876513Y-60903692D01*
X54824726Y-60746928D02*
X54813045Y-60726308D01*
X54171620Y-60364420D02*
X54207157Y-60365292D01*
X54242610Y-60367907D02*
X54277891Y-60372259D01*
X54872462Y-60880341D02*
X54867269Y-60857218D01*
X54853514Y-60811874D02*
X54844985Y-60789763D01*
X54603063Y-60506949D02*
X54631088Y-60528820D01*
X54740318Y-60633118D02*
X54683752Y-60576552D01*
X54756659Y-60650281D02*
X54740318Y-60633118D01*
X54800366Y-60706286D02*
X54786719Y-60686910D01*
X54481282Y-60433957D02*
X54513035Y-60449940D01*
X54876513Y-60903692D02*
X54872462Y-60880341D01*
X54881158Y-60950847D02*
X54879414Y-60927213D01*
X54573999Y-60486480D02*
X54603063Y-60506949D01*
X54835381Y-60768097D02*
X54824726Y-60746928D01*
X54277891Y-60372259D02*
X54312916Y-60378336D01*
X54881740Y-60974540D02*
X54881740Y-61270060D01*
X54772139Y-60668227D02*
X54756659Y-60650281D01*
X54813045Y-60726308D02*
X54800366Y-60706286D01*
X54844985Y-60789763D02*
X54835381Y-60768097D01*
X54347601Y-60386125D02*
X54381862Y-60395606D01*
X54543966Y-60467462D02*
X54573999Y-60486480D01*
X54860948Y-60834377D02*
X54853514Y-60811874D01*
%TO.N,Buzer*%
X43892820Y-65014420D02*
X43892820Y-66241580D01*
X43892820Y-66241580D02*
X43891200Y-66243200D01*
%TO.N,bl*%
X47076360Y-66243200D02*
X47076360Y-65030880D01*
X47076360Y-65030880D02*
X47092820Y-65014420D01*
%TO.N,com*%
X46107868Y-66042132D02*
X46204952Y-65945048D01*
X46020000Y-66440000D02*
X46020000Y-66254264D01*
X46292820Y-65732916D02*
X46292820Y-65014420D01*
X46019975Y-66254264D02*
G75*
G02*
X46107868Y-66042132I300025J-36D01*
G01*
X46292825Y-65732916D02*
G75*
G02*
X46204952Y-65945048I-300025J16D01*
G01*
D36*
%TO.N,+2V8*%
X42442820Y-57964420D02*
X43147233Y-57964420D01*
X43500787Y-58110867D02*
X43886120Y-58496200D01*
D37*
X51102260Y-64734200D02*
X51102260Y-64734200D01*
D42*
X47434053Y-61970626D02*
X47382502Y-61941423D01*
D39*
X49414668Y-62889368D02*
X49943274Y-63417974D01*
D37*
X43881040Y-58496200D02*
X43886120Y-58496200D01*
D42*
X47767584Y-62089965D02*
X47709776Y-62076984D01*
X47284006Y-61875610D02*
X47237298Y-61839159D01*
D37*
X48097440Y-62138560D02*
X48371760Y-62138560D01*
X51102260Y-63723860D02*
X50942820Y-63564420D01*
D42*
X47884762Y-62107347D02*
X47825960Y-62100094D01*
X47596417Y-62042597D02*
X47541139Y-62021274D01*
D39*
X50296827Y-63564420D02*
X50942820Y-63564420D01*
D42*
X47825960Y-62100094D02*
X47767584Y-62089965D01*
X47192435Y-61800460D02*
X47149526Y-61759606D01*
X47943850Y-62111705D02*
X47884762Y-62107347D01*
D37*
X50942820Y-64691600D02*
X50985420Y-64734200D01*
D42*
X47709776Y-62076984D02*
X47652675Y-62061182D01*
X47382502Y-61941423D02*
X47332446Y-61909725D01*
D36*
X50942820Y-63564420D02*
X50942820Y-64691600D01*
D42*
X47541139Y-62021274D02*
X47486974Y-61997264D01*
X47149526Y-61759606D02*
X43886120Y-58496200D01*
X47652675Y-62061182D02*
X47596417Y-62042597D01*
X47486974Y-61997264D02*
X47434053Y-61970626D01*
D39*
X49133564Y-62801500D02*
X49202536Y-62801500D01*
X48346360Y-62138560D02*
X48921432Y-62713632D01*
D42*
X48003080Y-62113160D02*
X47943850Y-62111705D01*
D37*
X48097440Y-62138560D02*
X48346360Y-62138560D01*
D42*
X47332446Y-61909725D02*
X47284006Y-61875610D01*
X47237298Y-61839159D02*
X47192435Y-61800460D01*
D37*
%TO.N,DI*%
X49736024Y-62141864D02*
X49744553Y-62163975D01*
X49789172Y-62247453D02*
X49802819Y-62266829D01*
X49776493Y-62227430D02*
X49789172Y-62247453D01*
X50445693Y-62762094D02*
X50422172Y-62759193D01*
X50186707Y-62654819D02*
X50168761Y-62639339D01*
X50422172Y-62759193D02*
X50398821Y-62755142D01*
X49754157Y-62185641D02*
X49764812Y-62206810D01*
X50375698Y-62749949D02*
X50352857Y-62743628D01*
X49708380Y-62002891D02*
X49710124Y-62026526D01*
X49707800Y-61979200D02*
X49708380Y-62002891D01*
X50493020Y-62764420D02*
X50942820Y-62764420D01*
X49728590Y-62119361D02*
X49736024Y-62141864D01*
X50205390Y-62669399D02*
X50186707Y-62654819D01*
X49713025Y-62050047D02*
X49717076Y-62073397D01*
X50244788Y-62695725D02*
X50224766Y-62683046D01*
X50469327Y-62763838D02*
X50445693Y-62762094D01*
X49710124Y-62026526D02*
X49713025Y-62050047D01*
X49764812Y-62206810D02*
X49776493Y-62227430D01*
X50308243Y-62727665D02*
X50286577Y-62718061D01*
X50265408Y-62707406D02*
X50244788Y-62695725D01*
X49707800Y-61979200D02*
X49707800Y-61696600D01*
X50286577Y-62718061D02*
X50265408Y-62707406D01*
X50493020Y-62764420D02*
X50469327Y-62763838D01*
X50352857Y-62743628D02*
X50330354Y-62736194D01*
X50151598Y-62622998D02*
X49849221Y-62320621D01*
X49832879Y-62303457D02*
X49849221Y-62320621D01*
X49817399Y-62285512D02*
X49832879Y-62303457D01*
X50398821Y-62755142D02*
X50375698Y-62749949D01*
X49802819Y-62266829D02*
X49817399Y-62285512D01*
X50330354Y-62736194D02*
X50308243Y-62727665D01*
X49722269Y-62096521D02*
X49728590Y-62119361D01*
X50168761Y-62639339D02*
X50151598Y-62622998D01*
X50224766Y-62683046D02*
X50205390Y-62669399D01*
X49717076Y-62073397D02*
X49722269Y-62096521D01*
X49744553Y-62163975D02*
X49754157Y-62185641D01*
%TD*%
%TA.AperFunction,Conductor*%
%TO.N,GND*%
G36*
X48113725Y-66346241D02*
G01*
X48160727Y-66399452D01*
X48165930Y-66412381D01*
X48180421Y-66455069D01*
X48182245Y-66458768D01*
X48182246Y-66458770D01*
X48211870Y-66518839D01*
X48275132Y-66647118D01*
X48277420Y-66650542D01*
X48277424Y-66650549D01*
X48340391Y-66744781D01*
X48394101Y-66825161D01*
X48429978Y-66866070D01*
X48471877Y-66913845D01*
X48476702Y-66919694D01*
X48477139Y-66920257D01*
X48481171Y-66927075D01*
X48497016Y-66942920D01*
X48502654Y-66948939D01*
X48507094Y-66954002D01*
X48513119Y-66961422D01*
X48522650Y-66974115D01*
X48525128Y-66977415D01*
X48528008Y-66980356D01*
X48528014Y-66980363D01*
X48531590Y-66984014D01*
X48534479Y-66986964D01*
X48558981Y-67006175D01*
X48570332Y-67016236D01*
X48767881Y-67213785D01*
X48801907Y-67276097D01*
X48796842Y-67346912D01*
X48754295Y-67403748D01*
X48687775Y-67428559D01*
X48678786Y-67428880D01*
X47540433Y-67428880D01*
X47472312Y-67408878D01*
X47425819Y-67355222D01*
X47415715Y-67284948D01*
X47445209Y-67220368D01*
X47476294Y-67194426D01*
X47497333Y-67181984D01*
X47548564Y-67151686D01*
X47565720Y-67141540D01*
X47572541Y-67137506D01*
X47687506Y-67022541D01*
X47697185Y-67006175D01*
X47766234Y-66889419D01*
X47766234Y-66889418D01*
X47770269Y-66882596D01*
X47775567Y-66864362D01*
X47810308Y-66744781D01*
X47815629Y-66726466D01*
X47816135Y-66720047D01*
X47818307Y-66692444D01*
X47818307Y-66692438D01*
X47818500Y-66689989D01*
X47818500Y-66629980D01*
X47838205Y-66562872D01*
X47839040Y-66561944D01*
X47881641Y-66488158D01*
X47931223Y-66402279D01*
X47931224Y-66402278D01*
X47934527Y-66396556D01*
X47935398Y-66397059D01*
X47977490Y-66347538D01*
X48045417Y-66326889D01*
X48113725Y-66346241D01*
G37*
%TD.AperFunction*%
%TA.AperFunction,Conductor*%
G36*
X36823621Y-53403682D02*
G01*
X36870114Y-53457338D01*
X36881500Y-53509680D01*
X36881501Y-53913746D01*
X36884427Y-53950937D01*
X36930668Y-54110100D01*
X36934703Y-54116923D01*
X37015038Y-54252763D01*
X37013108Y-54253905D01*
X37034881Y-54309357D01*
X37020982Y-54378980D01*
X36971648Y-54430035D01*
X36909375Y-54446500D01*
X36549632Y-54446501D01*
X36501254Y-54446501D01*
X36464063Y-54449427D01*
X36407700Y-54465802D01*
X36312513Y-54493456D01*
X36312511Y-54493457D01*
X36304900Y-54495668D01*
X36298077Y-54499703D01*
X36189752Y-54563766D01*
X36162237Y-54580038D01*
X36122680Y-54619595D01*
X36060368Y-54653621D01*
X36033585Y-54656500D01*
X34940694Y-54656500D01*
X34876555Y-54638954D01*
X34749419Y-54563766D01*
X34749418Y-54563766D01*
X34742596Y-54559731D01*
X34734985Y-54557520D01*
X34734983Y-54557519D01*
X34644250Y-54531159D01*
X34586466Y-54514371D01*
X34580059Y-54513867D01*
X34580055Y-54513866D01*
X34552444Y-54511693D01*
X34552438Y-54511693D01*
X34549989Y-54511500D01*
X34300152Y-54511500D01*
X34050012Y-54511501D01*
X34013534Y-54514371D01*
X33925446Y-54539963D01*
X33865017Y-54557519D01*
X33865015Y-54557520D01*
X33857404Y-54559731D01*
X33850582Y-54563766D01*
X33850581Y-54563766D01*
X33813587Y-54585644D01*
X33717459Y-54642494D01*
X33602494Y-54757459D01*
X33598460Y-54764280D01*
X33545181Y-54854371D01*
X33519731Y-54897404D01*
X33474371Y-55053534D01*
X33471500Y-55090011D01*
X33471476Y-55090009D01*
X33448951Y-55156884D01*
X33393511Y-55201234D01*
X33332869Y-55209997D01*
X33301935Y-55206828D01*
X33301932Y-55206828D01*
X33298732Y-55206500D01*
X32701268Y-55206500D01*
X32698022Y-55206837D01*
X32698018Y-55206837D01*
X32667564Y-55209997D01*
X32598981Y-55217113D01*
X32592440Y-55219295D01*
X32592441Y-55219295D01*
X32443676Y-55268927D01*
X32443674Y-55268928D01*
X32436732Y-55271244D01*
X32291287Y-55361248D01*
X32286114Y-55366430D01*
X32241069Y-55411554D01*
X32170448Y-55482298D01*
X32166608Y-55488528D01*
X32166607Y-55488529D01*
X32119899Y-55564304D01*
X32080698Y-55627899D01*
X32026851Y-55790243D01*
X32026151Y-55797080D01*
X32026150Y-55797082D01*
X32025431Y-55804104D01*
X32016500Y-55891268D01*
X32016500Y-56438732D01*
X32027113Y-56541019D01*
X32050993Y-56612594D01*
X32074660Y-56683533D01*
X32077244Y-56754482D01*
X32041061Y-56815566D01*
X32020969Y-56830842D01*
X31974574Y-56859273D01*
X31874074Y-56945106D01*
X31867921Y-56950035D01*
X31842449Y-56969160D01*
X31775964Y-56994066D01*
X31766796Y-56994400D01*
X30448606Y-56994400D01*
X30386424Y-57001155D01*
X30250035Y-57052285D01*
X30133479Y-57139639D01*
X30046125Y-57256195D01*
X29994995Y-57392584D01*
X29988240Y-57454766D01*
X29988240Y-58001034D01*
X29988609Y-58004429D01*
X29988609Y-58004433D01*
X29992396Y-58039293D01*
X29992396Y-58066506D01*
X29988240Y-58104766D01*
X29988240Y-58651034D01*
X29988609Y-58654429D01*
X29988609Y-58654433D01*
X29992396Y-58689293D01*
X29992396Y-58716506D01*
X29988240Y-58754766D01*
X29988240Y-59301034D01*
X29988609Y-59304429D01*
X29988609Y-59304433D01*
X29992396Y-59339293D01*
X29992396Y-59366506D01*
X29988240Y-59404766D01*
X29988240Y-59951034D01*
X29994995Y-60013216D01*
X30046125Y-60149605D01*
X30133479Y-60266161D01*
X30250035Y-60353515D01*
X30386424Y-60404645D01*
X30448606Y-60411400D01*
X31515500Y-60411400D01*
X31583621Y-60431402D01*
X31630114Y-60485058D01*
X31641500Y-60537400D01*
X31641500Y-60988889D01*
X31640243Y-61006644D01*
X31636987Y-61029520D01*
X31636847Y-61042884D01*
X31637342Y-61046974D01*
X31637342Y-61046975D01*
X31639811Y-61067375D01*
X31640335Y-61072618D01*
X31651991Y-61220752D01*
X31665942Y-61278864D01*
X31688511Y-61372877D01*
X31693639Y-61394240D01*
X31695531Y-61398807D01*
X31695532Y-61398811D01*
X31756380Y-61545713D01*
X31761915Y-61559077D01*
X31764501Y-61563297D01*
X31764504Y-61563303D01*
X31852891Y-61707540D01*
X31865886Y-61740114D01*
X31866458Y-61739928D01*
X31925473Y-61921556D01*
X31928776Y-61927278D01*
X31928777Y-61927279D01*
X31962686Y-61986010D01*
X32020960Y-62086944D01*
X32148747Y-62228866D01*
X32303248Y-62341118D01*
X32309276Y-62343802D01*
X32309278Y-62343803D01*
X32471681Y-62416109D01*
X32477712Y-62418794D01*
X32565124Y-62437374D01*
X32658056Y-62457128D01*
X32658061Y-62457128D01*
X32664513Y-62458500D01*
X32855487Y-62458500D01*
X32861939Y-62457128D01*
X32861944Y-62457128D01*
X32954876Y-62437374D01*
X33042288Y-62418794D01*
X33048319Y-62416109D01*
X33210722Y-62343803D01*
X33210724Y-62343802D01*
X33216752Y-62341118D01*
X33371253Y-62228866D01*
X33499040Y-62086944D01*
X33557314Y-61986010D01*
X33591223Y-61927279D01*
X33591224Y-61927278D01*
X33594527Y-61921556D01*
X33653542Y-61739928D01*
X33673504Y-61550000D01*
X33656628Y-61389430D01*
X33654232Y-61366635D01*
X33654232Y-61366633D01*
X33653542Y-61360072D01*
X33635763Y-61305354D01*
X33633735Y-61234387D01*
X33670398Y-61173589D01*
X33720443Y-61145421D01*
X33764983Y-61132481D01*
X33764985Y-61132480D01*
X33772596Y-61130269D01*
X33871838Y-61071578D01*
X33905720Y-61051540D01*
X33912541Y-61047506D01*
X34027506Y-60932541D01*
X34051002Y-60892811D01*
X34106234Y-60799419D01*
X34106234Y-60799418D01*
X34110269Y-60792596D01*
X34113573Y-60781226D01*
X34153834Y-60642644D01*
X34155629Y-60636466D01*
X34158500Y-60599989D01*
X34158499Y-60100012D01*
X34156639Y-60076372D01*
X34171236Y-60006892D01*
X34218109Y-59958038D01*
X34291807Y-59914453D01*
X34409453Y-59796807D01*
X34411706Y-59792998D01*
X34467996Y-59752345D01*
X34538888Y-59748494D01*
X34600609Y-59783582D01*
X34607276Y-59791276D01*
X34610547Y-59796807D01*
X34728193Y-59914453D01*
X34735017Y-59918489D01*
X34735020Y-59918491D01*
X34801886Y-59958035D01*
X34871399Y-59999145D01*
X34879010Y-60001356D01*
X34879012Y-60001357D01*
X34918700Y-60012887D01*
X35031169Y-60045562D01*
X35037574Y-60046066D01*
X35037579Y-60046067D01*
X35066042Y-60048307D01*
X35066050Y-60048307D01*
X35068498Y-60048500D01*
X36010827Y-60048500D01*
X36078948Y-60068502D01*
X36125441Y-60122158D01*
X36135545Y-60192432D01*
X36106051Y-60257012D01*
X36076662Y-60281932D01*
X36038796Y-60305136D01*
X36035036Y-60308348D01*
X36035035Y-60308348D01*
X35984407Y-60351587D01*
X35973644Y-60359278D01*
X35969014Y-60362870D01*
X35962192Y-60366904D01*
X35943789Y-60385307D01*
X35930347Y-60396972D01*
X35920128Y-60404645D01*
X35911866Y-60410848D01*
X35902317Y-60420199D01*
X35899768Y-60423449D01*
X35899765Y-60423453D01*
X35883105Y-60444700D01*
X35873048Y-60456047D01*
X35786673Y-60542422D01*
X35773233Y-60554086D01*
X35758047Y-60565488D01*
X35758043Y-60565492D01*
X35754750Y-60567964D01*
X35751809Y-60570844D01*
X35751802Y-60570850D01*
X35748152Y-60574425D01*
X35745201Y-60577315D01*
X35742653Y-60580565D01*
X35729975Y-60596734D01*
X35726632Y-60600819D01*
X35649416Y-60691229D01*
X35630141Y-60713797D01*
X35607458Y-60750813D01*
X35539509Y-60861698D01*
X35539506Y-60861704D01*
X35536920Y-60865924D01*
X35535025Y-60870499D01*
X35535023Y-60870503D01*
X35470541Y-61026182D01*
X35468645Y-61030760D01*
X35467489Y-61035574D01*
X35467489Y-61035575D01*
X35433867Y-61175629D01*
X35426996Y-61204248D01*
X35424868Y-61231300D01*
X35421391Y-61275485D01*
X35419196Y-61288674D01*
X35418473Y-61294393D01*
X35416500Y-61302077D01*
X35416500Y-61328121D01*
X35415243Y-61345871D01*
X35411987Y-61368752D01*
X35411847Y-61382116D01*
X35412344Y-61386221D01*
X35415587Y-61413018D01*
X35416500Y-61428157D01*
X35416500Y-62238889D01*
X35415243Y-62256644D01*
X35411987Y-62279520D01*
X35411847Y-62292884D01*
X35412342Y-62296972D01*
X35412342Y-62296979D01*
X35414827Y-62317515D01*
X35415351Y-62322765D01*
X35426607Y-62465814D01*
X35426608Y-62465820D01*
X35426996Y-62470751D01*
X35468644Y-62644238D01*
X35536919Y-62809075D01*
X35630140Y-62961201D01*
X35647361Y-62981365D01*
X35676571Y-63015567D01*
X35684322Y-63026412D01*
X35687867Y-63030982D01*
X35691904Y-63037808D01*
X35710311Y-63056215D01*
X35721973Y-63069653D01*
X35735848Y-63088134D01*
X35745199Y-63097683D01*
X35769711Y-63116903D01*
X35781051Y-63126955D01*
X35892423Y-63238327D01*
X35904087Y-63251768D01*
X35917964Y-63270250D01*
X35927315Y-63279799D01*
X35945842Y-63294326D01*
X35946649Y-63294959D01*
X35950729Y-63298299D01*
X36023483Y-63360435D01*
X36063794Y-63394863D01*
X36094211Y-63413502D01*
X36211695Y-63485495D01*
X36211701Y-63485498D01*
X36215921Y-63488084D01*
X36220496Y-63489979D01*
X36220500Y-63489981D01*
X36376181Y-63554464D01*
X36376183Y-63554465D01*
X36380759Y-63556360D01*
X36554248Y-63598009D01*
X36625520Y-63603618D01*
X36638636Y-63605801D01*
X36644400Y-63606529D01*
X36652077Y-63608500D01*
X36678120Y-63608500D01*
X36695873Y-63609757D01*
X36714668Y-63612432D01*
X36714671Y-63612432D01*
X36718752Y-63613013D01*
X36724967Y-63613078D01*
X36727982Y-63613110D01*
X36727987Y-63613110D01*
X36732116Y-63613153D01*
X36763018Y-63609413D01*
X36778157Y-63608500D01*
X37673889Y-63608500D01*
X37691645Y-63609757D01*
X37714520Y-63613013D01*
X37721432Y-63613085D01*
X37723764Y-63613110D01*
X37723766Y-63613110D01*
X37727884Y-63613153D01*
X37731992Y-63612656D01*
X37734632Y-63612336D01*
X37752391Y-63610187D01*
X37757618Y-63609665D01*
X37872390Y-63600634D01*
X37941869Y-63615231D01*
X37992428Y-63665074D01*
X38002105Y-63687308D01*
X38055473Y-63851556D01*
X38058776Y-63857278D01*
X38058777Y-63857279D01*
X38075312Y-63885918D01*
X38150960Y-64016944D01*
X38155378Y-64021851D01*
X38155379Y-64021852D01*
X38212905Y-64085741D01*
X38278747Y-64158866D01*
X38351191Y-64211500D01*
X38424862Y-64265025D01*
X38433248Y-64271118D01*
X38439276Y-64273802D01*
X38439278Y-64273803D01*
X38601681Y-64346109D01*
X38607712Y-64348794D01*
X38689436Y-64366165D01*
X38788056Y-64387128D01*
X38788061Y-64387128D01*
X38794513Y-64388500D01*
X38985487Y-64388500D01*
X38991939Y-64387128D01*
X38991944Y-64387128D01*
X39090564Y-64366165D01*
X39172288Y-64348794D01*
X39178319Y-64346109D01*
X39340722Y-64273803D01*
X39340724Y-64273802D01*
X39346752Y-64271118D01*
X39355139Y-64265025D01*
X39428809Y-64211500D01*
X39501253Y-64158866D01*
X39567095Y-64085741D01*
X39624621Y-64021852D01*
X39624622Y-64021851D01*
X39629040Y-64016944D01*
X39704688Y-63885918D01*
X39721223Y-63857279D01*
X39721224Y-63857278D01*
X39724527Y-63851556D01*
X39783542Y-63669928D01*
X39784232Y-63663365D01*
X39798074Y-63531667D01*
X39825087Y-63466010D01*
X39875166Y-63428429D01*
X39914024Y-63412334D01*
X39945795Y-63403822D01*
X39988796Y-63398162D01*
X40006556Y-63397091D01*
X40009995Y-63397127D01*
X40017522Y-63398118D01*
X40025068Y-63397285D01*
X40025072Y-63397285D01*
X40052462Y-63394261D01*
X40066287Y-63393500D01*
X41208320Y-63393500D01*
X41276441Y-63413502D01*
X41322934Y-63467158D01*
X41334320Y-63519500D01*
X41334320Y-63912554D01*
X41341075Y-63974736D01*
X41392205Y-64111125D01*
X41479559Y-64227681D01*
X41596115Y-64315035D01*
X41732504Y-64366165D01*
X41794686Y-64372920D01*
X42958320Y-64372920D01*
X43026441Y-64392922D01*
X43072934Y-64446578D01*
X43084320Y-64498920D01*
X43084320Y-65662554D01*
X43091075Y-65724736D01*
X43093849Y-65732135D01*
X43094908Y-65736589D01*
X43091208Y-65807489D01*
X43081446Y-65828736D01*
X43056673Y-65871644D01*
X42997658Y-66053272D01*
X42996968Y-66059833D01*
X42996968Y-66059835D01*
X42983759Y-66185514D01*
X42977696Y-66243200D01*
X42978386Y-66249765D01*
X42995965Y-66417017D01*
X42997658Y-66433128D01*
X43056673Y-66614756D01*
X43059976Y-66620478D01*
X43059977Y-66620479D01*
X43083147Y-66660611D01*
X43152160Y-66780144D01*
X43156578Y-66785051D01*
X43156579Y-66785052D01*
X43272545Y-66913845D01*
X43279947Y-66922066D01*
X43334116Y-66961422D01*
X43402160Y-67010859D01*
X43434448Y-67034318D01*
X43440476Y-67037002D01*
X43440478Y-67037003D01*
X43602881Y-67109309D01*
X43608912Y-67111994D01*
X43669456Y-67124863D01*
X43789256Y-67150328D01*
X43789261Y-67150328D01*
X43795713Y-67151700D01*
X43986687Y-67151700D01*
X43993139Y-67150328D01*
X43993144Y-67150328D01*
X44112944Y-67124863D01*
X44173488Y-67111994D01*
X44179519Y-67109309D01*
X44341922Y-67037003D01*
X44341924Y-67037002D01*
X44347952Y-67034318D01*
X44380241Y-67010859D01*
X44448284Y-66961422D01*
X44502453Y-66922066D01*
X44509855Y-66913845D01*
X44625821Y-66785052D01*
X44625822Y-66785051D01*
X44630240Y-66780144D01*
X44699253Y-66660611D01*
X44722423Y-66620479D01*
X44722424Y-66620478D01*
X44725727Y-66614756D01*
X44784742Y-66433128D01*
X44786436Y-66417017D01*
X44804014Y-66249765D01*
X44804704Y-66243200D01*
X44805664Y-66243301D01*
X44824016Y-66180799D01*
X44877672Y-66134306D01*
X44930014Y-66122920D01*
X45040954Y-66122920D01*
X45044349Y-66122551D01*
X45044353Y-66122551D01*
X45070351Y-66119727D01*
X45079214Y-66118764D01*
X45106426Y-66118764D01*
X45124809Y-66120761D01*
X45129109Y-66121228D01*
X45194671Y-66148471D01*
X45235096Y-66206834D01*
X45241500Y-66246491D01*
X45241501Y-66471326D01*
X45241501Y-66689988D01*
X45244371Y-66726466D01*
X45261392Y-66785052D01*
X45284434Y-66864362D01*
X45289731Y-66882596D01*
X45293766Y-66889418D01*
X45293766Y-66889419D01*
X45362815Y-67006175D01*
X45372494Y-67022541D01*
X45487459Y-67137506D01*
X45494280Y-67141540D01*
X45511436Y-67151686D01*
X45562668Y-67181984D01*
X45583706Y-67194426D01*
X45632159Y-67246319D01*
X45644864Y-67316170D01*
X45617789Y-67381801D01*
X45559529Y-67422375D01*
X45519567Y-67428880D01*
X28084280Y-67428880D01*
X28016159Y-67408878D01*
X27969666Y-67355222D01*
X27958280Y-67302880D01*
X27958280Y-65120000D01*
X29176496Y-65120000D01*
X29177186Y-65126565D01*
X29194990Y-65295957D01*
X29196458Y-65309928D01*
X29255473Y-65491556D01*
X29258776Y-65497278D01*
X29258777Y-65497279D01*
X29285046Y-65542778D01*
X29350960Y-65656944D01*
X29355378Y-65661851D01*
X29355379Y-65661852D01*
X29459671Y-65777680D01*
X29478747Y-65798866D01*
X29633248Y-65911118D01*
X29639276Y-65913802D01*
X29639278Y-65913803D01*
X29799799Y-65985271D01*
X29807712Y-65988794D01*
X29901112Y-66008647D01*
X29988056Y-66027128D01*
X29988061Y-66027128D01*
X29994513Y-66028500D01*
X30113862Y-66028500D01*
X30183863Y-66049735D01*
X30222273Y-66075400D01*
X30222289Y-66075409D01*
X30225713Y-66077697D01*
X30229406Y-66079518D01*
X30229411Y-66079521D01*
X30379499Y-66153534D01*
X30417763Y-66172403D01*
X30620532Y-66241231D01*
X30624574Y-66242035D01*
X30624578Y-66242036D01*
X30826506Y-66282199D01*
X30826511Y-66282200D01*
X30830550Y-66283003D01*
X30834660Y-66283272D01*
X30834665Y-66283273D01*
X30948246Y-66290716D01*
X30955796Y-66291439D01*
X30956508Y-66291529D01*
X30964184Y-66293500D01*
X30986610Y-66293500D01*
X30994827Y-66293768D01*
X31001570Y-66294210D01*
X31011050Y-66295194D01*
X31024152Y-66297059D01*
X31026775Y-66297432D01*
X31026777Y-66297432D01*
X31030859Y-66298013D01*
X31037192Y-66298079D01*
X31040089Y-66298110D01*
X31040094Y-66298110D01*
X31044223Y-66298153D01*
X31075125Y-66294413D01*
X31090264Y-66293500D01*
X32155924Y-66293500D01*
X32224045Y-66313502D01*
X32268190Y-66362296D01*
X32288234Y-66401634D01*
X32344956Y-66512957D01*
X32347953Y-66518839D01*
X32352106Y-66523968D01*
X32352109Y-66523972D01*
X32437953Y-66629980D01*
X32464830Y-66663170D01*
X32469961Y-66667325D01*
X32604028Y-66775891D01*
X32604032Y-66775894D01*
X32609161Y-66780047D01*
X32774638Y-66864362D01*
X32781011Y-66866070D01*
X32781012Y-66866070D01*
X32948452Y-66910936D01*
X32948456Y-66910937D01*
X32954029Y-66912430D01*
X32959785Y-66912883D01*
X33028700Y-66918307D01*
X33028709Y-66918307D01*
X33031157Y-66918500D01*
X33479818Y-66918500D01*
X33928842Y-66918499D01*
X33975674Y-66914814D01*
X34000217Y-66912883D01*
X34000220Y-66912883D01*
X34005971Y-66912430D01*
X34185362Y-66864362D01*
X34350839Y-66780047D01*
X34355968Y-66775894D01*
X34355972Y-66775891D01*
X34490039Y-66667325D01*
X34495170Y-66663170D01*
X34522047Y-66629980D01*
X34607891Y-66523972D01*
X34607894Y-66523968D01*
X34612047Y-66518839D01*
X34696362Y-66353362D01*
X34701763Y-66333206D01*
X34742936Y-66179548D01*
X34742937Y-66179544D01*
X34744430Y-66173971D01*
X34748891Y-66117286D01*
X34750307Y-66099300D01*
X34750307Y-66099291D01*
X34750500Y-66096843D01*
X34750499Y-65223158D01*
X34750499Y-65223157D01*
X36009500Y-65223157D01*
X36009501Y-66096842D01*
X36011110Y-66117286D01*
X36013824Y-66151776D01*
X36015570Y-66173971D01*
X36035653Y-66248920D01*
X36056545Y-66326889D01*
X36063638Y-66353362D01*
X36147953Y-66518839D01*
X36152106Y-66523968D01*
X36152109Y-66523972D01*
X36237953Y-66629980D01*
X36264830Y-66663170D01*
X36269961Y-66667325D01*
X36404028Y-66775891D01*
X36404032Y-66775894D01*
X36409161Y-66780047D01*
X36574638Y-66864362D01*
X36581011Y-66866070D01*
X36581012Y-66866070D01*
X36748452Y-66910936D01*
X36748456Y-66910937D01*
X36754029Y-66912430D01*
X36759785Y-66912883D01*
X36828700Y-66918307D01*
X36828709Y-66918307D01*
X36831157Y-66918500D01*
X37279818Y-66918500D01*
X37728842Y-66918499D01*
X37775674Y-66914814D01*
X37800217Y-66912883D01*
X37800220Y-66912883D01*
X37805971Y-66912430D01*
X37985362Y-66864362D01*
X38150839Y-66780047D01*
X38155968Y-66775894D01*
X38155972Y-66775891D01*
X38290039Y-66667325D01*
X38295170Y-66663170D01*
X38322047Y-66629980D01*
X38407891Y-66523972D01*
X38407894Y-66523968D01*
X38412047Y-66518839D01*
X38496362Y-66353362D01*
X38498095Y-66346894D01*
X38498124Y-66346846D01*
X38500438Y-66340819D01*
X38501540Y-66341242D01*
X38535042Y-66286271D01*
X38598901Y-66255246D01*
X38619803Y-66253500D01*
X39341800Y-66253500D01*
X39409921Y-66273502D01*
X39429147Y-66289843D01*
X39429420Y-66289540D01*
X39434332Y-66293963D01*
X39438747Y-66298866D01*
X39450130Y-66307136D01*
X39579764Y-66401321D01*
X39593248Y-66411118D01*
X39599276Y-66413802D01*
X39599278Y-66413803D01*
X39728478Y-66471326D01*
X39767712Y-66488794D01*
X39861112Y-66508647D01*
X39948056Y-66527128D01*
X39948061Y-66527128D01*
X39954513Y-66528500D01*
X40145487Y-66528500D01*
X40151939Y-66527128D01*
X40151944Y-66527128D01*
X40238888Y-66508647D01*
X40332288Y-66488794D01*
X40371522Y-66471326D01*
X40500722Y-66413803D01*
X40500724Y-66413802D01*
X40506752Y-66411118D01*
X40520237Y-66401321D01*
X40595019Y-66346988D01*
X40661253Y-66298866D01*
X40684091Y-66273502D01*
X40784621Y-66161852D01*
X40784622Y-66161851D01*
X40789040Y-66156944D01*
X40863197Y-66028500D01*
X40881223Y-65997279D01*
X40881224Y-65997278D01*
X40884527Y-65991556D01*
X40943542Y-65809928D01*
X40946932Y-65777680D01*
X40962814Y-65626565D01*
X40963504Y-65620000D01*
X40949191Y-65483822D01*
X40944232Y-65436635D01*
X40944232Y-65436633D01*
X40943542Y-65430072D01*
X40884527Y-65248444D01*
X40789040Y-65083056D01*
X40735625Y-65023732D01*
X40665675Y-64946045D01*
X40665674Y-64946044D01*
X40661253Y-64941134D01*
X40506752Y-64828882D01*
X40500724Y-64826198D01*
X40500722Y-64826197D01*
X40338319Y-64753891D01*
X40338318Y-64753891D01*
X40332288Y-64751206D01*
X40225437Y-64728494D01*
X40151944Y-64712872D01*
X40151939Y-64712872D01*
X40145487Y-64711500D01*
X39954513Y-64711500D01*
X39948061Y-64712872D01*
X39948056Y-64712872D01*
X39874563Y-64728494D01*
X39767712Y-64751206D01*
X39761682Y-64753891D01*
X39761681Y-64753891D01*
X39599278Y-64826197D01*
X39599276Y-64826198D01*
X39593248Y-64828882D01*
X39587907Y-64832762D01*
X39587906Y-64832763D01*
X39482388Y-64909427D01*
X39438747Y-64941134D01*
X39434332Y-64946037D01*
X39429420Y-64950460D01*
X39428295Y-64949211D01*
X39374986Y-64982051D01*
X39341800Y-64986500D01*
X38583695Y-64986500D01*
X38515574Y-64966498D01*
X38471428Y-64917703D01*
X38415044Y-64807042D01*
X38415042Y-64807039D01*
X38412047Y-64801161D01*
X38407894Y-64796032D01*
X38407891Y-64796028D01*
X38299325Y-64661961D01*
X38295170Y-64656830D01*
X38162587Y-64549466D01*
X38155972Y-64544109D01*
X38155968Y-64544106D01*
X38150839Y-64539953D01*
X37985362Y-64455638D01*
X37931233Y-64441134D01*
X37811548Y-64409064D01*
X37811544Y-64409063D01*
X37805971Y-64407570D01*
X37800215Y-64407117D01*
X37731300Y-64401693D01*
X37731291Y-64401693D01*
X37728843Y-64401500D01*
X37280182Y-64401500D01*
X36831158Y-64401501D01*
X36784326Y-64405186D01*
X36759783Y-64407117D01*
X36759780Y-64407117D01*
X36754029Y-64407570D01*
X36574638Y-64455638D01*
X36409161Y-64539953D01*
X36404032Y-64544106D01*
X36404028Y-64544109D01*
X36397413Y-64549466D01*
X36264830Y-64656830D01*
X36260675Y-64661961D01*
X36152109Y-64796028D01*
X36152106Y-64796032D01*
X36147953Y-64801161D01*
X36063638Y-64966638D01*
X36061930Y-64973011D01*
X36061930Y-64973012D01*
X36020932Y-65126019D01*
X36015570Y-65146029D01*
X36015117Y-65151783D01*
X36015117Y-65151785D01*
X36009694Y-65220698D01*
X36009500Y-65223157D01*
X34750499Y-65223157D01*
X34744430Y-65146029D01*
X34696362Y-64966638D01*
X34612047Y-64801161D01*
X34607894Y-64796032D01*
X34607891Y-64796028D01*
X34499325Y-64661961D01*
X34495170Y-64656830D01*
X34362587Y-64549466D01*
X34355972Y-64544109D01*
X34355968Y-64544106D01*
X34350839Y-64539953D01*
X34185362Y-64455638D01*
X34131233Y-64441134D01*
X34011548Y-64409064D01*
X34011544Y-64409063D01*
X34005971Y-64407570D01*
X34000215Y-64407117D01*
X33931300Y-64401693D01*
X33931291Y-64401693D01*
X33928843Y-64401500D01*
X33480182Y-64401500D01*
X33031158Y-64401501D01*
X32984326Y-64405186D01*
X32959783Y-64407117D01*
X32959780Y-64407117D01*
X32954029Y-64407570D01*
X32774638Y-64455638D01*
X32609161Y-64539953D01*
X32604032Y-64544106D01*
X32604028Y-64544109D01*
X32597413Y-64549466D01*
X32464830Y-64656830D01*
X32460675Y-64661961D01*
X32352109Y-64796028D01*
X32352106Y-64796032D01*
X32347953Y-64801161D01*
X32344958Y-64807039D01*
X32344956Y-64807042D01*
X32335196Y-64826197D01*
X32270668Y-64952842D01*
X32268191Y-64957703D01*
X32219443Y-65009318D01*
X32155924Y-65026500D01*
X31105365Y-65026500D01*
X31037244Y-65006498D01*
X30990751Y-64952842D01*
X30983686Y-64931445D01*
X30983542Y-64930072D01*
X30924527Y-64748444D01*
X30913234Y-64728883D01*
X30874596Y-64661961D01*
X30829040Y-64583056D01*
X30798796Y-64549466D01*
X30705675Y-64446045D01*
X30705674Y-64446044D01*
X30701253Y-64441134D01*
X30600921Y-64368238D01*
X30552094Y-64332763D01*
X30552093Y-64332762D01*
X30546752Y-64328882D01*
X30540724Y-64326198D01*
X30540722Y-64326197D01*
X30378319Y-64253891D01*
X30378318Y-64253891D01*
X30372288Y-64251206D01*
X30278887Y-64231353D01*
X30191944Y-64212872D01*
X30191939Y-64212872D01*
X30185487Y-64211500D01*
X29994513Y-64211500D01*
X29988061Y-64212872D01*
X29988056Y-64212872D01*
X29901113Y-64231353D01*
X29807712Y-64251206D01*
X29801682Y-64253891D01*
X29801681Y-64253891D01*
X29639278Y-64326197D01*
X29639276Y-64326198D01*
X29633248Y-64328882D01*
X29627907Y-64332762D01*
X29627906Y-64332763D01*
X29579079Y-64368238D01*
X29478747Y-64441134D01*
X29474326Y-64446044D01*
X29474325Y-64446045D01*
X29381205Y-64549466D01*
X29350960Y-64583056D01*
X29305404Y-64661961D01*
X29266767Y-64728883D01*
X29255473Y-64748444D01*
X29196458Y-64930072D01*
X29195768Y-64936633D01*
X29195768Y-64936635D01*
X29192615Y-64966638D01*
X29176496Y-65120000D01*
X27958280Y-65120000D01*
X27958280Y-53509680D01*
X27978282Y-53441559D01*
X28031938Y-53395066D01*
X28084280Y-53383680D01*
X36755500Y-53383680D01*
X36823621Y-53403682D01*
G37*
%TD.AperFunction*%
%TA.AperFunction,Conductor*%
G36*
X49673293Y-64158664D02*
G01*
X49680875Y-64162957D01*
X49719535Y-64186644D01*
X49719540Y-64186646D01*
X49723758Y-64189231D01*
X49748373Y-64199425D01*
X49850622Y-64241771D01*
X49905906Y-64286316D01*
X49928330Y-64353678D01*
X49926438Y-64375201D01*
X49926851Y-64375243D01*
X49916500Y-64476268D01*
X49916500Y-65023732D01*
X49927113Y-65126019D01*
X49929295Y-65132559D01*
X49975905Y-65272264D01*
X49981244Y-65288268D01*
X49985096Y-65294492D01*
X49985096Y-65294493D01*
X50065110Y-65423794D01*
X50071248Y-65433713D01*
X50192298Y-65554552D01*
X50198528Y-65558392D01*
X50198529Y-65558393D01*
X50330766Y-65639905D01*
X50337899Y-65644302D01*
X50500243Y-65698149D01*
X50507080Y-65698849D01*
X50507082Y-65698850D01*
X50548401Y-65703083D01*
X50601268Y-65708500D01*
X51198732Y-65708500D01*
X51201978Y-65708163D01*
X51201982Y-65708163D01*
X51236083Y-65704625D01*
X51301019Y-65697887D01*
X51396742Y-65665951D01*
X51456324Y-65646073D01*
X51456326Y-65646072D01*
X51463268Y-65643756D01*
X51522106Y-65607346D01*
X51590558Y-65588509D01*
X51658327Y-65609671D01*
X51703898Y-65664112D01*
X51709526Y-65679758D01*
X51716869Y-65705365D01*
X51757339Y-65846503D01*
X51762212Y-65879849D01*
X51770555Y-66639116D01*
X51751303Y-66707452D01*
X51698161Y-66754532D01*
X51644563Y-66766500D01*
X50314224Y-66766500D01*
X50297779Y-66765422D01*
X50278420Y-66762873D01*
X50278416Y-66762873D01*
X50270888Y-66761882D01*
X50263335Y-66762716D01*
X50263334Y-66762716D01*
X50233058Y-66762400D01*
X50185791Y-66756178D01*
X50154024Y-66747666D01*
X50096277Y-66723747D01*
X50067795Y-66707303D01*
X50033434Y-66680937D01*
X50020120Y-66669139D01*
X50017673Y-66666640D01*
X50013046Y-66660611D01*
X49985620Y-66638639D01*
X49975304Y-66629400D01*
X49469025Y-66123120D01*
X49458160Y-66110731D01*
X49446271Y-66095238D01*
X49441648Y-66089213D01*
X49435719Y-66084463D01*
X49435715Y-66084459D01*
X49435707Y-66084452D01*
X49414543Y-66062842D01*
X49410858Y-66058041D01*
X49385248Y-65991824D01*
X49399503Y-65922273D01*
X49409978Y-65905766D01*
X49443435Y-65861125D01*
X49494565Y-65724736D01*
X49501320Y-65662554D01*
X49501320Y-64366286D01*
X49494565Y-64304104D01*
X49492514Y-64298632D01*
X49496167Y-64228642D01*
X49537611Y-64170998D01*
X49603641Y-64144911D01*
X49673293Y-64158664D01*
G37*
%TD.AperFunction*%
%TA.AperFunction,Conductor*%
G36*
X55455436Y-57409105D02*
G01*
X55457404Y-57410269D01*
X55465015Y-57412480D01*
X55465017Y-57412481D01*
X55499021Y-57422360D01*
X55613534Y-57455629D01*
X55619941Y-57456133D01*
X55619945Y-57456134D01*
X55647556Y-57458307D01*
X55647562Y-57458307D01*
X55650011Y-57458500D01*
X55730406Y-57458500D01*
X55798527Y-57478502D01*
X55819501Y-57495405D01*
X56111335Y-57787239D01*
X56145361Y-57849551D01*
X56148240Y-57876334D01*
X56148240Y-58020110D01*
X56128238Y-58088231D01*
X56117681Y-58101331D01*
X56117751Y-58101385D01*
X56112896Y-58107644D01*
X56107287Y-58113253D01*
X56103251Y-58120077D01*
X56103249Y-58120080D01*
X56066297Y-58182563D01*
X56022595Y-58256459D01*
X56020384Y-58264070D01*
X56020383Y-58264072D01*
X56008347Y-58305500D01*
X55976178Y-58416229D01*
X55975674Y-58422634D01*
X55975673Y-58422639D01*
X55973433Y-58451102D01*
X55973240Y-58453558D01*
X55973240Y-59611562D01*
X55976178Y-59648891D01*
X55989045Y-59693180D01*
X56010523Y-59767107D01*
X56022595Y-59808661D01*
X56026632Y-59815487D01*
X56103249Y-59945040D01*
X56103251Y-59945043D01*
X56107287Y-59951867D01*
X56224933Y-60069513D01*
X56228742Y-60071766D01*
X56269395Y-60128056D01*
X56273246Y-60198948D01*
X56238158Y-60260669D01*
X56230464Y-60267336D01*
X56224933Y-60270607D01*
X56107287Y-60388253D01*
X56103251Y-60395077D01*
X56103249Y-60395080D01*
X56039633Y-60502649D01*
X56022595Y-60531459D01*
X56020384Y-60539070D01*
X56020383Y-60539072D01*
X56006718Y-60586108D01*
X55976178Y-60691229D01*
X55975674Y-60697634D01*
X55975673Y-60697639D01*
X55973433Y-60726102D01*
X55973240Y-60728558D01*
X55973240Y-61886562D01*
X55973433Y-61889010D01*
X55973433Y-61889018D01*
X55975500Y-61915271D01*
X55976178Y-61923891D01*
X56022595Y-62083661D01*
X56042584Y-62117459D01*
X56055401Y-62139132D01*
X56072861Y-62207948D01*
X56062853Y-62252124D01*
X56059731Y-62257404D01*
X56014371Y-62413534D01*
X56013867Y-62419941D01*
X56013866Y-62419945D01*
X56012188Y-62441265D01*
X56011500Y-62450011D01*
X56011501Y-62949988D01*
X56014371Y-62986466D01*
X56036534Y-63062751D01*
X56053341Y-63120600D01*
X56059731Y-63142596D01*
X56063766Y-63149418D01*
X56063766Y-63149419D01*
X56138460Y-63275720D01*
X56142494Y-63282541D01*
X56257459Y-63397506D01*
X56264280Y-63401540D01*
X56337612Y-63444908D01*
X56397404Y-63480269D01*
X56405015Y-63482480D01*
X56405017Y-63482481D01*
X56446886Y-63494645D01*
X56553534Y-63525629D01*
X56559941Y-63526133D01*
X56559945Y-63526134D01*
X56587556Y-63528307D01*
X56587562Y-63528307D01*
X56590011Y-63528500D01*
X56598832Y-63528500D01*
X56880501Y-63528499D01*
X56948620Y-63548501D01*
X56995113Y-63602156D01*
X57006500Y-63654499D01*
X57006501Y-63832262D01*
X57006501Y-63999988D01*
X57009371Y-64036466D01*
X57033149Y-64118311D01*
X57044932Y-64158866D01*
X57054731Y-64192596D01*
X57058767Y-64199421D01*
X57058769Y-64199425D01*
X57070615Y-64219456D01*
X57088075Y-64288272D01*
X57065558Y-64355603D01*
X57050991Y-64372826D01*
X57045611Y-64376954D01*
X57025792Y-64401693D01*
X57023631Y-64404390D01*
X57014391Y-64414705D01*
X56782222Y-64646874D01*
X56719910Y-64680900D01*
X56660516Y-64679486D01*
X56626777Y-64670446D01*
X56626778Y-64670446D01*
X56621463Y-64669022D01*
X56400000Y-64649647D01*
X56178537Y-64669022D01*
X56069219Y-64698314D01*
X55969114Y-64725137D01*
X55969112Y-64725138D01*
X55963804Y-64726560D01*
X55958823Y-64728882D01*
X55958822Y-64728883D01*
X55767311Y-64818186D01*
X55767306Y-64818189D01*
X55762324Y-64820512D01*
X55757817Y-64823668D01*
X55757815Y-64823669D01*
X55584730Y-64944864D01*
X55584727Y-64944866D01*
X55580219Y-64948023D01*
X55423023Y-65105219D01*
X55419866Y-65109727D01*
X55419864Y-65109730D01*
X55309237Y-65267722D01*
X55295512Y-65287324D01*
X55293189Y-65292306D01*
X55293186Y-65292311D01*
X55228947Y-65430072D01*
X55201560Y-65488804D01*
X55144022Y-65703537D01*
X55124647Y-65925000D01*
X55144022Y-66146463D01*
X55145446Y-66151776D01*
X55145447Y-66151783D01*
X55154485Y-66185514D01*
X55152796Y-66256490D01*
X55121874Y-66307221D01*
X54805312Y-66623783D01*
X54792920Y-66634651D01*
X54777433Y-66646534D01*
X54777431Y-66646536D01*
X54771406Y-66651159D01*
X54766632Y-66657118D01*
X54744998Y-66678304D01*
X54707203Y-66707304D01*
X54678722Y-66723747D01*
X54620976Y-66747666D01*
X54589205Y-66756178D01*
X54546204Y-66761838D01*
X54528444Y-66762909D01*
X54525005Y-66762873D01*
X54517478Y-66761882D01*
X54509932Y-66762715D01*
X54509928Y-66762715D01*
X54482538Y-66765739D01*
X54468713Y-66766500D01*
X52106975Y-66766500D01*
X52038854Y-66746498D01*
X51992361Y-66692842D01*
X51980975Y-66640595D01*
X51980960Y-66620479D01*
X51980826Y-66443288D01*
X52000777Y-66375153D01*
X52054397Y-66328620D01*
X52124663Y-66318463D01*
X52168296Y-66333206D01*
X52294294Y-66403624D01*
X52482392Y-66464740D01*
X52678777Y-66488158D01*
X52684912Y-66487686D01*
X52684914Y-66487686D01*
X52869830Y-66473457D01*
X52869834Y-66473456D01*
X52875972Y-66472984D01*
X53066463Y-66419798D01*
X53071967Y-66417018D01*
X53071969Y-66417017D01*
X53237495Y-66333404D01*
X53237497Y-66333403D01*
X53242996Y-66330625D01*
X53398847Y-66208861D01*
X53510490Y-66079521D01*
X53524049Y-66063813D01*
X53524050Y-66063811D01*
X53528078Y-66059145D01*
X53625769Y-65887179D01*
X53688197Y-65699513D01*
X53712985Y-65503295D01*
X53713380Y-65475000D01*
X53694080Y-65278167D01*
X53690927Y-65267722D01*
X53650118Y-65132559D01*
X53636916Y-65088831D01*
X53544066Y-64914204D01*
X53522115Y-64887289D01*
X53494560Y-64821859D01*
X53506755Y-64751917D01*
X53524376Y-64725322D01*
X53599049Y-64638813D01*
X53599050Y-64638811D01*
X53603078Y-64634145D01*
X53700769Y-64462179D01*
X53763197Y-64274513D01*
X53787985Y-64078295D01*
X53788380Y-64050000D01*
X53769080Y-63853167D01*
X53762769Y-63832262D01*
X53720308Y-63691626D01*
X53711916Y-63663831D01*
X53619066Y-63489204D01*
X53516155Y-63363023D01*
X53497960Y-63340713D01*
X53497957Y-63340710D01*
X53494065Y-63335938D01*
X53455917Y-63304379D01*
X53346425Y-63213799D01*
X53346421Y-63213797D01*
X53341675Y-63209870D01*
X53167701Y-63115802D01*
X53122241Y-63101730D01*
X53063082Y-63062479D01*
X53034534Y-62997475D01*
X53033500Y-62981365D01*
X53033500Y-62418218D01*
X53034757Y-62400463D01*
X53037432Y-62381667D01*
X53038013Y-62377587D01*
X53038153Y-62364223D01*
X53037316Y-62357306D01*
X53036064Y-62346953D01*
X53035422Y-62340059D01*
X53023273Y-62154666D01*
X53023272Y-62154662D01*
X53023003Y-62150550D01*
X53016422Y-62117459D01*
X52982036Y-61944578D01*
X52982035Y-61944574D01*
X52981231Y-61940532D01*
X52912403Y-61737763D01*
X52897499Y-61707540D01*
X52819521Y-61549411D01*
X52819518Y-61549406D01*
X52817697Y-61545713D01*
X52797813Y-61515953D01*
X52739150Y-61428157D01*
X52698734Y-61367668D01*
X52648168Y-61310007D01*
X52620857Y-61278864D01*
X52616031Y-61273015D01*
X52615686Y-61272570D01*
X52611649Y-61265744D01*
X52595905Y-61250000D01*
X52590261Y-61243975D01*
X52585648Y-61238714D01*
X52579629Y-61231300D01*
X52570180Y-61218715D01*
X52570176Y-61218710D01*
X52567704Y-61215418D01*
X52564425Y-61212069D01*
X52564346Y-61211921D01*
X52562133Y-61209343D01*
X52562710Y-61208848D01*
X52531060Y-61149400D01*
X52536873Y-61078642D01*
X52580018Y-61022259D01*
X52646797Y-60998153D01*
X52654457Y-60997920D01*
X53947240Y-60997920D01*
X54015361Y-61017922D01*
X54061854Y-61071578D01*
X54073240Y-61123920D01*
X54073240Y-61886562D01*
X54073433Y-61889010D01*
X54073433Y-61889018D01*
X54075500Y-61915271D01*
X54076178Y-61923891D01*
X54122595Y-62083661D01*
X54126631Y-62090485D01*
X54126632Y-62090487D01*
X54203249Y-62220040D01*
X54203251Y-62220043D01*
X54207287Y-62226867D01*
X54324933Y-62344513D01*
X54331757Y-62348549D01*
X54331760Y-62348551D01*
X54419539Y-62400463D01*
X54468139Y-62429205D01*
X54475750Y-62431416D01*
X54475752Y-62431417D01*
X54496257Y-62437374D01*
X54627909Y-62475622D01*
X54634314Y-62476126D01*
X54634319Y-62476127D01*
X54662782Y-62478367D01*
X54662790Y-62478367D01*
X54665238Y-62478560D01*
X55098242Y-62478560D01*
X55100690Y-62478367D01*
X55100698Y-62478367D01*
X55129161Y-62476127D01*
X55129166Y-62476126D01*
X55135571Y-62475622D01*
X55267223Y-62437374D01*
X55287728Y-62431417D01*
X55287730Y-62431416D01*
X55295341Y-62429205D01*
X55343941Y-62400463D01*
X55431720Y-62348551D01*
X55431723Y-62348549D01*
X55438547Y-62344513D01*
X55556193Y-62226867D01*
X55560229Y-62220043D01*
X55560231Y-62220040D01*
X55636848Y-62090487D01*
X55636849Y-62090485D01*
X55640885Y-62083661D01*
X55687302Y-61923891D01*
X55687981Y-61915271D01*
X55690047Y-61889018D01*
X55690047Y-61889010D01*
X55690240Y-61886562D01*
X55690240Y-60728558D01*
X55690047Y-60726102D01*
X55687807Y-60697639D01*
X55687806Y-60697634D01*
X55687302Y-60691229D01*
X55656762Y-60586108D01*
X55643097Y-60539072D01*
X55643096Y-60539070D01*
X55640885Y-60531459D01*
X55623847Y-60502649D01*
X55560231Y-60395080D01*
X55560229Y-60395077D01*
X55556193Y-60388253D01*
X55438547Y-60270607D01*
X55434738Y-60268354D01*
X55394085Y-60212064D01*
X55390234Y-60141172D01*
X55425322Y-60079451D01*
X55433016Y-60072784D01*
X55438547Y-60069513D01*
X55556193Y-59951867D01*
X55560229Y-59945043D01*
X55560231Y-59945040D01*
X55636848Y-59815487D01*
X55640885Y-59808661D01*
X55652958Y-59767107D01*
X55674435Y-59693180D01*
X55687302Y-59648891D01*
X55690240Y-59611562D01*
X55690240Y-58453558D01*
X55690047Y-58451102D01*
X55687807Y-58422639D01*
X55687806Y-58422634D01*
X55687302Y-58416229D01*
X55655133Y-58305500D01*
X55643097Y-58264072D01*
X55643096Y-58264070D01*
X55640885Y-58256459D01*
X55597183Y-58182563D01*
X55560231Y-58120080D01*
X55560229Y-58120077D01*
X55556193Y-58113253D01*
X55438547Y-57995607D01*
X55431723Y-57991571D01*
X55431720Y-57991569D01*
X55302167Y-57914952D01*
X55302168Y-57914952D01*
X55295341Y-57910915D01*
X55287730Y-57908704D01*
X55287728Y-57908703D01*
X55211365Y-57886518D01*
X55135571Y-57864498D01*
X55129166Y-57863994D01*
X55129161Y-57863993D01*
X55100698Y-57861753D01*
X55100690Y-57861753D01*
X55098242Y-57861560D01*
X54764400Y-57861560D01*
X54696279Y-57841558D01*
X54649786Y-57787902D01*
X54638400Y-57735561D01*
X54638399Y-57624501D01*
X54658400Y-57556380D01*
X54712056Y-57509887D01*
X54764399Y-57498500D01*
X55095484Y-57498500D01*
X55097932Y-57498307D01*
X55097940Y-57498307D01*
X55125844Y-57496111D01*
X55125849Y-57496110D01*
X55132254Y-57495606D01*
X55259975Y-57458500D01*
X55281984Y-57452106D01*
X55281986Y-57452105D01*
X55289597Y-57449894D01*
X55296422Y-57445858D01*
X55296426Y-57445856D01*
X55344991Y-57417135D01*
X55413807Y-57399675D01*
X55455436Y-57409105D01*
G37*
%TD.AperFunction*%
%TA.AperFunction,Conductor*%
G36*
X43759832Y-59796601D02*
G01*
X43766415Y-59802730D01*
X46401060Y-62437374D01*
X46408479Y-62445469D01*
X46412996Y-62450851D01*
X46438958Y-62475569D01*
X46444062Y-62480429D01*
X46446274Y-62482588D01*
X46471601Y-62507915D01*
X46473980Y-62509869D01*
X46475228Y-62511001D01*
X46483004Y-62518694D01*
X46488327Y-62524439D01*
X46488333Y-62524445D01*
X46490722Y-62527023D01*
X46493384Y-62529319D01*
X46493391Y-62529326D01*
X46512617Y-62545910D01*
X46517200Y-62550064D01*
X46533067Y-62565171D01*
X46535492Y-62567065D01*
X46535501Y-62567073D01*
X46548119Y-62576929D01*
X46558663Y-62586153D01*
X46572083Y-62599280D01*
X46594888Y-62617077D01*
X46599657Y-62620991D01*
X46616260Y-62635313D01*
X46618780Y-62637089D01*
X46618782Y-62637091D01*
X46631867Y-62646316D01*
X46642849Y-62655010D01*
X46654252Y-62665118D01*
X46654258Y-62665123D01*
X46656890Y-62667456D01*
X46680558Y-62684125D01*
X46685467Y-62687766D01*
X46702783Y-62701279D01*
X46705396Y-62702935D01*
X46718902Y-62711496D01*
X46730307Y-62719648D01*
X46742180Y-62729176D01*
X46742186Y-62729180D01*
X46744931Y-62731383D01*
X46769405Y-62746882D01*
X46774524Y-62750303D01*
X46792438Y-62762919D01*
X46795122Y-62764441D01*
X46809027Y-62772326D01*
X46820812Y-62779904D01*
X46836020Y-62790925D01*
X46839081Y-62792659D01*
X46839084Y-62792661D01*
X46861187Y-62805182D01*
X46866490Y-62808361D01*
X46884999Y-62820081D01*
X46893258Y-62824243D01*
X46902051Y-62828674D01*
X46914192Y-62835664D01*
X46923601Y-62841801D01*
X46929911Y-62845918D01*
X46955731Y-62858914D01*
X46961190Y-62861832D01*
X46980272Y-62872642D01*
X46983092Y-62873894D01*
X46983099Y-62873897D01*
X46997714Y-62880383D01*
X47010178Y-62886766D01*
X47026381Y-62896236D01*
X47029600Y-62897663D01*
X47029608Y-62897667D01*
X47052827Y-62907959D01*
X47058407Y-62910598D01*
X47077998Y-62920459D01*
X47095814Y-62927341D01*
X47108578Y-62933106D01*
X47122091Y-62940139D01*
X47122104Y-62940145D01*
X47125217Y-62941765D01*
X47152200Y-62952173D01*
X47157905Y-62954537D01*
X47172940Y-62961201D01*
X47177948Y-62963421D01*
X47196076Y-62969419D01*
X47209099Y-62974547D01*
X47222963Y-62980918D01*
X47222970Y-62980921D01*
X47226163Y-62982388D01*
X47229499Y-62983490D01*
X47253621Y-62991459D01*
X47259439Y-62993541D01*
X47277021Y-63000323D01*
X47277034Y-63000327D01*
X47279898Y-63001432D01*
X47282856Y-63002252D01*
X47282871Y-63002257D01*
X47298287Y-63006530D01*
X47311562Y-63011018D01*
X47325711Y-63016697D01*
X47325714Y-63016698D01*
X47328978Y-63018008D01*
X47356890Y-63025732D01*
X47362775Y-63027518D01*
X47380657Y-63033426D01*
X47380669Y-63033429D01*
X47383586Y-63034393D01*
X47386580Y-63035067D01*
X47386592Y-63035070D01*
X47402206Y-63038583D01*
X47415685Y-63042415D01*
X47433422Y-63048542D01*
X47436851Y-63049312D01*
X47436858Y-63049314D01*
X47461654Y-63054882D01*
X47467635Y-63056380D01*
X47488762Y-63062226D01*
X47507425Y-63065472D01*
X47507567Y-63065497D01*
X47521215Y-63068662D01*
X47524638Y-63069659D01*
X47539235Y-63073912D01*
X47567758Y-63078861D01*
X47573765Y-63080056D01*
X47595184Y-63084866D01*
X47611630Y-63086901D01*
X47614116Y-63087209D01*
X47627903Y-63089701D01*
X47642732Y-63093242D01*
X47642740Y-63093243D01*
X47646155Y-63094059D01*
X47649633Y-63094488D01*
X47649639Y-63094489D01*
X47667251Y-63096661D01*
X47674883Y-63097602D01*
X47681001Y-63098510D01*
X47699545Y-63101728D01*
X47699552Y-63101729D01*
X47702584Y-63102255D01*
X47720720Y-63103600D01*
X47721617Y-63103667D01*
X47735513Y-63105480D01*
X47753963Y-63108939D01*
X47770665Y-63110171D01*
X47782805Y-63111066D01*
X47788964Y-63111673D01*
X47791437Y-63111978D01*
X47810698Y-63114354D01*
X47813768Y-63114431D01*
X47813771Y-63114431D01*
X47818829Y-63114557D01*
X47829791Y-63114831D01*
X47843744Y-63115959D01*
X47862328Y-63118507D01*
X47865845Y-63118593D01*
X47865852Y-63118594D01*
X47891259Y-63119218D01*
X47897428Y-63119521D01*
X47903451Y-63119965D01*
X47916225Y-63120907D01*
X47916226Y-63120907D01*
X47919304Y-63121134D01*
X47941447Y-63120600D01*
X47947570Y-63120601D01*
X48028068Y-63122578D01*
X48031136Y-63122353D01*
X48031140Y-63122353D01*
X48073900Y-63119218D01*
X48172661Y-63111978D01*
X48172662Y-63111978D01*
X48175441Y-63111774D01*
X48175480Y-63112302D01*
X48242031Y-63119965D01*
X48282031Y-63146912D01*
X48341114Y-63205995D01*
X48352653Y-63219270D01*
X48364405Y-63234868D01*
X48364410Y-63234874D01*
X48366794Y-63238038D01*
X48381652Y-63253320D01*
X48384757Y-63255799D01*
X48384758Y-63255800D01*
X48414472Y-63279525D01*
X48415570Y-63280451D01*
X48416412Y-63281293D01*
X48418941Y-63283294D01*
X48418960Y-63283310D01*
X48419542Y-63283770D01*
X48423197Y-63286776D01*
X48505656Y-63357215D01*
X48505666Y-63357222D01*
X48509427Y-63360435D01*
X48651472Y-63447499D01*
X48656048Y-63449395D01*
X48656050Y-63449396D01*
X48698919Y-63467158D01*
X48805387Y-63511271D01*
X48810204Y-63512428D01*
X48810207Y-63512429D01*
X48962575Y-63549027D01*
X48967384Y-63550182D01*
X48969275Y-63550331D01*
X49037949Y-63585330D01*
X49144245Y-63691626D01*
X49178271Y-63753938D01*
X49173206Y-63824753D01*
X49130659Y-63881589D01*
X49064139Y-63906400D01*
X49047768Y-63906097D01*
X49047748Y-63906473D01*
X49044351Y-63906289D01*
X49040954Y-63905920D01*
X48344686Y-63905920D01*
X48341291Y-63906289D01*
X48341287Y-63906289D01*
X48315289Y-63909113D01*
X48306426Y-63910076D01*
X48279214Y-63910076D01*
X48270351Y-63909113D01*
X48244353Y-63906289D01*
X48244349Y-63906289D01*
X48240954Y-63905920D01*
X47544686Y-63905920D01*
X47541291Y-63906289D01*
X47541287Y-63906289D01*
X47515289Y-63909113D01*
X47506426Y-63910076D01*
X47479214Y-63910076D01*
X47470351Y-63909113D01*
X47444353Y-63906289D01*
X47444349Y-63906289D01*
X47440954Y-63905920D01*
X46744686Y-63905920D01*
X46741291Y-63906289D01*
X46741287Y-63906289D01*
X46715289Y-63909113D01*
X46706426Y-63910076D01*
X46679214Y-63910076D01*
X46670351Y-63909113D01*
X46644353Y-63906289D01*
X46644349Y-63906289D01*
X46640954Y-63905920D01*
X45944686Y-63905920D01*
X45941291Y-63906289D01*
X45941287Y-63906289D01*
X45915289Y-63909113D01*
X45906426Y-63910076D01*
X45879214Y-63910076D01*
X45870351Y-63909113D01*
X45844353Y-63906289D01*
X45844349Y-63906289D01*
X45840954Y-63905920D01*
X45144686Y-63905920D01*
X45141291Y-63906289D01*
X45141287Y-63906289D01*
X45115289Y-63909113D01*
X45106426Y-63910076D01*
X45079214Y-63910076D01*
X45070351Y-63909113D01*
X45044353Y-63906289D01*
X45044349Y-63906289D01*
X45040954Y-63905920D01*
X44344686Y-63905920D01*
X44341291Y-63906289D01*
X44341287Y-63906289D01*
X44315289Y-63909113D01*
X44306426Y-63910076D01*
X44279214Y-63910076D01*
X44270351Y-63909113D01*
X44244353Y-63906289D01*
X44244349Y-63906289D01*
X44240954Y-63905920D01*
X43677320Y-63905920D01*
X43609199Y-63885918D01*
X43562706Y-63832262D01*
X43551320Y-63779920D01*
X43551320Y-63216286D01*
X43547164Y-63178026D01*
X43547164Y-63150813D01*
X43550951Y-63115953D01*
X43550951Y-63115949D01*
X43551320Y-63112554D01*
X43551320Y-62416286D01*
X43550561Y-62409294D01*
X43547164Y-62378027D01*
X43547164Y-62350813D01*
X43550951Y-62315953D01*
X43550951Y-62315949D01*
X43551320Y-62312554D01*
X43551320Y-61616286D01*
X43547164Y-61578026D01*
X43547164Y-61550813D01*
X43550951Y-61515953D01*
X43550951Y-61515949D01*
X43551320Y-61512554D01*
X43551320Y-60816286D01*
X43547164Y-60778026D01*
X43547164Y-60750813D01*
X43547314Y-60749437D01*
X43551320Y-60712554D01*
X43551320Y-60016286D01*
X43547164Y-59978026D01*
X43547164Y-59950813D01*
X43550951Y-59915953D01*
X43550951Y-59915949D01*
X43551320Y-59912554D01*
X43551320Y-59891825D01*
X43571322Y-59823704D01*
X43624978Y-59777211D01*
X43695252Y-59767107D01*
X43759832Y-59796601D01*
G37*
%TD.AperFunction*%
%TA.AperFunction,Conductor*%
G36*
X58455601Y-53403682D02*
G01*
X58502094Y-53457338D01*
X58513480Y-53509680D01*
X58513480Y-61882685D01*
X58493478Y-61950806D01*
X58439822Y-61997299D01*
X58369548Y-62007403D01*
X58323341Y-61991139D01*
X58209419Y-61923766D01*
X58209418Y-61923766D01*
X58202596Y-61919731D01*
X58194985Y-61917520D01*
X58194983Y-61917519D01*
X58052644Y-61876166D01*
X58052645Y-61876166D01*
X58046466Y-61874371D01*
X58040059Y-61873867D01*
X58040055Y-61873866D01*
X58012444Y-61871693D01*
X58012438Y-61871693D01*
X58009989Y-61871500D01*
X58000904Y-61871500D01*
X57716239Y-61871501D01*
X57648120Y-61851499D01*
X57601627Y-61797844D01*
X57590240Y-61745501D01*
X57590240Y-60728558D01*
X57590047Y-60726102D01*
X57587807Y-60697639D01*
X57587806Y-60697634D01*
X57587302Y-60691229D01*
X57556762Y-60586108D01*
X57543097Y-60539072D01*
X57543096Y-60539070D01*
X57540885Y-60531459D01*
X57523847Y-60502649D01*
X57460231Y-60395080D01*
X57460229Y-60395077D01*
X57456193Y-60388253D01*
X57338547Y-60270607D01*
X57334738Y-60268354D01*
X57294085Y-60212064D01*
X57290234Y-60141172D01*
X57325322Y-60079451D01*
X57333016Y-60072784D01*
X57338547Y-60069513D01*
X57456193Y-59951867D01*
X57460229Y-59945043D01*
X57460231Y-59945040D01*
X57536848Y-59815487D01*
X57540885Y-59808661D01*
X57552958Y-59767107D01*
X57574435Y-59693180D01*
X57587302Y-59648891D01*
X57590240Y-59611562D01*
X57590240Y-58453558D01*
X57590047Y-58451102D01*
X57587807Y-58422639D01*
X57587806Y-58422634D01*
X57587302Y-58416229D01*
X57555133Y-58305500D01*
X57543097Y-58264072D01*
X57543096Y-58264070D01*
X57540885Y-58256459D01*
X57497183Y-58182563D01*
X57460231Y-58120080D01*
X57460229Y-58120077D01*
X57456193Y-58113253D01*
X57450584Y-58107644D01*
X57445729Y-58101385D01*
X57447236Y-58100216D01*
X57418119Y-58046893D01*
X57415240Y-58020110D01*
X57415240Y-57822877D01*
X57416499Y-57805111D01*
X57419170Y-57786357D01*
X57419752Y-57782271D01*
X57419893Y-57768907D01*
X57416929Y-57744395D01*
X57416407Y-57739161D01*
X57405152Y-57595973D01*
X57405152Y-57595971D01*
X57404764Y-57591039D01*
X57363131Y-57417547D01*
X57361034Y-57412481D01*
X57311593Y-57293084D01*
X57294872Y-57252704D01*
X57292285Y-57248481D01*
X57204253Y-57104791D01*
X57204251Y-57104788D01*
X57201666Y-57100569D01*
X57155046Y-57045971D01*
X57147718Y-57035714D01*
X57143871Y-57030755D01*
X57139835Y-57023930D01*
X57121461Y-57005556D01*
X57109786Y-56992101D01*
X57102037Y-56981778D01*
X57095940Y-56973655D01*
X57086590Y-56964106D01*
X57062055Y-56944863D01*
X57050720Y-56934815D01*
X56765404Y-56649499D01*
X56731378Y-56587187D01*
X56728499Y-56560404D01*
X56728499Y-56480012D01*
X56725629Y-56443534D01*
X56683786Y-56299508D01*
X56682481Y-56295017D01*
X56682480Y-56295015D01*
X56680269Y-56287404D01*
X56597506Y-56147459D01*
X56482541Y-56032494D01*
X56387150Y-55976080D01*
X56349419Y-55953766D01*
X56349418Y-55953766D01*
X56342596Y-55949731D01*
X56334985Y-55947520D01*
X56334983Y-55947519D01*
X56192644Y-55906166D01*
X56192645Y-55906166D01*
X56186466Y-55904371D01*
X56180059Y-55903867D01*
X56180055Y-55903866D01*
X56152444Y-55901693D01*
X56152438Y-55901693D01*
X56149989Y-55901500D01*
X56137257Y-55901500D01*
X55744499Y-55901501D01*
X55676380Y-55881499D01*
X55629886Y-55827844D01*
X55618500Y-55775501D01*
X55618499Y-55432484D01*
X55618499Y-55430012D01*
X55615629Y-55393534D01*
X55581220Y-55275096D01*
X55572481Y-55245017D01*
X55572480Y-55245015D01*
X55570269Y-55237404D01*
X55557849Y-55216402D01*
X55491540Y-55104280D01*
X55487506Y-55097459D01*
X55372541Y-54982494D01*
X55365720Y-54978460D01*
X55239419Y-54903766D01*
X55239418Y-54903766D01*
X55232596Y-54899731D01*
X55224985Y-54897520D01*
X55224983Y-54897519D01*
X55082644Y-54856166D01*
X55082645Y-54856166D01*
X55076466Y-54854371D01*
X55070059Y-54853867D01*
X55070055Y-54853866D01*
X55042444Y-54851693D01*
X55042438Y-54851693D01*
X55039989Y-54851500D01*
X54840122Y-54851500D01*
X54640012Y-54851501D01*
X54603534Y-54854371D01*
X54506730Y-54882495D01*
X54455017Y-54897519D01*
X54455015Y-54897520D01*
X54447404Y-54899731D01*
X54440579Y-54903767D01*
X54440575Y-54903769D01*
X54394139Y-54931231D01*
X54325323Y-54948691D01*
X54265861Y-54931231D01*
X54219425Y-54903769D01*
X54219421Y-54903767D01*
X54212596Y-54899731D01*
X54204985Y-54897520D01*
X54204983Y-54897519D01*
X54062644Y-54856166D01*
X54062645Y-54856166D01*
X54056466Y-54854371D01*
X54050059Y-54853867D01*
X54050055Y-54853866D01*
X54022444Y-54851693D01*
X54022438Y-54851693D01*
X54019989Y-54851500D01*
X53820122Y-54851500D01*
X53620012Y-54851501D01*
X53583534Y-54854371D01*
X53486730Y-54882495D01*
X53435017Y-54897519D01*
X53435015Y-54897520D01*
X53427404Y-54899731D01*
X53420582Y-54903766D01*
X53420581Y-54903766D01*
X53294280Y-54978460D01*
X53287459Y-54982494D01*
X53260358Y-55009595D01*
X53198046Y-55043621D01*
X53171263Y-55046500D01*
X52258218Y-55046500D01*
X52240463Y-55045243D01*
X52234350Y-55044373D01*
X52217587Y-55041987D01*
X52211100Y-55041919D01*
X52208349Y-55041890D01*
X52208346Y-55041890D01*
X52204223Y-55041847D01*
X52200125Y-55042343D01*
X52200122Y-55042343D01*
X52186769Y-55043958D01*
X52179876Y-55044600D01*
X51994667Y-55056737D01*
X51994663Y-55056738D01*
X51990551Y-55057007D01*
X51986512Y-55057810D01*
X51986507Y-55057811D01*
X51784580Y-55097974D01*
X51784576Y-55097975D01*
X51780534Y-55098779D01*
X51577767Y-55167606D01*
X51385718Y-55262312D01*
X51207674Y-55381274D01*
X51204576Y-55383991D01*
X51204568Y-55383997D01*
X51118981Y-55459053D01*
X51113132Y-55463879D01*
X51112569Y-55464315D01*
X51105745Y-55468351D01*
X51089893Y-55484203D01*
X51083885Y-55489832D01*
X51078825Y-55494269D01*
X51071407Y-55500291D01*
X51058720Y-55509816D01*
X51058713Y-55509822D01*
X51055418Y-55512296D01*
X51045869Y-55521646D01*
X51043325Y-55524890D01*
X51043320Y-55524896D01*
X51026648Y-55546158D01*
X51016590Y-55557506D01*
X50516415Y-56057681D01*
X50454103Y-56091707D01*
X50383288Y-56086642D01*
X50326452Y-56044095D01*
X50301641Y-55977575D01*
X50301320Y-55968586D01*
X50301320Y-55866286D01*
X50294565Y-55804104D01*
X50243435Y-55667715D01*
X50156081Y-55551159D01*
X50157685Y-55549957D01*
X50129199Y-55497790D01*
X50126320Y-55471007D01*
X50126320Y-55206354D01*
X50146322Y-55138233D01*
X50169938Y-55112337D01*
X50169527Y-55111906D01*
X50173989Y-55107656D01*
X50178847Y-55103861D01*
X50308078Y-54954145D01*
X50405769Y-54782179D01*
X50468197Y-54594513D01*
X50492985Y-54398295D01*
X50493380Y-54370000D01*
X50474080Y-54173167D01*
X50416916Y-53983831D01*
X50324066Y-53809204D01*
X50253709Y-53722938D01*
X50202960Y-53660713D01*
X50202957Y-53660710D01*
X50199065Y-53655938D01*
X50187014Y-53645968D01*
X50139625Y-53606765D01*
X50099886Y-53547931D01*
X50098264Y-53476953D01*
X50135274Y-53416366D01*
X50199164Y-53385405D01*
X50219940Y-53383680D01*
X58387480Y-53383680D01*
X58455601Y-53403682D01*
G37*
%TD.AperFunction*%
%TA.AperFunction,Conductor*%
G36*
X44472221Y-53934578D02*
G01*
X44491580Y-53937127D01*
X44491584Y-53937127D01*
X44499112Y-53938118D01*
X44506661Y-53937285D01*
X44514258Y-53937364D01*
X44514258Y-53937368D01*
X44536900Y-53937605D01*
X44573766Y-53942458D01*
X44584203Y-53943832D01*
X44615974Y-53952345D01*
X44673717Y-53976262D01*
X44702202Y-53992707D01*
X44736615Y-54019113D01*
X44749930Y-54030913D01*
X44752331Y-54033365D01*
X44756954Y-54039389D01*
X44762878Y-54044135D01*
X44762879Y-54044136D01*
X44784390Y-54061369D01*
X44794705Y-54070609D01*
X45894596Y-55170501D01*
X45928622Y-55232813D01*
X45931501Y-55259596D01*
X45931501Y-55279920D01*
X45911499Y-55348041D01*
X45857843Y-55394534D01*
X45805501Y-55405920D01*
X45144686Y-55405920D01*
X45082504Y-55412675D01*
X44946115Y-55463805D01*
X44829559Y-55551159D01*
X44742205Y-55667715D01*
X44691075Y-55804104D01*
X44684320Y-55866286D01*
X44684320Y-57162554D01*
X44691075Y-57224736D01*
X44742205Y-57361125D01*
X44829559Y-57477681D01*
X44946115Y-57565035D01*
X45082504Y-57616165D01*
X45144686Y-57622920D01*
X45840954Y-57622920D01*
X45844349Y-57622551D01*
X45844353Y-57622551D01*
X45870351Y-57619727D01*
X45879214Y-57618764D01*
X45906426Y-57618764D01*
X45915289Y-57619727D01*
X45941287Y-57622551D01*
X45941291Y-57622551D01*
X45944686Y-57622920D01*
X46640954Y-57622920D01*
X46644349Y-57622551D01*
X46644353Y-57622551D01*
X46670351Y-57619727D01*
X46679214Y-57618764D01*
X46706426Y-57618764D01*
X46715289Y-57619727D01*
X46741287Y-57622551D01*
X46741291Y-57622551D01*
X46744686Y-57622920D01*
X47133320Y-57622920D01*
X47201441Y-57642922D01*
X47247934Y-57696578D01*
X47259320Y-57748920D01*
X47259320Y-58742132D01*
X47239318Y-58810253D01*
X47226963Y-58826433D01*
X47130960Y-58933056D01*
X47035473Y-59098444D01*
X46976458Y-59280072D01*
X46975768Y-59286633D01*
X46975768Y-59286635D01*
X46963519Y-59403183D01*
X46956496Y-59470000D01*
X46957186Y-59476565D01*
X46974993Y-59645986D01*
X46976458Y-59659928D01*
X47035473Y-59841556D01*
X47038776Y-59847278D01*
X47038777Y-59847279D01*
X47072975Y-59906511D01*
X47089713Y-59975506D01*
X47066493Y-60042598D01*
X47010686Y-60086485D01*
X46940011Y-60093234D01*
X46874761Y-60058606D01*
X44566227Y-57750073D01*
X44564045Y-57747891D01*
X44556605Y-57741779D01*
X44501576Y-57696578D01*
X44449859Y-57654097D01*
X44289636Y-57568187D01*
X44280990Y-57563551D01*
X44280989Y-57563551D01*
X44275557Y-57560638D01*
X44142677Y-57520012D01*
X44092320Y-57504616D01*
X44092318Y-57504616D01*
X44086422Y-57502813D01*
X44068454Y-57500988D01*
X43999347Y-57471438D01*
X43935776Y-57417135D01*
X43918762Y-57402601D01*
X43743159Y-57294974D01*
X43685526Y-57271097D01*
X43630252Y-57226548D01*
X43607836Y-57159183D01*
X43610556Y-57128280D01*
X43610984Y-57126285D01*
X43613149Y-57119757D01*
X43614683Y-57104791D01*
X43617058Y-57081604D01*
X43623500Y-57018732D01*
X43623500Y-56471268D01*
X43621289Y-56449953D01*
X43613598Y-56375837D01*
X43612887Y-56368981D01*
X43588213Y-56295025D01*
X43561073Y-56213676D01*
X43561072Y-56213674D01*
X43558756Y-56206732D01*
X43468752Y-56061287D01*
X43347702Y-55940448D01*
X43341471Y-55936607D01*
X43208331Y-55854538D01*
X43208329Y-55854537D01*
X43202101Y-55850698D01*
X43039757Y-55796851D01*
X43032920Y-55796151D01*
X43032918Y-55796150D01*
X42991599Y-55791917D01*
X42938732Y-55786500D01*
X42341268Y-55786500D01*
X42338022Y-55786837D01*
X42338018Y-55786837D01*
X42305193Y-55790243D01*
X42238981Y-55797113D01*
X42132878Y-55832512D01*
X42061931Y-55835098D01*
X42000846Y-55798914D01*
X41984673Y-55777055D01*
X41983867Y-55775421D01*
X41907100Y-55660529D01*
X41847167Y-55570830D01*
X41847163Y-55570825D01*
X41844876Y-55567402D01*
X41796550Y-55512296D01*
X41696566Y-55398283D01*
X41693379Y-55394501D01*
X41684711Y-55383797D01*
X41684708Y-55383794D01*
X41680558Y-55378669D01*
X41648480Y-55352692D01*
X41638681Y-55343868D01*
X41385849Y-55091036D01*
X41354322Y-55038360D01*
X41348696Y-55019728D01*
X41346916Y-55013831D01*
X41254066Y-54839204D01*
X41182824Y-54751853D01*
X41132960Y-54690713D01*
X41132957Y-54690710D01*
X41129065Y-54685938D01*
X41122724Y-54680692D01*
X40981425Y-54563799D01*
X40981421Y-54563797D01*
X40976675Y-54559870D01*
X40802701Y-54465802D01*
X40613768Y-54407318D01*
X40607643Y-54406674D01*
X40607642Y-54406674D01*
X40423204Y-54387289D01*
X40423202Y-54387289D01*
X40417075Y-54386645D01*
X40334576Y-54394153D01*
X40226251Y-54404011D01*
X40226248Y-54404012D01*
X40220112Y-54404570D01*
X40214206Y-54406308D01*
X40214202Y-54406309D01*
X40133588Y-54430035D01*
X40030381Y-54460410D01*
X40024923Y-54463263D01*
X40024919Y-54463265D01*
X39967170Y-54493456D01*
X39855110Y-54552040D01*
X39700975Y-54675968D01*
X39573846Y-54827474D01*
X39570879Y-54832872D01*
X39570875Y-54832877D01*
X39516805Y-54931231D01*
X39478567Y-55000787D01*
X39476706Y-55006654D01*
X39476705Y-55006656D01*
X39451043Y-55087552D01*
X39418765Y-55189306D01*
X39396719Y-55385851D01*
X39397235Y-55391995D01*
X39412252Y-55570830D01*
X39413268Y-55582934D01*
X39414967Y-55588858D01*
X39443935Y-55689884D01*
X39443484Y-55760879D01*
X39404722Y-55820360D01*
X39362696Y-55844136D01*
X39223151Y-55890692D01*
X39078945Y-55979929D01*
X38959136Y-56099947D01*
X38870151Y-56244308D01*
X38867370Y-56242594D01*
X38830011Y-56284976D01*
X38811017Y-56294810D01*
X38805925Y-56296919D01*
X38801705Y-56299505D01*
X38801699Y-56299508D01*
X38717671Y-56351000D01*
X38653799Y-56390140D01*
X38627684Y-56412444D01*
X38599433Y-56436571D01*
X38588588Y-56444322D01*
X38584018Y-56447867D01*
X38577192Y-56451904D01*
X38558785Y-56470311D01*
X38545347Y-56481973D01*
X38526866Y-56495848D01*
X38517317Y-56505199D01*
X38514775Y-56508441D01*
X38514766Y-56508451D01*
X38498103Y-56529702D01*
X38488045Y-56541051D01*
X38261669Y-56767426D01*
X38248229Y-56779089D01*
X38233047Y-56790488D01*
X38233043Y-56790492D01*
X38229750Y-56792964D01*
X38226809Y-56795844D01*
X38226802Y-56795850D01*
X38223152Y-56799425D01*
X38220201Y-56802315D01*
X38217653Y-56805565D01*
X38204975Y-56821734D01*
X38201632Y-56825819D01*
X38122162Y-56918868D01*
X38105141Y-56938797D01*
X38078803Y-56981778D01*
X38014509Y-57086698D01*
X38014506Y-57086704D01*
X38011920Y-57090924D01*
X38010025Y-57095499D01*
X38010023Y-57095503D01*
X37953430Y-57232135D01*
X37943645Y-57255760D01*
X37942489Y-57260574D01*
X37942489Y-57260575D01*
X37903650Y-57422360D01*
X37901996Y-57429248D01*
X37896562Y-57498307D01*
X37896391Y-57500485D01*
X37894196Y-57513674D01*
X37893473Y-57519393D01*
X37891500Y-57527077D01*
X37891500Y-57553121D01*
X37890243Y-57570871D01*
X37886987Y-57593752D01*
X37886847Y-57607116D01*
X37888078Y-57617286D01*
X37890587Y-57638018D01*
X37891500Y-57653157D01*
X37891500Y-59760405D01*
X37871498Y-59828526D01*
X37854595Y-59849501D01*
X37649499Y-60054596D01*
X37587187Y-60088621D01*
X37560404Y-60091500D01*
X36761111Y-60091500D01*
X36743356Y-60090243D01*
X36740764Y-60089874D01*
X36720480Y-60086987D01*
X36714259Y-60086922D01*
X36711247Y-60086890D01*
X36711243Y-60086890D01*
X36707116Y-60086847D01*
X36704588Y-60087153D01*
X36635829Y-60071008D01*
X36586458Y-60019988D01*
X36572509Y-59950375D01*
X36598409Y-59884271D01*
X36608928Y-59872332D01*
X36684453Y-59796807D01*
X36688489Y-59789983D01*
X36688491Y-59789980D01*
X36765108Y-59660427D01*
X36769145Y-59653601D01*
X36771356Y-59645991D01*
X36771358Y-59645986D01*
X36807965Y-59519981D01*
X36839867Y-59466037D01*
X36899832Y-59406073D01*
X36973331Y-59332574D01*
X36986771Y-59320911D01*
X37001953Y-59309512D01*
X37001957Y-59309508D01*
X37005250Y-59307036D01*
X37008191Y-59304156D01*
X37008198Y-59304150D01*
X37011848Y-59300575D01*
X37011849Y-59300573D01*
X37014799Y-59297685D01*
X37030025Y-59278266D01*
X37033368Y-59274181D01*
X37126648Y-59164963D01*
X37126650Y-59164961D01*
X37129859Y-59161203D01*
X37171824Y-59092721D01*
X37220491Y-59013302D01*
X37220494Y-59013296D01*
X37223080Y-59009076D01*
X37254568Y-58933056D01*
X37289459Y-58848818D01*
X37289460Y-58848816D01*
X37291355Y-58844240D01*
X37292734Y-58838497D01*
X37331849Y-58675564D01*
X37331849Y-58675561D01*
X37333004Y-58670752D01*
X37338609Y-58599515D01*
X37340804Y-58586326D01*
X37341527Y-58580607D01*
X37343500Y-58572923D01*
X37343500Y-58546879D01*
X37344757Y-58529126D01*
X37347432Y-58510331D01*
X37347432Y-58510330D01*
X37348013Y-58506248D01*
X37348153Y-58492884D01*
X37344413Y-58461982D01*
X37343500Y-58446843D01*
X37343500Y-57211328D01*
X37344578Y-57194884D01*
X37347127Y-57175523D01*
X37347127Y-57175519D01*
X37348118Y-57167991D01*
X37347285Y-57160443D01*
X37347364Y-57152844D01*
X37347370Y-57152844D01*
X37347607Y-57130221D01*
X37347863Y-57128280D01*
X37353836Y-57082900D01*
X37362349Y-57051127D01*
X37386264Y-56993389D01*
X37402709Y-56964904D01*
X37429111Y-56930495D01*
X37440916Y-56917175D01*
X37443370Y-56914772D01*
X37449392Y-56910151D01*
X37471374Y-56882712D01*
X37480615Y-56872396D01*
X37801876Y-56551135D01*
X37815318Y-56539470D01*
X37830507Y-56528066D01*
X37830509Y-56528064D01*
X37833803Y-56525591D01*
X37843352Y-56516240D01*
X37845892Y-56513001D01*
X37845898Y-56512994D01*
X37854033Y-56502619D01*
X37858453Y-56497291D01*
X37954689Y-56387553D01*
X37983729Y-56354439D01*
X38102693Y-56176395D01*
X38167935Y-56044095D01*
X38174208Y-56031375D01*
X38223074Y-55978649D01*
X38237763Y-55969962D01*
X38354962Y-55852763D01*
X38439332Y-55710100D01*
X38485573Y-55550937D01*
X38486077Y-55544532D01*
X38486078Y-55544527D01*
X38488307Y-55516203D01*
X38488307Y-55516195D01*
X38488500Y-55513747D01*
X38488499Y-55036254D01*
X38485573Y-54999063D01*
X38443536Y-54854371D01*
X38441544Y-54847513D01*
X38441543Y-54847511D01*
X38439332Y-54839900D01*
X38354962Y-54697237D01*
X38237763Y-54580038D01*
X38230940Y-54576003D01*
X38229076Y-54574557D01*
X38187512Y-54516999D01*
X38183664Y-54446106D01*
X38218754Y-54384388D01*
X38229076Y-54375443D01*
X38230940Y-54373997D01*
X38237763Y-54369962D01*
X38354962Y-54252763D01*
X38439332Y-54110100D01*
X38461768Y-54032874D01*
X38499981Y-53973039D01*
X38566319Y-53943105D01*
X38603872Y-53938162D01*
X38621632Y-53937091D01*
X38624988Y-53937126D01*
X38632522Y-53938118D01*
X38667462Y-53934261D01*
X38681287Y-53933500D01*
X44455776Y-53933500D01*
X44472221Y-53934578D01*
G37*
%TD.AperFunction*%
%TA.AperFunction,Conductor*%
G36*
X40238443Y-58678502D02*
G01*
X40252080Y-58689610D01*
X40252258Y-58689388D01*
X40279695Y-58711369D01*
X40290010Y-58720609D01*
X40450702Y-58881301D01*
X40462365Y-58894739D01*
X40476257Y-58913240D01*
X40479129Y-58916172D01*
X40479134Y-58916178D01*
X40482730Y-58919849D01*
X40485609Y-58922788D01*
X40499303Y-58933524D01*
X40504616Y-58937932D01*
X40635687Y-59052868D01*
X40673718Y-59112819D01*
X40673298Y-59183815D01*
X40634563Y-59243313D01*
X40622616Y-59252368D01*
X40602668Y-59265697D01*
X40599563Y-59268420D01*
X40514011Y-59343448D01*
X40508162Y-59348275D01*
X40507569Y-59348735D01*
X40500744Y-59352771D01*
X40484870Y-59368645D01*
X40478852Y-59374282D01*
X40473837Y-59378680D01*
X40466412Y-59384709D01*
X40450412Y-59396722D01*
X40440863Y-59406073D01*
X40438314Y-59409324D01*
X40421655Y-59430570D01*
X40411596Y-59441919D01*
X40279726Y-59573789D01*
X40267343Y-59584650D01*
X40245819Y-59601166D01*
X40242070Y-59605846D01*
X40180007Y-59638895D01*
X40154516Y-59641500D01*
X39284500Y-59641500D01*
X39216379Y-59621498D01*
X39169886Y-59567842D01*
X39158500Y-59515500D01*
X39158500Y-58784500D01*
X39178502Y-58716379D01*
X39232158Y-58669886D01*
X39284500Y-58658500D01*
X40170322Y-58658500D01*
X40238443Y-58678502D01*
G37*
%TD.AperFunction*%
%TA.AperFunction,Conductor*%
G36*
X35066019Y-58148306D02*
G01*
X35066047Y-58148307D01*
X35068498Y-58148500D01*
X35950500Y-58148500D01*
X36018621Y-58168502D01*
X36065114Y-58222158D01*
X36076500Y-58274500D01*
X36076500Y-58305500D01*
X36056498Y-58373621D01*
X36002842Y-58420114D01*
X35950500Y-58431500D01*
X35068498Y-58431500D01*
X35066050Y-58431693D01*
X35066042Y-58431693D01*
X35037579Y-58433933D01*
X35037574Y-58433934D01*
X35031169Y-58434438D01*
X35024993Y-58436232D01*
X35024989Y-58436233D01*
X35016564Y-58438681D01*
X34945568Y-58438480D01*
X34885951Y-58399927D01*
X34856641Y-58335263D01*
X34866944Y-58265018D01*
X34892314Y-58228590D01*
X34938341Y-58182563D01*
X35000653Y-58148537D01*
X35037323Y-58146047D01*
X35066019Y-58148306D01*
G37*
%TD.AperFunction*%
%TD*%
M02*
