G04 #@! TF.GenerationSoftware,KiCad,Pcbnew,5.1.8+dfsg1-1~bpo10+1*
G04 #@! TF.CreationDate,2020-11-10T16:56:22+03:00*
G04 #@! TF.ProjectId,cs,63732e6b-6963-4616-945f-706362585858,rev?*
G04 #@! TF.SameCoordinates,Original*
G04 #@! TF.FileFunction,Copper,L2,Bot*
G04 #@! TF.FilePolarity,Positive*
%FSLAX46Y46*%
G04 Gerber Fmt 4.6, Leading zero omitted, Abs format (unit mm)*
G04 Created by KiCad (PCBNEW 5.1.8+dfsg1-1~bpo10+1) date 2020-11-10 16:56:22*
%MOMM*%
%LPD*%
G01*
G04 APERTURE LIST*
G04 #@! TA.AperFunction,SMDPad,CuDef*
%ADD10R,0.650000X1.220000*%
G04 #@! TD*
G04 #@! TA.AperFunction,SMDPad,CuDef*
%ADD11R,0.650000X1.060000*%
G04 #@! TD*
G04 #@! TA.AperFunction,SMDPad,CuDef*
%ADD12C,1.524000*%
G04 #@! TD*
G04 #@! TA.AperFunction,SMDPad,CuDef*
%ADD13R,0.900000X0.800000*%
G04 #@! TD*
G04 #@! TA.AperFunction,SMDPad,CuDef*
%ADD14R,1.200000X0.900000*%
G04 #@! TD*
G04 #@! TA.AperFunction,SMDPad,CuDef*
%ADD15R,1.380000X0.450000*%
G04 #@! TD*
G04 #@! TA.AperFunction,SMDPad,CuDef*
%ADD16R,2.100000X1.475000*%
G04 #@! TD*
G04 #@! TA.AperFunction,SMDPad,CuDef*
%ADD17R,1.900000X2.375000*%
G04 #@! TD*
G04 #@! TA.AperFunction,SMDPad,CuDef*
%ADD18R,1.900000X1.175000*%
G04 #@! TD*
G04 #@! TA.AperFunction,ViaPad*
%ADD19C,0.800000*%
G04 #@! TD*
G04 #@! TA.AperFunction,ViaPad*
%ADD20C,1.000000*%
G04 #@! TD*
G04 #@! TA.AperFunction,Conductor*
%ADD21C,0.300000*%
G04 #@! TD*
G04 #@! TA.AperFunction,Conductor*
%ADD22C,0.500000*%
G04 #@! TD*
G04 #@! TA.AperFunction,Conductor*
%ADD23C,0.400000*%
G04 #@! TD*
G04 #@! TA.AperFunction,Conductor*
%ADD24C,0.250000*%
G04 #@! TD*
G04 #@! TA.AperFunction,Conductor*
%ADD25C,0.254000*%
G04 #@! TD*
G04 #@! TA.AperFunction,Conductor*
%ADD26C,0.100000*%
G04 #@! TD*
G04 APERTURE END LIST*
D10*
X228630400Y-23825200D03*
X229580400Y-23825200D03*
X230530400Y-23825200D03*
X230530400Y-26445200D03*
X228630400Y-26445200D03*
D11*
X216260680Y-31315660D03*
X215310680Y-31315660D03*
X214360680Y-31315660D03*
X214360680Y-29115660D03*
X216260680Y-29115660D03*
D12*
X219219780Y-21277580D03*
D13*
X223570800Y-33914000D03*
X223570800Y-35814000D03*
X221570800Y-34864000D03*
G04 #@! TA.AperFunction,SMDPad,CuDef*
G36*
G01*
X213873020Y-33387350D02*
X213873020Y-32474850D01*
G75*
G02*
X214116770Y-32231100I243750J0D01*
G01*
X214604270Y-32231100D01*
G75*
G02*
X214848020Y-32474850I0J-243750D01*
G01*
X214848020Y-33387350D01*
G75*
G02*
X214604270Y-33631100I-243750J0D01*
G01*
X214116770Y-33631100D01*
G75*
G02*
X213873020Y-33387350I0J243750D01*
G01*
G37*
G04 #@! TD.AperFunction*
G04 #@! TA.AperFunction,SMDPad,CuDef*
G36*
G01*
X215748020Y-33387350D02*
X215748020Y-32474850D01*
G75*
G02*
X215991770Y-32231100I243750J0D01*
G01*
X216479270Y-32231100D01*
G75*
G02*
X216723020Y-32474850I0J-243750D01*
G01*
X216723020Y-33387350D01*
G75*
G02*
X216479270Y-33631100I-243750J0D01*
G01*
X215991770Y-33631100D01*
G75*
G02*
X215748020Y-33387350I0J243750D01*
G01*
G37*
G04 #@! TD.AperFunction*
D10*
X227010000Y-30835600D03*
X226060000Y-30835600D03*
X225110000Y-30835600D03*
X225110000Y-28215600D03*
X227010000Y-28215600D03*
G04 #@! TA.AperFunction,SMDPad,CuDef*
G36*
G01*
X213828120Y-25240560D02*
X213828120Y-23090560D01*
G75*
G02*
X214078120Y-22840560I250000J0D01*
G01*
X214828120Y-22840560D01*
G75*
G02*
X215078120Y-23090560I0J-250000D01*
G01*
X215078120Y-25240560D01*
G75*
G02*
X214828120Y-25490560I-250000J0D01*
G01*
X214078120Y-25490560D01*
G75*
G02*
X213828120Y-25240560I0J250000D01*
G01*
G37*
G04 #@! TD.AperFunction*
G04 #@! TA.AperFunction,SMDPad,CuDef*
G36*
G01*
X211028120Y-25240560D02*
X211028120Y-23090560D01*
G75*
G02*
X211278120Y-22840560I250000J0D01*
G01*
X212028120Y-22840560D01*
G75*
G02*
X212278120Y-23090560I0J-250000D01*
G01*
X212278120Y-25240560D01*
G75*
G02*
X212028120Y-25490560I-250000J0D01*
G01*
X211278120Y-25490560D01*
G75*
G02*
X211028120Y-25240560I0J250000D01*
G01*
G37*
G04 #@! TD.AperFunction*
G04 #@! TA.AperFunction,SMDPad,CuDef*
G36*
G01*
X214817780Y-34331590D02*
X214817780Y-35244090D01*
G75*
G02*
X214574030Y-35487840I-243750J0D01*
G01*
X214086530Y-35487840D01*
G75*
G02*
X213842780Y-35244090I0J243750D01*
G01*
X213842780Y-34331590D01*
G75*
G02*
X214086530Y-34087840I243750J0D01*
G01*
X214574030Y-34087840D01*
G75*
G02*
X214817780Y-34331590I0J-243750D01*
G01*
G37*
G04 #@! TD.AperFunction*
G04 #@! TA.AperFunction,SMDPad,CuDef*
G36*
G01*
X216692780Y-34331590D02*
X216692780Y-35244090D01*
G75*
G02*
X216449030Y-35487840I-243750J0D01*
G01*
X215961530Y-35487840D01*
G75*
G02*
X215717780Y-35244090I0J243750D01*
G01*
X215717780Y-34331590D01*
G75*
G02*
X215961530Y-34087840I243750J0D01*
G01*
X216449030Y-34087840D01*
G75*
G02*
X216692780Y-34331590I0J-243750D01*
G01*
G37*
G04 #@! TD.AperFunction*
G04 #@! TA.AperFunction,SMDPad,CuDef*
G36*
G01*
X217372620Y-34917220D02*
X219522620Y-34917220D01*
G75*
G02*
X219772620Y-35167220I0J-250000D01*
G01*
X219772620Y-35917220D01*
G75*
G02*
X219522620Y-36167220I-250000J0D01*
G01*
X217372620Y-36167220D01*
G75*
G02*
X217122620Y-35917220I0J250000D01*
G01*
X217122620Y-35167220D01*
G75*
G02*
X217372620Y-34917220I250000J0D01*
G01*
G37*
G04 #@! TD.AperFunction*
G04 #@! TA.AperFunction,SMDPad,CuDef*
G36*
G01*
X217372620Y-37717220D02*
X219522620Y-37717220D01*
G75*
G02*
X219772620Y-37967220I0J-250000D01*
G01*
X219772620Y-38717220D01*
G75*
G02*
X219522620Y-38967220I-250000J0D01*
G01*
X217372620Y-38967220D01*
G75*
G02*
X217122620Y-38717220I0J250000D01*
G01*
X217122620Y-37967220D01*
G75*
G02*
X217372620Y-37717220I250000J0D01*
G01*
G37*
G04 #@! TD.AperFunction*
D14*
X226314000Y-38608000D03*
X226314000Y-35308000D03*
X218307920Y-30903640D03*
X218307920Y-34203640D03*
G04 #@! TA.AperFunction,SMDPad,CuDef*
G36*
G01*
X209879900Y-33364490D02*
X209879900Y-32451990D01*
G75*
G02*
X210123650Y-32208240I243750J0D01*
G01*
X210611150Y-32208240D01*
G75*
G02*
X210854900Y-32451990I0J-243750D01*
G01*
X210854900Y-33364490D01*
G75*
G02*
X210611150Y-33608240I-243750J0D01*
G01*
X210123650Y-33608240D01*
G75*
G02*
X209879900Y-33364490I0J243750D01*
G01*
G37*
G04 #@! TD.AperFunction*
G04 #@! TA.AperFunction,SMDPad,CuDef*
G36*
G01*
X211754900Y-33364490D02*
X211754900Y-32451990D01*
G75*
G02*
X211998650Y-32208240I243750J0D01*
G01*
X212486150Y-32208240D01*
G75*
G02*
X212729900Y-32451990I0J-243750D01*
G01*
X212729900Y-33364490D01*
G75*
G02*
X212486150Y-33608240I-243750J0D01*
G01*
X211998650Y-33608240D01*
G75*
G02*
X211754900Y-33364490I0J243750D01*
G01*
G37*
G04 #@! TD.AperFunction*
G04 #@! TA.AperFunction,SMDPad,CuDef*
G36*
G01*
X209246150Y-22981620D02*
X210158650Y-22981620D01*
G75*
G02*
X210402400Y-23225370I0J-243750D01*
G01*
X210402400Y-23712870D01*
G75*
G02*
X210158650Y-23956620I-243750J0D01*
G01*
X209246150Y-23956620D01*
G75*
G02*
X209002400Y-23712870I0J243750D01*
G01*
X209002400Y-23225370D01*
G75*
G02*
X209246150Y-22981620I243750J0D01*
G01*
G37*
G04 #@! TD.AperFunction*
G04 #@! TA.AperFunction,SMDPad,CuDef*
G36*
G01*
X209246150Y-24856620D02*
X210158650Y-24856620D01*
G75*
G02*
X210402400Y-25100370I0J-243750D01*
G01*
X210402400Y-25587870D01*
G75*
G02*
X210158650Y-25831620I-243750J0D01*
G01*
X209246150Y-25831620D01*
G75*
G02*
X209002400Y-25587870I0J243750D01*
G01*
X209002400Y-25100370D01*
G75*
G02*
X209246150Y-24856620I243750J0D01*
G01*
G37*
G04 #@! TD.AperFunction*
G04 #@! TA.AperFunction,SMDPad,CuDef*
G36*
G01*
X223027900Y-32866650D02*
X223027900Y-31954150D01*
G75*
G02*
X223271650Y-31710400I243750J0D01*
G01*
X223759150Y-31710400D01*
G75*
G02*
X224002900Y-31954150I0J-243750D01*
G01*
X224002900Y-32866650D01*
G75*
G02*
X223759150Y-33110400I-243750J0D01*
G01*
X223271650Y-33110400D01*
G75*
G02*
X223027900Y-32866650I0J243750D01*
G01*
G37*
G04 #@! TD.AperFunction*
G04 #@! TA.AperFunction,SMDPad,CuDef*
G36*
G01*
X221152900Y-32866650D02*
X221152900Y-31954150D01*
G75*
G02*
X221396650Y-31710400I243750J0D01*
G01*
X221884150Y-31710400D01*
G75*
G02*
X222127900Y-31954150I0J-243750D01*
G01*
X222127900Y-32866650D01*
G75*
G02*
X221884150Y-33110400I-243750J0D01*
G01*
X221396650Y-33110400D01*
G75*
G02*
X221152900Y-32866650I0J243750D01*
G01*
G37*
G04 #@! TD.AperFunction*
G04 #@! TA.AperFunction,SMDPad,CuDef*
G36*
G01*
X216674520Y-36188330D02*
X216674520Y-37100830D01*
G75*
G02*
X216430770Y-37344580I-243750J0D01*
G01*
X215943270Y-37344580D01*
G75*
G02*
X215699520Y-37100830I0J243750D01*
G01*
X215699520Y-36188330D01*
G75*
G02*
X215943270Y-35944580I243750J0D01*
G01*
X216430770Y-35944580D01*
G75*
G02*
X216674520Y-36188330I0J-243750D01*
G01*
G37*
G04 #@! TD.AperFunction*
G04 #@! TA.AperFunction,SMDPad,CuDef*
G36*
G01*
X214799520Y-36188330D02*
X214799520Y-37100830D01*
G75*
G02*
X214555770Y-37344580I-243750J0D01*
G01*
X214068270Y-37344580D01*
G75*
G02*
X213824520Y-37100830I0J243750D01*
G01*
X213824520Y-36188330D01*
G75*
G02*
X214068270Y-35944580I243750J0D01*
G01*
X214555770Y-35944580D01*
G75*
G02*
X214799520Y-36188330I0J-243750D01*
G01*
G37*
G04 #@! TD.AperFunction*
G04 #@! TA.AperFunction,SMDPad,CuDef*
G36*
G01*
X228203460Y-30509530D02*
X228203460Y-29597030D01*
G75*
G02*
X228447210Y-29353280I243750J0D01*
G01*
X228934710Y-29353280D01*
G75*
G02*
X229178460Y-29597030I0J-243750D01*
G01*
X229178460Y-30509530D01*
G75*
G02*
X228934710Y-30753280I-243750J0D01*
G01*
X228447210Y-30753280D01*
G75*
G02*
X228203460Y-30509530I0J243750D01*
G01*
G37*
G04 #@! TD.AperFunction*
G04 #@! TA.AperFunction,SMDPad,CuDef*
G36*
G01*
X230078460Y-30509530D02*
X230078460Y-29597030D01*
G75*
G02*
X230322210Y-29353280I243750J0D01*
G01*
X230809710Y-29353280D01*
G75*
G02*
X231053460Y-29597030I0J-243750D01*
G01*
X231053460Y-30509530D01*
G75*
G02*
X230809710Y-30753280I-243750J0D01*
G01*
X230322210Y-30753280D01*
G75*
G02*
X230078460Y-30509530I0J243750D01*
G01*
G37*
G04 #@! TD.AperFunction*
G04 #@! TA.AperFunction,SMDPad,CuDef*
G36*
G01*
X225601850Y-32800900D02*
X224689350Y-32800900D01*
G75*
G02*
X224445600Y-32557150I0J243750D01*
G01*
X224445600Y-32069650D01*
G75*
G02*
X224689350Y-31825900I243750J0D01*
G01*
X225601850Y-31825900D01*
G75*
G02*
X225845600Y-32069650I0J-243750D01*
G01*
X225845600Y-32557150D01*
G75*
G02*
X225601850Y-32800900I-243750J0D01*
G01*
G37*
G04 #@! TD.AperFunction*
G04 #@! TA.AperFunction,SMDPad,CuDef*
G36*
G01*
X225601850Y-34675900D02*
X224689350Y-34675900D01*
G75*
G02*
X224445600Y-34432150I0J243750D01*
G01*
X224445600Y-33944650D01*
G75*
G02*
X224689350Y-33700900I243750J0D01*
G01*
X225601850Y-33700900D01*
G75*
G02*
X225845600Y-33944650I0J-243750D01*
G01*
X225845600Y-34432150D01*
G75*
G02*
X225601850Y-34675900I-243750J0D01*
G01*
G37*
G04 #@! TD.AperFunction*
G04 #@! TA.AperFunction,SMDPad,CuDef*
G36*
G01*
X224053700Y-29718950D02*
X224053700Y-30631450D01*
G75*
G02*
X223809950Y-30875200I-243750J0D01*
G01*
X223322450Y-30875200D01*
G75*
G02*
X223078700Y-30631450I0J243750D01*
G01*
X223078700Y-29718950D01*
G75*
G02*
X223322450Y-29475200I243750J0D01*
G01*
X223809950Y-29475200D01*
G75*
G02*
X224053700Y-29718950I0J-243750D01*
G01*
G37*
G04 #@! TD.AperFunction*
G04 #@! TA.AperFunction,SMDPad,CuDef*
G36*
G01*
X222178700Y-29718950D02*
X222178700Y-30631450D01*
G75*
G02*
X221934950Y-30875200I-243750J0D01*
G01*
X221447450Y-30875200D01*
G75*
G02*
X221203700Y-30631450I0J243750D01*
G01*
X221203700Y-29718950D01*
G75*
G02*
X221447450Y-29475200I243750J0D01*
G01*
X221934950Y-29475200D01*
G75*
G02*
X222178700Y-29718950I0J-243750D01*
G01*
G37*
G04 #@! TD.AperFunction*
G04 #@! TA.AperFunction,SMDPad,CuDef*
G36*
G01*
X221203700Y-28802650D02*
X221203700Y-27890150D01*
G75*
G02*
X221447450Y-27646400I243750J0D01*
G01*
X221934950Y-27646400D01*
G75*
G02*
X222178700Y-27890150I0J-243750D01*
G01*
X222178700Y-28802650D01*
G75*
G02*
X221934950Y-29046400I-243750J0D01*
G01*
X221447450Y-29046400D01*
G75*
G02*
X221203700Y-28802650I0J243750D01*
G01*
G37*
G04 #@! TD.AperFunction*
G04 #@! TA.AperFunction,SMDPad,CuDef*
G36*
G01*
X223078700Y-28802650D02*
X223078700Y-27890150D01*
G75*
G02*
X223322450Y-27646400I243750J0D01*
G01*
X223809950Y-27646400D01*
G75*
G02*
X224053700Y-27890150I0J-243750D01*
G01*
X224053700Y-28802650D01*
G75*
G02*
X223809950Y-29046400I-243750J0D01*
G01*
X223322450Y-29046400D01*
G75*
G02*
X223078700Y-28802650I0J243750D01*
G01*
G37*
G04 #@! TD.AperFunction*
D12*
X209798920Y-21808440D03*
X219964000Y-32359600D03*
X222554800Y-37185600D03*
G04 #@! TA.AperFunction,SMDPad,CuDef*
G36*
G01*
X223927350Y-36601100D02*
X224839850Y-36601100D01*
G75*
G02*
X225083600Y-36844850I0J-243750D01*
G01*
X225083600Y-37332350D01*
G75*
G02*
X224839850Y-37576100I-243750J0D01*
G01*
X223927350Y-37576100D01*
G75*
G02*
X223683600Y-37332350I0J243750D01*
G01*
X223683600Y-36844850D01*
G75*
G02*
X223927350Y-36601100I243750J0D01*
G01*
G37*
G04 #@! TD.AperFunction*
G04 #@! TA.AperFunction,SMDPad,CuDef*
G36*
G01*
X223927350Y-38476100D02*
X224839850Y-38476100D01*
G75*
G02*
X225083600Y-38719850I0J-243750D01*
G01*
X225083600Y-39207350D01*
G75*
G02*
X224839850Y-39451100I-243750J0D01*
G01*
X223927350Y-39451100D01*
G75*
G02*
X223683600Y-39207350I0J243750D01*
G01*
X223683600Y-38719850D01*
G75*
G02*
X223927350Y-38476100I243750J0D01*
G01*
G37*
G04 #@! TD.AperFunction*
G04 #@! TA.AperFunction,SMDPad,CuDef*
G36*
G01*
X227227450Y-32796300D02*
X226314950Y-32796300D01*
G75*
G02*
X226071200Y-32552550I0J243750D01*
G01*
X226071200Y-32065050D01*
G75*
G02*
X226314950Y-31821300I243750J0D01*
G01*
X227227450Y-31821300D01*
G75*
G02*
X227471200Y-32065050I0J-243750D01*
G01*
X227471200Y-32552550D01*
G75*
G02*
X227227450Y-32796300I-243750J0D01*
G01*
G37*
G04 #@! TD.AperFunction*
G04 #@! TA.AperFunction,SMDPad,CuDef*
G36*
G01*
X227227450Y-34671300D02*
X226314950Y-34671300D01*
G75*
G02*
X226071200Y-34427550I0J243750D01*
G01*
X226071200Y-33940050D01*
G75*
G02*
X226314950Y-33696300I243750J0D01*
G01*
X227227450Y-33696300D01*
G75*
G02*
X227471200Y-33940050I0J-243750D01*
G01*
X227471200Y-34427550D01*
G75*
G02*
X227227450Y-34671300I-243750J0D01*
G01*
G37*
G04 #@! TD.AperFunction*
G04 #@! TA.AperFunction,SMDPad,CuDef*
G36*
G01*
X228178060Y-28701050D02*
X228178060Y-27788550D01*
G75*
G02*
X228421810Y-27544800I243750J0D01*
G01*
X228909310Y-27544800D01*
G75*
G02*
X229153060Y-27788550I0J-243750D01*
G01*
X229153060Y-28701050D01*
G75*
G02*
X228909310Y-28944800I-243750J0D01*
G01*
X228421810Y-28944800D01*
G75*
G02*
X228178060Y-28701050I0J243750D01*
G01*
G37*
G04 #@! TD.AperFunction*
G04 #@! TA.AperFunction,SMDPad,CuDef*
G36*
G01*
X230053060Y-28701050D02*
X230053060Y-27788550D01*
G75*
G02*
X230296810Y-27544800I243750J0D01*
G01*
X230784310Y-27544800D01*
G75*
G02*
X231028060Y-27788550I0J-243750D01*
G01*
X231028060Y-28701050D01*
G75*
G02*
X230784310Y-28944800I-243750J0D01*
G01*
X230296810Y-28944800D01*
G75*
G02*
X230053060Y-28701050I0J243750D01*
G01*
G37*
G04 #@! TD.AperFunction*
G04 #@! TA.AperFunction,SMDPad,CuDef*
G36*
G01*
X218796550Y-24452760D02*
X219709050Y-24452760D01*
G75*
G02*
X219952800Y-24696510I0J-243750D01*
G01*
X219952800Y-25184010D01*
G75*
G02*
X219709050Y-25427760I-243750J0D01*
G01*
X218796550Y-25427760D01*
G75*
G02*
X218552800Y-25184010I0J243750D01*
G01*
X218552800Y-24696510D01*
G75*
G02*
X218796550Y-24452760I243750J0D01*
G01*
G37*
G04 #@! TD.AperFunction*
G04 #@! TA.AperFunction,SMDPad,CuDef*
G36*
G01*
X218796550Y-22577760D02*
X219709050Y-22577760D01*
G75*
G02*
X219952800Y-22821510I0J-243750D01*
G01*
X219952800Y-23309010D01*
G75*
G02*
X219709050Y-23552760I-243750J0D01*
G01*
X218796550Y-23552760D01*
G75*
G02*
X218552800Y-23309010I0J243750D01*
G01*
X218552800Y-22821510D01*
G75*
G02*
X218796550Y-22577760I243750J0D01*
G01*
G37*
G04 #@! TD.AperFunction*
G04 #@! TA.AperFunction,SMDPad,CuDef*
G36*
G01*
X214817780Y-38017130D02*
X214817780Y-38929630D01*
G75*
G02*
X214574030Y-39173380I-243750J0D01*
G01*
X214086530Y-39173380D01*
G75*
G02*
X213842780Y-38929630I0J243750D01*
G01*
X213842780Y-38017130D01*
G75*
G02*
X214086530Y-37773380I243750J0D01*
G01*
X214574030Y-37773380D01*
G75*
G02*
X214817780Y-38017130I0J-243750D01*
G01*
G37*
G04 #@! TD.AperFunction*
G04 #@! TA.AperFunction,SMDPad,CuDef*
G36*
G01*
X216692780Y-38017130D02*
X216692780Y-38929630D01*
G75*
G02*
X216449030Y-39173380I-243750J0D01*
G01*
X215961530Y-39173380D01*
G75*
G02*
X215717780Y-38929630I0J243750D01*
G01*
X215717780Y-38017130D01*
G75*
G02*
X215961530Y-37773380I243750J0D01*
G01*
X216449030Y-37773380D01*
G75*
G02*
X216692780Y-38017130I0J-243750D01*
G01*
G37*
G04 #@! TD.AperFunction*
D10*
X225430000Y-23825200D03*
X226380000Y-23825200D03*
X227330000Y-23825200D03*
X227330000Y-26445200D03*
X225430000Y-26445200D03*
G04 #@! TA.AperFunction,SMDPad,CuDef*
G36*
G01*
X209132360Y-31422920D02*
X209132360Y-29272920D01*
G75*
G02*
X209382360Y-29022920I250000J0D01*
G01*
X210132360Y-29022920D01*
G75*
G02*
X210382360Y-29272920I0J-250000D01*
G01*
X210382360Y-31422920D01*
G75*
G02*
X210132360Y-31672920I-250000J0D01*
G01*
X209382360Y-31672920D01*
G75*
G02*
X209132360Y-31422920I0J250000D01*
G01*
G37*
G04 #@! TD.AperFunction*
G04 #@! TA.AperFunction,SMDPad,CuDef*
G36*
G01*
X211932360Y-31422920D02*
X211932360Y-29272920D01*
G75*
G02*
X212182360Y-29022920I250000J0D01*
G01*
X212932360Y-29022920D01*
G75*
G02*
X213182360Y-29272920I0J-250000D01*
G01*
X213182360Y-31422920D01*
G75*
G02*
X212932360Y-31672920I-250000J0D01*
G01*
X212182360Y-31672920D01*
G75*
G02*
X211932360Y-31422920I0J250000D01*
G01*
G37*
G04 #@! TD.AperFunction*
G04 #@! TA.AperFunction,SMDPad,CuDef*
G36*
G01*
X211905340Y-28410480D02*
X211905340Y-26260480D01*
G75*
G02*
X212155340Y-26010480I250000J0D01*
G01*
X212905340Y-26010480D01*
G75*
G02*
X213155340Y-26260480I0J-250000D01*
G01*
X213155340Y-28410480D01*
G75*
G02*
X212905340Y-28660480I-250000J0D01*
G01*
X212155340Y-28660480D01*
G75*
G02*
X211905340Y-28410480I0J250000D01*
G01*
G37*
G04 #@! TD.AperFunction*
G04 #@! TA.AperFunction,SMDPad,CuDef*
G36*
G01*
X209105340Y-28410480D02*
X209105340Y-26260480D01*
G75*
G02*
X209355340Y-26010480I250000J0D01*
G01*
X210105340Y-26010480D01*
G75*
G02*
X210355340Y-26260480I0J-250000D01*
G01*
X210355340Y-28410480D01*
G75*
G02*
X210105340Y-28660480I-250000J0D01*
G01*
X209355340Y-28660480D01*
G75*
G02*
X209105340Y-28410480I0J250000D01*
G01*
G37*
G04 #@! TD.AperFunction*
G04 #@! TA.AperFunction,SMDPad,CuDef*
G36*
G01*
X213814500Y-22240820D02*
X213814500Y-20090820D01*
G75*
G02*
X214064500Y-19840820I250000J0D01*
G01*
X214814500Y-19840820D01*
G75*
G02*
X215064500Y-20090820I0J-250000D01*
G01*
X215064500Y-22240820D01*
G75*
G02*
X214814500Y-22490820I-250000J0D01*
G01*
X214064500Y-22490820D01*
G75*
G02*
X213814500Y-22240820I0J250000D01*
G01*
G37*
G04 #@! TD.AperFunction*
G04 #@! TA.AperFunction,SMDPad,CuDef*
G36*
G01*
X211014500Y-22240820D02*
X211014500Y-20090820D01*
G75*
G02*
X211264500Y-19840820I250000J0D01*
G01*
X212014500Y-19840820D01*
G75*
G02*
X212264500Y-20090820I0J-250000D01*
G01*
X212264500Y-22240820D01*
G75*
G02*
X212014500Y-22490820I-250000J0D01*
G01*
X211264500Y-22490820D01*
G75*
G02*
X211014500Y-22240820I0J250000D01*
G01*
G37*
G04 #@! TD.AperFunction*
D12*
X227228400Y-20116800D03*
G04 #@! TA.AperFunction,SMDPad,CuDef*
G36*
G01*
X217822200Y-26089800D02*
X219972200Y-26089800D01*
G75*
G02*
X220222200Y-26339800I0J-250000D01*
G01*
X220222200Y-27089800D01*
G75*
G02*
X219972200Y-27339800I-250000J0D01*
G01*
X217822200Y-27339800D01*
G75*
G02*
X217572200Y-27089800I0J250000D01*
G01*
X217572200Y-26339800D01*
G75*
G02*
X217822200Y-26089800I250000J0D01*
G01*
G37*
G04 #@! TD.AperFunction*
G04 #@! TA.AperFunction,SMDPad,CuDef*
G36*
G01*
X217822200Y-28889800D02*
X219972200Y-28889800D01*
G75*
G02*
X220222200Y-29139800I0J-250000D01*
G01*
X220222200Y-29889800D01*
G75*
G02*
X219972200Y-30139800I-250000J0D01*
G01*
X217822200Y-30139800D01*
G75*
G02*
X217572200Y-29889800I0J250000D01*
G01*
X217572200Y-29139800D01*
G75*
G02*
X217822200Y-28889800I250000J0D01*
G01*
G37*
G04 #@! TD.AperFunction*
G04 #@! TA.AperFunction,SMDPad,CuDef*
G36*
G01*
X223630600Y-27277700D02*
X221580600Y-27277700D01*
G75*
G02*
X221330600Y-27027700I0J250000D01*
G01*
X221330600Y-25452700D01*
G75*
G02*
X221580600Y-25202700I250000J0D01*
G01*
X223630600Y-25202700D01*
G75*
G02*
X223880600Y-25452700I0J-250000D01*
G01*
X223880600Y-27027700D01*
G75*
G02*
X223630600Y-27277700I-250000J0D01*
G01*
G37*
G04 #@! TD.AperFunction*
G04 #@! TA.AperFunction,SMDPad,CuDef*
G36*
G01*
X223630600Y-21052700D02*
X221580600Y-21052700D01*
G75*
G02*
X221330600Y-20802700I0J250000D01*
G01*
X221330600Y-19227700D01*
G75*
G02*
X221580600Y-18977700I250000J0D01*
G01*
X223630600Y-18977700D01*
G75*
G02*
X223880600Y-19227700I0J-250000D01*
G01*
X223880600Y-20802700D01*
G75*
G02*
X223630600Y-21052700I-250000J0D01*
G01*
G37*
G04 #@! TD.AperFunction*
G04 #@! TA.AperFunction,SMDPad,CuDef*
G36*
G01*
X227766700Y-21133750D02*
X227766700Y-22046250D01*
G75*
G02*
X227522950Y-22290000I-243750J0D01*
G01*
X227035450Y-22290000D01*
G75*
G02*
X226791700Y-22046250I0J243750D01*
G01*
X226791700Y-21133750D01*
G75*
G02*
X227035450Y-20890000I243750J0D01*
G01*
X227522950Y-20890000D01*
G75*
G02*
X227766700Y-21133750I0J-243750D01*
G01*
G37*
G04 #@! TD.AperFunction*
G04 #@! TA.AperFunction,SMDPad,CuDef*
G36*
G01*
X225891700Y-21133750D02*
X225891700Y-22046250D01*
G75*
G02*
X225647950Y-22290000I-243750J0D01*
G01*
X225160450Y-22290000D01*
G75*
G02*
X224916700Y-22046250I0J243750D01*
G01*
X224916700Y-21133750D01*
G75*
G02*
X225160450Y-20890000I243750J0D01*
G01*
X225647950Y-20890000D01*
G75*
G02*
X225891700Y-21133750I0J-243750D01*
G01*
G37*
G04 #@! TD.AperFunction*
G04 #@! TA.AperFunction,SMDPad,CuDef*
G36*
G01*
X232069800Y-19854600D02*
X232069800Y-22004600D01*
G75*
G02*
X231819800Y-22254600I-250000J0D01*
G01*
X231069800Y-22254600D01*
G75*
G02*
X230819800Y-22004600I0J250000D01*
G01*
X230819800Y-19854600D01*
G75*
G02*
X231069800Y-19604600I250000J0D01*
G01*
X231819800Y-19604600D01*
G75*
G02*
X232069800Y-19854600I0J-250000D01*
G01*
G37*
G04 #@! TD.AperFunction*
G04 #@! TA.AperFunction,SMDPad,CuDef*
G36*
G01*
X229269800Y-19854600D02*
X229269800Y-22004600D01*
G75*
G02*
X229019800Y-22254600I-250000J0D01*
G01*
X228269800Y-22254600D01*
G75*
G02*
X228019800Y-22004600I0J250000D01*
G01*
X228019800Y-19854600D01*
G75*
G02*
X228269800Y-19604600I250000J0D01*
G01*
X229019800Y-19604600D01*
G75*
G02*
X229269800Y-19854600I0J-250000D01*
G01*
G37*
G04 #@! TD.AperFunction*
G04 #@! TA.AperFunction,SMDPad,CuDef*
G36*
G01*
X216840750Y-23485020D02*
X217753250Y-23485020D01*
G75*
G02*
X217997000Y-23728770I0J-243750D01*
G01*
X217997000Y-24216270D01*
G75*
G02*
X217753250Y-24460020I-243750J0D01*
G01*
X216840750Y-24460020D01*
G75*
G02*
X216597000Y-24216270I0J243750D01*
G01*
X216597000Y-23728770D01*
G75*
G02*
X216840750Y-23485020I243750J0D01*
G01*
G37*
G04 #@! TD.AperFunction*
G04 #@! TA.AperFunction,SMDPad,CuDef*
G36*
G01*
X216840750Y-21610020D02*
X217753250Y-21610020D01*
G75*
G02*
X217997000Y-21853770I0J-243750D01*
G01*
X217997000Y-22341270D01*
G75*
G02*
X217753250Y-22585020I-243750J0D01*
G01*
X216840750Y-22585020D01*
G75*
G02*
X216597000Y-22341270I0J243750D01*
G01*
X216597000Y-21853770D01*
G75*
G02*
X216840750Y-21610020I243750J0D01*
G01*
G37*
G04 #@! TD.AperFunction*
G04 #@! TA.AperFunction,SMDPad,CuDef*
G36*
G01*
X216788600Y-26442350D02*
X216788600Y-27354850D01*
G75*
G02*
X216544850Y-27598600I-243750J0D01*
G01*
X216057350Y-27598600D01*
G75*
G02*
X215813600Y-27354850I0J243750D01*
G01*
X215813600Y-26442350D01*
G75*
G02*
X216057350Y-26198600I243750J0D01*
G01*
X216544850Y-26198600D01*
G75*
G02*
X216788600Y-26442350I0J-243750D01*
G01*
G37*
G04 #@! TD.AperFunction*
G04 #@! TA.AperFunction,SMDPad,CuDef*
G36*
G01*
X214913600Y-26442350D02*
X214913600Y-27354850D01*
G75*
G02*
X214669850Y-27598600I-243750J0D01*
G01*
X214182350Y-27598600D01*
G75*
G02*
X213938600Y-27354850I0J243750D01*
G01*
X213938600Y-26442350D01*
G75*
G02*
X214182350Y-26198600I243750J0D01*
G01*
X214669850Y-26198600D01*
G75*
G02*
X214913600Y-26442350I0J-243750D01*
G01*
G37*
G04 #@! TD.AperFunction*
G04 #@! TA.AperFunction,SMDPad,CuDef*
G36*
G01*
X210519520Y-34808000D02*
X210519520Y-36058000D01*
G75*
G02*
X210269520Y-36308000I-250000J0D01*
G01*
X209519520Y-36308000D01*
G75*
G02*
X209269520Y-36058000I0J250000D01*
G01*
X209269520Y-34808000D01*
G75*
G02*
X209519520Y-34558000I250000J0D01*
G01*
X210269520Y-34558000D01*
G75*
G02*
X210519520Y-34808000I0J-250000D01*
G01*
G37*
G04 #@! TD.AperFunction*
G04 #@! TA.AperFunction,SMDPad,CuDef*
G36*
G01*
X213319520Y-34808000D02*
X213319520Y-36058000D01*
G75*
G02*
X213069520Y-36308000I-250000J0D01*
G01*
X212319520Y-36308000D01*
G75*
G02*
X212069520Y-36058000I0J250000D01*
G01*
X212069520Y-34808000D01*
G75*
G02*
X212319520Y-34558000I250000J0D01*
G01*
X213069520Y-34558000D01*
G75*
G02*
X213319520Y-34808000I0J-250000D01*
G01*
G37*
G04 #@! TD.AperFunction*
G04 #@! TA.AperFunction,SMDPad,CuDef*
G36*
G01*
X213315360Y-37203220D02*
X213315360Y-38453220D01*
G75*
G02*
X213065360Y-38703220I-250000J0D01*
G01*
X212315360Y-38703220D01*
G75*
G02*
X212065360Y-38453220I0J250000D01*
G01*
X212065360Y-37203220D01*
G75*
G02*
X212315360Y-36953220I250000J0D01*
G01*
X213065360Y-36953220D01*
G75*
G02*
X213315360Y-37203220I0J-250000D01*
G01*
G37*
G04 #@! TD.AperFunction*
G04 #@! TA.AperFunction,SMDPad,CuDef*
G36*
G01*
X210515360Y-37203220D02*
X210515360Y-38453220D01*
G75*
G02*
X210265360Y-38703220I-250000J0D01*
G01*
X209515360Y-38703220D01*
G75*
G02*
X209265360Y-38453220I0J250000D01*
G01*
X209265360Y-37203220D01*
G75*
G02*
X209515360Y-36953220I250000J0D01*
G01*
X210265360Y-36953220D01*
G75*
G02*
X210515360Y-37203220I0J-250000D01*
G01*
G37*
G04 #@! TD.AperFunction*
D15*
X228530800Y-33885400D03*
X228530800Y-34535400D03*
X228530800Y-35185400D03*
X228530800Y-35835400D03*
X228530800Y-36485400D03*
D16*
X228890800Y-32722900D03*
X228890800Y-37647900D03*
D17*
X231190800Y-32275400D03*
X231190800Y-38095400D03*
D18*
X231190800Y-34345400D03*
X231190800Y-36025400D03*
D19*
X221467680Y-20736560D03*
D20*
X224282000Y-21539200D03*
D19*
X220075760Y-38719760D03*
D20*
X209346800Y-19253200D03*
D19*
X228650800Y-38658800D03*
X224332800Y-19507200D03*
X208940400Y-36657280D03*
D20*
X221173040Y-22961600D03*
D19*
X232140760Y-26090880D03*
X231241600Y-34493200D03*
D20*
X226009200Y-27076400D03*
D19*
X216418160Y-24673560D03*
D20*
X213004400Y-19253200D03*
X218236800Y-20269200D03*
D21*
X231343200Y-34162000D02*
X231343200Y-35814000D01*
X230140400Y-32969200D02*
X231343200Y-32969200D01*
X230138200Y-32967000D02*
X230140400Y-32969200D01*
X229113200Y-32967000D02*
X230138200Y-32967000D01*
X231343200Y-32969200D02*
X231343200Y-34162000D01*
X228693200Y-37187000D02*
X229113200Y-37607000D01*
X228693200Y-36587000D02*
X228693200Y-37187000D01*
X231343200Y-31712000D02*
X231343200Y-32969200D01*
X229940800Y-38760400D02*
X231190800Y-38760400D01*
X230155800Y-36310400D02*
X228960800Y-37505400D01*
X231190800Y-36310400D02*
X230155800Y-36310400D01*
X228955600Y-38385600D02*
X228650800Y-38658800D01*
X228960800Y-38380400D02*
X228955600Y-38385600D01*
X228960800Y-37505400D02*
X228960800Y-38380400D01*
X228955600Y-38760400D02*
X229940800Y-38760400D01*
X231343200Y-35814000D02*
X231343200Y-36412000D01*
X231190800Y-36310400D02*
X231190800Y-38760400D01*
D22*
X209890360Y-37828220D02*
X210282790Y-38220650D01*
X217120120Y-39669720D02*
X218447620Y-38342220D01*
D21*
X212530340Y-30159960D02*
X212530340Y-27335480D01*
D22*
X212530340Y-30159960D02*
X214984980Y-30159960D01*
D21*
X214439500Y-23992840D02*
X214398860Y-24033480D01*
X214439500Y-21165820D02*
X214439500Y-23992840D01*
X214475980Y-24110600D02*
X214398860Y-24033480D01*
X211805340Y-30159960D02*
X211312760Y-30652540D01*
X212530340Y-30159960D02*
X211805340Y-30159960D01*
D23*
X211312760Y-30652540D02*
X211312760Y-33581340D01*
D22*
X211731860Y-39669720D02*
X215267540Y-39669720D01*
X215267540Y-39669720D02*
X217120120Y-39669720D01*
D21*
X215648020Y-32931100D02*
X215612460Y-32895540D01*
X216235520Y-32931100D02*
X215648020Y-32931100D01*
X215267540Y-32194500D02*
X215267540Y-32895540D01*
X215612460Y-32895540D02*
X215267540Y-32895540D01*
D23*
X215267540Y-32895540D02*
X215267540Y-39669720D01*
D22*
X215310680Y-32151360D02*
X215310680Y-31315660D01*
D21*
X215267540Y-32194500D02*
X215310680Y-32151360D01*
X214426800Y-19728120D02*
X214426800Y-19253200D01*
X214439500Y-19740820D02*
X214426800Y-19728120D01*
X214439500Y-21165820D02*
X214439500Y-19740820D01*
X216823020Y-32931100D02*
X217064320Y-33172400D01*
X216235520Y-32931100D02*
X216823020Y-32931100D01*
D22*
X219035422Y-33172400D02*
X219456000Y-33592978D01*
X217064320Y-33172400D02*
X219035422Y-33172400D01*
X219456000Y-33592978D02*
X219456000Y-34036000D01*
D21*
X219456000Y-34036000D02*
X220370400Y-34950400D01*
D22*
X224939837Y-39519837D02*
X228907363Y-39519837D01*
D21*
X224383600Y-38963600D02*
X224939837Y-39519837D01*
X228955600Y-39471600D02*
X228955600Y-38760400D01*
X228907363Y-39519837D02*
X228955600Y-39471600D01*
X228404200Y-32308800D02*
X228960800Y-32865400D01*
X226771200Y-32308800D02*
X228404200Y-32308800D01*
X213963600Y-24468740D02*
X214398860Y-24033480D01*
X213963600Y-26898600D02*
X213963600Y-24468740D01*
X212967220Y-26898600D02*
X212530340Y-27335480D01*
X213963600Y-26898600D02*
X212967220Y-26898600D01*
D22*
X220468600Y-19253200D02*
X214426800Y-19253200D01*
D21*
X221230600Y-20015200D02*
X220468600Y-19253200D01*
X222605600Y-20015200D02*
X221230600Y-20015200D01*
X223713224Y-18907576D02*
X222605600Y-20015200D01*
X224180400Y-21590000D02*
X225404200Y-21590000D01*
X222605600Y-20015200D02*
X224180400Y-21590000D01*
X225721800Y-22707600D02*
X225404200Y-22390000D01*
X225404200Y-22390000D02*
X225404200Y-21590000D01*
X226380000Y-22915200D02*
X226364800Y-22900000D01*
X226364800Y-22900000D02*
X226364800Y-22707600D01*
X226380000Y-23825200D02*
X226380000Y-22915200D01*
X226364800Y-22707600D02*
X225721800Y-22707600D01*
X229580400Y-22773600D02*
X229514400Y-22707600D01*
X229580400Y-23825200D02*
X229580400Y-22773600D01*
X226364800Y-22707600D02*
X229514400Y-22707600D01*
D22*
X214426800Y-19253200D02*
X213004400Y-19253200D01*
D21*
X228650800Y-38658800D02*
X228955600Y-38760400D01*
X226766600Y-32313400D02*
X226771200Y-32308800D01*
X226060000Y-31745600D02*
X226060000Y-32313400D01*
X226060000Y-30835600D02*
X226060000Y-31745600D01*
X226060000Y-32313400D02*
X226766600Y-32313400D01*
X225145600Y-32313400D02*
X226060000Y-32313400D01*
X231015800Y-36485400D02*
X231190800Y-36310400D01*
X228540800Y-36485400D02*
X231015800Y-36485400D01*
D22*
X220370400Y-34950400D02*
X220370400Y-38658800D01*
D21*
X218764200Y-38658800D02*
X218447620Y-38342220D01*
X220370400Y-38658800D02*
X218764200Y-38658800D01*
X224298861Y-18907576D02*
X224231200Y-18907576D01*
X224332800Y-18941515D02*
X224298861Y-18907576D01*
X224332800Y-19507200D02*
X224332800Y-18941515D01*
X224231200Y-18907576D02*
X223713224Y-18907576D01*
X209890360Y-35003740D02*
X209890360Y-36322000D01*
D22*
X230022400Y-18907576D02*
X232064376Y-18907576D01*
X232064376Y-18907576D02*
X232613200Y-19456400D01*
D21*
X231615800Y-31610400D02*
X231190800Y-31610400D01*
X232613200Y-30613000D02*
X231615800Y-31610400D01*
X229514400Y-22707600D02*
X229717600Y-22707600D01*
X229717600Y-22707600D02*
X230022400Y-22402800D01*
X230022400Y-22402800D02*
X230022400Y-18907576D01*
X229895216Y-18907576D02*
X229802250Y-18814610D01*
X230022400Y-18907576D02*
X229895216Y-18907576D01*
X224459705Y-18814610D02*
X224332800Y-18941515D01*
D22*
X229802250Y-18814610D02*
X224459705Y-18814610D01*
D21*
X231178860Y-30027880D02*
X232613200Y-30027880D01*
X231153460Y-30053280D02*
X231178860Y-30027880D01*
X230565960Y-30053280D02*
X231153460Y-30053280D01*
D22*
X232613200Y-30027880D02*
X232613200Y-30613000D01*
D23*
X211312760Y-33581340D02*
X211312760Y-35072320D01*
D22*
X210952080Y-35433000D02*
X209894520Y-35433000D01*
X211312760Y-35072320D02*
X210952080Y-35433000D01*
D21*
X209506085Y-36657280D02*
X209890360Y-36657280D01*
X208940400Y-36657280D02*
X209506085Y-36657280D01*
X209890360Y-36657280D02*
X209890360Y-37828220D01*
X209890360Y-36322000D02*
X209890360Y-36657280D01*
X222189040Y-20015200D02*
X221467680Y-20736560D01*
X222605600Y-20015200D02*
X222189040Y-20015200D01*
X222138240Y-22961600D02*
X221173040Y-22961600D01*
X222605600Y-22494240D02*
X222138240Y-22961600D01*
X222605600Y-20015200D02*
X222605600Y-22494240D01*
X214646160Y-23972520D02*
X214453120Y-24165560D01*
X217297000Y-23972520D02*
X214646160Y-23972520D01*
D22*
X232613200Y-28244800D02*
X232613200Y-30027880D01*
D21*
X231128060Y-28244800D02*
X232613200Y-28244800D01*
X230540560Y-28244800D02*
X231128060Y-28244800D01*
X232547160Y-26090880D02*
X232613200Y-26156920D01*
X232140760Y-26090880D02*
X232547160Y-26090880D01*
D22*
X232613200Y-26156920D02*
X232613200Y-28244800D01*
X232613200Y-19456400D02*
X232613200Y-26156920D01*
X209169520Y-35433000D02*
X208366360Y-34629840D01*
D21*
X209894520Y-35433000D02*
X209169520Y-35433000D01*
D22*
X208366360Y-20233640D02*
X209346800Y-19253200D01*
X208366360Y-34629840D02*
X208366360Y-26014680D01*
X215310680Y-30785660D02*
X215310680Y-31315660D01*
X215310680Y-30785660D02*
X215309807Y-30750121D01*
X215309807Y-30750121D02*
X215307192Y-30714669D01*
X215307192Y-30714669D02*
X215302840Y-30679388D01*
X215302840Y-30679388D02*
X215296763Y-30644362D01*
X215296763Y-30644362D02*
X215288974Y-30609677D01*
X215288974Y-30609677D02*
X215279493Y-30575416D01*
X215279493Y-30575416D02*
X215268342Y-30541662D01*
X215268342Y-30541662D02*
X215255548Y-30508495D01*
X215255548Y-30508495D02*
X215241142Y-30475996D01*
X215241142Y-30475996D02*
X215225159Y-30444243D01*
X215225159Y-30444243D02*
X215207637Y-30413312D01*
X215207637Y-30413312D02*
X215188619Y-30383279D01*
X215188619Y-30383279D02*
X215168149Y-30354215D01*
X215168149Y-30354215D02*
X215146279Y-30326190D01*
X215146279Y-30326190D02*
X215123059Y-30299272D01*
X215123059Y-30299272D02*
X215098547Y-30273527D01*
X215098547Y-30273527D02*
X214984980Y-30159960D01*
X214360680Y-29115660D02*
X216260680Y-29115660D01*
D24*
X219252800Y-26359200D02*
X218897200Y-26714800D01*
D22*
X219252800Y-24940260D02*
X219252800Y-26359200D01*
D24*
X216260680Y-26939020D02*
X216301100Y-26898600D01*
D22*
X216260680Y-29115660D02*
X216260680Y-26939020D01*
D24*
X218713400Y-26898600D02*
X218897200Y-26714800D01*
D22*
X216301100Y-26898600D02*
X218713400Y-26898600D01*
X218315540Y-30832520D02*
X218315540Y-30096460D01*
X216672700Y-30903640D02*
X216260680Y-31315660D01*
X218307920Y-30903640D02*
X216672700Y-30903640D01*
D24*
X216205280Y-36626320D02*
X216187020Y-36644580D01*
X216187020Y-38455120D02*
X216205280Y-38473380D01*
D22*
X216187020Y-36644580D02*
X216187020Y-38455120D01*
X216205280Y-34787840D02*
X216205280Y-35521900D01*
X216205280Y-35521900D02*
X216205280Y-36626320D01*
D24*
X218307920Y-35402520D02*
X218447620Y-35542220D01*
D22*
X218307920Y-34203640D02*
X218307920Y-35402520D01*
D24*
X217289380Y-35542220D02*
X218447620Y-35542220D01*
D22*
X216187020Y-36644580D02*
X217289380Y-35542220D01*
D24*
X225430000Y-26497200D02*
X226009200Y-27076400D01*
X225430000Y-26445200D02*
X225430000Y-26497200D01*
D22*
X212690360Y-35003740D02*
X212690360Y-37828220D01*
X212407517Y-33073357D02*
X212242400Y-32908240D01*
X212407517Y-33073357D02*
X212440200Y-33107684D01*
X212440200Y-33107684D02*
X212471159Y-33143574D01*
X212471159Y-33143574D02*
X212500320Y-33180941D01*
X212500320Y-33180941D02*
X212527612Y-33219693D01*
X212527612Y-33219693D02*
X212552970Y-33259737D01*
X212552970Y-33259737D02*
X212576333Y-33300978D01*
X212576333Y-33300978D02*
X212597644Y-33343315D01*
X212597644Y-33343315D02*
X212616851Y-33386647D01*
X212616851Y-33386647D02*
X212633910Y-33430870D01*
X212633910Y-33430870D02*
X212648777Y-33475876D01*
X212648777Y-33475876D02*
X212661419Y-33521557D01*
X212661419Y-33521557D02*
X212671804Y-33567803D01*
X212671804Y-33567803D02*
X212679907Y-33614504D01*
X212679907Y-33614504D02*
X212685709Y-33661546D01*
X212685709Y-33661546D02*
X212689196Y-33708816D01*
X212689196Y-33708816D02*
X212690360Y-33756200D01*
X212690360Y-33756200D02*
X212690360Y-35003740D01*
X213052677Y-38190537D02*
X212690360Y-37828220D01*
X213052677Y-38190537D02*
X213087005Y-38223220D01*
X213087005Y-38223220D02*
X213122895Y-38254179D01*
X213122895Y-38254179D02*
X213160261Y-38283340D01*
X213160261Y-38283340D02*
X213199013Y-38310632D01*
X213199013Y-38310632D02*
X213239058Y-38335990D01*
X213239058Y-38335990D02*
X213280298Y-38359352D01*
X213280298Y-38359352D02*
X213322636Y-38380663D01*
X213322636Y-38380663D02*
X213365968Y-38399871D01*
X213365968Y-38399871D02*
X213410190Y-38416929D01*
X213410190Y-38416929D02*
X213455196Y-38431797D01*
X213455196Y-38431797D02*
X213500877Y-38444439D01*
X213500877Y-38444439D02*
X213547124Y-38454824D01*
X213547124Y-38454824D02*
X213593824Y-38462927D01*
X213593824Y-38462927D02*
X213640866Y-38468729D01*
X213640866Y-38468729D02*
X213688136Y-38472216D01*
X213688136Y-38472216D02*
X213735520Y-38473380D01*
X213735520Y-38473380D02*
X214330280Y-38473380D01*
D24*
X209702400Y-27307540D02*
X209730340Y-27335480D01*
D22*
X209702400Y-25344120D02*
X209702400Y-27307540D01*
X209730340Y-27335480D02*
X209730340Y-30159960D01*
X210040202Y-32581042D02*
X210367400Y-32908240D01*
X210040202Y-32581042D02*
X210007519Y-32546713D01*
X210007519Y-32546713D02*
X209976560Y-32510823D01*
X209976560Y-32510823D02*
X209947399Y-32473457D01*
X209947399Y-32473457D02*
X209920107Y-32434705D01*
X209920107Y-32434705D02*
X209894749Y-32394660D01*
X209894749Y-32394660D02*
X209871386Y-32353420D01*
X209871386Y-32353420D02*
X209850075Y-32311083D01*
X209850075Y-32311083D02*
X209830868Y-32267751D01*
X209830868Y-32267751D02*
X209813809Y-32223529D01*
X209813809Y-32223529D02*
X209798941Y-32178523D01*
X209798941Y-32178523D02*
X209786300Y-32132842D01*
X209786300Y-32132842D02*
X209775915Y-32086595D01*
X209775915Y-32086595D02*
X209767811Y-32039895D01*
X209767811Y-32039895D02*
X209762009Y-31992853D01*
X209762009Y-31992853D02*
X209758522Y-31945583D01*
X209758522Y-31945583D02*
X209757360Y-31898200D01*
X209757360Y-31898200D02*
X209757360Y-30347920D01*
D24*
X214360520Y-34757600D02*
X214330280Y-34787840D01*
X214360520Y-32931100D02*
X214360520Y-34757600D01*
X214330280Y-36626320D02*
X214312020Y-36644580D01*
X214330280Y-34787840D02*
X214330280Y-36626320D01*
X214360680Y-32930940D02*
X214360520Y-32931100D01*
X214360680Y-31315660D02*
X214360680Y-32930940D01*
X225110000Y-30835600D02*
X224993200Y-30835600D01*
X221765600Y-33966400D02*
X221570800Y-33966400D01*
X221765600Y-33966400D02*
X221801137Y-33965527D01*
X221801137Y-33965527D02*
X221836590Y-33962912D01*
X221836590Y-33962912D02*
X221871871Y-33958560D01*
X221871871Y-33958560D02*
X221906896Y-33952483D01*
X221906896Y-33952483D02*
X221941581Y-33944694D01*
X221941581Y-33944694D02*
X221975842Y-33935212D01*
X221975842Y-33935212D02*
X222009597Y-33924061D01*
X222009597Y-33924061D02*
X222042763Y-33911268D01*
X222042763Y-33911268D02*
X222075262Y-33896862D01*
X222075262Y-33896862D02*
X222107015Y-33880879D01*
X222107015Y-33880879D02*
X222137946Y-33863357D01*
X222137946Y-33863357D02*
X222167979Y-33844338D01*
X222167979Y-33844338D02*
X222197043Y-33823869D01*
X222197043Y-33823869D02*
X222225068Y-33801998D01*
X222225068Y-33801998D02*
X222251986Y-33778779D01*
X222251986Y-33778779D02*
X222277732Y-33754267D01*
X222554800Y-33177200D02*
X222553926Y-33212737D01*
X222553926Y-33212737D02*
X222551311Y-33248190D01*
X222551311Y-33248190D02*
X222546960Y-33283471D01*
X222546960Y-33283471D02*
X222540882Y-33318496D01*
X222540882Y-33318496D02*
X222533093Y-33353181D01*
X222533093Y-33353181D02*
X222523612Y-33387442D01*
X222523612Y-33387442D02*
X222512461Y-33421196D01*
X222512461Y-33421196D02*
X222499667Y-33454363D01*
X222499667Y-33454363D02*
X222485261Y-33486862D01*
X222485261Y-33486862D02*
X222469278Y-33518614D01*
X222469278Y-33518614D02*
X222451756Y-33549545D01*
X222451756Y-33549545D02*
X222432738Y-33579578D01*
X222432738Y-33579578D02*
X222412269Y-33608642D01*
X222412269Y-33608642D02*
X222390398Y-33636667D01*
X222390398Y-33636667D02*
X222367178Y-33663584D01*
X222367178Y-33663584D02*
X222342667Y-33689331D01*
X222342667Y-33689331D02*
X222277732Y-33754267D01*
X222766932Y-31463077D02*
X222742419Y-31488822D01*
X222742419Y-31488822D02*
X222719200Y-31515740D01*
X222719200Y-31515740D02*
X222697329Y-31543765D01*
X222697329Y-31543765D02*
X222676860Y-31572829D01*
X222676860Y-31572829D02*
X222657841Y-31602863D01*
X222657841Y-31602863D02*
X222640319Y-31633793D01*
X222640319Y-31633793D02*
X222624336Y-31665546D01*
X222624336Y-31665546D02*
X222609931Y-31698045D01*
X222609931Y-31698045D02*
X222597137Y-31731212D01*
X222597137Y-31731212D02*
X222585986Y-31764966D01*
X222585986Y-31764966D02*
X222576505Y-31799227D01*
X222576505Y-31799227D02*
X222568716Y-31833912D01*
X222568716Y-31833912D02*
X222562638Y-31868938D01*
X222562638Y-31868938D02*
X222558287Y-31904219D01*
X222558287Y-31904219D02*
X222555672Y-31939671D01*
X222555672Y-31939671D02*
X222554800Y-31975210D01*
X222554800Y-31975210D02*
X222554800Y-33177200D01*
X223137210Y-31292800D02*
X223113518Y-31293380D01*
X223113518Y-31293380D02*
X223089883Y-31295124D01*
X223089883Y-31295124D02*
X223066362Y-31298025D01*
X223066362Y-31298025D02*
X223043011Y-31302076D01*
X223043011Y-31302076D02*
X223019888Y-31307269D01*
X223019888Y-31307269D02*
X222997047Y-31313590D01*
X222997047Y-31313590D02*
X222974544Y-31321024D01*
X222974544Y-31321024D02*
X222952433Y-31329553D01*
X222952433Y-31329553D02*
X222930767Y-31339156D01*
X222930767Y-31339156D02*
X222909599Y-31349812D01*
X222909599Y-31349812D02*
X222888978Y-31361493D01*
X222888978Y-31361493D02*
X222868956Y-31374172D01*
X222868956Y-31374172D02*
X222849580Y-31387818D01*
X222849580Y-31387818D02*
X222830897Y-31402398D01*
X222830897Y-31402398D02*
X222812951Y-31417878D01*
X222812951Y-31417878D02*
X222795788Y-31434220D01*
X222795788Y-31434220D02*
X222766932Y-31463077D01*
X221570800Y-34266400D02*
X221570800Y-34864000D01*
X221570800Y-34266400D02*
X221569926Y-34230861D01*
X221569926Y-34230861D02*
X221567311Y-34195409D01*
X221567311Y-34195409D02*
X221562959Y-34160128D01*
X221562959Y-34160128D02*
X221556882Y-34125102D01*
X221556882Y-34125102D02*
X221549093Y-34090417D01*
X221549093Y-34090417D02*
X221539612Y-34056156D01*
X221539612Y-34056156D02*
X221528461Y-34022402D01*
X221528461Y-34022402D02*
X221515667Y-33989235D01*
X221515667Y-33989235D02*
X221501261Y-33956736D01*
X221501261Y-33956736D02*
X221485278Y-33924983D01*
X221485278Y-33924983D02*
X221467756Y-33894053D01*
X221467756Y-33894053D02*
X221448738Y-33864019D01*
X221448738Y-33864019D02*
X221428269Y-33834955D01*
X221428269Y-33834955D02*
X221406398Y-33806930D01*
X221406398Y-33806930D02*
X221383179Y-33780013D01*
X221383179Y-33780013D02*
X221358667Y-33754267D01*
X221358667Y-33754267D02*
X219964000Y-32359600D01*
X224748132Y-31080667D02*
X224993200Y-30835600D01*
X224748132Y-31080667D02*
X224722385Y-31105178D01*
X224722385Y-31105178D02*
X224695467Y-31128398D01*
X224695467Y-31128398D02*
X224667443Y-31150268D01*
X224667443Y-31150268D02*
X224638379Y-31170738D01*
X224638379Y-31170738D02*
X224608345Y-31189756D01*
X224608345Y-31189756D02*
X224577415Y-31207278D01*
X224577415Y-31207278D02*
X224545662Y-31223261D01*
X224545662Y-31223261D02*
X224513163Y-31237667D01*
X224513163Y-31237667D02*
X224479997Y-31250461D01*
X224479997Y-31250461D02*
X224446242Y-31261612D01*
X224446242Y-31261612D02*
X224411981Y-31271093D01*
X224411981Y-31271093D02*
X224377296Y-31278882D01*
X224377296Y-31278882D02*
X224342271Y-31284960D01*
X224342271Y-31284960D02*
X224306990Y-31289311D01*
X224306990Y-31289311D02*
X224271537Y-31291926D01*
X224271537Y-31291926D02*
X224236000Y-31292800D01*
X224236000Y-31292800D02*
X223137210Y-31292800D01*
X228562680Y-30053280D02*
X228690960Y-30053280D01*
X227010000Y-28500600D02*
X228562680Y-30053280D01*
X227010000Y-28215600D02*
X227010000Y-28500600D01*
X227010000Y-30275600D02*
X227010000Y-30835600D01*
X227010000Y-30275600D02*
X227009127Y-30240061D01*
X227009127Y-30240061D02*
X227006512Y-30204609D01*
X227006512Y-30204609D02*
X227002160Y-30169328D01*
X227002160Y-30169328D02*
X226996083Y-30134302D01*
X226996083Y-30134302D02*
X226988294Y-30099617D01*
X226988294Y-30099617D02*
X226978813Y-30065356D01*
X226978813Y-30065356D02*
X226967662Y-30031602D01*
X226967662Y-30031602D02*
X226954868Y-29998435D01*
X226954868Y-29998435D02*
X226940462Y-29965936D01*
X226940462Y-29965936D02*
X226924479Y-29934183D01*
X226924479Y-29934183D02*
X226906957Y-29903252D01*
X226906957Y-29903252D02*
X226887939Y-29873219D01*
X226887939Y-29873219D02*
X226867469Y-29844155D01*
X226867469Y-29844155D02*
X226845599Y-29816130D01*
X226845599Y-29816130D02*
X226822379Y-29789212D01*
X226822379Y-29789212D02*
X226797867Y-29763467D01*
X226249200Y-29514800D02*
X226284737Y-29515672D01*
X226284737Y-29515672D02*
X226320190Y-29518287D01*
X226320190Y-29518287D02*
X226355471Y-29522639D01*
X226355471Y-29522639D02*
X226390496Y-29528716D01*
X226390496Y-29528716D02*
X226425181Y-29536505D01*
X226425181Y-29536505D02*
X226459442Y-29545986D01*
X226459442Y-29545986D02*
X226493197Y-29557137D01*
X226493197Y-29557137D02*
X226526363Y-29569931D01*
X226526363Y-29569931D02*
X226558862Y-29584337D01*
X226558862Y-29584337D02*
X226590615Y-29600320D01*
X226590615Y-29600320D02*
X226621546Y-29617842D01*
X226621546Y-29617842D02*
X226651579Y-29636860D01*
X226651579Y-29636860D02*
X226680643Y-29657329D01*
X226680643Y-29657329D02*
X226708668Y-29679200D01*
X226708668Y-29679200D02*
X226735585Y-29702419D01*
X226735585Y-29702419D02*
X226761332Y-29726932D01*
X226761332Y-29726932D02*
X226797867Y-29763467D01*
X224601967Y-29726932D02*
X224627712Y-29702419D01*
X224627712Y-29702419D02*
X224654630Y-29679200D01*
X224654630Y-29679200D02*
X224682655Y-29657329D01*
X224682655Y-29657329D02*
X224711719Y-29636860D01*
X224711719Y-29636860D02*
X224741753Y-29617841D01*
X224741753Y-29617841D02*
X224772683Y-29600319D01*
X224772683Y-29600319D02*
X224804436Y-29584336D01*
X224804436Y-29584336D02*
X224836935Y-29569931D01*
X224836935Y-29569931D02*
X224870102Y-29557137D01*
X224870102Y-29557137D02*
X224903856Y-29545986D01*
X224903856Y-29545986D02*
X224938117Y-29536505D01*
X224938117Y-29536505D02*
X224972802Y-29528716D01*
X224972802Y-29528716D02*
X225007828Y-29522638D01*
X225007828Y-29522638D02*
X225043109Y-29518287D01*
X225043109Y-29518287D02*
X225078561Y-29515672D01*
X225078561Y-29515672D02*
X225114100Y-29514800D01*
X225114100Y-29514800D02*
X225114100Y-29514800D01*
X223853700Y-30175200D02*
X223566200Y-30175200D01*
X223853700Y-30175200D02*
X223889237Y-30174326D01*
X223889237Y-30174326D02*
X223924690Y-30171711D01*
X223924690Y-30171711D02*
X223959971Y-30167360D01*
X223959971Y-30167360D02*
X223994996Y-30161282D01*
X223994996Y-30161282D02*
X224029681Y-30153493D01*
X224029681Y-30153493D02*
X224063942Y-30144012D01*
X224063942Y-30144012D02*
X224097696Y-30132861D01*
X224097696Y-30132861D02*
X224130863Y-30120067D01*
X224130863Y-30120067D02*
X224163362Y-30105661D01*
X224163362Y-30105661D02*
X224195114Y-30089678D01*
X224195114Y-30089678D02*
X224226045Y-30072156D01*
X224226045Y-30072156D02*
X224256078Y-30053138D01*
X224256078Y-30053138D02*
X224285142Y-30032669D01*
X224285142Y-30032669D02*
X224313167Y-30010798D01*
X224313167Y-30010798D02*
X224340084Y-29987578D01*
X224340084Y-29987578D02*
X224365831Y-29963067D01*
X224365831Y-29963067D02*
X224601967Y-29726932D01*
X225114100Y-29514800D02*
X226249200Y-29514800D01*
D22*
X208366360Y-26014680D02*
X208366360Y-20233640D01*
X210282790Y-38220650D02*
X211731860Y-39669720D01*
D21*
X216418160Y-24673560D02*
X216595960Y-24673560D01*
X216595960Y-24673560D02*
X217297000Y-23972520D01*
D22*
X213004400Y-19253200D02*
X209346800Y-19253200D01*
D24*
X221691200Y-28346400D02*
X221691200Y-30175200D01*
X224979200Y-28346400D02*
X225110000Y-28215600D01*
X223566200Y-28346400D02*
X224979200Y-28346400D01*
X222817732Y-29094867D02*
X223566200Y-28346400D01*
X222817732Y-29094867D02*
X222793219Y-29120612D01*
X222793219Y-29120612D02*
X222770000Y-29147530D01*
X222770000Y-29147530D02*
X222748129Y-29175555D01*
X222748129Y-29175555D02*
X222727660Y-29204619D01*
X222727660Y-29204619D02*
X222708641Y-29234653D01*
X222708641Y-29234653D02*
X222691119Y-29265583D01*
X222691119Y-29265583D02*
X222675136Y-29297336D01*
X222675136Y-29297336D02*
X222660731Y-29329835D01*
X222660731Y-29329835D02*
X222647937Y-29363002D01*
X222647937Y-29363002D02*
X222636786Y-29396756D01*
X222636786Y-29396756D02*
X222627305Y-29431017D01*
X222627305Y-29431017D02*
X222619516Y-29465702D01*
X222619516Y-29465702D02*
X222613438Y-29500728D01*
X222613438Y-29500728D02*
X222609087Y-29536009D01*
X222609087Y-29536009D02*
X222606472Y-29571461D01*
X222606472Y-29571461D02*
X222605600Y-29607000D01*
X222464178Y-31129421D02*
X222480519Y-31112256D01*
X222480519Y-31112256D02*
X222495998Y-31094311D01*
X222495998Y-31094311D02*
X222510579Y-31075628D01*
X222510579Y-31075628D02*
X222524225Y-31056252D01*
X222524225Y-31056252D02*
X222536904Y-31036230D01*
X222536904Y-31036230D02*
X222548585Y-31015610D01*
X222548585Y-31015610D02*
X222559241Y-30994441D01*
X222559241Y-30994441D02*
X222568845Y-30972775D01*
X222568845Y-30972775D02*
X222577374Y-30950664D01*
X222577374Y-30950664D02*
X222584808Y-30928161D01*
X222584808Y-30928161D02*
X222591129Y-30905321D01*
X222591129Y-30905321D02*
X222596321Y-30882197D01*
X222596321Y-30882197D02*
X222600373Y-30858847D01*
X222600373Y-30858847D02*
X222603274Y-30835326D01*
X222603274Y-30835326D02*
X222605017Y-30811691D01*
X222605017Y-30811691D02*
X222605600Y-30788000D01*
X222605600Y-30788000D02*
X222605600Y-29607000D01*
X221765778Y-31485021D02*
X221782941Y-31468679D01*
X221782941Y-31468679D02*
X221800887Y-31453199D01*
X221800887Y-31453199D02*
X221819570Y-31438619D01*
X221819570Y-31438619D02*
X221838946Y-31424973D01*
X221838946Y-31424973D02*
X221858968Y-31412294D01*
X221858968Y-31412294D02*
X221879589Y-31400613D01*
X221879589Y-31400613D02*
X221900757Y-31389957D01*
X221900757Y-31389957D02*
X221922423Y-31380353D01*
X221922423Y-31380353D02*
X221944534Y-31371824D01*
X221944534Y-31371824D02*
X221967037Y-31364390D01*
X221967037Y-31364390D02*
X221989878Y-31358069D01*
X221989878Y-31358069D02*
X222013001Y-31352877D01*
X222013001Y-31352877D02*
X222036352Y-31348825D01*
X222036352Y-31348825D02*
X222059873Y-31345924D01*
X222059873Y-31345924D02*
X222083507Y-31344181D01*
X222083507Y-31344181D02*
X222107200Y-31343600D01*
X222320710Y-31272889D02*
X222464178Y-31129421D01*
X222320710Y-31272889D02*
X222312127Y-31281059D01*
X222312127Y-31281059D02*
X222303155Y-31288799D01*
X222303155Y-31288799D02*
X222293813Y-31296089D01*
X222293813Y-31296089D02*
X222284125Y-31302912D01*
X222284125Y-31302912D02*
X222274114Y-31309252D01*
X222274114Y-31309252D02*
X222263804Y-31315092D01*
X222263804Y-31315092D02*
X222253220Y-31320420D01*
X222253220Y-31320420D02*
X222242387Y-31325222D01*
X222242387Y-31325222D02*
X222231332Y-31329487D01*
X222231332Y-31329487D02*
X222220080Y-31333204D01*
X222220080Y-31333204D02*
X222208660Y-31336364D01*
X222208660Y-31336364D02*
X222197098Y-31338960D01*
X222197098Y-31338960D02*
X222185423Y-31340986D01*
X222185423Y-31340986D02*
X222173663Y-31342437D01*
X222173663Y-31342437D02*
X222161845Y-31343308D01*
X222161845Y-31343308D02*
X222150000Y-31343600D01*
X222150000Y-31343600D02*
X222107200Y-31343600D01*
X221640400Y-31710400D02*
X221640400Y-32410400D01*
X221640400Y-31710400D02*
X221640690Y-31698554D01*
X221640690Y-31698554D02*
X221641562Y-31686736D01*
X221641562Y-31686736D02*
X221643012Y-31674976D01*
X221643012Y-31674976D02*
X221645038Y-31663300D01*
X221645038Y-31663300D02*
X221647634Y-31651739D01*
X221647634Y-31651739D02*
X221650795Y-31640318D01*
X221650795Y-31640318D02*
X221654512Y-31629067D01*
X221654512Y-31629067D02*
X221658776Y-31618011D01*
X221658776Y-31618011D02*
X221663578Y-31607178D01*
X221663578Y-31607178D02*
X221668906Y-31596594D01*
X221668906Y-31596594D02*
X221674746Y-31586284D01*
X221674746Y-31586284D02*
X221681086Y-31576273D01*
X221681086Y-31576273D02*
X221687909Y-31566585D01*
X221687909Y-31566585D02*
X221695199Y-31557243D01*
X221695199Y-31557243D02*
X221702939Y-31548270D01*
X221702939Y-31548270D02*
X221711110Y-31539689D01*
X221711110Y-31539689D02*
X221765778Y-31485021D01*
X224644600Y-37088600D02*
X224383600Y-37088600D01*
X226164000Y-38608000D02*
X224644600Y-37088600D01*
X226314000Y-38608000D02*
X226164000Y-38608000D01*
X222651800Y-37088600D02*
X222554800Y-37185600D01*
X223570800Y-36464000D02*
X223570800Y-37088600D01*
X223570800Y-35814000D02*
X223570800Y-36464000D01*
X223570800Y-37088600D02*
X222651800Y-37088600D01*
X224383600Y-37088600D02*
X223570800Y-37088600D01*
X227069600Y-33885400D02*
X228540800Y-33885400D01*
X226771200Y-34183800D02*
X227069600Y-33885400D01*
X226766600Y-34188400D02*
X226771200Y-34183800D01*
X225145600Y-34188400D02*
X226766600Y-34188400D01*
X226314000Y-34641000D02*
X226771200Y-34183800D01*
X226314000Y-35308000D02*
X226314000Y-34641000D01*
X223515400Y-33858600D02*
X223570800Y-33914000D01*
X223515400Y-32410400D02*
X223515400Y-33858600D01*
X224871200Y-33914000D02*
X225145600Y-34188400D01*
X223570800Y-33914000D02*
X224871200Y-33914000D01*
X219219780Y-23032240D02*
X219252800Y-23065260D01*
X219186760Y-21310600D02*
X219219780Y-21277580D01*
X222427740Y-26240200D02*
X222605600Y-26240200D01*
D22*
X219252800Y-23065260D02*
X222427740Y-26240200D01*
X228664224Y-25132576D02*
X228846810Y-24949990D01*
D24*
X227330000Y-24685200D02*
X227330000Y-25132576D01*
X227330000Y-23825200D02*
X227330000Y-24685200D01*
D22*
X227330000Y-25132576D02*
X228664224Y-25132576D01*
X225399600Y-25132576D02*
X227330000Y-25132576D01*
X225094800Y-25132576D02*
X225399600Y-25132576D01*
D24*
X228664224Y-24719024D02*
X228664224Y-25132576D01*
X228630400Y-24685200D02*
X228664224Y-24719024D01*
X228630400Y-23825200D02*
X228630400Y-24685200D01*
X225399600Y-24715600D02*
X225399600Y-25132576D01*
X225430000Y-24685200D02*
X225399600Y-24715600D01*
X225430000Y-23825200D02*
X225430000Y-24685200D01*
X218960920Y-21773100D02*
X219219780Y-22031960D01*
D22*
X219219780Y-22031960D02*
X219219780Y-23032240D01*
X219219780Y-21277580D02*
X219219780Y-22031960D01*
X218236800Y-20294600D02*
X219219780Y-21277580D01*
D24*
X218236800Y-20269200D02*
X218236800Y-20294600D01*
X219154220Y-22097520D02*
X219219780Y-22031960D01*
D22*
X217297000Y-22097520D02*
X219154220Y-22097520D01*
X223430381Y-25415418D02*
X222605600Y-26240200D01*
X223430381Y-25415418D02*
X223464708Y-25382734D01*
X223464708Y-25382734D02*
X223500598Y-25351775D01*
X223500598Y-25351775D02*
X223537965Y-25322614D01*
X223537965Y-25322614D02*
X223576717Y-25295322D01*
X223576717Y-25295322D02*
X223616761Y-25269964D01*
X223616761Y-25269964D02*
X223658002Y-25246601D01*
X223658002Y-25246601D02*
X223700339Y-25225291D01*
X223700339Y-25225291D02*
X223743671Y-25206083D01*
X223743671Y-25206083D02*
X223787894Y-25189025D01*
X223787894Y-25189025D02*
X223832900Y-25174157D01*
X223832900Y-25174157D02*
X223878581Y-25161515D01*
X223878581Y-25161515D02*
X223924827Y-25151130D01*
X223924827Y-25151130D02*
X223971528Y-25143027D01*
X223971528Y-25143027D02*
X224018570Y-25137225D01*
X224018570Y-25137225D02*
X224065840Y-25133738D01*
X224065840Y-25133738D02*
X224113224Y-25132576D01*
X224113224Y-25132576D02*
X225094800Y-25132576D01*
D24*
X228846810Y-24949990D02*
X230265610Y-24949990D01*
X230388978Y-24826621D02*
X230265610Y-24949990D01*
X230388978Y-24826621D02*
X230405319Y-24809456D01*
X230405319Y-24809456D02*
X230420798Y-24791511D01*
X230420798Y-24791511D02*
X230435379Y-24772828D01*
X230435379Y-24772828D02*
X230449025Y-24753452D01*
X230449025Y-24753452D02*
X230461704Y-24733430D01*
X230461704Y-24733430D02*
X230473385Y-24712810D01*
X230473385Y-24712810D02*
X230484041Y-24691641D01*
X230484041Y-24691641D02*
X230493645Y-24669975D01*
X230493645Y-24669975D02*
X230502174Y-24647864D01*
X230502174Y-24647864D02*
X230509608Y-24625361D01*
X230509608Y-24625361D02*
X230515929Y-24602521D01*
X230515929Y-24602521D02*
X230521121Y-24579397D01*
X230521121Y-24579397D02*
X230525173Y-24556047D01*
X230525173Y-24556047D02*
X230528074Y-24532526D01*
X230528074Y-24532526D02*
X230529817Y-24508891D01*
X230529817Y-24508891D02*
X230530400Y-24485200D01*
X230530400Y-24485200D02*
X230530400Y-23825200D01*
X228452200Y-26623400D02*
X228630400Y-26445200D01*
X228630400Y-26445200D02*
X228630400Y-26160200D01*
X228630400Y-26445200D02*
X228630400Y-28209640D01*
X228630400Y-28209640D02*
X228665560Y-28244800D01*
X229178467Y-25612132D02*
X228630400Y-26160200D01*
X229178467Y-25612132D02*
X229204212Y-25587619D01*
X229204212Y-25587619D02*
X229231130Y-25564400D01*
X229231130Y-25564400D02*
X229259155Y-25542529D01*
X229259155Y-25542529D02*
X229288219Y-25522060D01*
X229288219Y-25522060D02*
X229318253Y-25503041D01*
X229318253Y-25503041D02*
X229349183Y-25485519D01*
X229349183Y-25485519D02*
X229380936Y-25469536D01*
X229380936Y-25469536D02*
X229413435Y-25455131D01*
X229413435Y-25455131D02*
X229446602Y-25442337D01*
X229446602Y-25442337D02*
X229480356Y-25431186D01*
X229480356Y-25431186D02*
X229514617Y-25421705D01*
X229514617Y-25421705D02*
X229549302Y-25413916D01*
X229549302Y-25413916D02*
X229584328Y-25407838D01*
X229584328Y-25407838D02*
X229619609Y-25403487D01*
X229619609Y-25403487D02*
X229655061Y-25400872D01*
X229655061Y-25400872D02*
X229690600Y-25400000D01*
X231148932Y-25187867D02*
X231123185Y-25212379D01*
X231123185Y-25212379D02*
X231096268Y-25235598D01*
X231096268Y-25235598D02*
X231068243Y-25257469D01*
X231068243Y-25257469D02*
X231039179Y-25277938D01*
X231039179Y-25277938D02*
X231009146Y-25296957D01*
X231009146Y-25296957D02*
X230978215Y-25314478D01*
X230978215Y-25314478D02*
X230946462Y-25330462D01*
X230946462Y-25330462D02*
X230913963Y-25344867D01*
X230913963Y-25344867D02*
X230880797Y-25357661D01*
X230880797Y-25357661D02*
X230847042Y-25368812D01*
X230847042Y-25368812D02*
X230812781Y-25378293D01*
X230812781Y-25378293D02*
X230778096Y-25386082D01*
X230778096Y-25386082D02*
X230743071Y-25392160D01*
X230743071Y-25392160D02*
X230707790Y-25396511D01*
X230707790Y-25396511D02*
X230672337Y-25399126D01*
X230672337Y-25399126D02*
X230636800Y-25400000D01*
X230636800Y-25400000D02*
X229690600Y-25400000D01*
X231444800Y-24592000D02*
X231444800Y-20929600D01*
X231444800Y-24592000D02*
X231443926Y-24627537D01*
X231443926Y-24627537D02*
X231441311Y-24662990D01*
X231441311Y-24662990D02*
X231436960Y-24698271D01*
X231436960Y-24698271D02*
X231430882Y-24733296D01*
X231430882Y-24733296D02*
X231423093Y-24767981D01*
X231423093Y-24767981D02*
X231413612Y-24802242D01*
X231413612Y-24802242D02*
X231402461Y-24835996D01*
X231402461Y-24835996D02*
X231389667Y-24869163D01*
X231389667Y-24869163D02*
X231375261Y-24901662D01*
X231375261Y-24901662D02*
X231359278Y-24933414D01*
X231359278Y-24933414D02*
X231341756Y-24964345D01*
X231341756Y-24964345D02*
X231322738Y-24994378D01*
X231322738Y-24994378D02*
X231302269Y-25023442D01*
X231302269Y-25023442D02*
X231280398Y-25051467D01*
X231280398Y-25051467D02*
X231257178Y-25078384D01*
X231257178Y-25078384D02*
X231232667Y-25104131D01*
X231232667Y-25104131D02*
X231148932Y-25187867D01*
X211598860Y-21206460D02*
X211639500Y-21165820D01*
D22*
X211598860Y-24033480D02*
X211598860Y-21206460D01*
D24*
X209798920Y-23372600D02*
X209702400Y-23469120D01*
D22*
X209798920Y-21808440D02*
X209798920Y-23372600D01*
D24*
X210996880Y-21808440D02*
X211639500Y-21165820D01*
D22*
X209798920Y-21808440D02*
X210996880Y-21808440D01*
D24*
X227228400Y-21539200D02*
X227279200Y-21590000D01*
X227228400Y-20116800D02*
X227228400Y-21539200D01*
X227656757Y-21212442D02*
X227279200Y-21590000D01*
X227656757Y-21212442D02*
X227691084Y-21179758D01*
X227691084Y-21179758D02*
X227726975Y-21148799D01*
X227726975Y-21148799D02*
X227764341Y-21119638D01*
X227764341Y-21119638D02*
X227803093Y-21092346D01*
X227803093Y-21092346D02*
X227843138Y-21066988D01*
X227843138Y-21066988D02*
X227884378Y-21043626D01*
X227884378Y-21043626D02*
X227926716Y-21022315D01*
X227926716Y-21022315D02*
X227970048Y-21003107D01*
X227970048Y-21003107D02*
X228014270Y-20986049D01*
X228014270Y-20986049D02*
X228059276Y-20971181D01*
X228059276Y-20971181D02*
X228104957Y-20958539D01*
X228104957Y-20958539D02*
X228151204Y-20948154D01*
X228151204Y-20948154D02*
X228197904Y-20940051D01*
X228197904Y-20940051D02*
X228244946Y-20934249D01*
X228244946Y-20934249D02*
X228292216Y-20930762D01*
X228292216Y-20930762D02*
X228339600Y-20929600D01*
X228339600Y-20929600D02*
X228644800Y-20929600D01*
D25*
X219556510Y-33702914D02*
X219826408Y-33756600D01*
X220101592Y-33756600D01*
X220255570Y-33725972D01*
X220612278Y-34082680D01*
X220590263Y-34109506D01*
X220531298Y-34219820D01*
X220494988Y-34339518D01*
X220482728Y-34464000D01*
X220482728Y-35264000D01*
X220494988Y-35388482D01*
X220531298Y-35508180D01*
X220590263Y-35618494D01*
X220669615Y-35715185D01*
X220766306Y-35794537D01*
X220876620Y-35853502D01*
X220996318Y-35889812D01*
X221120800Y-35902072D01*
X222002975Y-35902072D01*
X221893073Y-35947595D01*
X221664265Y-36100480D01*
X221469680Y-36295065D01*
X221316795Y-36523873D01*
X221211486Y-36778110D01*
X221157800Y-37048008D01*
X221157800Y-37323192D01*
X221211486Y-37593090D01*
X221316795Y-37847327D01*
X221469680Y-38076135D01*
X221664265Y-38270720D01*
X221893073Y-38423605D01*
X222147310Y-38528914D01*
X222417208Y-38582600D01*
X222692392Y-38582600D01*
X222962290Y-38528914D01*
X223216527Y-38423605D01*
X223445335Y-38270720D01*
X223576282Y-38139773D01*
X223589891Y-38147047D01*
X223755315Y-38197228D01*
X223927350Y-38214172D01*
X224695371Y-38214172D01*
X225075928Y-38594730D01*
X225075928Y-39058000D01*
X225088188Y-39182482D01*
X225124498Y-39302180D01*
X225183463Y-39412494D01*
X225191264Y-39422000D01*
X217180222Y-39422000D01*
X217182238Y-39419544D01*
X217263727Y-39267089D01*
X217313908Y-39101665D01*
X217330852Y-38929630D01*
X217330852Y-38017130D01*
X217313908Y-37845095D01*
X217263727Y-37679671D01*
X217190086Y-37541899D01*
X217245467Y-37438289D01*
X217295648Y-37272865D01*
X217312592Y-37100830D01*
X217312592Y-36799380D01*
X217372620Y-36805292D01*
X219522620Y-36805292D01*
X219695874Y-36788228D01*
X219862470Y-36737692D01*
X220016006Y-36655625D01*
X220150582Y-36545182D01*
X220261025Y-36410606D01*
X220343092Y-36257070D01*
X220393628Y-36090474D01*
X220410692Y-35917220D01*
X220410692Y-35167220D01*
X220393628Y-34993966D01*
X220343092Y-34827370D01*
X220261025Y-34673834D01*
X220150582Y-34539258D01*
X220016006Y-34428815D01*
X219862470Y-34346748D01*
X219695874Y-34296212D01*
X219545992Y-34281450D01*
X219545992Y-33753640D01*
X219540336Y-33696215D01*
X219556510Y-33702914D01*
G04 #@! TA.AperFunction,Conductor*
D26*
G36*
X219556510Y-33702914D02*
G01*
X219826408Y-33756600D01*
X220101592Y-33756600D01*
X220255570Y-33725972D01*
X220612278Y-34082680D01*
X220590263Y-34109506D01*
X220531298Y-34219820D01*
X220494988Y-34339518D01*
X220482728Y-34464000D01*
X220482728Y-35264000D01*
X220494988Y-35388482D01*
X220531298Y-35508180D01*
X220590263Y-35618494D01*
X220669615Y-35715185D01*
X220766306Y-35794537D01*
X220876620Y-35853502D01*
X220996318Y-35889812D01*
X221120800Y-35902072D01*
X222002975Y-35902072D01*
X221893073Y-35947595D01*
X221664265Y-36100480D01*
X221469680Y-36295065D01*
X221316795Y-36523873D01*
X221211486Y-36778110D01*
X221157800Y-37048008D01*
X221157800Y-37323192D01*
X221211486Y-37593090D01*
X221316795Y-37847327D01*
X221469680Y-38076135D01*
X221664265Y-38270720D01*
X221893073Y-38423605D01*
X222147310Y-38528914D01*
X222417208Y-38582600D01*
X222692392Y-38582600D01*
X222962290Y-38528914D01*
X223216527Y-38423605D01*
X223445335Y-38270720D01*
X223576282Y-38139773D01*
X223589891Y-38147047D01*
X223755315Y-38197228D01*
X223927350Y-38214172D01*
X224695371Y-38214172D01*
X225075928Y-38594730D01*
X225075928Y-39058000D01*
X225088188Y-39182482D01*
X225124498Y-39302180D01*
X225183463Y-39412494D01*
X225191264Y-39422000D01*
X217180222Y-39422000D01*
X217182238Y-39419544D01*
X217263727Y-39267089D01*
X217313908Y-39101665D01*
X217330852Y-38929630D01*
X217330852Y-38017130D01*
X217313908Y-37845095D01*
X217263727Y-37679671D01*
X217190086Y-37541899D01*
X217245467Y-37438289D01*
X217295648Y-37272865D01*
X217312592Y-37100830D01*
X217312592Y-36799380D01*
X217372620Y-36805292D01*
X219522620Y-36805292D01*
X219695874Y-36788228D01*
X219862470Y-36737692D01*
X220016006Y-36655625D01*
X220150582Y-36545182D01*
X220261025Y-36410606D01*
X220343092Y-36257070D01*
X220393628Y-36090474D01*
X220410692Y-35917220D01*
X220410692Y-35167220D01*
X220393628Y-34993966D01*
X220343092Y-34827370D01*
X220261025Y-34673834D01*
X220150582Y-34539258D01*
X220016006Y-34428815D01*
X219862470Y-34346748D01*
X219695874Y-34296212D01*
X219545992Y-34281450D01*
X219545992Y-33753640D01*
X219540336Y-33696215D01*
X219556510Y-33702914D01*
G37*
G04 #@! TD.AperFunction*
D25*
X232563601Y-39422000D02*
X227436736Y-39422000D01*
X227444537Y-39412494D01*
X227503502Y-39302180D01*
X227539812Y-39182482D01*
X227552072Y-39058000D01*
X227552072Y-38158000D01*
X227539812Y-38033518D01*
X227503502Y-37913820D01*
X227444537Y-37803506D01*
X227365185Y-37706815D01*
X227268494Y-37627463D01*
X227158180Y-37568498D01*
X227038482Y-37532188D01*
X226914000Y-37519928D01*
X226150730Y-37519928D01*
X225721672Y-37090871D01*
X225721672Y-36844850D01*
X225704728Y-36672815D01*
X225654547Y-36507391D01*
X225588294Y-36383441D01*
X225589518Y-36383812D01*
X225714000Y-36396072D01*
X226914000Y-36396072D01*
X227038482Y-36383812D01*
X227158180Y-36347502D01*
X227249510Y-36298685D01*
X227251298Y-36304580D01*
X227310263Y-36414894D01*
X227389615Y-36511585D01*
X227486306Y-36590937D01*
X227596620Y-36649902D01*
X227716318Y-36686212D01*
X227840800Y-36698472D01*
X229220800Y-36698472D01*
X229345282Y-36686212D01*
X229464980Y-36649902D01*
X229575294Y-36590937D01*
X229671985Y-36511585D01*
X229751337Y-36414894D01*
X229810302Y-36304580D01*
X229846612Y-36184882D01*
X229858872Y-36060400D01*
X229858872Y-35610400D01*
X229849023Y-35510400D01*
X229858872Y-35410400D01*
X229858872Y-34960400D01*
X229849023Y-34860400D01*
X229858872Y-34760400D01*
X229858872Y-34310400D01*
X229849023Y-34210400D01*
X229858872Y-34110400D01*
X229858872Y-33660400D01*
X229846612Y-33535918D01*
X229810302Y-33416220D01*
X229751337Y-33305906D01*
X229671985Y-33209215D01*
X229575294Y-33129863D01*
X229464980Y-33070898D01*
X229345282Y-33034588D01*
X229220800Y-33022328D01*
X227840800Y-33022328D01*
X227716318Y-33034588D01*
X227596620Y-33070898D01*
X227520147Y-33111774D01*
X227399485Y-33075172D01*
X227227450Y-33058228D01*
X226314950Y-33058228D01*
X226142915Y-33075172D01*
X225977491Y-33125353D01*
X225954097Y-33137857D01*
X225939309Y-33129953D01*
X225773885Y-33079772D01*
X225601850Y-33062828D01*
X224689350Y-33062828D01*
X224614467Y-33070203D01*
X224624028Y-33038685D01*
X224640972Y-32866650D01*
X224640972Y-32065483D01*
X224660518Y-32071412D01*
X224785000Y-32083672D01*
X225435000Y-32083672D01*
X225559482Y-32071412D01*
X225679180Y-32035102D01*
X225789494Y-31976137D01*
X225886185Y-31896785D01*
X225965537Y-31800094D01*
X226024502Y-31689780D01*
X226060000Y-31572759D01*
X226095498Y-31689780D01*
X226154463Y-31800094D01*
X226233815Y-31896785D01*
X226330506Y-31976137D01*
X226440820Y-32035102D01*
X226560518Y-32071412D01*
X226685000Y-32083672D01*
X227335000Y-32083672D01*
X227459482Y-32071412D01*
X227579180Y-32035102D01*
X227689494Y-31976137D01*
X227786185Y-31896785D01*
X227865537Y-31800094D01*
X227924502Y-31689780D01*
X227960812Y-31570082D01*
X227973072Y-31445600D01*
X227973072Y-31251170D01*
X228109751Y-31324227D01*
X228275175Y-31374408D01*
X228447210Y-31391352D01*
X228934710Y-31391352D01*
X229106745Y-31374408D01*
X229272169Y-31324227D01*
X229424624Y-31242738D01*
X229558252Y-31133072D01*
X229667918Y-30999444D01*
X229749407Y-30846989D01*
X229799588Y-30681565D01*
X229816532Y-30509530D01*
X229816532Y-29597030D01*
X229799588Y-29424995D01*
X229749407Y-29259571D01*
X229677627Y-29125280D01*
X229724007Y-29038509D01*
X229774188Y-28873085D01*
X229791132Y-28701050D01*
X229791132Y-27788550D01*
X229774188Y-27616515D01*
X229732903Y-27480416D01*
X229754215Y-27506385D01*
X229850906Y-27585737D01*
X229961220Y-27644702D01*
X230080918Y-27681012D01*
X230205400Y-27693272D01*
X230855400Y-27693272D01*
X230979882Y-27681012D01*
X231099580Y-27644702D01*
X231209894Y-27585737D01*
X231306585Y-27506385D01*
X231385937Y-27409694D01*
X231444902Y-27299380D01*
X231481212Y-27179682D01*
X231493472Y-27055200D01*
X231493472Y-25887758D01*
X231506388Y-25879579D01*
X231521101Y-25868097D01*
X231536378Y-25857338D01*
X231549860Y-25845708D01*
X231564413Y-25835459D01*
X231578552Y-25823262D01*
X231593276Y-25811772D01*
X231606168Y-25799498D01*
X231620183Y-25788561D01*
X231633710Y-25775682D01*
X231647868Y-25763470D01*
X231656146Y-25754775D01*
X231659938Y-25751663D01*
X231679738Y-25731863D01*
X231700008Y-25712565D01*
X231706117Y-25705484D01*
X231750294Y-25661305D01*
X231757376Y-25655196D01*
X231776666Y-25634933D01*
X231796469Y-25615130D01*
X231799578Y-25611342D01*
X231808258Y-25603078D01*
X231820482Y-25588908D01*
X231833370Y-25575370D01*
X231844295Y-25561369D01*
X231856572Y-25548475D01*
X231868065Y-25533748D01*
X231880248Y-25519625D01*
X231890505Y-25505062D01*
X231902138Y-25491576D01*
X231912893Y-25476305D01*
X231924379Y-25461587D01*
X231933901Y-25446551D01*
X231944855Y-25432514D01*
X231954843Y-25416741D01*
X231965601Y-25401466D01*
X231974377Y-25385974D01*
X231984622Y-25371427D01*
X231993825Y-25355181D01*
X232003819Y-25339399D01*
X232011822Y-25323500D01*
X232021339Y-25308471D01*
X232029740Y-25291782D01*
X232038947Y-25275530D01*
X232046160Y-25259258D01*
X232054929Y-25243778D01*
X232062496Y-25226707D01*
X232070893Y-25210026D01*
X232077300Y-25193418D01*
X232085304Y-25177516D01*
X232092021Y-25160102D01*
X232099594Y-25143019D01*
X232105178Y-25126115D01*
X232112390Y-25109846D01*
X232118253Y-25092100D01*
X232124970Y-25074686D01*
X232129717Y-25057534D01*
X232136126Y-25040918D01*
X232141103Y-25022933D01*
X232146963Y-25005195D01*
X232150865Y-24987817D01*
X232156445Y-24970928D01*
X232160538Y-24952702D01*
X232165521Y-24934695D01*
X232168563Y-24917165D01*
X232173307Y-24900022D01*
X232176500Y-24881622D01*
X232180594Y-24863391D01*
X232182773Y-24845726D01*
X232186676Y-24828344D01*
X232188962Y-24809809D01*
X232192151Y-24791431D01*
X232193462Y-24773666D01*
X232196505Y-24756127D01*
X232197878Y-24737508D01*
X232200166Y-24718959D01*
X232200602Y-24701179D01*
X232202778Y-24683544D01*
X232203238Y-24664856D01*
X232204613Y-24646211D01*
X232204319Y-24634221D01*
X232204800Y-24629333D01*
X232204800Y-24601336D01*
X232205488Y-24573364D01*
X232204800Y-24564032D01*
X232204800Y-22800939D01*
X232313186Y-22743005D01*
X232447762Y-22632562D01*
X232558205Y-22497986D01*
X232563600Y-22487892D01*
X232563601Y-39422000D01*
G04 #@! TA.AperFunction,Conductor*
D26*
G36*
X232563601Y-39422000D02*
G01*
X227436736Y-39422000D01*
X227444537Y-39412494D01*
X227503502Y-39302180D01*
X227539812Y-39182482D01*
X227552072Y-39058000D01*
X227552072Y-38158000D01*
X227539812Y-38033518D01*
X227503502Y-37913820D01*
X227444537Y-37803506D01*
X227365185Y-37706815D01*
X227268494Y-37627463D01*
X227158180Y-37568498D01*
X227038482Y-37532188D01*
X226914000Y-37519928D01*
X226150730Y-37519928D01*
X225721672Y-37090871D01*
X225721672Y-36844850D01*
X225704728Y-36672815D01*
X225654547Y-36507391D01*
X225588294Y-36383441D01*
X225589518Y-36383812D01*
X225714000Y-36396072D01*
X226914000Y-36396072D01*
X227038482Y-36383812D01*
X227158180Y-36347502D01*
X227249510Y-36298685D01*
X227251298Y-36304580D01*
X227310263Y-36414894D01*
X227389615Y-36511585D01*
X227486306Y-36590937D01*
X227596620Y-36649902D01*
X227716318Y-36686212D01*
X227840800Y-36698472D01*
X229220800Y-36698472D01*
X229345282Y-36686212D01*
X229464980Y-36649902D01*
X229575294Y-36590937D01*
X229671985Y-36511585D01*
X229751337Y-36414894D01*
X229810302Y-36304580D01*
X229846612Y-36184882D01*
X229858872Y-36060400D01*
X229858872Y-35610400D01*
X229849023Y-35510400D01*
X229858872Y-35410400D01*
X229858872Y-34960400D01*
X229849023Y-34860400D01*
X229858872Y-34760400D01*
X229858872Y-34310400D01*
X229849023Y-34210400D01*
X229858872Y-34110400D01*
X229858872Y-33660400D01*
X229846612Y-33535918D01*
X229810302Y-33416220D01*
X229751337Y-33305906D01*
X229671985Y-33209215D01*
X229575294Y-33129863D01*
X229464980Y-33070898D01*
X229345282Y-33034588D01*
X229220800Y-33022328D01*
X227840800Y-33022328D01*
X227716318Y-33034588D01*
X227596620Y-33070898D01*
X227520147Y-33111774D01*
X227399485Y-33075172D01*
X227227450Y-33058228D01*
X226314950Y-33058228D01*
X226142915Y-33075172D01*
X225977491Y-33125353D01*
X225954097Y-33137857D01*
X225939309Y-33129953D01*
X225773885Y-33079772D01*
X225601850Y-33062828D01*
X224689350Y-33062828D01*
X224614467Y-33070203D01*
X224624028Y-33038685D01*
X224640972Y-32866650D01*
X224640972Y-32065483D01*
X224660518Y-32071412D01*
X224785000Y-32083672D01*
X225435000Y-32083672D01*
X225559482Y-32071412D01*
X225679180Y-32035102D01*
X225789494Y-31976137D01*
X225886185Y-31896785D01*
X225965537Y-31800094D01*
X226024502Y-31689780D01*
X226060000Y-31572759D01*
X226095498Y-31689780D01*
X226154463Y-31800094D01*
X226233815Y-31896785D01*
X226330506Y-31976137D01*
X226440820Y-32035102D01*
X226560518Y-32071412D01*
X226685000Y-32083672D01*
X227335000Y-32083672D01*
X227459482Y-32071412D01*
X227579180Y-32035102D01*
X227689494Y-31976137D01*
X227786185Y-31896785D01*
X227865537Y-31800094D01*
X227924502Y-31689780D01*
X227960812Y-31570082D01*
X227973072Y-31445600D01*
X227973072Y-31251170D01*
X228109751Y-31324227D01*
X228275175Y-31374408D01*
X228447210Y-31391352D01*
X228934710Y-31391352D01*
X229106745Y-31374408D01*
X229272169Y-31324227D01*
X229424624Y-31242738D01*
X229558252Y-31133072D01*
X229667918Y-30999444D01*
X229749407Y-30846989D01*
X229799588Y-30681565D01*
X229816532Y-30509530D01*
X229816532Y-29597030D01*
X229799588Y-29424995D01*
X229749407Y-29259571D01*
X229677627Y-29125280D01*
X229724007Y-29038509D01*
X229774188Y-28873085D01*
X229791132Y-28701050D01*
X229791132Y-27788550D01*
X229774188Y-27616515D01*
X229732903Y-27480416D01*
X229754215Y-27506385D01*
X229850906Y-27585737D01*
X229961220Y-27644702D01*
X230080918Y-27681012D01*
X230205400Y-27693272D01*
X230855400Y-27693272D01*
X230979882Y-27681012D01*
X231099580Y-27644702D01*
X231209894Y-27585737D01*
X231306585Y-27506385D01*
X231385937Y-27409694D01*
X231444902Y-27299380D01*
X231481212Y-27179682D01*
X231493472Y-27055200D01*
X231493472Y-25887758D01*
X231506388Y-25879579D01*
X231521101Y-25868097D01*
X231536378Y-25857338D01*
X231549860Y-25845708D01*
X231564413Y-25835459D01*
X231578552Y-25823262D01*
X231593276Y-25811772D01*
X231606168Y-25799498D01*
X231620183Y-25788561D01*
X231633710Y-25775682D01*
X231647868Y-25763470D01*
X231656146Y-25754775D01*
X231659938Y-25751663D01*
X231679738Y-25731863D01*
X231700008Y-25712565D01*
X231706117Y-25705484D01*
X231750294Y-25661305D01*
X231757376Y-25655196D01*
X231776666Y-25634933D01*
X231796469Y-25615130D01*
X231799578Y-25611342D01*
X231808258Y-25603078D01*
X231820482Y-25588908D01*
X231833370Y-25575370D01*
X231844295Y-25561369D01*
X231856572Y-25548475D01*
X231868065Y-25533748D01*
X231880248Y-25519625D01*
X231890505Y-25505062D01*
X231902138Y-25491576D01*
X231912893Y-25476305D01*
X231924379Y-25461587D01*
X231933901Y-25446551D01*
X231944855Y-25432514D01*
X231954843Y-25416741D01*
X231965601Y-25401466D01*
X231974377Y-25385974D01*
X231984622Y-25371427D01*
X231993825Y-25355181D01*
X232003819Y-25339399D01*
X232011822Y-25323500D01*
X232021339Y-25308471D01*
X232029740Y-25291782D01*
X232038947Y-25275530D01*
X232046160Y-25259258D01*
X232054929Y-25243778D01*
X232062496Y-25226707D01*
X232070893Y-25210026D01*
X232077300Y-25193418D01*
X232085304Y-25177516D01*
X232092021Y-25160102D01*
X232099594Y-25143019D01*
X232105178Y-25126115D01*
X232112390Y-25109846D01*
X232118253Y-25092100D01*
X232124970Y-25074686D01*
X232129717Y-25057534D01*
X232136126Y-25040918D01*
X232141103Y-25022933D01*
X232146963Y-25005195D01*
X232150865Y-24987817D01*
X232156445Y-24970928D01*
X232160538Y-24952702D01*
X232165521Y-24934695D01*
X232168563Y-24917165D01*
X232173307Y-24900022D01*
X232176500Y-24881622D01*
X232180594Y-24863391D01*
X232182773Y-24845726D01*
X232186676Y-24828344D01*
X232188962Y-24809809D01*
X232192151Y-24791431D01*
X232193462Y-24773666D01*
X232196505Y-24756127D01*
X232197878Y-24737508D01*
X232200166Y-24718959D01*
X232200602Y-24701179D01*
X232202778Y-24683544D01*
X232203238Y-24664856D01*
X232204613Y-24646211D01*
X232204319Y-24634221D01*
X232204800Y-24629333D01*
X232204800Y-24601336D01*
X232205488Y-24573364D01*
X232204800Y-24564032D01*
X232204800Y-22800939D01*
X232313186Y-22743005D01*
X232447762Y-22632562D01*
X232558205Y-22497986D01*
X232563600Y-22487892D01*
X232563601Y-39422000D01*
G37*
G04 #@! TD.AperFunction*
D25*
X208561888Y-31762770D02*
X208643955Y-31916306D01*
X208754398Y-32050882D01*
X208888974Y-32161325D01*
X208890830Y-32162317D01*
X208892127Y-32169793D01*
X208894789Y-32191376D01*
X208899557Y-32212610D01*
X208900231Y-32216494D01*
X208902893Y-32238076D01*
X208907660Y-32259305D01*
X208911381Y-32280747D01*
X208917182Y-32301707D01*
X208918040Y-32305530D01*
X208921760Y-32326969D01*
X208927566Y-32347951D01*
X208932330Y-32369165D01*
X208939148Y-32389804D01*
X208940203Y-32393617D01*
X208944971Y-32414849D01*
X208951793Y-32435500D01*
X208957592Y-32456455D01*
X208965421Y-32476752D01*
X208966669Y-32480529D01*
X208972468Y-32501483D01*
X208980289Y-32521758D01*
X208987115Y-32542420D01*
X208995936Y-32562320D01*
X208997350Y-32565986D01*
X209004170Y-32586630D01*
X209012989Y-32606525D01*
X209020822Y-32626832D01*
X209030598Y-32646252D01*
X209032196Y-32649858D01*
X209040027Y-32670159D01*
X209049800Y-32689574D01*
X209058613Y-32709457D01*
X209069343Y-32728399D01*
X209071115Y-32731920D01*
X209079936Y-32751818D01*
X209090661Y-32770750D01*
X209100434Y-32790165D01*
X209112066Y-32808534D01*
X209114015Y-32811974D01*
X209123792Y-32831398D01*
X209135433Y-32849781D01*
X209146159Y-32868715D01*
X209158680Y-32886493D01*
X209160794Y-32889832D01*
X209171509Y-32908746D01*
X209184026Y-32926520D01*
X209195670Y-32944907D01*
X209209058Y-32962063D01*
X209211328Y-32965285D01*
X209222967Y-32983665D01*
X209236346Y-33000809D01*
X209241828Y-33008592D01*
X209241828Y-33364490D01*
X209258772Y-33536525D01*
X209308953Y-33701949D01*
X209390442Y-33854404D01*
X209500108Y-33988032D01*
X209633736Y-34097698D01*
X209786191Y-34179187D01*
X209951615Y-34229368D01*
X210123650Y-34246312D01*
X210611150Y-34246312D01*
X210783185Y-34229368D01*
X210948609Y-34179187D01*
X211101064Y-34097698D01*
X211234692Y-33988032D01*
X211304900Y-33902484D01*
X211375108Y-33988032D01*
X211508736Y-34097698D01*
X211661191Y-34179187D01*
X211686064Y-34186732D01*
X211581115Y-34314614D01*
X211499048Y-34468150D01*
X211448512Y-34634746D01*
X211431448Y-34808000D01*
X211431448Y-36058000D01*
X211448512Y-36231254D01*
X211499048Y-36397850D01*
X211581115Y-36551386D01*
X211644052Y-36628075D01*
X211576955Y-36709834D01*
X211494888Y-36863370D01*
X211444352Y-37029966D01*
X211427288Y-37203220D01*
X211427288Y-38453220D01*
X211444352Y-38626474D01*
X211494888Y-38793070D01*
X211576955Y-38946606D01*
X211687398Y-39081182D01*
X211821974Y-39191625D01*
X211975510Y-39273692D01*
X212142106Y-39324228D01*
X212315360Y-39341292D01*
X213065360Y-39341292D01*
X213238614Y-39324228D01*
X213293479Y-39307585D01*
X213353322Y-39419544D01*
X213355338Y-39422000D01*
X208532800Y-39422000D01*
X208532800Y-31666879D01*
X208561888Y-31762770D01*
G04 #@! TA.AperFunction,Conductor*
D26*
G36*
X208561888Y-31762770D02*
G01*
X208643955Y-31916306D01*
X208754398Y-32050882D01*
X208888974Y-32161325D01*
X208890830Y-32162317D01*
X208892127Y-32169793D01*
X208894789Y-32191376D01*
X208899557Y-32212610D01*
X208900231Y-32216494D01*
X208902893Y-32238076D01*
X208907660Y-32259305D01*
X208911381Y-32280747D01*
X208917182Y-32301707D01*
X208918040Y-32305530D01*
X208921760Y-32326969D01*
X208927566Y-32347951D01*
X208932330Y-32369165D01*
X208939148Y-32389804D01*
X208940203Y-32393617D01*
X208944971Y-32414849D01*
X208951793Y-32435500D01*
X208957592Y-32456455D01*
X208965421Y-32476752D01*
X208966669Y-32480529D01*
X208972468Y-32501483D01*
X208980289Y-32521758D01*
X208987115Y-32542420D01*
X208995936Y-32562320D01*
X208997350Y-32565986D01*
X209004170Y-32586630D01*
X209012989Y-32606525D01*
X209020822Y-32626832D01*
X209030598Y-32646252D01*
X209032196Y-32649858D01*
X209040027Y-32670159D01*
X209049800Y-32689574D01*
X209058613Y-32709457D01*
X209069343Y-32728399D01*
X209071115Y-32731920D01*
X209079936Y-32751818D01*
X209090661Y-32770750D01*
X209100434Y-32790165D01*
X209112066Y-32808534D01*
X209114015Y-32811974D01*
X209123792Y-32831398D01*
X209135433Y-32849781D01*
X209146159Y-32868715D01*
X209158680Y-32886493D01*
X209160794Y-32889832D01*
X209171509Y-32908746D01*
X209184026Y-32926520D01*
X209195670Y-32944907D01*
X209209058Y-32962063D01*
X209211328Y-32965285D01*
X209222967Y-32983665D01*
X209236346Y-33000809D01*
X209241828Y-33008592D01*
X209241828Y-33364490D01*
X209258772Y-33536525D01*
X209308953Y-33701949D01*
X209390442Y-33854404D01*
X209500108Y-33988032D01*
X209633736Y-34097698D01*
X209786191Y-34179187D01*
X209951615Y-34229368D01*
X210123650Y-34246312D01*
X210611150Y-34246312D01*
X210783185Y-34229368D01*
X210948609Y-34179187D01*
X211101064Y-34097698D01*
X211234692Y-33988032D01*
X211304900Y-33902484D01*
X211375108Y-33988032D01*
X211508736Y-34097698D01*
X211661191Y-34179187D01*
X211686064Y-34186732D01*
X211581115Y-34314614D01*
X211499048Y-34468150D01*
X211448512Y-34634746D01*
X211431448Y-34808000D01*
X211431448Y-36058000D01*
X211448512Y-36231254D01*
X211499048Y-36397850D01*
X211581115Y-36551386D01*
X211644052Y-36628075D01*
X211576955Y-36709834D01*
X211494888Y-36863370D01*
X211444352Y-37029966D01*
X211427288Y-37203220D01*
X211427288Y-38453220D01*
X211444352Y-38626474D01*
X211494888Y-38793070D01*
X211576955Y-38946606D01*
X211687398Y-39081182D01*
X211821974Y-39191625D01*
X211975510Y-39273692D01*
X212142106Y-39324228D01*
X212315360Y-39341292D01*
X213065360Y-39341292D01*
X213238614Y-39324228D01*
X213293479Y-39307585D01*
X213353322Y-39419544D01*
X213355338Y-39422000D01*
X208532800Y-39422000D01*
X208532800Y-31666879D01*
X208561888Y-31762770D01*
G37*
G04 #@! TD.AperFunction*
D25*
X217256735Y-31804825D02*
X217353426Y-31884177D01*
X217463740Y-31943142D01*
X217583438Y-31979452D01*
X217707920Y-31991712D01*
X218612809Y-31991712D01*
X218567000Y-32222008D01*
X218567000Y-32497192D01*
X218620686Y-32767090D01*
X218725995Y-33021327D01*
X218788965Y-33115568D01*
X217707920Y-33115568D01*
X217583438Y-33127828D01*
X217463740Y-33164138D01*
X217353426Y-33223103D01*
X217256735Y-33302455D01*
X217177383Y-33399146D01*
X217118418Y-33509460D01*
X217082108Y-33629158D01*
X217074149Y-33709970D01*
X217072572Y-33708048D01*
X216938944Y-33598382D01*
X216786489Y-33516893D01*
X216621065Y-33466712D01*
X216449030Y-33449768D01*
X215961530Y-33449768D01*
X215789495Y-33466712D01*
X215624071Y-33516893D01*
X215471616Y-33598382D01*
X215452579Y-33614005D01*
X215469148Y-33559385D01*
X215486092Y-33387350D01*
X215486092Y-32474850D01*
X215469148Y-32302815D01*
X215457276Y-32263678D01*
X215484495Y-32296845D01*
X215581186Y-32376197D01*
X215691500Y-32435162D01*
X215811198Y-32471472D01*
X215935680Y-32483732D01*
X216585680Y-32483732D01*
X216710162Y-32471472D01*
X216829860Y-32435162D01*
X216940174Y-32376197D01*
X217036865Y-32296845D01*
X217116217Y-32200154D01*
X217175182Y-32089840D01*
X217211492Y-31970142D01*
X217223752Y-31845660D01*
X217223752Y-31788640D01*
X217243452Y-31788640D01*
X217256735Y-31804825D01*
G04 #@! TA.AperFunction,Conductor*
D26*
G36*
X217256735Y-31804825D02*
G01*
X217353426Y-31884177D01*
X217463740Y-31943142D01*
X217583438Y-31979452D01*
X217707920Y-31991712D01*
X218612809Y-31991712D01*
X218567000Y-32222008D01*
X218567000Y-32497192D01*
X218620686Y-32767090D01*
X218725995Y-33021327D01*
X218788965Y-33115568D01*
X217707920Y-33115568D01*
X217583438Y-33127828D01*
X217463740Y-33164138D01*
X217353426Y-33223103D01*
X217256735Y-33302455D01*
X217177383Y-33399146D01*
X217118418Y-33509460D01*
X217082108Y-33629158D01*
X217074149Y-33709970D01*
X217072572Y-33708048D01*
X216938944Y-33598382D01*
X216786489Y-33516893D01*
X216621065Y-33466712D01*
X216449030Y-33449768D01*
X215961530Y-33449768D01*
X215789495Y-33466712D01*
X215624071Y-33516893D01*
X215471616Y-33598382D01*
X215452579Y-33614005D01*
X215469148Y-33559385D01*
X215486092Y-33387350D01*
X215486092Y-32474850D01*
X215469148Y-32302815D01*
X215457276Y-32263678D01*
X215484495Y-32296845D01*
X215581186Y-32376197D01*
X215691500Y-32435162D01*
X215811198Y-32471472D01*
X215935680Y-32483732D01*
X216585680Y-32483732D01*
X216710162Y-32471472D01*
X216829860Y-32435162D01*
X216940174Y-32376197D01*
X217036865Y-32296845D01*
X217116217Y-32200154D01*
X217175182Y-32089840D01*
X217211492Y-31970142D01*
X217223752Y-31845660D01*
X217223752Y-31788640D01*
X217243452Y-31788640D01*
X217256735Y-31804825D01*
G37*
G04 #@! TD.AperFunction*
D25*
X226143280Y-19226265D02*
X225990395Y-19455073D01*
X225885086Y-19709310D01*
X225831400Y-19979208D01*
X225831400Y-20254392D01*
X225885086Y-20524290D01*
X225990395Y-20778527D01*
X226143280Y-21007335D01*
X226164035Y-21028090D01*
X226153628Y-21133750D01*
X226153628Y-22046250D01*
X226170572Y-22218285D01*
X226220753Y-22383709D01*
X226302242Y-22536164D01*
X226411908Y-22669792D01*
X226542910Y-22777303D01*
X226474463Y-22860706D01*
X226415498Y-22971020D01*
X226380000Y-23088041D01*
X226344502Y-22971020D01*
X226285537Y-22860706D01*
X226206185Y-22764015D01*
X226109494Y-22684663D01*
X225999180Y-22625698D01*
X225879482Y-22589388D01*
X225755000Y-22577128D01*
X225105000Y-22577128D01*
X224980518Y-22589388D01*
X224860820Y-22625698D01*
X224750506Y-22684663D01*
X224653815Y-22764015D01*
X224574463Y-22860706D01*
X224515498Y-22971020D01*
X224479188Y-23090718D01*
X224466928Y-23215200D01*
X224466928Y-24247576D01*
X224145820Y-24247576D01*
X224134991Y-24246777D01*
X224102402Y-24247576D01*
X224069747Y-24247576D01*
X224061686Y-24248370D01*
X224044091Y-24247938D01*
X224022413Y-24249537D01*
X224000680Y-24250070D01*
X223979077Y-24252734D01*
X223975127Y-24253025D01*
X223953388Y-24253559D01*
X223931802Y-24256221D01*
X223910104Y-24257822D01*
X223888671Y-24261541D01*
X223884762Y-24262023D01*
X223863072Y-24263623D01*
X223841638Y-24267342D01*
X223820046Y-24270005D01*
X223798825Y-24274770D01*
X223794927Y-24275447D01*
X223773342Y-24278109D01*
X223752135Y-24282871D01*
X223730696Y-24286591D01*
X223709716Y-24292397D01*
X223705885Y-24293257D01*
X223684436Y-24296979D01*
X223663462Y-24302784D01*
X223642254Y-24307546D01*
X223621606Y-24314367D01*
X223617800Y-24315421D01*
X223596574Y-24320187D01*
X223575908Y-24327014D01*
X223554951Y-24332814D01*
X223534670Y-24340638D01*
X223530911Y-24341879D01*
X223509963Y-24347676D01*
X223489670Y-24355503D01*
X223469003Y-24362331D01*
X223449119Y-24371145D01*
X223445436Y-24372566D01*
X223424776Y-24379391D01*
X223404900Y-24388201D01*
X223384612Y-24396027D01*
X223365178Y-24405809D01*
X223361561Y-24407412D01*
X223341278Y-24415236D01*
X223321848Y-24425016D01*
X223301950Y-24433836D01*
X223283027Y-24444556D01*
X223279496Y-24446333D01*
X223259613Y-24455147D01*
X223240708Y-24465857D01*
X223221271Y-24475640D01*
X223202874Y-24487289D01*
X223199452Y-24489228D01*
X223180015Y-24499012D01*
X223161634Y-24510652D01*
X223142714Y-24521370D01*
X223124932Y-24533894D01*
X223121597Y-24536005D01*
X223102676Y-24546724D01*
X223084886Y-24559253D01*
X223076398Y-24564628D01*
X222003747Y-24564628D01*
X220590872Y-23151754D01*
X220590872Y-22821510D01*
X220573928Y-22649475D01*
X220523747Y-22484051D01*
X220442258Y-22331596D01*
X220332592Y-22197968D01*
X220300986Y-22172029D01*
X220304900Y-22168115D01*
X220457785Y-21939307D01*
X220563094Y-21685070D01*
X220616780Y-21415172D01*
X220616780Y-21139988D01*
X220563094Y-20870090D01*
X220457785Y-20615853D01*
X220304900Y-20387045D01*
X220110315Y-20192460D01*
X219881507Y-20039575D01*
X219627270Y-19934266D01*
X219357372Y-19880580D01*
X219304344Y-19880580D01*
X219242624Y-19731576D01*
X219118412Y-19545680D01*
X218960320Y-19387588D01*
X218774424Y-19263376D01*
X218567867Y-19177817D01*
X218348588Y-19134200D01*
X218125012Y-19134200D01*
X217905733Y-19177817D01*
X217699176Y-19263376D01*
X217513280Y-19387588D01*
X217355188Y-19545680D01*
X217230976Y-19731576D01*
X217145417Y-19938133D01*
X217101800Y-20157412D01*
X217101800Y-20380988D01*
X217145417Y-20600267D01*
X217230976Y-20806824D01*
X217341309Y-20971948D01*
X216840750Y-20971948D01*
X216668715Y-20988892D01*
X216503291Y-21039073D01*
X216350836Y-21120562D01*
X216217208Y-21230228D01*
X216107542Y-21363856D01*
X216026053Y-21516311D01*
X215975872Y-21681735D01*
X215958928Y-21853770D01*
X215958928Y-22341270D01*
X215975872Y-22513305D01*
X216026053Y-22678729D01*
X216107542Y-22831184D01*
X216217208Y-22964812D01*
X216350836Y-23074478D01*
X216503291Y-23155967D01*
X216668715Y-23206148D01*
X216840750Y-23223092D01*
X217753250Y-23223092D01*
X217914728Y-23207188D01*
X217914728Y-23309010D01*
X217931672Y-23481045D01*
X217981853Y-23646469D01*
X218063342Y-23798924D01*
X218173008Y-23932552D01*
X218258556Y-24002760D01*
X218173008Y-24072968D01*
X218063342Y-24206596D01*
X217981853Y-24359051D01*
X217931672Y-24524475D01*
X217914728Y-24696510D01*
X217914728Y-25184010D01*
X217931672Y-25356045D01*
X217960697Y-25451728D01*
X217822200Y-25451728D01*
X217648946Y-25468792D01*
X217482350Y-25519328D01*
X217328814Y-25601395D01*
X217194238Y-25711838D01*
X217131379Y-25788432D01*
X217034764Y-25709142D01*
X216882309Y-25627653D01*
X216716885Y-25577472D01*
X216544850Y-25560528D01*
X216057350Y-25560528D01*
X215885315Y-25577472D01*
X215719891Y-25627653D01*
X215567436Y-25709142D01*
X215433808Y-25818808D01*
X215324142Y-25952436D01*
X215242653Y-26104891D01*
X215192472Y-26270315D01*
X215175528Y-26442350D01*
X215175528Y-27354850D01*
X215192472Y-27526885D01*
X215242653Y-27692309D01*
X215324142Y-27844764D01*
X215375681Y-27907564D01*
X215375680Y-28230660D01*
X215215802Y-28230660D01*
X215136865Y-28134475D01*
X215040174Y-28055123D01*
X214929860Y-27996158D01*
X214810162Y-27959848D01*
X214685680Y-27947588D01*
X214035680Y-27947588D01*
X213911198Y-27959848D01*
X213791500Y-27996158D01*
X213681186Y-28055123D01*
X213584495Y-28134475D01*
X213505143Y-28231166D01*
X213446178Y-28341480D01*
X213409868Y-28461178D01*
X213397608Y-28585660D01*
X213397608Y-29645660D01*
X213409868Y-29770142D01*
X213446178Y-29889840D01*
X213505143Y-30000154D01*
X213584495Y-30096845D01*
X213681186Y-30176197D01*
X213755015Y-30215660D01*
X213681186Y-30255123D01*
X213584495Y-30334475D01*
X213505143Y-30431166D01*
X213446178Y-30541480D01*
X213409868Y-30661178D01*
X213397608Y-30785660D01*
X213397608Y-31845660D01*
X213408350Y-31954732D01*
X213383562Y-31984936D01*
X213305715Y-32130578D01*
X213300847Y-32114531D01*
X213219358Y-31962076D01*
X213109692Y-31828448D01*
X212976064Y-31718782D01*
X212823609Y-31637293D01*
X212658185Y-31587112D01*
X212486150Y-31570168D01*
X211998650Y-31570168D01*
X211826615Y-31587112D01*
X211661191Y-31637293D01*
X211508736Y-31718782D01*
X211375108Y-31828448D01*
X211304900Y-31913996D01*
X211234692Y-31828448D01*
X211101064Y-31718782D01*
X210984995Y-31656742D01*
X211003368Y-31596174D01*
X211020432Y-31422920D01*
X211020432Y-29272920D01*
X211003368Y-29099666D01*
X210952832Y-28933070D01*
X210890484Y-28816425D01*
X210925812Y-28750330D01*
X210976348Y-28583734D01*
X210993412Y-28410480D01*
X210993412Y-26260480D01*
X210976348Y-26087226D01*
X210971456Y-26071099D01*
X211104866Y-26111568D01*
X211278120Y-26128632D01*
X212028120Y-26128632D01*
X212201374Y-26111568D01*
X212367970Y-26061032D01*
X212521506Y-25978965D01*
X212656082Y-25868522D01*
X212766525Y-25733946D01*
X212848592Y-25580410D01*
X212899128Y-25413814D01*
X212916192Y-25240560D01*
X212916192Y-23090560D01*
X212899128Y-22917306D01*
X212848592Y-22750710D01*
X212796338Y-22652949D01*
X212834972Y-22580670D01*
X212885508Y-22414074D01*
X212902572Y-22240820D01*
X212902572Y-20090820D01*
X212885508Y-19917566D01*
X212834972Y-19750970D01*
X212752905Y-19597434D01*
X212642462Y-19462858D01*
X212507886Y-19352415D01*
X212354350Y-19270348D01*
X212187754Y-19219812D01*
X212014500Y-19202748D01*
X211264500Y-19202748D01*
X211091246Y-19219812D01*
X210924650Y-19270348D01*
X210771114Y-19352415D01*
X210636538Y-19462858D01*
X210526095Y-19597434D01*
X210444028Y-19750970D01*
X210393492Y-19917566D01*
X210376428Y-20090820D01*
X210376428Y-20535550D01*
X210206410Y-20465126D01*
X209936512Y-20411440D01*
X209661328Y-20411440D01*
X209391430Y-20465126D01*
X209137193Y-20570435D01*
X208908385Y-20723320D01*
X208713800Y-20917905D01*
X208560915Y-21146713D01*
X208532800Y-21214588D01*
X208532800Y-19099600D01*
X226269945Y-19099600D01*
X226143280Y-19226265D01*
G04 #@! TA.AperFunction,Conductor*
D26*
G36*
X226143280Y-19226265D02*
G01*
X225990395Y-19455073D01*
X225885086Y-19709310D01*
X225831400Y-19979208D01*
X225831400Y-20254392D01*
X225885086Y-20524290D01*
X225990395Y-20778527D01*
X226143280Y-21007335D01*
X226164035Y-21028090D01*
X226153628Y-21133750D01*
X226153628Y-22046250D01*
X226170572Y-22218285D01*
X226220753Y-22383709D01*
X226302242Y-22536164D01*
X226411908Y-22669792D01*
X226542910Y-22777303D01*
X226474463Y-22860706D01*
X226415498Y-22971020D01*
X226380000Y-23088041D01*
X226344502Y-22971020D01*
X226285537Y-22860706D01*
X226206185Y-22764015D01*
X226109494Y-22684663D01*
X225999180Y-22625698D01*
X225879482Y-22589388D01*
X225755000Y-22577128D01*
X225105000Y-22577128D01*
X224980518Y-22589388D01*
X224860820Y-22625698D01*
X224750506Y-22684663D01*
X224653815Y-22764015D01*
X224574463Y-22860706D01*
X224515498Y-22971020D01*
X224479188Y-23090718D01*
X224466928Y-23215200D01*
X224466928Y-24247576D01*
X224145820Y-24247576D01*
X224134991Y-24246777D01*
X224102402Y-24247576D01*
X224069747Y-24247576D01*
X224061686Y-24248370D01*
X224044091Y-24247938D01*
X224022413Y-24249537D01*
X224000680Y-24250070D01*
X223979077Y-24252734D01*
X223975127Y-24253025D01*
X223953388Y-24253559D01*
X223931802Y-24256221D01*
X223910104Y-24257822D01*
X223888671Y-24261541D01*
X223884762Y-24262023D01*
X223863072Y-24263623D01*
X223841638Y-24267342D01*
X223820046Y-24270005D01*
X223798825Y-24274770D01*
X223794927Y-24275447D01*
X223773342Y-24278109D01*
X223752135Y-24282871D01*
X223730696Y-24286591D01*
X223709716Y-24292397D01*
X223705885Y-24293257D01*
X223684436Y-24296979D01*
X223663462Y-24302784D01*
X223642254Y-24307546D01*
X223621606Y-24314367D01*
X223617800Y-24315421D01*
X223596574Y-24320187D01*
X223575908Y-24327014D01*
X223554951Y-24332814D01*
X223534670Y-24340638D01*
X223530911Y-24341879D01*
X223509963Y-24347676D01*
X223489670Y-24355503D01*
X223469003Y-24362331D01*
X223449119Y-24371145D01*
X223445436Y-24372566D01*
X223424776Y-24379391D01*
X223404900Y-24388201D01*
X223384612Y-24396027D01*
X223365178Y-24405809D01*
X223361561Y-24407412D01*
X223341278Y-24415236D01*
X223321848Y-24425016D01*
X223301950Y-24433836D01*
X223283027Y-24444556D01*
X223279496Y-24446333D01*
X223259613Y-24455147D01*
X223240708Y-24465857D01*
X223221271Y-24475640D01*
X223202874Y-24487289D01*
X223199452Y-24489228D01*
X223180015Y-24499012D01*
X223161634Y-24510652D01*
X223142714Y-24521370D01*
X223124932Y-24533894D01*
X223121597Y-24536005D01*
X223102676Y-24546724D01*
X223084886Y-24559253D01*
X223076398Y-24564628D01*
X222003747Y-24564628D01*
X220590872Y-23151754D01*
X220590872Y-22821510D01*
X220573928Y-22649475D01*
X220523747Y-22484051D01*
X220442258Y-22331596D01*
X220332592Y-22197968D01*
X220300986Y-22172029D01*
X220304900Y-22168115D01*
X220457785Y-21939307D01*
X220563094Y-21685070D01*
X220616780Y-21415172D01*
X220616780Y-21139988D01*
X220563094Y-20870090D01*
X220457785Y-20615853D01*
X220304900Y-20387045D01*
X220110315Y-20192460D01*
X219881507Y-20039575D01*
X219627270Y-19934266D01*
X219357372Y-19880580D01*
X219304344Y-19880580D01*
X219242624Y-19731576D01*
X219118412Y-19545680D01*
X218960320Y-19387588D01*
X218774424Y-19263376D01*
X218567867Y-19177817D01*
X218348588Y-19134200D01*
X218125012Y-19134200D01*
X217905733Y-19177817D01*
X217699176Y-19263376D01*
X217513280Y-19387588D01*
X217355188Y-19545680D01*
X217230976Y-19731576D01*
X217145417Y-19938133D01*
X217101800Y-20157412D01*
X217101800Y-20380988D01*
X217145417Y-20600267D01*
X217230976Y-20806824D01*
X217341309Y-20971948D01*
X216840750Y-20971948D01*
X216668715Y-20988892D01*
X216503291Y-21039073D01*
X216350836Y-21120562D01*
X216217208Y-21230228D01*
X216107542Y-21363856D01*
X216026053Y-21516311D01*
X215975872Y-21681735D01*
X215958928Y-21853770D01*
X215958928Y-22341270D01*
X215975872Y-22513305D01*
X216026053Y-22678729D01*
X216107542Y-22831184D01*
X216217208Y-22964812D01*
X216350836Y-23074478D01*
X216503291Y-23155967D01*
X216668715Y-23206148D01*
X216840750Y-23223092D01*
X217753250Y-23223092D01*
X217914728Y-23207188D01*
X217914728Y-23309010D01*
X217931672Y-23481045D01*
X217981853Y-23646469D01*
X218063342Y-23798924D01*
X218173008Y-23932552D01*
X218258556Y-24002760D01*
X218173008Y-24072968D01*
X218063342Y-24206596D01*
X217981853Y-24359051D01*
X217931672Y-24524475D01*
X217914728Y-24696510D01*
X217914728Y-25184010D01*
X217931672Y-25356045D01*
X217960697Y-25451728D01*
X217822200Y-25451728D01*
X217648946Y-25468792D01*
X217482350Y-25519328D01*
X217328814Y-25601395D01*
X217194238Y-25711838D01*
X217131379Y-25788432D01*
X217034764Y-25709142D01*
X216882309Y-25627653D01*
X216716885Y-25577472D01*
X216544850Y-25560528D01*
X216057350Y-25560528D01*
X215885315Y-25577472D01*
X215719891Y-25627653D01*
X215567436Y-25709142D01*
X215433808Y-25818808D01*
X215324142Y-25952436D01*
X215242653Y-26104891D01*
X215192472Y-26270315D01*
X215175528Y-26442350D01*
X215175528Y-27354850D01*
X215192472Y-27526885D01*
X215242653Y-27692309D01*
X215324142Y-27844764D01*
X215375681Y-27907564D01*
X215375680Y-28230660D01*
X215215802Y-28230660D01*
X215136865Y-28134475D01*
X215040174Y-28055123D01*
X214929860Y-27996158D01*
X214810162Y-27959848D01*
X214685680Y-27947588D01*
X214035680Y-27947588D01*
X213911198Y-27959848D01*
X213791500Y-27996158D01*
X213681186Y-28055123D01*
X213584495Y-28134475D01*
X213505143Y-28231166D01*
X213446178Y-28341480D01*
X213409868Y-28461178D01*
X213397608Y-28585660D01*
X213397608Y-29645660D01*
X213409868Y-29770142D01*
X213446178Y-29889840D01*
X213505143Y-30000154D01*
X213584495Y-30096845D01*
X213681186Y-30176197D01*
X213755015Y-30215660D01*
X213681186Y-30255123D01*
X213584495Y-30334475D01*
X213505143Y-30431166D01*
X213446178Y-30541480D01*
X213409868Y-30661178D01*
X213397608Y-30785660D01*
X213397608Y-31845660D01*
X213408350Y-31954732D01*
X213383562Y-31984936D01*
X213305715Y-32130578D01*
X213300847Y-32114531D01*
X213219358Y-31962076D01*
X213109692Y-31828448D01*
X212976064Y-31718782D01*
X212823609Y-31637293D01*
X212658185Y-31587112D01*
X212486150Y-31570168D01*
X211998650Y-31570168D01*
X211826615Y-31587112D01*
X211661191Y-31637293D01*
X211508736Y-31718782D01*
X211375108Y-31828448D01*
X211304900Y-31913996D01*
X211234692Y-31828448D01*
X211101064Y-31718782D01*
X210984995Y-31656742D01*
X211003368Y-31596174D01*
X211020432Y-31422920D01*
X211020432Y-29272920D01*
X211003368Y-29099666D01*
X210952832Y-28933070D01*
X210890484Y-28816425D01*
X210925812Y-28750330D01*
X210976348Y-28583734D01*
X210993412Y-28410480D01*
X210993412Y-26260480D01*
X210976348Y-26087226D01*
X210971456Y-26071099D01*
X211104866Y-26111568D01*
X211278120Y-26128632D01*
X212028120Y-26128632D01*
X212201374Y-26111568D01*
X212367970Y-26061032D01*
X212521506Y-25978965D01*
X212656082Y-25868522D01*
X212766525Y-25733946D01*
X212848592Y-25580410D01*
X212899128Y-25413814D01*
X212916192Y-25240560D01*
X212916192Y-23090560D01*
X212899128Y-22917306D01*
X212848592Y-22750710D01*
X212796338Y-22652949D01*
X212834972Y-22580670D01*
X212885508Y-22414074D01*
X212902572Y-22240820D01*
X212902572Y-20090820D01*
X212885508Y-19917566D01*
X212834972Y-19750970D01*
X212752905Y-19597434D01*
X212642462Y-19462858D01*
X212507886Y-19352415D01*
X212354350Y-19270348D01*
X212187754Y-19219812D01*
X212014500Y-19202748D01*
X211264500Y-19202748D01*
X211091246Y-19219812D01*
X210924650Y-19270348D01*
X210771114Y-19352415D01*
X210636538Y-19462858D01*
X210526095Y-19597434D01*
X210444028Y-19750970D01*
X210393492Y-19917566D01*
X210376428Y-20090820D01*
X210376428Y-20535550D01*
X210206410Y-20465126D01*
X209936512Y-20411440D01*
X209661328Y-20411440D01*
X209391430Y-20465126D01*
X209137193Y-20570435D01*
X208908385Y-20723320D01*
X208713800Y-20917905D01*
X208560915Y-21146713D01*
X208532800Y-21214588D01*
X208532800Y-19099600D01*
X226269945Y-19099600D01*
X226143280Y-19226265D01*
G37*
G04 #@! TD.AperFunction*
D25*
X215484495Y-30096845D02*
X215581186Y-30176197D01*
X215655015Y-30215660D01*
X215581186Y-30255123D01*
X215484495Y-30334475D01*
X215405143Y-30431166D01*
X215346178Y-30541480D01*
X215310680Y-30658501D01*
X215275182Y-30541480D01*
X215216217Y-30431166D01*
X215136865Y-30334475D01*
X215040174Y-30255123D01*
X214966345Y-30215660D01*
X215040174Y-30176197D01*
X215136865Y-30096845D01*
X215215802Y-30000660D01*
X215405558Y-30000660D01*
X215484495Y-30096845D01*
G04 #@! TA.AperFunction,Conductor*
D26*
G36*
X215484495Y-30096845D02*
G01*
X215581186Y-30176197D01*
X215655015Y-30215660D01*
X215581186Y-30255123D01*
X215484495Y-30334475D01*
X215405143Y-30431166D01*
X215346178Y-30541480D01*
X215310680Y-30658501D01*
X215275182Y-30541480D01*
X215216217Y-30431166D01*
X215136865Y-30334475D01*
X215040174Y-30255123D01*
X214966345Y-30215660D01*
X215040174Y-30176197D01*
X215136865Y-30096845D01*
X215215802Y-30000660D01*
X215405558Y-30000660D01*
X215484495Y-30096845D01*
G37*
G04 #@! TD.AperFunction*
D25*
X230576414Y-19116195D02*
X230441838Y-19226638D01*
X230331395Y-19361214D01*
X230249328Y-19514750D01*
X230198792Y-19681346D01*
X230181728Y-19854600D01*
X230181728Y-22004600D01*
X230198792Y-22177854D01*
X230249328Y-22344450D01*
X230331395Y-22497986D01*
X230396345Y-22577128D01*
X230205400Y-22577128D01*
X230080918Y-22589388D01*
X229961220Y-22625698D01*
X229850906Y-22684663D01*
X229754215Y-22764015D01*
X229674863Y-22860706D01*
X229615898Y-22971020D01*
X229580400Y-23088041D01*
X229544902Y-22971020D01*
X229485937Y-22860706D01*
X229427104Y-22789017D01*
X229513186Y-22743005D01*
X229647762Y-22632562D01*
X229758205Y-22497986D01*
X229840272Y-22344450D01*
X229890808Y-22177854D01*
X229907872Y-22004600D01*
X229907872Y-19854600D01*
X229890808Y-19681346D01*
X229840272Y-19514750D01*
X229758205Y-19361214D01*
X229647762Y-19226638D01*
X229513186Y-19116195D01*
X229482139Y-19099600D01*
X230607461Y-19099600D01*
X230576414Y-19116195D01*
G04 #@! TA.AperFunction,Conductor*
D26*
G36*
X230576414Y-19116195D02*
G01*
X230441838Y-19226638D01*
X230331395Y-19361214D01*
X230249328Y-19514750D01*
X230198792Y-19681346D01*
X230181728Y-19854600D01*
X230181728Y-22004600D01*
X230198792Y-22177854D01*
X230249328Y-22344450D01*
X230331395Y-22497986D01*
X230396345Y-22577128D01*
X230205400Y-22577128D01*
X230080918Y-22589388D01*
X229961220Y-22625698D01*
X229850906Y-22684663D01*
X229754215Y-22764015D01*
X229674863Y-22860706D01*
X229615898Y-22971020D01*
X229580400Y-23088041D01*
X229544902Y-22971020D01*
X229485937Y-22860706D01*
X229427104Y-22789017D01*
X229513186Y-22743005D01*
X229647762Y-22632562D01*
X229758205Y-22497986D01*
X229840272Y-22344450D01*
X229890808Y-22177854D01*
X229907872Y-22004600D01*
X229907872Y-19854600D01*
X229890808Y-19681346D01*
X229840272Y-19514750D01*
X229758205Y-19361214D01*
X229647762Y-19226638D01*
X229513186Y-19116195D01*
X229482139Y-19099600D01*
X230607461Y-19099600D01*
X230576414Y-19116195D01*
G37*
G04 #@! TD.AperFunction*
D25*
X232563600Y-19371307D02*
X232558205Y-19361214D01*
X232447762Y-19226638D01*
X232313186Y-19116195D01*
X232282139Y-19099600D01*
X232563600Y-19099600D01*
X232563600Y-19371307D01*
G04 #@! TA.AperFunction,Conductor*
D26*
G36*
X232563600Y-19371307D02*
G01*
X232558205Y-19361214D01*
X232447762Y-19226638D01*
X232313186Y-19116195D01*
X232282139Y-19099600D01*
X232563600Y-19099600D01*
X232563600Y-19371307D01*
G37*
G04 #@! TD.AperFunction*
M02*
