M48
; DRILL file {KiCad 5.1.9+dfsg1-1} date Thu Sep 15 10:32:23 2022
; FORMAT={3:3/ absolute / metric / keep zeros}
; #@! TF.CreationDate,2022-09-15T10:32:23+03:00
; #@! TF.GenerationSoftware,Kicad,Pcbnew,5.1.9+dfsg1-1
FMAT,2
METRIC
T1C0.400
%
G90
G05
T1
X028650Y-055500
X030200Y-063150
X032923Y-059355
X036600Y-065350
X040750Y-063425
X042296Y-054986
X043891Y-066243
X044550Y-061525
X046528Y-058577
X047015Y-063487
X047076Y-066243
X048097Y-062139
X048250Y-067208
X049009Y-060604
X049581Y-061768
X049759Y-059538
X050890Y-064733
X051006Y-066611
X053429Y-061328
X053624Y-059390
X055832Y-060170
T0
M30
