%TF.GenerationSoftware,KiCad,Pcbnew,5.1.9+dfsg1-1*%
%TF.CreationDate,2022-10-17T14:31:48+03:00*%
%TF.ProjectId,SC-STM32L412K8,53432d53-544d-4333-924c-3431324b382e,rev?*%
%TF.SameCoordinates,Original*%
%TF.FileFunction,Soldermask,Top*%
%TF.FilePolarity,Negative*%
%FSLAX46Y46*%
G04 Gerber Fmt 4.6, Leading zero omitted, Abs format (unit mm)*
G04 Created by KiCad (PCBNEW 5.1.9+dfsg1-1) date 2022-10-17 14:31:48*
%MOMM*%
%LPD*%
G01*
G04 APERTURE LIST*
%ADD10C,1.524000*%
%ADD11R,0.800000X0.900000*%
%ADD12R,0.650000X1.060000*%
%ADD13R,1.220000X0.650000*%
%ADD14R,1.900000X1.175000*%
%ADD15R,1.900000X2.375000*%
%ADD16R,2.100000X1.475000*%
%ADD17R,1.380000X0.450000*%
%ADD18R,0.600000X1.200000*%
%ADD19R,1.200000X0.600000*%
G04 APERTURE END LIST*
%TO.C,C17*%
G36*
G01*
X42665460Y-55725000D02*
X42165460Y-55725000D01*
G75*
G02*
X41940460Y-55500000I0J225000D01*
G01*
X41940460Y-55050000D01*
G75*
G02*
X42165460Y-54825000I225000J0D01*
G01*
X42665460Y-54825000D01*
G75*
G02*
X42890460Y-55050000I0J-225000D01*
G01*
X42890460Y-55500000D01*
G75*
G02*
X42665460Y-55725000I-225000J0D01*
G01*
G37*
G36*
G01*
X42665460Y-57275000D02*
X42165460Y-57275000D01*
G75*
G02*
X41940460Y-57050000I0J225000D01*
G01*
X41940460Y-56600000D01*
G75*
G02*
X42165460Y-56375000I225000J0D01*
G01*
X42665460Y-56375000D01*
G75*
G02*
X42890460Y-56600000I0J-225000D01*
G01*
X42890460Y-57050000D01*
G75*
G02*
X42665460Y-57275000I-225000J0D01*
G01*
G37*
%TD*%
%TO.C,C16*%
G36*
G01*
X50650000Y-65850000D02*
X51150000Y-65850000D01*
G75*
G02*
X51375000Y-66075000I0J-225000D01*
G01*
X51375000Y-66525000D01*
G75*
G02*
X51150000Y-66750000I-225000J0D01*
G01*
X50650000Y-66750000D01*
G75*
G02*
X50425000Y-66525000I0J225000D01*
G01*
X50425000Y-66075000D01*
G75*
G02*
X50650000Y-65850000I225000J0D01*
G01*
G37*
G36*
G01*
X50650000Y-64300000D02*
X51150000Y-64300000D01*
G75*
G02*
X51375000Y-64525000I0J-225000D01*
G01*
X51375000Y-64975000D01*
G75*
G02*
X51150000Y-65200000I-225000J0D01*
G01*
X50650000Y-65200000D01*
G75*
G02*
X50425000Y-64975000I0J225000D01*
G01*
X50425000Y-64525000D01*
G75*
G02*
X50650000Y-64300000I225000J0D01*
G01*
G37*
%TD*%
%TO.C,C4*%
G36*
G01*
X32907160Y-55483640D02*
X33407160Y-55483640D01*
G75*
G02*
X33632160Y-55708640I0J-225000D01*
G01*
X33632160Y-56158640D01*
G75*
G02*
X33407160Y-56383640I-225000J0D01*
G01*
X32907160Y-56383640D01*
G75*
G02*
X32682160Y-56158640I0J225000D01*
G01*
X32682160Y-55708640D01*
G75*
G02*
X32907160Y-55483640I225000J0D01*
G01*
G37*
G36*
G01*
X32907160Y-53933640D02*
X33407160Y-53933640D01*
G75*
G02*
X33632160Y-54158640I0J-225000D01*
G01*
X33632160Y-54608640D01*
G75*
G02*
X33407160Y-54833640I-225000J0D01*
G01*
X32907160Y-54833640D01*
G75*
G02*
X32682160Y-54608640I0J225000D01*
G01*
X32682160Y-54158640D01*
G75*
G02*
X32907160Y-53933640I225000J0D01*
G01*
G37*
%TD*%
%TO.C,D7*%
G36*
G01*
X45092100Y-55061830D02*
X45092100Y-54549330D01*
G75*
G02*
X45310850Y-54330580I218750J0D01*
G01*
X45748350Y-54330580D01*
G75*
G02*
X45967100Y-54549330I0J-218750D01*
G01*
X45967100Y-55061830D01*
G75*
G02*
X45748350Y-55280580I-218750J0D01*
G01*
X45310850Y-55280580D01*
G75*
G02*
X45092100Y-55061830I0J218750D01*
G01*
G37*
G36*
G01*
X43517100Y-55061830D02*
X43517100Y-54549330D01*
G75*
G02*
X43735850Y-54330580I218750J0D01*
G01*
X44173350Y-54330580D01*
G75*
G02*
X44392100Y-54549330I0J-218750D01*
G01*
X44392100Y-55061830D01*
G75*
G02*
X44173350Y-55280580I-218750J0D01*
G01*
X43735850Y-55280580D01*
G75*
G02*
X43517100Y-55061830I0J218750D01*
G01*
G37*
%TD*%
%TO.C,D1*%
G36*
G01*
X38208930Y-55814480D02*
X37696430Y-55814480D01*
G75*
G02*
X37477680Y-55595730I0J218750D01*
G01*
X37477680Y-55158230D01*
G75*
G02*
X37696430Y-54939480I218750J0D01*
G01*
X38208930Y-54939480D01*
G75*
G02*
X38427680Y-55158230I0J-218750D01*
G01*
X38427680Y-55595730D01*
G75*
G02*
X38208930Y-55814480I-218750J0D01*
G01*
G37*
G36*
G01*
X38208930Y-57389480D02*
X37696430Y-57389480D01*
G75*
G02*
X37477680Y-57170730I0J218750D01*
G01*
X37477680Y-56733230D01*
G75*
G02*
X37696430Y-56514480I218750J0D01*
G01*
X38208930Y-56514480D01*
G75*
G02*
X38427680Y-56733230I0J-218750D01*
G01*
X38427680Y-57170730D01*
G75*
G02*
X38208930Y-57389480I-218750J0D01*
G01*
G37*
%TD*%
D10*
%TO.C,J15*%
X40132000Y-65699640D03*
%TD*%
%TO.C,J14*%
X32222440Y-65338960D03*
%TD*%
D11*
%TO.C,Q1*%
X36753800Y-65160400D03*
X35803800Y-63160400D03*
X37703800Y-63160400D03*
%TD*%
%TO.C,R20*%
G36*
G01*
X46664360Y-66712810D02*
X46664360Y-66200310D01*
G75*
G02*
X46883110Y-65981560I218750J0D01*
G01*
X47320610Y-65981560D01*
G75*
G02*
X47539360Y-66200310I0J-218750D01*
G01*
X47539360Y-66712810D01*
G75*
G02*
X47320610Y-66931560I-218750J0D01*
G01*
X46883110Y-66931560D01*
G75*
G02*
X46664360Y-66712810I0J218750D01*
G01*
G37*
G36*
G01*
X45089360Y-66712810D02*
X45089360Y-66200310D01*
G75*
G02*
X45308110Y-65981560I218750J0D01*
G01*
X45745610Y-65981560D01*
G75*
G02*
X45964360Y-66200310I0J-218750D01*
G01*
X45964360Y-66712810D01*
G75*
G02*
X45745610Y-66931560I-218750J0D01*
G01*
X45308110Y-66931560D01*
G75*
G02*
X45089360Y-66712810I0J218750D01*
G01*
G37*
%TD*%
D10*
%TO.C,J12*%
X40589200Y-55473600D03*
%TD*%
%TO.C,R16*%
G36*
G01*
X39270650Y-63124600D02*
X38758150Y-63124600D01*
G75*
G02*
X38539400Y-62905850I0J218750D01*
G01*
X38539400Y-62468350D01*
G75*
G02*
X38758150Y-62249600I218750J0D01*
G01*
X39270650Y-62249600D01*
G75*
G02*
X39489400Y-62468350I0J-218750D01*
G01*
X39489400Y-62905850D01*
G75*
G02*
X39270650Y-63124600I-218750J0D01*
G01*
G37*
G36*
G01*
X39270650Y-64699600D02*
X38758150Y-64699600D01*
G75*
G02*
X38539400Y-64480850I0J218750D01*
G01*
X38539400Y-64043350D01*
G75*
G02*
X38758150Y-63824600I218750J0D01*
G01*
X39270650Y-63824600D01*
G75*
G02*
X39489400Y-64043350I0J-218750D01*
G01*
X39489400Y-64480850D01*
G75*
G02*
X39270650Y-64699600I-218750J0D01*
G01*
G37*
%TD*%
D12*
%TO.C,U4*%
X54881740Y-59070060D03*
X56781740Y-59070060D03*
X56781740Y-61270060D03*
X55831740Y-61270060D03*
X54881740Y-61270060D03*
%TD*%
%TO.C,R14*%
G36*
G01*
X47941980Y-55285350D02*
X47941980Y-54772850D01*
G75*
G02*
X48160730Y-54554100I218750J0D01*
G01*
X48598230Y-54554100D01*
G75*
G02*
X48816980Y-54772850I0J-218750D01*
G01*
X48816980Y-55285350D01*
G75*
G02*
X48598230Y-55504100I-218750J0D01*
G01*
X48160730Y-55504100D01*
G75*
G02*
X47941980Y-55285350I0J218750D01*
G01*
G37*
G36*
G01*
X46366980Y-55285350D02*
X46366980Y-54772850D01*
G75*
G02*
X46585730Y-54554100I218750J0D01*
G01*
X47023230Y-54554100D01*
G75*
G02*
X47241980Y-54772850I0J-218750D01*
G01*
X47241980Y-55285350D01*
G75*
G02*
X47023230Y-55504100I-218750J0D01*
G01*
X46585730Y-55504100D01*
G75*
G02*
X46366980Y-55285350I0J218750D01*
G01*
G37*
%TD*%
D10*
%TO.C,J9*%
X49659540Y-53835300D03*
%TD*%
%TO.C,J8*%
X57591960Y-66583560D03*
%TD*%
%TO.C,J7*%
X36007040Y-56911240D03*
%TD*%
D13*
%TO.C,U3*%
X34239840Y-60350440D03*
X34239840Y-58450440D03*
X36859840Y-58450440D03*
X36859840Y-59400440D03*
X36859840Y-60350440D03*
%TD*%
%TO.C,R9*%
G36*
G01*
X56538150Y-63829680D02*
X57050650Y-63829680D01*
G75*
G02*
X57269400Y-64048430I0J-218750D01*
G01*
X57269400Y-64485930D01*
G75*
G02*
X57050650Y-64704680I-218750J0D01*
G01*
X56538150Y-64704680D01*
G75*
G02*
X56319400Y-64485930I0J218750D01*
G01*
X56319400Y-64048430D01*
G75*
G02*
X56538150Y-63829680I218750J0D01*
G01*
G37*
G36*
G01*
X56538150Y-62254680D02*
X57050650Y-62254680D01*
G75*
G02*
X57269400Y-62473430I0J-218750D01*
G01*
X57269400Y-62910930D01*
G75*
G02*
X57050650Y-63129680I-218750J0D01*
G01*
X56538150Y-63129680D01*
G75*
G02*
X56319400Y-62910930I0J218750D01*
G01*
X56319400Y-62473430D01*
G75*
G02*
X56538150Y-62254680I218750J0D01*
G01*
G37*
%TD*%
%TO.C,R8*%
G36*
G01*
X55626520Y-57356030D02*
X55626520Y-57868530D01*
G75*
G02*
X55407770Y-58087280I-218750J0D01*
G01*
X54970270Y-58087280D01*
G75*
G02*
X54751520Y-57868530I0J218750D01*
G01*
X54751520Y-57356030D01*
G75*
G02*
X54970270Y-57137280I218750J0D01*
G01*
X55407770Y-57137280D01*
G75*
G02*
X55626520Y-57356030I0J-218750D01*
G01*
G37*
G36*
G01*
X57201520Y-57356030D02*
X57201520Y-57868530D01*
G75*
G02*
X56982770Y-58087280I-218750J0D01*
G01*
X56545270Y-58087280D01*
G75*
G02*
X56326520Y-57868530I0J218750D01*
G01*
X56326520Y-57356030D01*
G75*
G02*
X56545270Y-57137280I218750J0D01*
G01*
X56982770Y-57137280D01*
G75*
G02*
X57201520Y-57356030I0J-218750D01*
G01*
G37*
%TD*%
%TO.C,R7*%
G36*
G01*
X54066150Y-56990500D02*
X53553650Y-56990500D01*
G75*
G02*
X53334900Y-56771750I0J218750D01*
G01*
X53334900Y-56334250D01*
G75*
G02*
X53553650Y-56115500I218750J0D01*
G01*
X54066150Y-56115500D01*
G75*
G02*
X54284900Y-56334250I0J-218750D01*
G01*
X54284900Y-56771750D01*
G75*
G02*
X54066150Y-56990500I-218750J0D01*
G01*
G37*
G36*
G01*
X54066150Y-58565500D02*
X53553650Y-58565500D01*
G75*
G02*
X53334900Y-58346750I0J218750D01*
G01*
X53334900Y-57909250D01*
G75*
G02*
X53553650Y-57690500I218750J0D01*
G01*
X54066150Y-57690500D01*
G75*
G02*
X54284900Y-57909250I0J-218750D01*
G01*
X54284900Y-58346750D01*
G75*
G02*
X54066150Y-58565500I-218750J0D01*
G01*
G37*
%TD*%
%TO.C,R6*%
G36*
G01*
X33172920Y-57203630D02*
X33172920Y-57716130D01*
G75*
G02*
X32954170Y-57934880I-218750J0D01*
G01*
X32516670Y-57934880D01*
G75*
G02*
X32297920Y-57716130I0J218750D01*
G01*
X32297920Y-57203630D01*
G75*
G02*
X32516670Y-56984880I218750J0D01*
G01*
X32954170Y-56984880D01*
G75*
G02*
X33172920Y-57203630I0J-218750D01*
G01*
G37*
G36*
G01*
X34747920Y-57203630D02*
X34747920Y-57716130D01*
G75*
G02*
X34529170Y-57934880I-218750J0D01*
G01*
X34091670Y-57934880D01*
G75*
G02*
X33872920Y-57716130I0J218750D01*
G01*
X33872920Y-57203630D01*
G75*
G02*
X34091670Y-56984880I218750J0D01*
G01*
X34529170Y-56984880D01*
G75*
G02*
X34747920Y-57203630I0J-218750D01*
G01*
G37*
%TD*%
%TO.C,R4*%
G36*
G01*
X35935400Y-55475850D02*
X35935400Y-54963350D01*
G75*
G02*
X36154150Y-54744600I218750J0D01*
G01*
X36591650Y-54744600D01*
G75*
G02*
X36810400Y-54963350I0J-218750D01*
G01*
X36810400Y-55475850D01*
G75*
G02*
X36591650Y-55694600I-218750J0D01*
G01*
X36154150Y-55694600D01*
G75*
G02*
X35935400Y-55475850I0J218750D01*
G01*
G37*
G36*
G01*
X34360400Y-55475850D02*
X34360400Y-54963350D01*
G75*
G02*
X34579150Y-54744600I218750J0D01*
G01*
X35016650Y-54744600D01*
G75*
G02*
X35235400Y-54963350I0J-218750D01*
G01*
X35235400Y-55475850D01*
G75*
G02*
X35016650Y-55694600I-218750J0D01*
G01*
X34579150Y-55694600D01*
G75*
G02*
X34360400Y-55475850I0J218750D01*
G01*
G37*
%TD*%
%TO.C,R2*%
G36*
G01*
X55753520Y-65326550D02*
X55753520Y-65839050D01*
G75*
G02*
X55534770Y-66057800I-218750J0D01*
G01*
X55097270Y-66057800D01*
G75*
G02*
X54878520Y-65839050I0J218750D01*
G01*
X54878520Y-65326550D01*
G75*
G02*
X55097270Y-65107800I218750J0D01*
G01*
X55534770Y-65107800D01*
G75*
G02*
X55753520Y-65326550I0J-218750D01*
G01*
G37*
G36*
G01*
X57328520Y-65326550D02*
X57328520Y-65839050D01*
G75*
G02*
X57109770Y-66057800I-218750J0D01*
G01*
X56672270Y-66057800D01*
G75*
G02*
X56453520Y-65839050I0J218750D01*
G01*
X56453520Y-65326550D01*
G75*
G02*
X56672270Y-65107800I218750J0D01*
G01*
X57109770Y-65107800D01*
G75*
G02*
X57328520Y-65326550I0J-218750D01*
G01*
G37*
%TD*%
%TO.C,R1*%
G36*
G01*
X33320240Y-61394630D02*
X33320240Y-61907130D01*
G75*
G02*
X33101490Y-62125880I-218750J0D01*
G01*
X32663990Y-62125880D01*
G75*
G02*
X32445240Y-61907130I0J218750D01*
G01*
X32445240Y-61394630D01*
G75*
G02*
X32663990Y-61175880I218750J0D01*
G01*
X33101490Y-61175880D01*
G75*
G02*
X33320240Y-61394630I0J-218750D01*
G01*
G37*
G36*
G01*
X34895240Y-61394630D02*
X34895240Y-61907130D01*
G75*
G02*
X34676490Y-62125880I-218750J0D01*
G01*
X34238990Y-62125880D01*
G75*
G02*
X34020240Y-61907130I0J218750D01*
G01*
X34020240Y-61394630D01*
G75*
G02*
X34238990Y-61175880I218750J0D01*
G01*
X34676490Y-61175880D01*
G75*
G02*
X34895240Y-61394630I0J-218750D01*
G01*
G37*
%TD*%
%TO.C,L4*%
G36*
G01*
X40242170Y-58217220D02*
X41154670Y-58217220D01*
G75*
G02*
X41398420Y-58460970I0J-243750D01*
G01*
X41398420Y-58948470D01*
G75*
G02*
X41154670Y-59192220I-243750J0D01*
G01*
X40242170Y-59192220D01*
G75*
G02*
X39998420Y-58948470I0J243750D01*
G01*
X39998420Y-58460970D01*
G75*
G02*
X40242170Y-58217220I243750J0D01*
G01*
G37*
G36*
G01*
X40242170Y-56342220D02*
X41154670Y-56342220D01*
G75*
G02*
X41398420Y-56585970I0J-243750D01*
G01*
X41398420Y-57073470D01*
G75*
G02*
X41154670Y-57317220I-243750J0D01*
G01*
X40242170Y-57317220D01*
G75*
G02*
X39998420Y-57073470I0J243750D01*
G01*
X39998420Y-56585970D01*
G75*
G02*
X40242170Y-56342220I243750J0D01*
G01*
G37*
%TD*%
D10*
%TO.C,J6*%
X51603910Y-53835300D03*
%TD*%
%TO.C,J5*%
X53548280Y-53835300D03*
%TD*%
%TO.C,J4*%
X53558440Y-63566040D03*
%TD*%
%TO.C,J3*%
X53558440Y-65506600D03*
%TD*%
D14*
%TO.C,J1*%
X28526740Y-59867900D03*
X28526740Y-58187900D03*
D15*
X28526740Y-61937900D03*
X28526740Y-56117900D03*
D16*
X30826740Y-61490400D03*
X30826740Y-56565400D03*
D17*
X31186740Y-60327900D03*
X31186740Y-59677900D03*
X31186740Y-59027900D03*
X31186740Y-58377900D03*
X31186740Y-57727900D03*
%TD*%
D18*
%TO.C,D6*%
X43892820Y-56514420D03*
X44692820Y-56514420D03*
X45492820Y-56514420D03*
X46292820Y-56514420D03*
X47092820Y-56514420D03*
X47892820Y-56514420D03*
X48692820Y-56514420D03*
X49492820Y-56514420D03*
D19*
X50942820Y-57964420D03*
X50942820Y-58764420D03*
X50942820Y-59564420D03*
X50942820Y-60364420D03*
X50942820Y-61164420D03*
X50942820Y-61964420D03*
X50942820Y-62764420D03*
X50942820Y-63564420D03*
D18*
X49492820Y-65014420D03*
X48692820Y-65014420D03*
X47892820Y-65014420D03*
X47092820Y-65014420D03*
X46292820Y-65014420D03*
X45492820Y-65014420D03*
X44692820Y-65014420D03*
X43892820Y-65014420D03*
D19*
X42442820Y-63564420D03*
X42442820Y-62764420D03*
X42442820Y-61964420D03*
X42442820Y-61164420D03*
X42442820Y-60364420D03*
X42442820Y-59564420D03*
X42442820Y-58764420D03*
X42442820Y-57964420D03*
%TD*%
%TO.C,C20*%
G36*
G01*
X40438820Y-60365350D02*
X40438820Y-59852850D01*
G75*
G02*
X40657570Y-59634100I218750J0D01*
G01*
X41095070Y-59634100D01*
G75*
G02*
X41313820Y-59852850I0J-218750D01*
G01*
X41313820Y-60365350D01*
G75*
G02*
X41095070Y-60584100I-218750J0D01*
G01*
X40657570Y-60584100D01*
G75*
G02*
X40438820Y-60365350I0J218750D01*
G01*
G37*
G36*
G01*
X38863820Y-60365350D02*
X38863820Y-59852850D01*
G75*
G02*
X39082570Y-59634100I218750J0D01*
G01*
X39520070Y-59634100D01*
G75*
G02*
X39738820Y-59852850I0J-218750D01*
G01*
X39738820Y-60365350D01*
G75*
G02*
X39520070Y-60584100I-218750J0D01*
G01*
X39082570Y-60584100D01*
G75*
G02*
X38863820Y-60365350I0J218750D01*
G01*
G37*
%TD*%
%TO.C,C18*%
G36*
G01*
X41149590Y-62021300D02*
X40237090Y-62021300D01*
G75*
G02*
X39993340Y-61777550I0J243750D01*
G01*
X39993340Y-61290050D01*
G75*
G02*
X40237090Y-61046300I243750J0D01*
G01*
X41149590Y-61046300D01*
G75*
G02*
X41393340Y-61290050I0J-243750D01*
G01*
X41393340Y-61777550D01*
G75*
G02*
X41149590Y-62021300I-243750J0D01*
G01*
G37*
G36*
G01*
X41149590Y-63896300D02*
X40237090Y-63896300D01*
G75*
G02*
X39993340Y-63652550I0J243750D01*
G01*
X39993340Y-63165050D01*
G75*
G02*
X40237090Y-62921300I243750J0D01*
G01*
X41149590Y-62921300D01*
G75*
G02*
X41393340Y-63165050I0J-243750D01*
G01*
X41393340Y-63652550D01*
G75*
G02*
X41149590Y-63896300I-243750J0D01*
G01*
G37*
%TD*%
%TO.C,C12*%
G36*
G01*
X52982810Y-60792780D02*
X53895310Y-60792780D01*
G75*
G02*
X54139060Y-61036530I0J-243750D01*
G01*
X54139060Y-61524030D01*
G75*
G02*
X53895310Y-61767780I-243750J0D01*
G01*
X52982810Y-61767780D01*
G75*
G02*
X52739060Y-61524030I0J243750D01*
G01*
X52739060Y-61036530D01*
G75*
G02*
X52982810Y-60792780I243750J0D01*
G01*
G37*
G36*
G01*
X52982810Y-58917780D02*
X53895310Y-58917780D01*
G75*
G02*
X54139060Y-59161530I0J-243750D01*
G01*
X54139060Y-59649030D01*
G75*
G02*
X53895310Y-59892780I-243750J0D01*
G01*
X52982810Y-59892780D01*
G75*
G02*
X52739060Y-59649030I0J243750D01*
G01*
X52739060Y-59161530D01*
G75*
G02*
X52982810Y-58917780I243750J0D01*
G01*
G37*
%TD*%
M02*
