%TF.GenerationSoftware,KiCad,Pcbnew,5.1.9+dfsg1-1*%
%TF.CreationDate,2022-10-17T14:31:48+03:00*%
%TF.ProjectId,SC-STM32L412K8,53432d53-544d-4333-924c-3431324b382e,rev?*%
%TF.SameCoordinates,Original*%
%TF.FileFunction,Soldermask,Bot*%
%TF.FilePolarity,Negative*%
%FSLAX46Y46*%
G04 Gerber Fmt 4.6, Leading zero omitted, Abs format (unit mm)*
G04 Created by KiCad (PCBNEW 5.1.9+dfsg1-1) date 2022-10-17 14:31:48*
%MOMM*%
%LPD*%
G01*
G04 APERTURE LIST*
%ADD10R,1.524000X2.000000*%
%ADD11R,3.000000X1.000000*%
%ADD12R,1.450000X0.450000*%
%ADD13C,1.524000*%
%ADD14R,0.900000X0.800000*%
%ADD15R,1.060000X0.650000*%
%ADD16R,0.900000X1.200000*%
G04 APERTURE END LIST*
D10*
%TO.C,BZ1*%
X38750000Y-65125000D03*
X34250000Y-65125000D03*
%TD*%
%TO.C,R10*%
G36*
G01*
X40435000Y-60990000D02*
X40435000Y-61360000D01*
G75*
G02*
X40300000Y-61495000I-135000J0D01*
G01*
X40030000Y-61495000D01*
G75*
G02*
X39895000Y-61360000I0J135000D01*
G01*
X39895000Y-60990000D01*
G75*
G02*
X40030000Y-60855000I135000J0D01*
G01*
X40300000Y-60855000D01*
G75*
G02*
X40435000Y-60990000I0J-135000D01*
G01*
G37*
G36*
G01*
X41455000Y-60990000D02*
X41455000Y-61360000D01*
G75*
G02*
X41320000Y-61495000I-135000J0D01*
G01*
X41050000Y-61495000D01*
G75*
G02*
X40915000Y-61360000I0J135000D01*
G01*
X40915000Y-60990000D01*
G75*
G02*
X41050000Y-60855000I135000J0D01*
G01*
X41320000Y-60855000D01*
G75*
G02*
X41455000Y-60990000I0J-135000D01*
G01*
G37*
%TD*%
%TO.C,R3*%
G36*
G01*
X42435000Y-60990000D02*
X42435000Y-61360000D01*
G75*
G02*
X42300000Y-61495000I-135000J0D01*
G01*
X42030000Y-61495000D01*
G75*
G02*
X41895000Y-61360000I0J135000D01*
G01*
X41895000Y-60990000D01*
G75*
G02*
X42030000Y-60855000I135000J0D01*
G01*
X42300000Y-60855000D01*
G75*
G02*
X42435000Y-60990000I0J-135000D01*
G01*
G37*
G36*
G01*
X43455000Y-60990000D02*
X43455000Y-61360000D01*
G75*
G02*
X43320000Y-61495000I-135000J0D01*
G01*
X43050000Y-61495000D01*
G75*
G02*
X42915000Y-61360000I0J135000D01*
G01*
X42915000Y-60990000D01*
G75*
G02*
X43050000Y-60855000I135000J0D01*
G01*
X43320000Y-60855000D01*
G75*
G02*
X43455000Y-60990000I0J-135000D01*
G01*
G37*
%TD*%
%TO.C,R17*%
G36*
G01*
X42435000Y-62065000D02*
X42435000Y-62435000D01*
G75*
G02*
X42300000Y-62570000I-135000J0D01*
G01*
X42030000Y-62570000D01*
G75*
G02*
X41895000Y-62435000I0J135000D01*
G01*
X41895000Y-62065000D01*
G75*
G02*
X42030000Y-61930000I135000J0D01*
G01*
X42300000Y-61930000D01*
G75*
G02*
X42435000Y-62065000I0J-135000D01*
G01*
G37*
G36*
G01*
X43455000Y-62065000D02*
X43455000Y-62435000D01*
G75*
G02*
X43320000Y-62570000I-135000J0D01*
G01*
X43050000Y-62570000D01*
G75*
G02*
X42915000Y-62435000I0J135000D01*
G01*
X42915000Y-62065000D01*
G75*
G02*
X43050000Y-61930000I135000J0D01*
G01*
X43320000Y-61930000D01*
G75*
G02*
X43455000Y-62065000I0J-135000D01*
G01*
G37*
%TD*%
%TO.C,C19*%
G36*
G01*
X54525000Y-63650000D02*
X54025000Y-63650000D01*
G75*
G02*
X53800000Y-63425000I0J225000D01*
G01*
X53800000Y-62975000D01*
G75*
G02*
X54025000Y-62750000I225000J0D01*
G01*
X54525000Y-62750000D01*
G75*
G02*
X54750000Y-62975000I0J-225000D01*
G01*
X54750000Y-63425000D01*
G75*
G02*
X54525000Y-63650000I-225000J0D01*
G01*
G37*
G36*
G01*
X54525000Y-65200000D02*
X54025000Y-65200000D01*
G75*
G02*
X53800000Y-64975000I0J225000D01*
G01*
X53800000Y-64525000D01*
G75*
G02*
X54025000Y-64300000I225000J0D01*
G01*
X54525000Y-64300000D01*
G75*
G02*
X54750000Y-64525000I0J-225000D01*
G01*
X54750000Y-64975000D01*
G75*
G02*
X54525000Y-65200000I-225000J0D01*
G01*
G37*
%TD*%
%TO.C,C3*%
G36*
G01*
X37200000Y-61175000D02*
X37200000Y-61675000D01*
G75*
G02*
X36975000Y-61900000I-225000J0D01*
G01*
X36525000Y-61900000D01*
G75*
G02*
X36300000Y-61675000I0J225000D01*
G01*
X36300000Y-61175000D01*
G75*
G02*
X36525000Y-60950000I225000J0D01*
G01*
X36975000Y-60950000D01*
G75*
G02*
X37200000Y-61175000I0J-225000D01*
G01*
G37*
G36*
G01*
X38750000Y-61175000D02*
X38750000Y-61675000D01*
G75*
G02*
X38525000Y-61900000I-225000J0D01*
G01*
X38075000Y-61900000D01*
G75*
G02*
X37850000Y-61675000I0J225000D01*
G01*
X37850000Y-61175000D01*
G75*
G02*
X38075000Y-60950000I225000J0D01*
G01*
X38525000Y-60950000D01*
G75*
G02*
X38750000Y-61175000I0J-225000D01*
G01*
G37*
%TD*%
%TO.C,C1*%
G36*
G01*
X34800000Y-57025000D02*
X34300000Y-57025000D01*
G75*
G02*
X34075000Y-56800000I0J225000D01*
G01*
X34075000Y-56350000D01*
G75*
G02*
X34300000Y-56125000I225000J0D01*
G01*
X34800000Y-56125000D01*
G75*
G02*
X35025000Y-56350000I0J-225000D01*
G01*
X35025000Y-56800000D01*
G75*
G02*
X34800000Y-57025000I-225000J0D01*
G01*
G37*
G36*
G01*
X34800000Y-58575000D02*
X34300000Y-58575000D01*
G75*
G02*
X34075000Y-58350000I0J225000D01*
G01*
X34075000Y-57900000D01*
G75*
G02*
X34300000Y-57675000I225000J0D01*
G01*
X34800000Y-57675000D01*
G75*
G02*
X35025000Y-57900000I0J-225000D01*
G01*
X35025000Y-58350000D01*
G75*
G02*
X34800000Y-58575000I-225000J0D01*
G01*
G37*
%TD*%
%TO.C,C13*%
G36*
G01*
X34825000Y-60500000D02*
X34325000Y-60500000D01*
G75*
G02*
X34100000Y-60275000I0J225000D01*
G01*
X34100000Y-59825000D01*
G75*
G02*
X34325000Y-59600000I225000J0D01*
G01*
X34825000Y-59600000D01*
G75*
G02*
X35050000Y-59825000I0J-225000D01*
G01*
X35050000Y-60275000D01*
G75*
G02*
X34825000Y-60500000I-225000J0D01*
G01*
G37*
G36*
G01*
X34825000Y-62050000D02*
X34325000Y-62050000D01*
G75*
G02*
X34100000Y-61825000I0J225000D01*
G01*
X34100000Y-61375000D01*
G75*
G02*
X34325000Y-61150000I225000J0D01*
G01*
X34825000Y-61150000D01*
G75*
G02*
X35050000Y-61375000I0J-225000D01*
G01*
X35050000Y-61825000D01*
G75*
G02*
X34825000Y-62050000I-225000J0D01*
G01*
G37*
%TD*%
%TO.C,C2*%
G36*
G01*
X53900000Y-60100000D02*
X54400000Y-60100000D01*
G75*
G02*
X54625000Y-60325000I0J-225000D01*
G01*
X54625000Y-60775000D01*
G75*
G02*
X54400000Y-61000000I-225000J0D01*
G01*
X53900000Y-61000000D01*
G75*
G02*
X53675000Y-60775000I0J225000D01*
G01*
X53675000Y-60325000D01*
G75*
G02*
X53900000Y-60100000I225000J0D01*
G01*
G37*
G36*
G01*
X53900000Y-58550000D02*
X54400000Y-58550000D01*
G75*
G02*
X54625000Y-58775000I0J-225000D01*
G01*
X54625000Y-59225000D01*
G75*
G02*
X54400000Y-59450000I-225000J0D01*
G01*
X53900000Y-59450000D01*
G75*
G02*
X53675000Y-59225000I0J225000D01*
G01*
X53675000Y-58775000D01*
G75*
G02*
X53900000Y-58550000I225000J0D01*
G01*
G37*
%TD*%
%TO.C,C15*%
G36*
G01*
X57000000Y-57150000D02*
X57000000Y-57650000D01*
G75*
G02*
X56775000Y-57875000I-225000J0D01*
G01*
X56325000Y-57875000D01*
G75*
G02*
X56100000Y-57650000I0J225000D01*
G01*
X56100000Y-57150000D01*
G75*
G02*
X56325000Y-56925000I225000J0D01*
G01*
X56775000Y-56925000D01*
G75*
G02*
X57000000Y-57150000I0J-225000D01*
G01*
G37*
G36*
G01*
X58550000Y-57150000D02*
X58550000Y-57650000D01*
G75*
G02*
X58325000Y-57875000I-225000J0D01*
G01*
X57875000Y-57875000D01*
G75*
G02*
X57650000Y-57650000I0J225000D01*
G01*
X57650000Y-57150000D01*
G75*
G02*
X57875000Y-56925000I225000J0D01*
G01*
X58325000Y-56925000D01*
G75*
G02*
X58550000Y-57150000I0J-225000D01*
G01*
G37*
%TD*%
D11*
%TO.C,SW1*%
X31906340Y-61552460D03*
X31906340Y-59052460D03*
X31906340Y-56552460D03*
%TD*%
D12*
%TO.C,D3*%
X46542600Y-60391400D03*
X46542600Y-61041400D03*
X46542600Y-61691400D03*
X46542600Y-62341400D03*
X50942600Y-62341400D03*
X50942600Y-61691400D03*
X50942600Y-61041400D03*
X50942600Y-60391400D03*
%TD*%
%TO.C,C14*%
G36*
G01*
X52165570Y-56735560D02*
X51253070Y-56735560D01*
G75*
G02*
X51009320Y-56491810I0J243750D01*
G01*
X51009320Y-56004310D01*
G75*
G02*
X51253070Y-55760560I243750J0D01*
G01*
X52165570Y-55760560D01*
G75*
G02*
X52409320Y-56004310I0J-243750D01*
G01*
X52409320Y-56491810D01*
G75*
G02*
X52165570Y-56735560I-243750J0D01*
G01*
G37*
G36*
G01*
X52165570Y-58610560D02*
X51253070Y-58610560D01*
G75*
G02*
X51009320Y-58366810I0J243750D01*
G01*
X51009320Y-57879310D01*
G75*
G02*
X51253070Y-57635560I243750J0D01*
G01*
X52165570Y-57635560D01*
G75*
G02*
X52409320Y-57879310I0J-243750D01*
G01*
X52409320Y-58366810D01*
G75*
G02*
X52165570Y-58610560I-243750J0D01*
G01*
G37*
%TD*%
%TO.C,C11*%
G36*
G01*
X50331690Y-56735560D02*
X49419190Y-56735560D01*
G75*
G02*
X49175440Y-56491810I0J243750D01*
G01*
X49175440Y-56004310D01*
G75*
G02*
X49419190Y-55760560I243750J0D01*
G01*
X50331690Y-55760560D01*
G75*
G02*
X50575440Y-56004310I0J-243750D01*
G01*
X50575440Y-56491810D01*
G75*
G02*
X50331690Y-56735560I-243750J0D01*
G01*
G37*
G36*
G01*
X50331690Y-58610560D02*
X49419190Y-58610560D01*
G75*
G02*
X49175440Y-58366810I0J243750D01*
G01*
X49175440Y-57879310D01*
G75*
G02*
X49419190Y-57635560I243750J0D01*
G01*
X50331690Y-57635560D01*
G75*
G02*
X50575440Y-57879310I0J-243750D01*
G01*
X50575440Y-58366810D01*
G75*
G02*
X50331690Y-58610560I-243750J0D01*
G01*
G37*
%TD*%
%TO.C,C8*%
G36*
G01*
X46684250Y-56954000D02*
X45771750Y-56954000D01*
G75*
G02*
X45528000Y-56710250I0J243750D01*
G01*
X45528000Y-56222750D01*
G75*
G02*
X45771750Y-55979000I243750J0D01*
G01*
X46684250Y-55979000D01*
G75*
G02*
X46928000Y-56222750I0J-243750D01*
G01*
X46928000Y-56710250D01*
G75*
G02*
X46684250Y-56954000I-243750J0D01*
G01*
G37*
G36*
G01*
X46684250Y-58829000D02*
X45771750Y-58829000D01*
G75*
G02*
X45528000Y-58585250I0J243750D01*
G01*
X45528000Y-58097750D01*
G75*
G02*
X45771750Y-57854000I243750J0D01*
G01*
X46684250Y-57854000D01*
G75*
G02*
X46928000Y-58097750I0J-243750D01*
G01*
X46928000Y-58585250D01*
G75*
G02*
X46684250Y-58829000I-243750J0D01*
G01*
G37*
%TD*%
%TO.C,C7*%
G36*
G01*
X43172800Y-57250650D02*
X43172800Y-56338150D01*
G75*
G02*
X43416550Y-56094400I243750J0D01*
G01*
X43904050Y-56094400D01*
G75*
G02*
X44147800Y-56338150I0J-243750D01*
G01*
X44147800Y-57250650D01*
G75*
G02*
X43904050Y-57494400I-243750J0D01*
G01*
X43416550Y-57494400D01*
G75*
G02*
X43172800Y-57250650I0J243750D01*
G01*
G37*
G36*
G01*
X41297800Y-57250650D02*
X41297800Y-56338150D01*
G75*
G02*
X41541550Y-56094400I243750J0D01*
G01*
X42029050Y-56094400D01*
G75*
G02*
X42272800Y-56338150I0J-243750D01*
G01*
X42272800Y-57250650D01*
G75*
G02*
X42029050Y-57494400I-243750J0D01*
G01*
X41541550Y-57494400D01*
G75*
G02*
X41297800Y-57250650I0J243750D01*
G01*
G37*
%TD*%
%TO.C,C6*%
G36*
G01*
X48513050Y-56954000D02*
X47600550Y-56954000D01*
G75*
G02*
X47356800Y-56710250I0J243750D01*
G01*
X47356800Y-56222750D01*
G75*
G02*
X47600550Y-55979000I243750J0D01*
G01*
X48513050Y-55979000D01*
G75*
G02*
X48756800Y-56222750I0J-243750D01*
G01*
X48756800Y-56710250D01*
G75*
G02*
X48513050Y-56954000I-243750J0D01*
G01*
G37*
G36*
G01*
X48513050Y-58829000D02*
X47600550Y-58829000D01*
G75*
G02*
X47356800Y-58585250I0J243750D01*
G01*
X47356800Y-58097750D01*
G75*
G02*
X47600550Y-57854000I243750J0D01*
G01*
X48513050Y-57854000D01*
G75*
G02*
X48756800Y-58097750I0J-243750D01*
G01*
X48756800Y-58585250D01*
G75*
G02*
X48513050Y-58829000I-243750J0D01*
G01*
G37*
%TD*%
%TO.C,R19*%
G36*
G01*
X48889400Y-65889850D02*
X48889400Y-65377350D01*
G75*
G02*
X49108150Y-65158600I218750J0D01*
G01*
X49545650Y-65158600D01*
G75*
G02*
X49764400Y-65377350I0J-218750D01*
G01*
X49764400Y-65889850D01*
G75*
G02*
X49545650Y-66108600I-218750J0D01*
G01*
X49108150Y-66108600D01*
G75*
G02*
X48889400Y-65889850I0J218750D01*
G01*
G37*
G36*
G01*
X47314400Y-65889850D02*
X47314400Y-65377350D01*
G75*
G02*
X47533150Y-65158600I218750J0D01*
G01*
X47970650Y-65158600D01*
G75*
G02*
X48189400Y-65377350I0J-218750D01*
G01*
X48189400Y-65889850D01*
G75*
G02*
X47970650Y-66108600I-218750J0D01*
G01*
X47533150Y-66108600D01*
G75*
G02*
X47314400Y-65889850I0J218750D01*
G01*
G37*
%TD*%
D13*
%TO.C,J13*%
X32080200Y-54000400D03*
%TD*%
%TO.C,R15*%
G36*
G01*
X44354000Y-65986950D02*
X44354000Y-66499450D01*
G75*
G02*
X44135250Y-66718200I-218750J0D01*
G01*
X43697750Y-66718200D01*
G75*
G02*
X43479000Y-66499450I0J218750D01*
G01*
X43479000Y-65986950D01*
G75*
G02*
X43697750Y-65768200I218750J0D01*
G01*
X44135250Y-65768200D01*
G75*
G02*
X44354000Y-65986950I0J-218750D01*
G01*
G37*
G36*
G01*
X45929000Y-65986950D02*
X45929000Y-66499450D01*
G75*
G02*
X45710250Y-66718200I-218750J0D01*
G01*
X45272750Y-66718200D01*
G75*
G02*
X45054000Y-66499450I0J218750D01*
G01*
X45054000Y-65986950D01*
G75*
G02*
X45272750Y-65768200I218750J0D01*
G01*
X45710250Y-65768200D01*
G75*
G02*
X45929000Y-65986950I0J-218750D01*
G01*
G37*
%TD*%
D14*
%TO.C,Q2*%
X40550000Y-65650000D03*
X42550000Y-66600000D03*
X42550000Y-64700000D03*
%TD*%
D13*
%TO.C,J11*%
X36625000Y-65325000D03*
%TD*%
D14*
%TO.C,U5*%
X57896000Y-59817000D03*
X55896000Y-58867000D03*
X55896000Y-60767000D03*
%TD*%
D13*
%TO.C,J2*%
X53784500Y-55199280D03*
%TD*%
D15*
%TO.C,U2*%
X37073660Y-58011020D03*
X37073660Y-59911020D03*
X39273660Y-59911020D03*
X39273660Y-58961020D03*
X39273660Y-58011020D03*
%TD*%
%TO.C,R13*%
G36*
G01*
X51008800Y-54871910D02*
X51008800Y-55384410D01*
G75*
G02*
X50790050Y-55603160I-218750J0D01*
G01*
X50352550Y-55603160D01*
G75*
G02*
X50133800Y-55384410I0J218750D01*
G01*
X50133800Y-54871910D01*
G75*
G02*
X50352550Y-54653160I218750J0D01*
G01*
X50790050Y-54653160D01*
G75*
G02*
X51008800Y-54871910I0J-218750D01*
G01*
G37*
G36*
G01*
X52583800Y-54871910D02*
X52583800Y-55384410D01*
G75*
G02*
X52365050Y-55603160I-218750J0D01*
G01*
X51927550Y-55603160D01*
G75*
G02*
X51708800Y-55384410I0J218750D01*
G01*
X51708800Y-54871910D01*
G75*
G02*
X51927550Y-54653160I218750J0D01*
G01*
X52365050Y-54653160D01*
G75*
G02*
X52583800Y-54871910I0J-218750D01*
G01*
G37*
%TD*%
%TO.C,R11*%
G36*
G01*
X48357040Y-54871910D02*
X48357040Y-55384410D01*
G75*
G02*
X48138290Y-55603160I-218750J0D01*
G01*
X47700790Y-55603160D01*
G75*
G02*
X47482040Y-55384410I0J218750D01*
G01*
X47482040Y-54871910D01*
G75*
G02*
X47700790Y-54653160I218750J0D01*
G01*
X48138290Y-54653160D01*
G75*
G02*
X48357040Y-54871910I0J-218750D01*
G01*
G37*
G36*
G01*
X49932040Y-54871910D02*
X49932040Y-55384410D01*
G75*
G02*
X49713290Y-55603160I-218750J0D01*
G01*
X49275790Y-55603160D01*
G75*
G02*
X49057040Y-55384410I0J218750D01*
G01*
X49057040Y-54871910D01*
G75*
G02*
X49275790Y-54653160I218750J0D01*
G01*
X49713290Y-54653160D01*
G75*
G02*
X49932040Y-54871910I0J-218750D01*
G01*
G37*
%TD*%
%TO.C,R5*%
G36*
G01*
X43266650Y-59532000D02*
X43779150Y-59532000D01*
G75*
G02*
X43997900Y-59750750I0J-218750D01*
G01*
X43997900Y-60188250D01*
G75*
G02*
X43779150Y-60407000I-218750J0D01*
G01*
X43266650Y-60407000D01*
G75*
G02*
X43047900Y-60188250I0J218750D01*
G01*
X43047900Y-59750750D01*
G75*
G02*
X43266650Y-59532000I218750J0D01*
G01*
G37*
G36*
G01*
X43266650Y-57957000D02*
X43779150Y-57957000D01*
G75*
G02*
X43997900Y-58175750I0J-218750D01*
G01*
X43997900Y-58613250D01*
G75*
G02*
X43779150Y-58832000I-218750J0D01*
G01*
X43266650Y-58832000D01*
G75*
G02*
X43047900Y-58613250I0J218750D01*
G01*
X43047900Y-58175750D01*
G75*
G02*
X43266650Y-57957000I218750J0D01*
G01*
G37*
%TD*%
%TO.C,L3*%
G36*
G01*
X46302080Y-55523450D02*
X46302080Y-54610950D01*
G75*
G02*
X46545830Y-54367200I243750J0D01*
G01*
X47033330Y-54367200D01*
G75*
G02*
X47277080Y-54610950I0J-243750D01*
G01*
X47277080Y-55523450D01*
G75*
G02*
X47033330Y-55767200I-243750J0D01*
G01*
X46545830Y-55767200D01*
G75*
G02*
X46302080Y-55523450I0J243750D01*
G01*
G37*
G36*
G01*
X44427080Y-55523450D02*
X44427080Y-54610950D01*
G75*
G02*
X44670830Y-54367200I243750J0D01*
G01*
X45158330Y-54367200D01*
G75*
G02*
X45402080Y-54610950I0J-243750D01*
G01*
X45402080Y-55523450D01*
G75*
G02*
X45158330Y-55767200I-243750J0D01*
G01*
X44670830Y-55767200D01*
G75*
G02*
X44427080Y-55523450I0J243750D01*
G01*
G37*
%TD*%
%TO.C,L2*%
G36*
G01*
X38598140Y-56754340D02*
X38598140Y-54604340D01*
G75*
G02*
X38848140Y-54354340I250000J0D01*
G01*
X39598140Y-54354340D01*
G75*
G02*
X39848140Y-54604340I0J-250000D01*
G01*
X39848140Y-56754340D01*
G75*
G02*
X39598140Y-57004340I-250000J0D01*
G01*
X38848140Y-57004340D01*
G75*
G02*
X38598140Y-56754340I0J250000D01*
G01*
G37*
G36*
G01*
X35798140Y-56754340D02*
X35798140Y-54604340D01*
G75*
G02*
X36048140Y-54354340I250000J0D01*
G01*
X36798140Y-54354340D01*
G75*
G02*
X37048140Y-54604340I0J-250000D01*
G01*
X37048140Y-56754340D01*
G75*
G02*
X36798140Y-57004340I-250000J0D01*
G01*
X36048140Y-57004340D01*
G75*
G02*
X35798140Y-56754340I0J250000D01*
G01*
G37*
%TD*%
%TO.C,L1*%
G36*
G01*
X34417420Y-55429470D02*
X34417420Y-54516970D01*
G75*
G02*
X34661170Y-54273220I243750J0D01*
G01*
X35148670Y-54273220D01*
G75*
G02*
X35392420Y-54516970I0J-243750D01*
G01*
X35392420Y-55429470D01*
G75*
G02*
X35148670Y-55673220I-243750J0D01*
G01*
X34661170Y-55673220D01*
G75*
G02*
X34417420Y-55429470I0J243750D01*
G01*
G37*
G36*
G01*
X32542420Y-55429470D02*
X32542420Y-54516970D01*
G75*
G02*
X32786170Y-54273220I243750J0D01*
G01*
X33273670Y-54273220D01*
G75*
G02*
X33517420Y-54516970I0J-243750D01*
G01*
X33517420Y-55429470D01*
G75*
G02*
X33273670Y-55673220I-243750J0D01*
G01*
X32786170Y-55673220D01*
G75*
G02*
X32542420Y-55429470I0J243750D01*
G01*
G37*
%TD*%
D16*
%TO.C,D2*%
X40498760Y-55051960D03*
X43798760Y-55051960D03*
%TD*%
%TO.C,C5*%
G36*
G01*
X41856950Y-59532000D02*
X42369450Y-59532000D01*
G75*
G02*
X42588200Y-59750750I0J-218750D01*
G01*
X42588200Y-60188250D01*
G75*
G02*
X42369450Y-60407000I-218750J0D01*
G01*
X41856950Y-60407000D01*
G75*
G02*
X41638200Y-60188250I0J218750D01*
G01*
X41638200Y-59750750D01*
G75*
G02*
X41856950Y-59532000I218750J0D01*
G01*
G37*
G36*
G01*
X41856950Y-57957000D02*
X42369450Y-57957000D01*
G75*
G02*
X42588200Y-58175750I0J-218750D01*
G01*
X42588200Y-58613250D01*
G75*
G02*
X42369450Y-58832000I-218750J0D01*
G01*
X41856950Y-58832000D01*
G75*
G02*
X41638200Y-58613250I0J218750D01*
G01*
X41638200Y-58175750D01*
G75*
G02*
X41856950Y-57957000I218750J0D01*
G01*
G37*
%TD*%
M02*
